G04 #@! TF.GenerationSoftware,KiCad,Pcbnew,7.0.2*
G04 #@! TF.CreationDate,2023-08-11T04:56:28+05:00*
G04 #@! TF.ProjectId,CO Sesnor Breakout,434f2053-6573-46e6-9f72-20427265616b,rev?*
G04 #@! TF.SameCoordinates,Original*
G04 #@! TF.FileFunction,Legend,Top*
G04 #@! TF.FilePolarity,Positive*
%FSLAX46Y46*%
G04 Gerber Fmt 4.6, Leading zero omitted, Abs format (unit mm)*
G04 Created by KiCad (PCBNEW 7.0.2) date 2023-08-11 04:56:28*
%MOMM*%
%LPD*%
G01*
G04 APERTURE LIST*
%ADD10C,0.125000*%
%ADD11C,0.187500*%
%ADD12C,0.150000*%
%ADD13C,0.120000*%
%ADD14C,0.127000*%
%ADD15C,0.200000*%
G04 APERTURE END LIST*
D10*
X204212857Y-110651309D02*
X203927143Y-110651309D01*
X204070000Y-110651309D02*
X204070000Y-110151309D01*
X204070000Y-110151309D02*
X204022381Y-110222738D01*
X204022381Y-110222738D02*
X203974762Y-110270357D01*
X203974762Y-110270357D02*
X203927143Y-110294166D01*
G36*
X226020120Y-115151485D02*
G01*
X226029586Y-115160950D01*
X226042261Y-115186300D01*
X226042261Y-115228221D01*
X226029585Y-115253572D01*
X226020120Y-115263037D01*
X225994768Y-115275714D01*
X225941331Y-115275714D01*
X225926284Y-115274154D01*
X225923197Y-115275714D01*
X225881547Y-115275714D01*
X225881547Y-115138809D01*
X225994768Y-115138809D01*
X226020120Y-115151485D01*
G37*
G36*
X227171429Y-116010179D02*
G01*
X225441071Y-116010179D01*
X225441071Y-115347484D01*
X225754571Y-115347484D01*
X225756547Y-115351810D01*
X225756547Y-115585296D01*
X225764249Y-115611526D01*
X225791987Y-115635562D01*
X225828317Y-115640785D01*
X225861704Y-115625538D01*
X225881547Y-115594661D01*
X225881547Y-115400714D01*
X225905554Y-115400714D01*
X226058713Y-115619513D01*
X226080064Y-115636585D01*
X226116572Y-115640369D01*
X226149330Y-115623814D01*
X226167938Y-115592177D01*
X226166487Y-115555502D01*
X226049357Y-115388173D01*
X226078082Y-115373811D01*
X226088358Y-115371576D01*
X226100529Y-115359405D01*
X226100559Y-115359377D01*
X226230153Y-115359377D01*
X226232737Y-115369717D01*
X226232738Y-115371010D01*
X226234913Y-115378417D01*
X226255713Y-115461618D01*
X226254938Y-115468798D01*
X226260077Y-115479077D01*
X226260593Y-115481138D01*
X226264080Y-115487083D01*
X226283450Y-115525822D01*
X226285686Y-115536097D01*
X226297854Y-115548265D01*
X226309594Y-115560886D01*
X226310777Y-115561188D01*
X226343900Y-115594311D01*
X226353302Y-115605989D01*
X226365416Y-115610027D01*
X226376629Y-115616150D01*
X226382521Y-115615728D01*
X226434705Y-115633123D01*
X226443552Y-115638809D01*
X226460759Y-115638809D01*
X226477986Y-115639432D01*
X226479037Y-115638809D01*
X226501686Y-115638809D01*
X226511876Y-115641405D01*
X226528204Y-115635962D01*
X226544740Y-115631107D01*
X226545539Y-115630184D01*
X226597525Y-115612856D01*
X226612171Y-115609670D01*
X226621200Y-115600639D01*
X226631690Y-115593350D01*
X226633948Y-115587891D01*
X226655311Y-115566528D01*
X226668412Y-115542534D01*
X226665793Y-115505925D01*
X226643797Y-115476543D01*
X226609407Y-115463716D01*
X226573543Y-115471519D01*
X226547189Y-115497873D01*
X226499381Y-115513809D01*
X226472046Y-115513809D01*
X226424237Y-115497872D01*
X226394222Y-115467857D01*
X226378016Y-115435446D01*
X226357738Y-115354330D01*
X226357738Y-115298288D01*
X226378017Y-115217171D01*
X226394223Y-115184760D01*
X226424237Y-115154745D01*
X226472048Y-115138809D01*
X226499380Y-115138809D01*
X226547191Y-115154746D01*
X226566922Y-115174477D01*
X226590915Y-115187578D01*
X226627525Y-115184961D01*
X226656907Y-115162965D01*
X226669734Y-115128575D01*
X226661932Y-115092711D01*
X226627528Y-115058307D01*
X226618127Y-115046630D01*
X226606008Y-115042590D01*
X226594798Y-115036469D01*
X226588908Y-115036890D01*
X226536720Y-115019493D01*
X226527875Y-115013809D01*
X226510669Y-115013809D01*
X226493442Y-115013186D01*
X226492391Y-115013809D01*
X226469741Y-115013809D01*
X226459550Y-115011213D01*
X226443219Y-115016656D01*
X226426687Y-115021511D01*
X226425887Y-115022433D01*
X226373901Y-115039762D01*
X226359258Y-115042948D01*
X226350226Y-115051979D01*
X226339737Y-115059270D01*
X226337479Y-115064726D01*
X226304205Y-115098001D01*
X226295163Y-115103372D01*
X226287460Y-115118777D01*
X226279207Y-115133892D01*
X226279294Y-115135109D01*
X226268123Y-115157449D01*
X226262864Y-115162395D01*
X226260077Y-115173541D01*
X226259126Y-115175444D01*
X226257904Y-115182234D01*
X226237098Y-115265457D01*
X226232738Y-115272243D01*
X226232737Y-115282899D01*
X226232424Y-115284156D01*
X226232737Y-115291875D01*
X226232738Y-115351735D01*
X226230153Y-115359377D01*
X226100559Y-115359377D01*
X226113148Y-115347667D01*
X226113450Y-115346484D01*
X226119603Y-115340331D01*
X226128647Y-115334960D01*
X226136351Y-115319549D01*
X226144602Y-115304442D01*
X226144514Y-115303223D01*
X226159158Y-115273935D01*
X226167261Y-115261328D01*
X226167261Y-115248555D01*
X226169523Y-115235983D01*
X226167261Y-115230529D01*
X226167261Y-115174913D01*
X226168870Y-115160011D01*
X226163157Y-115148586D01*
X226159559Y-115136330D01*
X226155096Y-115132462D01*
X226140359Y-115102987D01*
X226138123Y-115092710D01*
X226125952Y-115080539D01*
X226114216Y-115067923D01*
X226113032Y-115067620D01*
X226106878Y-115061466D01*
X226101508Y-115052425D01*
X226086112Y-115044726D01*
X226070987Y-115036468D01*
X226069769Y-115036555D01*
X226040484Y-115021912D01*
X226027875Y-115013809D01*
X226015103Y-115013809D01*
X226002531Y-115011547D01*
X225997077Y-115013809D01*
X225823522Y-115013809D01*
X225809777Y-115011833D01*
X225797147Y-115017600D01*
X225783830Y-115021511D01*
X225780716Y-115025104D01*
X225776390Y-115027080D01*
X225768886Y-115038756D01*
X225759794Y-115049249D01*
X225759117Y-115053957D01*
X225756547Y-115057957D01*
X225756547Y-115071834D01*
X225754571Y-115085579D01*
X225756547Y-115089905D01*
X225756547Y-115333739D01*
X225754571Y-115347484D01*
X225441071Y-115347484D01*
X225441071Y-114679821D01*
X227171429Y-114679821D01*
X227171429Y-116010179D01*
G37*
G36*
X226459572Y-112614746D02*
G01*
X226489586Y-112644761D01*
X226505792Y-112677171D01*
X226526071Y-112758287D01*
X226526071Y-112814329D01*
X226505791Y-112895446D01*
X226489585Y-112927857D01*
X226459571Y-112957873D01*
X226411763Y-112973809D01*
X226365357Y-112973809D01*
X226365357Y-112598809D01*
X226411762Y-112598809D01*
X226459572Y-112614746D01*
G37*
G36*
X227155239Y-113470179D02*
G01*
X224901071Y-113470179D01*
X224901071Y-112819377D01*
X225190153Y-112819377D01*
X225192737Y-112829717D01*
X225192738Y-112831010D01*
X225194913Y-112838417D01*
X225215713Y-112921618D01*
X225214938Y-112928798D01*
X225220077Y-112939077D01*
X225220593Y-112941138D01*
X225224080Y-112947083D01*
X225243450Y-112985822D01*
X225245686Y-112996097D01*
X225257854Y-113008265D01*
X225269594Y-113020886D01*
X225270777Y-113021188D01*
X225303900Y-113054311D01*
X225313302Y-113065989D01*
X225325416Y-113070027D01*
X225336629Y-113076150D01*
X225342521Y-113075728D01*
X225394705Y-113093123D01*
X225403552Y-113098809D01*
X225420759Y-113098809D01*
X225437986Y-113099432D01*
X225439037Y-113098809D01*
X225461686Y-113098809D01*
X225471876Y-113101405D01*
X225488204Y-113095962D01*
X225504740Y-113091107D01*
X225505539Y-113090184D01*
X225557525Y-113072856D01*
X225572171Y-113069670D01*
X225581200Y-113060639D01*
X225591690Y-113053350D01*
X225593948Y-113047891D01*
X225600981Y-113040858D01*
X225607418Y-113037919D01*
X225613708Y-113028130D01*
X225615311Y-113026528D01*
X225618546Y-113020602D01*
X225627261Y-113007042D01*
X225627261Y-113004642D01*
X225628412Y-113002534D01*
X225627261Y-112986445D01*
X225627261Y-112826497D01*
X225629237Y-112812753D01*
X225623469Y-112800123D01*
X225619559Y-112786806D01*
X225615965Y-112783692D01*
X225613990Y-112779366D01*
X225602313Y-112771862D01*
X225591821Y-112762770D01*
X225587112Y-112762093D01*
X225583113Y-112759523D01*
X225569236Y-112759523D01*
X225555491Y-112757547D01*
X225551164Y-112759523D01*
X225460536Y-112759523D01*
X225434306Y-112767225D01*
X225410270Y-112794963D01*
X225405047Y-112831293D01*
X225420294Y-112864680D01*
X225451171Y-112884523D01*
X225502261Y-112884523D01*
X225502261Y-112959516D01*
X225459381Y-112973809D01*
X225432046Y-112973809D01*
X225384237Y-112957872D01*
X225354222Y-112927857D01*
X225338016Y-112895446D01*
X225317738Y-112814330D01*
X225317738Y-112758288D01*
X225338017Y-112677171D01*
X225354223Y-112644760D01*
X225384237Y-112614745D01*
X225432048Y-112598809D01*
X225478578Y-112598809D01*
X225521039Y-112620040D01*
X225547944Y-112624881D01*
X225581848Y-112610821D01*
X225602767Y-112580663D01*
X225603800Y-112551384D01*
X225715677Y-112551384D01*
X225716547Y-112552906D01*
X225716547Y-113045296D01*
X225724249Y-113071526D01*
X225751987Y-113095562D01*
X225788317Y-113100785D01*
X225821704Y-113085538D01*
X225841547Y-113054661D01*
X225841547Y-112771657D01*
X226006858Y-113060952D01*
X226009963Y-113071526D01*
X226022607Y-113082483D01*
X226034655Y-113094073D01*
X226036374Y-113094412D01*
X226037701Y-113095562D01*
X226054264Y-113097943D01*
X226070664Y-113101180D01*
X226072294Y-113100535D01*
X226074031Y-113100785D01*
X226089253Y-113093833D01*
X226104798Y-113087690D01*
X226105820Y-113086267D01*
X226107418Y-113085538D01*
X226116463Y-113071462D01*
X226126222Y-113057888D01*
X226126313Y-113056135D01*
X226127261Y-113054661D01*
X226127261Y-113045579D01*
X226238381Y-113045579D01*
X226244148Y-113058208D01*
X226248059Y-113071526D01*
X226251652Y-113074639D01*
X226253628Y-113078966D01*
X226265304Y-113086469D01*
X226275797Y-113095562D01*
X226280505Y-113096238D01*
X226284505Y-113098809D01*
X226298382Y-113098809D01*
X226312127Y-113100785D01*
X226316454Y-113098809D01*
X226414069Y-113098809D01*
X226424259Y-113101405D01*
X226440592Y-113095960D01*
X226457122Y-113091107D01*
X226457921Y-113090184D01*
X226509903Y-113072857D01*
X226524551Y-113069671D01*
X226533582Y-113060639D01*
X226544072Y-113053349D01*
X226546329Y-113047891D01*
X226579603Y-113014616D01*
X226588646Y-113009246D01*
X226596351Y-112993836D01*
X226604602Y-112978725D01*
X226604515Y-112977508D01*
X226615685Y-112955168D01*
X226620945Y-112950223D01*
X226623731Y-112939076D01*
X226624683Y-112937174D01*
X226625904Y-112930383D01*
X226646710Y-112847160D01*
X226651071Y-112840375D01*
X226651071Y-112829718D01*
X226651385Y-112828462D01*
X226651071Y-112820742D01*
X226651071Y-112760882D01*
X226653656Y-112753241D01*
X226651071Y-112742900D01*
X226651071Y-112741608D01*
X226648895Y-112734200D01*
X226628095Y-112651000D01*
X226628871Y-112643820D01*
X226623731Y-112633540D01*
X226623216Y-112631480D01*
X226619728Y-112625534D01*
X226600358Y-112586796D01*
X226598123Y-112576520D01*
X226585945Y-112564343D01*
X226574215Y-112551732D01*
X226573032Y-112551429D01*
X226539909Y-112518307D01*
X226530508Y-112506630D01*
X226518389Y-112502590D01*
X226507179Y-112496469D01*
X226501289Y-112496890D01*
X226449103Y-112479493D01*
X226440257Y-112473809D01*
X226423051Y-112473809D01*
X226405824Y-112473186D01*
X226404773Y-112473809D01*
X226307332Y-112473809D01*
X226293587Y-112471833D01*
X226280957Y-112477600D01*
X226267640Y-112481511D01*
X226264526Y-112485104D01*
X226260200Y-112487080D01*
X226252696Y-112498756D01*
X226243604Y-112509249D01*
X226242927Y-112513957D01*
X226240357Y-112517957D01*
X226240357Y-112531834D01*
X226238381Y-112545579D01*
X226240357Y-112549905D01*
X226240357Y-113031834D01*
X226238381Y-113045579D01*
X226127261Y-113045579D01*
X226127261Y-113037938D01*
X226128131Y-113021234D01*
X226127261Y-113019711D01*
X226127261Y-112527322D01*
X226119559Y-112501092D01*
X226091821Y-112477056D01*
X226055491Y-112471833D01*
X226022104Y-112487080D01*
X226002261Y-112517957D01*
X226002261Y-112800961D01*
X225836950Y-112511667D01*
X225833845Y-112501092D01*
X225821196Y-112490131D01*
X225809152Y-112478545D01*
X225807433Y-112478205D01*
X225806107Y-112477056D01*
X225789552Y-112474675D01*
X225773144Y-112471437D01*
X225771511Y-112472082D01*
X225769777Y-112471833D01*
X225754574Y-112478775D01*
X225739009Y-112484927D01*
X225737984Y-112486351D01*
X225736390Y-112487080D01*
X225727351Y-112501144D01*
X225717586Y-112514730D01*
X225717494Y-112516482D01*
X225716547Y-112517957D01*
X225716547Y-112534679D01*
X225715677Y-112551384D01*
X225603800Y-112551384D01*
X225604061Y-112543982D01*
X225585318Y-112512425D01*
X225524294Y-112481912D01*
X225511685Y-112473809D01*
X225498913Y-112473809D01*
X225486341Y-112471547D01*
X225480887Y-112473809D01*
X225429741Y-112473809D01*
X225419550Y-112471213D01*
X225403219Y-112476656D01*
X225386687Y-112481511D01*
X225385887Y-112482433D01*
X225333901Y-112499762D01*
X225319258Y-112502948D01*
X225310226Y-112511979D01*
X225299737Y-112519270D01*
X225297479Y-112524726D01*
X225264205Y-112558001D01*
X225255163Y-112563372D01*
X225247460Y-112578777D01*
X225239207Y-112593892D01*
X225239294Y-112595109D01*
X225228123Y-112617449D01*
X225222864Y-112622395D01*
X225220077Y-112633541D01*
X225219126Y-112635444D01*
X225217904Y-112642234D01*
X225197098Y-112725457D01*
X225192738Y-112732243D01*
X225192737Y-112742899D01*
X225192424Y-112744156D01*
X225192737Y-112751875D01*
X225192738Y-112811735D01*
X225190153Y-112819377D01*
X224901071Y-112819377D01*
X224901071Y-112139821D01*
X227155239Y-112139821D01*
X227155239Y-113470179D01*
G37*
D11*
G36*
X204864233Y-125113214D02*
G01*
X204730114Y-125113214D01*
X204706431Y-125101372D01*
X204694590Y-125077690D01*
X204694590Y-125050523D01*
X204706430Y-125026841D01*
X204730114Y-125015000D01*
X204864233Y-125015000D01*
X204864233Y-125113214D01*
G37*
G36*
X206009592Y-124819727D02*
G01*
X206023790Y-124833925D01*
X206042804Y-124871951D01*
X206042803Y-125041975D01*
X206023791Y-125080001D01*
X206009590Y-125094201D01*
X205971566Y-125113214D01*
X205873161Y-125113214D01*
X205873161Y-124800714D01*
X205971565Y-124800714D01*
X206009592Y-124819727D01*
G37*
G36*
X206688163Y-124819727D02*
G01*
X206702361Y-124833925D01*
X206721375Y-124871951D01*
X206721375Y-125041975D01*
X206702362Y-125080001D01*
X206688161Y-125094201D01*
X206650137Y-125113214D01*
X206587256Y-125113214D01*
X206549230Y-125094201D01*
X206535029Y-125080000D01*
X206516018Y-125041976D01*
X206516018Y-124871952D01*
X206535031Y-124833925D01*
X206549229Y-124819727D01*
X206587256Y-124800714D01*
X206650136Y-124800714D01*
X206688163Y-124819727D01*
G37*
G36*
X209473877Y-124819727D02*
G01*
X209488075Y-124833925D01*
X209507089Y-124871951D01*
X209507089Y-125041975D01*
X209488076Y-125080001D01*
X209473875Y-125094201D01*
X209435851Y-125113214D01*
X209372970Y-125113214D01*
X209334944Y-125094201D01*
X209320743Y-125080000D01*
X209301732Y-125041976D01*
X209301732Y-124871952D01*
X209320745Y-124833925D01*
X209334943Y-124819727D01*
X209372970Y-124800714D01*
X209435850Y-124800714D01*
X209473877Y-124819727D01*
G37*
G36*
X210831019Y-124819727D02*
G01*
X210845217Y-124833925D01*
X210864231Y-124871952D01*
X210864231Y-125041975D01*
X210845218Y-125080001D01*
X210831017Y-125094201D01*
X210792993Y-125113214D01*
X210730112Y-125113214D01*
X210692086Y-125094201D01*
X210677885Y-125080000D01*
X210658874Y-125041976D01*
X210658874Y-124871952D01*
X210677887Y-124833925D01*
X210692085Y-124819727D01*
X210730112Y-124800714D01*
X210792992Y-124800714D01*
X210831019Y-124819727D01*
G37*
G36*
X212471374Y-125113214D02*
G01*
X212372969Y-125113214D01*
X212334943Y-125094201D01*
X212320742Y-125080000D01*
X212301731Y-125041976D01*
X212301731Y-124871952D01*
X212320744Y-124833925D01*
X212334942Y-124819727D01*
X212372969Y-124800714D01*
X212471374Y-124800714D01*
X212471374Y-125113214D01*
G37*
G36*
X213135948Y-124811477D02*
G01*
X212980302Y-124842607D01*
X212980302Y-124836238D01*
X212992143Y-124812555D01*
X213015826Y-124800714D01*
X213114420Y-124800714D01*
X213135948Y-124811477D01*
G37*
G36*
X215688161Y-124569726D02*
G01*
X215730470Y-124612037D01*
X215757088Y-124718504D01*
X215757088Y-124945423D01*
X215730470Y-125051891D01*
X215688162Y-125094200D01*
X215650135Y-125113214D01*
X215551541Y-125113214D01*
X215513515Y-125094201D01*
X215471204Y-125051891D01*
X215444588Y-124945421D01*
X215444588Y-124718503D01*
X215471204Y-124612036D01*
X215513514Y-124569726D01*
X215551540Y-124550714D01*
X215650135Y-124550714D01*
X215688161Y-124569726D01*
G37*
G36*
X218171663Y-124811477D02*
G01*
X218016017Y-124842607D01*
X218016017Y-124836238D01*
X218027858Y-124812555D01*
X218051541Y-124800714D01*
X218150135Y-124800714D01*
X218171663Y-124811477D01*
G37*
G36*
X220116733Y-124819727D02*
G01*
X220130931Y-124833925D01*
X220149945Y-124871951D01*
X220149945Y-125041975D01*
X220130932Y-125080001D01*
X220116731Y-125094201D01*
X220078707Y-125113214D01*
X220015826Y-125113214D01*
X219977800Y-125094201D01*
X219963599Y-125080000D01*
X219944588Y-125041976D01*
X219944588Y-124871952D01*
X219963601Y-124833925D01*
X219977799Y-124819727D01*
X220015826Y-124800714D01*
X220078706Y-124800714D01*
X220116733Y-124819727D01*
G37*
G36*
X222129410Y-125857768D02*
G01*
X203319590Y-125857768D01*
X203319590Y-124881566D01*
X203753213Y-124881566D01*
X203757090Y-124897074D01*
X203757090Y-124899015D01*
X203760355Y-124910134D01*
X203791552Y-125034927D01*
X203790390Y-125045696D01*
X203798100Y-125061116D01*
X203798873Y-125064208D01*
X203804104Y-125073124D01*
X203833159Y-125131234D01*
X203836512Y-125146647D01*
X203854765Y-125164900D01*
X203872372Y-125183829D01*
X203874148Y-125184283D01*
X203923835Y-125233970D01*
X203937936Y-125251484D01*
X203956111Y-125257542D01*
X203972928Y-125266725D01*
X203981763Y-125266093D01*
X204060041Y-125292185D01*
X204073312Y-125300714D01*
X204099136Y-125300714D01*
X204124962Y-125301648D01*
X204126538Y-125300714D01*
X204160513Y-125300714D01*
X204175799Y-125304608D01*
X204200300Y-125296440D01*
X204225093Y-125289161D01*
X204226292Y-125287777D01*
X204304266Y-125261785D01*
X204326238Y-125257006D01*
X204339785Y-125243458D01*
X204355518Y-125232524D01*
X204358904Y-125224338D01*
X204390949Y-125192293D01*
X204410600Y-125156303D01*
X204406672Y-125101388D01*
X204373678Y-125057315D01*
X204324252Y-125038881D01*
X204503697Y-125038881D01*
X204507090Y-125047061D01*
X204507090Y-125094770D01*
X204504676Y-125117125D01*
X204513245Y-125134263D01*
X204518643Y-125152646D01*
X204525336Y-125158445D01*
X204542020Y-125191814D01*
X204541892Y-125195457D01*
X204554221Y-125216215D01*
X204558730Y-125225233D01*
X204561073Y-125227752D01*
X204570006Y-125242792D01*
X204579458Y-125247518D01*
X204586658Y-125255258D01*
X204603605Y-125259591D01*
X204661541Y-125288558D01*
X204680455Y-125300714D01*
X204699616Y-125300714D01*
X204718472Y-125304107D01*
X204726653Y-125300714D01*
X204881504Y-125300714D01*
X204903858Y-125303128D01*
X204918198Y-125295957D01*
X204971888Y-125303677D01*
X205021968Y-125280807D01*
X205051733Y-125234492D01*
X205051732Y-125183047D01*
X205055630Y-125167807D01*
X205051733Y-125156080D01*
X205051732Y-124897331D01*
X205055630Y-124882091D01*
X205051733Y-124870364D01*
X205051733Y-124860310D01*
X205217982Y-124860310D01*
X205221374Y-124868490D01*
X205221375Y-125220444D01*
X205232928Y-125259789D01*
X205274536Y-125295842D01*
X205329030Y-125303677D01*
X205379110Y-125280807D01*
X205408875Y-125234492D01*
X205408875Y-124871952D01*
X205427888Y-124833925D01*
X205442087Y-124819726D01*
X205480113Y-124800714D01*
X205542891Y-124800714D01*
X205582236Y-124789161D01*
X205618289Y-124747553D01*
X205618495Y-124746121D01*
X205681764Y-124746121D01*
X205685661Y-124757847D01*
X205685661Y-125169604D01*
X205684749Y-125195457D01*
X205685661Y-125196992D01*
X205685661Y-125220444D01*
X205697214Y-125259789D01*
X205738822Y-125295842D01*
X205793316Y-125303677D01*
X205813546Y-125294438D01*
X205823312Y-125300714D01*
X205842473Y-125300714D01*
X205861329Y-125304107D01*
X205869510Y-125300714D01*
X205988649Y-125300714D01*
X206011001Y-125303127D01*
X206028135Y-125294559D01*
X206046522Y-125289161D01*
X206052322Y-125282466D01*
X206096537Y-125260358D01*
X206111951Y-125257006D01*
X206130209Y-125238747D01*
X206149133Y-125221145D01*
X206149586Y-125219370D01*
X206158818Y-125210138D01*
X206172382Y-125202083D01*
X206183937Y-125178971D01*
X206196315Y-125156304D01*
X206196184Y-125154477D01*
X206218148Y-125110549D01*
X206230304Y-125091635D01*
X206230304Y-125072474D01*
X206233697Y-125053618D01*
X206230304Y-125045437D01*
X206230304Y-124860310D01*
X206325125Y-124860310D01*
X206328518Y-124868490D01*
X206328518Y-125059059D01*
X206326105Y-125081411D01*
X206334672Y-125098545D01*
X206340071Y-125116932D01*
X206346765Y-125122732D01*
X206368872Y-125166946D01*
X206372225Y-125182360D01*
X206390488Y-125200623D01*
X206408087Y-125219543D01*
X206409861Y-125219996D01*
X206419091Y-125229226D01*
X206427148Y-125242792D01*
X206450259Y-125254347D01*
X206472926Y-125266725D01*
X206474753Y-125266594D01*
X206518683Y-125288558D01*
X206537597Y-125300714D01*
X206556758Y-125300714D01*
X206575614Y-125304107D01*
X206583795Y-125300714D01*
X206667220Y-125300714D01*
X206689572Y-125303127D01*
X206706706Y-125294559D01*
X206725093Y-125289161D01*
X206730893Y-125282466D01*
X206775108Y-125260358D01*
X206790522Y-125257006D01*
X206808780Y-125238747D01*
X206827704Y-125221145D01*
X206828157Y-125219370D01*
X206837389Y-125210138D01*
X206850953Y-125202083D01*
X206862508Y-125178971D01*
X206874886Y-125156304D01*
X206874755Y-125154477D01*
X206896719Y-125110549D01*
X206908875Y-125091635D01*
X206908875Y-125072474D01*
X206912268Y-125053618D01*
X206908875Y-125045437D01*
X206908875Y-124854871D01*
X206911289Y-124832517D01*
X206902719Y-124815378D01*
X206897322Y-124796996D01*
X206890628Y-124791196D01*
X206873842Y-124757623D01*
X207041078Y-124757623D01*
X207042803Y-124781738D01*
X207042803Y-125220444D01*
X207054356Y-125259789D01*
X207095964Y-125295842D01*
X207150458Y-125303677D01*
X207200538Y-125280807D01*
X207230303Y-125234492D01*
X207230303Y-124818476D01*
X207265827Y-124800714D01*
X207328707Y-124800714D01*
X207352390Y-124812555D01*
X207364231Y-124836238D01*
X207364232Y-125220444D01*
X207375785Y-125259789D01*
X207417393Y-125295842D01*
X207471887Y-125303677D01*
X207521967Y-125280807D01*
X207551732Y-125234492D01*
X207551732Y-124819154D01*
X207554145Y-124796802D01*
X207545577Y-124779666D01*
X207540179Y-124761282D01*
X207533484Y-124755481D01*
X207516800Y-124722113D01*
X207516929Y-124718472D01*
X207504604Y-124697721D01*
X207500091Y-124688694D01*
X207497745Y-124686172D01*
X207488815Y-124671136D01*
X207479361Y-124666409D01*
X207472162Y-124658670D01*
X207455216Y-124654337D01*
X207397281Y-124625369D01*
X207378367Y-124613214D01*
X207359206Y-124613214D01*
X207340350Y-124609821D01*
X207332169Y-124613214D01*
X207248746Y-124613214D01*
X207226392Y-124610800D01*
X207209253Y-124619369D01*
X207190871Y-124624767D01*
X207188290Y-124627745D01*
X207177142Y-124618086D01*
X207122648Y-124610251D01*
X207072568Y-124633121D01*
X207042803Y-124679436D01*
X207042803Y-124754463D01*
X207041078Y-124757623D01*
X206873842Y-124757623D01*
X206868520Y-124746979D01*
X206865167Y-124731565D01*
X206846902Y-124713301D01*
X206829307Y-124694385D01*
X206827531Y-124693931D01*
X206818299Y-124684698D01*
X206810244Y-124671136D01*
X206787133Y-124659581D01*
X206764464Y-124647203D01*
X206762638Y-124647333D01*
X206718710Y-124625369D01*
X206699796Y-124613214D01*
X206680635Y-124613214D01*
X206661779Y-124609821D01*
X206653598Y-124613214D01*
X206570175Y-124613214D01*
X206547821Y-124610800D01*
X206530682Y-124619369D01*
X206512300Y-124624767D01*
X206506500Y-124631460D01*
X206462282Y-124653569D01*
X206446870Y-124656922D01*
X206428611Y-124675180D01*
X206409689Y-124692782D01*
X206409235Y-124694556D01*
X206400004Y-124703787D01*
X206386440Y-124711844D01*
X206374885Y-124734953D01*
X206362507Y-124757623D01*
X206362637Y-124759449D01*
X206340673Y-124803379D01*
X206328518Y-124822293D01*
X206328518Y-124841453D01*
X206325125Y-124860310D01*
X206230304Y-124860310D01*
X206230304Y-124854871D01*
X206232718Y-124832517D01*
X206224148Y-124815378D01*
X206218751Y-124796996D01*
X206212057Y-124791196D01*
X206189949Y-124746979D01*
X206186596Y-124731565D01*
X206168331Y-124713301D01*
X206150736Y-124694385D01*
X206148960Y-124693931D01*
X206139728Y-124684698D01*
X206131673Y-124671136D01*
X206108562Y-124659581D01*
X206085893Y-124647203D01*
X206084067Y-124647333D01*
X206040139Y-124625369D01*
X206021225Y-124613214D01*
X206002064Y-124613214D01*
X205983208Y-124609821D01*
X205975027Y-124613214D01*
X205873161Y-124613214D01*
X205873161Y-124471664D01*
X208289957Y-124471664D01*
X208292803Y-124477762D01*
X208292803Y-125220444D01*
X208304356Y-125259789D01*
X208345964Y-125295842D01*
X208400458Y-125303677D01*
X208450538Y-125280807D01*
X208480303Y-125234492D01*
X208480303Y-124879547D01*
X208551284Y-125031651D01*
X208562187Y-125056053D01*
X208574597Y-125064174D01*
X208584406Y-125075307D01*
X208597160Y-125078938D01*
X208608255Y-125086198D01*
X208623090Y-125086320D01*
X208637357Y-125090382D01*
X208650045Y-125086542D01*
X208663308Y-125086652D01*
X208675856Y-125078732D01*
X208690052Y-125074437D01*
X208698651Y-125064346D01*
X208709866Y-125057269D01*
X208716139Y-125043826D01*
X208725762Y-125032535D01*
X208727541Y-125019393D01*
X208792802Y-124879547D01*
X208792803Y-125220444D01*
X208804356Y-125259789D01*
X208845964Y-125295842D01*
X208900458Y-125303677D01*
X208950538Y-125280807D01*
X208980303Y-125234492D01*
X208980303Y-124860310D01*
X209110839Y-124860310D01*
X209114232Y-124868490D01*
X209114232Y-125059059D01*
X209111819Y-125081411D01*
X209120386Y-125098545D01*
X209125785Y-125116932D01*
X209132479Y-125122732D01*
X209154586Y-125166946D01*
X209157939Y-125182360D01*
X209176202Y-125200623D01*
X209193801Y-125219543D01*
X209195575Y-125219996D01*
X209204805Y-125229226D01*
X209212862Y-125242792D01*
X209235973Y-125254347D01*
X209258640Y-125266725D01*
X209260467Y-125266594D01*
X209304397Y-125288558D01*
X209323311Y-125300714D01*
X209342472Y-125300714D01*
X209361328Y-125304107D01*
X209369509Y-125300714D01*
X209452934Y-125300714D01*
X209475286Y-125303127D01*
X209492420Y-125294559D01*
X209510807Y-125289161D01*
X209516607Y-125282466D01*
X209560822Y-125260358D01*
X209576236Y-125257006D01*
X209594494Y-125238747D01*
X209613418Y-125221145D01*
X209613871Y-125219370D01*
X209623103Y-125210138D01*
X209636667Y-125202083D01*
X209648222Y-125178971D01*
X209660600Y-125156304D01*
X209660469Y-125154477D01*
X209682433Y-125110549D01*
X209694589Y-125091635D01*
X209694589Y-125072474D01*
X209697982Y-125053618D01*
X209694589Y-125045437D01*
X209694589Y-124854871D01*
X209697003Y-124832517D01*
X209688433Y-124815378D01*
X209683036Y-124796996D01*
X209676342Y-124791196D01*
X209659556Y-124757623D01*
X209826792Y-124757623D01*
X209828517Y-124781738D01*
X209828517Y-125220444D01*
X209840070Y-125259789D01*
X209881678Y-125295842D01*
X209936172Y-125303677D01*
X209986252Y-125280807D01*
X210016017Y-125234492D01*
X210016017Y-124818476D01*
X210051541Y-124800714D01*
X210114421Y-124800714D01*
X210138104Y-124812555D01*
X210149946Y-124836238D01*
X210149946Y-125220444D01*
X210161499Y-125259789D01*
X210203107Y-125295842D01*
X210257601Y-125303677D01*
X210307681Y-125280807D01*
X210337446Y-125234492D01*
X210337446Y-124860310D01*
X210467981Y-124860310D01*
X210471374Y-124868490D01*
X210471374Y-125059058D01*
X210468961Y-125081411D01*
X210477528Y-125098545D01*
X210482927Y-125116932D01*
X210489621Y-125122732D01*
X210511728Y-125166946D01*
X210515081Y-125182360D01*
X210533344Y-125200623D01*
X210550943Y-125219543D01*
X210552717Y-125219996D01*
X210561947Y-125229226D01*
X210570004Y-125242792D01*
X210593115Y-125254347D01*
X210615782Y-125266725D01*
X210617609Y-125266594D01*
X210661539Y-125288558D01*
X210680453Y-125300714D01*
X210699614Y-125300714D01*
X210718470Y-125304107D01*
X210726651Y-125300714D01*
X210810076Y-125300714D01*
X210832428Y-125303127D01*
X210849562Y-125294559D01*
X210867949Y-125289161D01*
X210873749Y-125282466D01*
X210917964Y-125260358D01*
X210933378Y-125257006D01*
X210951636Y-125238747D01*
X210970560Y-125221145D01*
X210971013Y-125219370D01*
X210980245Y-125210138D01*
X210993809Y-125202083D01*
X210995991Y-125197718D01*
X211110711Y-125197718D01*
X211121153Y-125251774D01*
X211159162Y-125291602D01*
X211212671Y-125304559D01*
X211264690Y-125286531D01*
X211404409Y-125108706D01*
X211535449Y-125275484D01*
X211568841Y-125299284D01*
X211623833Y-125301927D01*
X211671523Y-125274420D01*
X211696772Y-125225496D01*
X211691563Y-125170689D01*
X211523635Y-124956964D01*
X211682883Y-124754286D01*
X211698107Y-124716210D01*
X211687664Y-124662155D01*
X211649656Y-124622326D01*
X211596147Y-124609369D01*
X211544128Y-124627398D01*
X211404408Y-124805221D01*
X211273369Y-124638444D01*
X211239976Y-124614644D01*
X211184985Y-124612001D01*
X211137295Y-124639508D01*
X211112046Y-124688431D01*
X211117255Y-124743239D01*
X211285182Y-124956963D01*
X211125934Y-125159643D01*
X211110711Y-125197718D01*
X210995991Y-125197718D01*
X211005364Y-125178971D01*
X211017742Y-125156304D01*
X211017611Y-125154477D01*
X211039575Y-125110549D01*
X211051731Y-125091635D01*
X211051731Y-125072474D01*
X211055124Y-125053618D01*
X211051731Y-125045437D01*
X211051731Y-124854871D01*
X211054145Y-124832517D01*
X211045575Y-124815378D01*
X211040178Y-124796996D01*
X211033484Y-124791196D01*
X211011376Y-124746979D01*
X211008023Y-124731565D01*
X210989758Y-124713301D01*
X210972163Y-124694385D01*
X210970387Y-124693931D01*
X210961155Y-124684698D01*
X210953100Y-124671136D01*
X210929989Y-124659581D01*
X210907320Y-124647203D01*
X210905494Y-124647333D01*
X210861566Y-124625369D01*
X210842652Y-124613214D01*
X210823491Y-124613214D01*
X210804635Y-124609821D01*
X210796454Y-124613214D01*
X210713031Y-124613214D01*
X210690677Y-124610800D01*
X210673538Y-124619369D01*
X210655156Y-124624767D01*
X210649356Y-124631460D01*
X210605138Y-124653569D01*
X210589726Y-124656922D01*
X210571467Y-124675180D01*
X210552545Y-124692782D01*
X210552091Y-124694556D01*
X210542860Y-124703787D01*
X210529296Y-124711844D01*
X210517741Y-124734953D01*
X210505363Y-124757623D01*
X210505493Y-124759449D01*
X210483529Y-124803379D01*
X210471374Y-124822293D01*
X210471374Y-124841453D01*
X210467981Y-124860310D01*
X210337446Y-124860310D01*
X210337446Y-124819154D01*
X210339859Y-124796802D01*
X210331291Y-124779666D01*
X210325893Y-124761282D01*
X210319198Y-124755481D01*
X210302514Y-124722113D01*
X210302643Y-124718472D01*
X210290318Y-124697721D01*
X210285805Y-124688694D01*
X210283459Y-124686172D01*
X210274529Y-124671136D01*
X210265075Y-124666409D01*
X210257876Y-124658670D01*
X210240930Y-124654337D01*
X210182995Y-124625369D01*
X210164081Y-124613214D01*
X210144920Y-124613214D01*
X210126064Y-124609821D01*
X210117883Y-124613214D01*
X210034460Y-124613214D01*
X210012106Y-124610800D01*
X209994967Y-124619369D01*
X209976585Y-124624767D01*
X209974004Y-124627745D01*
X209962856Y-124618086D01*
X209908362Y-124610251D01*
X209858282Y-124633121D01*
X209828517Y-124679436D01*
X209828517Y-124754463D01*
X209826792Y-124757623D01*
X209659556Y-124757623D01*
X209654234Y-124746979D01*
X209650881Y-124731565D01*
X209632616Y-124713301D01*
X209615021Y-124694385D01*
X209613245Y-124693931D01*
X209604013Y-124684698D01*
X209595958Y-124671136D01*
X209572847Y-124659581D01*
X209550178Y-124647203D01*
X209548352Y-124647333D01*
X209504424Y-124625369D01*
X209485510Y-124613214D01*
X209466349Y-124613214D01*
X209447493Y-124609821D01*
X209439312Y-124613214D01*
X209355889Y-124613214D01*
X209333535Y-124610800D01*
X209316396Y-124619369D01*
X209298014Y-124624767D01*
X209292214Y-124631460D01*
X209247996Y-124653569D01*
X209232584Y-124656922D01*
X209214325Y-124675180D01*
X209195403Y-124692782D01*
X209194949Y-124694556D01*
X209185718Y-124703787D01*
X209172154Y-124711844D01*
X209160599Y-124734953D01*
X209148221Y-124757623D01*
X209148351Y-124759449D01*
X209126387Y-124803379D01*
X209114232Y-124822293D01*
X209114232Y-124841453D01*
X209110839Y-124860310D01*
X208980303Y-124860310D01*
X208980303Y-124485707D01*
X211753379Y-124485707D01*
X211757805Y-124506054D01*
X211759291Y-124526823D01*
X211763565Y-124532533D01*
X211765082Y-124539504D01*
X211779806Y-124554228D01*
X211792284Y-124570897D01*
X211798967Y-124573389D01*
X211803340Y-124577763D01*
X211804355Y-124581217D01*
X211817542Y-124592643D01*
X211827998Y-124606611D01*
X211837942Y-124610320D01*
X211845963Y-124617270D01*
X211854567Y-124618507D01*
X211822567Y-124633121D01*
X211792802Y-124679436D01*
X211792802Y-125220444D01*
X211804355Y-125259789D01*
X211845963Y-125295842D01*
X211900457Y-125303677D01*
X211950537Y-125280807D01*
X211980302Y-125234492D01*
X211980302Y-124860310D01*
X212110838Y-124860310D01*
X212114231Y-124868490D01*
X212114231Y-125059059D01*
X212111818Y-125081411D01*
X212120385Y-125098545D01*
X212125784Y-125116932D01*
X212132478Y-125122732D01*
X212154585Y-125166946D01*
X212157938Y-125182360D01*
X212176201Y-125200623D01*
X212193800Y-125219543D01*
X212195574Y-125219996D01*
X212204804Y-125229226D01*
X212212861Y-125242792D01*
X212235972Y-125254347D01*
X212258639Y-125266725D01*
X212260466Y-125266594D01*
X212304396Y-125288558D01*
X212323310Y-125300714D01*
X212342471Y-125300714D01*
X212361327Y-125304107D01*
X212369508Y-125300714D01*
X212488645Y-125300714D01*
X212510999Y-125303128D01*
X212525339Y-125295957D01*
X212579029Y-125303677D01*
X212629109Y-125280807D01*
X212658874Y-125234492D01*
X212658874Y-125183047D01*
X212662771Y-125167807D01*
X212658874Y-125156080D01*
X212658874Y-124824596D01*
X212789409Y-124824596D01*
X212792802Y-124832776D01*
X212792802Y-124932196D01*
X212791440Y-124934594D01*
X212792802Y-124959518D01*
X212792802Y-125094770D01*
X212790388Y-125117125D01*
X212798957Y-125134263D01*
X212804355Y-125152646D01*
X212811048Y-125158445D01*
X212827732Y-125191814D01*
X212827604Y-125195457D01*
X212839933Y-125216215D01*
X212844442Y-125225233D01*
X212846785Y-125227752D01*
X212855718Y-125242792D01*
X212865170Y-125247518D01*
X212872370Y-125255258D01*
X212889317Y-125259591D01*
X212947253Y-125288558D01*
X212966167Y-125300714D01*
X212985328Y-125300714D01*
X213004184Y-125304107D01*
X213012365Y-125300714D01*
X213131504Y-125300714D01*
X213153856Y-125303127D01*
X213170990Y-125294559D01*
X213189377Y-125289161D01*
X213195177Y-125282466D01*
X213261963Y-125249074D01*
X213291988Y-125221145D01*
X213305627Y-125167806D01*
X213288264Y-125115562D01*
X213245412Y-125080996D01*
X213190676Y-125075087D01*
X213114421Y-125113214D01*
X213015826Y-125113214D01*
X212992143Y-125101372D01*
X212980302Y-125077689D01*
X212980302Y-125033820D01*
X213229052Y-124984070D01*
X214039224Y-124984070D01*
X214042802Y-125001960D01*
X214042802Y-125006158D01*
X214045434Y-125015123D01*
X214076159Y-125168748D01*
X214074622Y-125174782D01*
X214081480Y-125195357D01*
X214082980Y-125202854D01*
X214085723Y-125208084D01*
X214112578Y-125288647D01*
X214111817Y-125295696D01*
X214121149Y-125314361D01*
X214123305Y-125320827D01*
X214127145Y-125326353D01*
X214150315Y-125372692D01*
X214150420Y-125378919D01*
X214162454Y-125396970D01*
X214165871Y-125403804D01*
X214169891Y-125408126D01*
X214227283Y-125494215D01*
X214229367Y-125503791D01*
X214242268Y-125516691D01*
X214244595Y-125520182D01*
X214251756Y-125526180D01*
X214294080Y-125568502D01*
X214330070Y-125588153D01*
X214384985Y-125584225D01*
X214429058Y-125551231D01*
X214448297Y-125499647D01*
X214436594Y-125445851D01*
X214387977Y-125397235D01*
X214324937Y-125302674D01*
X214294813Y-125242425D01*
X214263050Y-125147141D01*
X214230302Y-124983394D01*
X214230302Y-124881566D01*
X214503211Y-124881566D01*
X214507088Y-124897074D01*
X214507088Y-124899015D01*
X214510353Y-124910134D01*
X214541550Y-125034927D01*
X214540388Y-125045696D01*
X214548098Y-125061116D01*
X214548871Y-125064208D01*
X214554102Y-125073124D01*
X214583157Y-125131234D01*
X214586510Y-125146647D01*
X214604763Y-125164900D01*
X214622370Y-125183829D01*
X214624146Y-125184283D01*
X214673833Y-125233970D01*
X214687934Y-125251484D01*
X214706109Y-125257542D01*
X214722926Y-125266725D01*
X214731761Y-125266093D01*
X214810039Y-125292185D01*
X214823310Y-125300714D01*
X214849134Y-125300714D01*
X214874960Y-125301648D01*
X214876536Y-125300714D01*
X214910511Y-125300714D01*
X214925797Y-125304608D01*
X214950298Y-125296440D01*
X214975091Y-125289161D01*
X214976290Y-125287777D01*
X215054264Y-125261785D01*
X215076236Y-125257006D01*
X215089783Y-125243458D01*
X215105516Y-125232524D01*
X215108902Y-125224338D01*
X215140947Y-125192293D01*
X215160598Y-125156303D01*
X215156670Y-125101388D01*
X215123676Y-125057315D01*
X215072092Y-125038076D01*
X215018296Y-125049779D01*
X214978765Y-125089310D01*
X214907054Y-125113214D01*
X214866052Y-125113214D01*
X214794336Y-125089309D01*
X214749315Y-125044288D01*
X214725006Y-124995670D01*
X214714338Y-124952995D01*
X215253211Y-124952995D01*
X215257088Y-124968503D01*
X215257088Y-124970444D01*
X215260353Y-124981563D01*
X215295250Y-125121152D01*
X215300796Y-125146647D01*
X215311767Y-125157618D01*
X215319621Y-125171005D01*
X215330837Y-125176688D01*
X215383377Y-125229228D01*
X215391433Y-125242792D01*
X215414544Y-125254347D01*
X215437212Y-125266725D01*
X215439038Y-125266594D01*
X215482966Y-125288558D01*
X215501881Y-125300714D01*
X215521042Y-125300714D01*
X215539898Y-125304107D01*
X215548079Y-125300714D01*
X215667216Y-125300714D01*
X215689570Y-125303128D01*
X215706708Y-125294558D01*
X215725091Y-125289161D01*
X215730890Y-125282467D01*
X215775107Y-125260359D01*
X215790522Y-125257006D01*
X215808783Y-125238744D01*
X215827703Y-125221146D01*
X215828157Y-125219370D01*
X215880383Y-125167142D01*
X215899397Y-125149265D01*
X215903160Y-125134210D01*
X215910598Y-125120590D01*
X215909701Y-125108049D01*
X215938046Y-124994671D01*
X215944588Y-124984492D01*
X215944587Y-124968503D01*
X215945058Y-124966624D01*
X215944588Y-124955058D01*
X215944588Y-124722392D01*
X215948465Y-124710932D01*
X215944587Y-124695424D01*
X215944588Y-124693484D01*
X215941323Y-124682365D01*
X215906428Y-124542788D01*
X215900880Y-124517281D01*
X215889906Y-124506307D01*
X215882054Y-124492923D01*
X215870839Y-124487240D01*
X215818298Y-124434698D01*
X215810243Y-124421136D01*
X215787145Y-124409587D01*
X215764465Y-124397203D01*
X215762637Y-124397333D01*
X215718707Y-124375369D01*
X215699794Y-124363214D01*
X215680633Y-124363214D01*
X215661777Y-124359821D01*
X215653596Y-124363214D01*
X215534457Y-124363214D01*
X215512105Y-124360801D01*
X215494970Y-124369368D01*
X215476584Y-124374767D01*
X215470783Y-124381461D01*
X215426570Y-124403567D01*
X215411155Y-124406921D01*
X215392884Y-124425191D01*
X215373973Y-124442783D01*
X215373519Y-124444556D01*
X215321292Y-124496784D01*
X215302278Y-124514663D01*
X215298514Y-124529717D01*
X215291077Y-124543338D01*
X215291974Y-124555878D01*
X215263629Y-124669256D01*
X215257088Y-124679436D01*
X215257088Y-124695423D01*
X215256618Y-124697304D01*
X215257088Y-124708869D01*
X215257088Y-124941534D01*
X215253211Y-124952995D01*
X214714338Y-124952995D01*
X214694588Y-124873992D01*
X214694588Y-124789931D01*
X214725006Y-124668258D01*
X214749315Y-124619639D01*
X214794336Y-124574618D01*
X214866051Y-124550714D01*
X214907053Y-124550714D01*
X214978766Y-124574618D01*
X215008363Y-124604215D01*
X215044354Y-124623867D01*
X215099268Y-124619939D01*
X215143342Y-124586946D01*
X215162582Y-124535363D01*
X215150879Y-124481566D01*
X215099273Y-124429960D01*
X215085171Y-124412444D01*
X215066993Y-124406384D01*
X215050178Y-124397203D01*
X215041343Y-124397834D01*
X214963063Y-124371741D01*
X214949794Y-124363214D01*
X214923971Y-124363214D01*
X214898145Y-124362280D01*
X214896569Y-124363214D01*
X214862593Y-124363214D01*
X214847308Y-124359320D01*
X214822814Y-124367484D01*
X214798013Y-124374767D01*
X214796813Y-124376151D01*
X214718844Y-124402140D01*
X214696869Y-124406921D01*
X214683318Y-124420471D01*
X214667588Y-124431404D01*
X214664202Y-124439587D01*
X214614287Y-124489503D01*
X214600724Y-124497559D01*
X214589168Y-124520670D01*
X214576791Y-124543338D01*
X214576921Y-124545164D01*
X214560167Y-124578672D01*
X214552278Y-124586091D01*
X214548097Y-124602812D01*
X214546671Y-124605666D01*
X214544839Y-124615847D01*
X214513629Y-124740684D01*
X214507088Y-124750864D01*
X214507088Y-124766851D01*
X214506618Y-124768732D01*
X214507088Y-124780297D01*
X214507088Y-124870105D01*
X214503211Y-124881566D01*
X214230302Y-124881566D01*
X214230302Y-124859104D01*
X214263050Y-124695361D01*
X214294813Y-124600073D01*
X214324937Y-124539824D01*
X214387978Y-124445261D01*
X214426660Y-124406581D01*
X214446313Y-124370591D01*
X214444329Y-124342852D01*
X216003378Y-124342852D01*
X216015081Y-124396648D01*
X216063695Y-124445261D01*
X216126738Y-124539825D01*
X216156862Y-124600074D01*
X216188624Y-124695358D01*
X216221373Y-124859104D01*
X216221373Y-124983394D01*
X216188624Y-125147138D01*
X216156861Y-125242427D01*
X216126738Y-125302673D01*
X216063697Y-125397236D01*
X216025015Y-125435917D01*
X216005362Y-125471908D01*
X216009290Y-125526822D01*
X216042282Y-125570896D01*
X216093865Y-125590137D01*
X216147662Y-125578435D01*
X216190304Y-125535793D01*
X216199287Y-125531872D01*
X216209408Y-125516689D01*
X216212374Y-125513724D01*
X216216850Y-125505527D01*
X216274169Y-125419547D01*
X216279521Y-125416369D01*
X216289220Y-125396969D01*
X216293462Y-125390608D01*
X216295220Y-125384970D01*
X216318406Y-125338599D01*
X216323929Y-125334154D01*
X216330527Y-125314359D01*
X216333576Y-125308262D01*
X216334768Y-125301636D01*
X216361612Y-125221104D01*
X216365940Y-125216629D01*
X216370193Y-125195359D01*
X216372611Y-125188108D01*
X216372824Y-125182206D01*
X216403575Y-125028449D01*
X216408873Y-125020206D01*
X216408873Y-125001961D01*
X216409696Y-124997846D01*
X216408873Y-124988541D01*
X216408873Y-124867549D01*
X216412451Y-124858428D01*
X216408873Y-124840537D01*
X216408873Y-124836341D01*
X216406240Y-124827376D01*
X216375516Y-124673752D01*
X216377053Y-124667720D01*
X216370194Y-124647145D01*
X216368695Y-124639646D01*
X216365950Y-124634413D01*
X216357916Y-124610310D01*
X217110838Y-124610310D01*
X217114231Y-124618490D01*
X217114231Y-124666202D01*
X217111818Y-124688554D01*
X217120385Y-124705688D01*
X217125784Y-124724075D01*
X217132478Y-124729875D01*
X217154586Y-124774090D01*
X217157939Y-124789504D01*
X217176201Y-124807766D01*
X217193800Y-124826686D01*
X217195574Y-124827139D01*
X217204807Y-124836372D01*
X217212861Y-124849933D01*
X217235952Y-124861479D01*
X217258640Y-124873867D01*
X217260466Y-124873736D01*
X217293975Y-124890491D01*
X217301394Y-124898381D01*
X217318114Y-124902560D01*
X217320968Y-124903988D01*
X217331152Y-124905820D01*
X217460972Y-124938275D01*
X217509590Y-124962584D01*
X217523789Y-124976783D01*
X217542801Y-125014808D01*
X217542801Y-125041975D01*
X217523788Y-125080002D01*
X217509590Y-125094200D01*
X217471564Y-125113214D01*
X217330338Y-125113214D01*
X217224839Y-125078048D01*
X217183860Y-125076566D01*
X217136499Y-125104638D01*
X217111834Y-125153858D01*
X217117694Y-125208601D01*
X217152220Y-125251484D01*
X217274325Y-125292185D01*
X217287596Y-125300714D01*
X217313420Y-125300714D01*
X217339246Y-125301648D01*
X217340822Y-125300714D01*
X217488645Y-125300714D01*
X217510999Y-125303128D01*
X217528137Y-125294558D01*
X217546520Y-125289161D01*
X217552319Y-125282467D01*
X217596536Y-125260359D01*
X217611951Y-125257006D01*
X217630209Y-125238746D01*
X217649132Y-125221146D01*
X217649586Y-125219369D01*
X217658817Y-125210138D01*
X217672380Y-125202083D01*
X217683934Y-125178972D01*
X217696313Y-125156303D01*
X217696182Y-125154477D01*
X217718146Y-125110549D01*
X217730302Y-125091635D01*
X217730302Y-125072474D01*
X217733695Y-125053618D01*
X217730302Y-125045437D01*
X217730301Y-124997726D01*
X217732715Y-124975374D01*
X217724147Y-124958239D01*
X217718749Y-124939853D01*
X217712054Y-124934052D01*
X217689947Y-124889838D01*
X217686595Y-124874425D01*
X217668327Y-124856157D01*
X217650733Y-124837242D01*
X217648959Y-124836788D01*
X217639727Y-124827556D01*
X217637969Y-124824596D01*
X217825124Y-124824596D01*
X217828517Y-124832776D01*
X217828517Y-124932196D01*
X217827155Y-124934594D01*
X217828517Y-124959518D01*
X217828517Y-125094770D01*
X217826103Y-125117125D01*
X217834672Y-125134263D01*
X217840070Y-125152646D01*
X217846763Y-125158445D01*
X217863447Y-125191814D01*
X217863319Y-125195457D01*
X217875648Y-125216215D01*
X217880157Y-125225233D01*
X217882500Y-125227752D01*
X217891433Y-125242792D01*
X217900885Y-125247518D01*
X217908085Y-125255258D01*
X217925032Y-125259591D01*
X217982968Y-125288558D01*
X218001882Y-125300714D01*
X218021043Y-125300714D01*
X218039899Y-125304107D01*
X218048080Y-125300714D01*
X218167219Y-125300714D01*
X218189571Y-125303127D01*
X218206705Y-125294559D01*
X218225092Y-125289161D01*
X218230892Y-125282466D01*
X218297678Y-125249074D01*
X218327703Y-125221145D01*
X218341342Y-125167806D01*
X218323979Y-125115562D01*
X218281127Y-125080996D01*
X218226391Y-125075087D01*
X218150136Y-125113214D01*
X218051541Y-125113214D01*
X218027858Y-125101372D01*
X218016017Y-125077689D01*
X218016017Y-125033820D01*
X218282007Y-124980622D01*
X218293315Y-124982248D01*
X218308459Y-124975331D01*
X218311014Y-124974821D01*
X218320689Y-124969746D01*
X218343395Y-124959378D01*
X218344886Y-124957057D01*
X218347330Y-124955776D01*
X218359659Y-124934069D01*
X218373160Y-124913063D01*
X218373160Y-124910302D01*
X218374522Y-124907905D01*
X218373160Y-124882980D01*
X218373160Y-124819154D01*
X218375573Y-124796802D01*
X218367005Y-124779666D01*
X218361607Y-124761282D01*
X218357384Y-124757623D01*
X218505363Y-124757623D01*
X218507088Y-124781738D01*
X218507088Y-125220444D01*
X218518641Y-125259789D01*
X218560249Y-125295842D01*
X218614743Y-125303677D01*
X218664823Y-125280807D01*
X218694588Y-125234492D01*
X218694588Y-124818476D01*
X218730112Y-124800714D01*
X218792992Y-124800714D01*
X218816675Y-124812555D01*
X218828517Y-124836238D01*
X218828517Y-125220444D01*
X218840070Y-125259789D01*
X218881678Y-125295842D01*
X218936172Y-125303677D01*
X218986252Y-125280807D01*
X219016017Y-125234492D01*
X219016017Y-124824596D01*
X219146552Y-124824596D01*
X219149945Y-124832776D01*
X219149945Y-124844770D01*
X219147531Y-124867125D01*
X219156100Y-124884263D01*
X219161498Y-124902646D01*
X219168191Y-124908445D01*
X219184875Y-124941814D01*
X219184747Y-124945457D01*
X219197076Y-124966215D01*
X219201585Y-124975233D01*
X219203928Y-124977752D01*
X219212861Y-124992792D01*
X219222313Y-124997518D01*
X219229513Y-125005258D01*
X219246460Y-125009591D01*
X219304396Y-125038558D01*
X219323310Y-125050714D01*
X219342471Y-125050714D01*
X219361327Y-125054107D01*
X219369508Y-125050714D01*
X219435849Y-125050714D01*
X219459531Y-125062555D01*
X219469235Y-125081963D01*
X219459531Y-125101372D01*
X219435849Y-125113214D01*
X219337255Y-125113214D01*
X219273564Y-125081369D01*
X219233206Y-125074107D01*
X219182352Y-125095199D01*
X219150974Y-125140436D01*
X219149033Y-125195456D01*
X219177147Y-125242792D01*
X219268680Y-125288558D01*
X219287595Y-125300714D01*
X219306756Y-125300714D01*
X219325612Y-125304107D01*
X219333793Y-125300714D01*
X219452930Y-125300714D01*
X219475284Y-125303128D01*
X219492422Y-125294558D01*
X219510805Y-125289161D01*
X219516604Y-125282467D01*
X219549973Y-125265783D01*
X219553616Y-125265912D01*
X219574374Y-125253582D01*
X219583392Y-125249074D01*
X219585911Y-125246730D01*
X219600951Y-125237798D01*
X219605677Y-125228345D01*
X219613417Y-125221146D01*
X219617750Y-125204198D01*
X219646717Y-125146262D01*
X219658873Y-125127349D01*
X219658873Y-125108188D01*
X219662266Y-125089332D01*
X219658873Y-125081151D01*
X219658873Y-125069157D01*
X219661287Y-125046803D01*
X219652717Y-125029664D01*
X219647320Y-125011282D01*
X219640626Y-125005482D01*
X219623942Y-124972114D01*
X219624071Y-124968471D01*
X219611741Y-124947712D01*
X219607233Y-124938695D01*
X219604889Y-124936175D01*
X219595957Y-124921136D01*
X219586502Y-124916408D01*
X219579305Y-124908671D01*
X219562359Y-124904337D01*
X219504421Y-124875369D01*
X219485508Y-124863214D01*
X219466347Y-124863214D01*
X219450209Y-124860310D01*
X219753695Y-124860310D01*
X219757088Y-124868490D01*
X219757088Y-125059058D01*
X219754675Y-125081411D01*
X219763242Y-125098545D01*
X219768641Y-125116932D01*
X219775335Y-125122732D01*
X219797442Y-125166946D01*
X219800795Y-125182360D01*
X219819058Y-125200623D01*
X219836657Y-125219543D01*
X219838431Y-125219996D01*
X219847661Y-125229226D01*
X219855718Y-125242792D01*
X219878829Y-125254347D01*
X219901496Y-125266725D01*
X219903323Y-125266594D01*
X219947253Y-125288558D01*
X219966167Y-125300714D01*
X219985328Y-125300714D01*
X220004184Y-125304107D01*
X220012365Y-125300714D01*
X220095790Y-125300714D01*
X220118142Y-125303127D01*
X220135276Y-125294559D01*
X220153663Y-125289161D01*
X220159463Y-125282466D01*
X220203678Y-125260358D01*
X220219092Y-125257006D01*
X220237350Y-125238747D01*
X220256274Y-125221145D01*
X220256727Y-125219370D01*
X220265959Y-125210138D01*
X220279523Y-125202083D01*
X220291078Y-125178971D01*
X220303456Y-125156304D01*
X220303325Y-125154477D01*
X220325289Y-125110549D01*
X220337445Y-125091635D01*
X220337445Y-125072474D01*
X220340838Y-125053618D01*
X220337445Y-125045437D01*
X220337444Y-124860310D01*
X220467980Y-124860310D01*
X220471373Y-124868490D01*
X220471373Y-125220444D01*
X220482926Y-125259789D01*
X220524534Y-125295842D01*
X220579028Y-125303677D01*
X220629108Y-125280807D01*
X220658873Y-125234492D01*
X220658873Y-124871952D01*
X220677886Y-124833925D01*
X220692085Y-124819726D01*
X220730111Y-124800714D01*
X220792889Y-124800714D01*
X220832234Y-124789161D01*
X220868287Y-124747553D01*
X220876122Y-124693059D01*
X220853252Y-124642979D01*
X220806937Y-124613214D01*
X220713028Y-124613214D01*
X220690676Y-124610801D01*
X220673541Y-124619368D01*
X220655155Y-124624767D01*
X220649354Y-124631461D01*
X220631468Y-124640404D01*
X220605712Y-124618086D01*
X220551218Y-124610251D01*
X220501138Y-124633121D01*
X220471373Y-124679436D01*
X220471373Y-124841453D01*
X220467980Y-124860310D01*
X220337444Y-124860310D01*
X220337444Y-124854871D01*
X220339859Y-124832517D01*
X220331289Y-124815378D01*
X220325892Y-124796996D01*
X220319198Y-124791196D01*
X220297090Y-124746979D01*
X220293737Y-124731565D01*
X220275472Y-124713301D01*
X220257877Y-124694385D01*
X220256101Y-124693931D01*
X220246869Y-124684698D01*
X220238814Y-124671136D01*
X220215703Y-124659581D01*
X220193034Y-124647203D01*
X220191208Y-124647333D01*
X220147280Y-124625369D01*
X220128366Y-124613214D01*
X220109205Y-124613214D01*
X220090349Y-124609821D01*
X220082168Y-124613214D01*
X219998745Y-124613214D01*
X219976391Y-124610800D01*
X219959252Y-124619369D01*
X219940870Y-124624767D01*
X219935070Y-124631460D01*
X219890852Y-124653569D01*
X219875440Y-124656922D01*
X219857181Y-124675180D01*
X219838259Y-124692782D01*
X219837805Y-124694556D01*
X219828574Y-124703787D01*
X219815010Y-124711844D01*
X219803455Y-124734953D01*
X219791077Y-124757623D01*
X219791207Y-124759449D01*
X219769243Y-124803379D01*
X219757088Y-124822293D01*
X219757088Y-124841453D01*
X219753695Y-124860310D01*
X219450209Y-124860310D01*
X219447491Y-124859821D01*
X219439310Y-124863214D01*
X219372969Y-124863214D01*
X219349286Y-124851372D01*
X219339582Y-124831964D01*
X219349286Y-124812555D01*
X219372969Y-124800714D01*
X219435849Y-124800714D01*
X219499540Y-124832559D01*
X219539898Y-124839821D01*
X219590753Y-124818729D01*
X219622131Y-124773492D01*
X219624071Y-124718471D01*
X219595957Y-124671136D01*
X219504421Y-124625369D01*
X219485508Y-124613214D01*
X219466347Y-124613214D01*
X219447491Y-124609821D01*
X219439310Y-124613214D01*
X219355888Y-124613214D01*
X219333534Y-124610800D01*
X219316395Y-124619369D01*
X219298013Y-124624767D01*
X219292213Y-124631460D01*
X219258845Y-124648144D01*
X219255202Y-124648016D01*
X219234443Y-124660345D01*
X219225426Y-124664854D01*
X219222906Y-124667197D01*
X219207867Y-124676130D01*
X219203139Y-124685584D01*
X219195402Y-124692782D01*
X219191068Y-124709727D01*
X219162100Y-124767665D01*
X219149945Y-124786579D01*
X219149945Y-124805739D01*
X219146552Y-124824596D01*
X219016017Y-124824596D01*
X219016017Y-124819154D01*
X219018430Y-124796802D01*
X219009862Y-124779666D01*
X219004464Y-124761282D01*
X218997769Y-124755481D01*
X218981085Y-124722113D01*
X218981214Y-124718472D01*
X218968889Y-124697721D01*
X218964376Y-124688694D01*
X218962030Y-124686172D01*
X218953100Y-124671136D01*
X218943646Y-124666409D01*
X218936447Y-124658670D01*
X218919501Y-124654337D01*
X218861566Y-124625369D01*
X218842652Y-124613214D01*
X218823491Y-124613214D01*
X218804635Y-124609821D01*
X218796454Y-124613214D01*
X218713031Y-124613214D01*
X218690677Y-124610800D01*
X218673538Y-124619369D01*
X218655156Y-124624767D01*
X218652575Y-124627745D01*
X218641427Y-124618086D01*
X218586933Y-124610251D01*
X218536853Y-124633121D01*
X218507088Y-124679436D01*
X218507088Y-124754463D01*
X218505363Y-124757623D01*
X218357384Y-124757623D01*
X218354912Y-124755481D01*
X218338228Y-124722113D01*
X218338357Y-124718472D01*
X218326032Y-124697721D01*
X218321519Y-124688694D01*
X218319173Y-124686172D01*
X218310243Y-124671136D01*
X218300789Y-124666409D01*
X218293590Y-124658670D01*
X218276644Y-124654337D01*
X218218709Y-124625369D01*
X218199795Y-124613214D01*
X218180634Y-124613214D01*
X218161778Y-124609821D01*
X218153597Y-124613214D01*
X218034460Y-124613214D01*
X218012106Y-124610800D01*
X217994967Y-124619369D01*
X217976585Y-124624767D01*
X217970785Y-124631460D01*
X217937417Y-124648144D01*
X217933774Y-124648016D01*
X217913015Y-124660345D01*
X217903998Y-124664854D01*
X217901478Y-124667197D01*
X217886439Y-124676130D01*
X217881711Y-124685584D01*
X217873974Y-124692782D01*
X217869640Y-124709727D01*
X217840672Y-124767665D01*
X217828517Y-124786579D01*
X217828517Y-124805739D01*
X217825124Y-124824596D01*
X217637969Y-124824596D01*
X217631672Y-124813993D01*
X217608568Y-124802441D01*
X217585894Y-124790060D01*
X217584066Y-124790190D01*
X217550556Y-124773436D01*
X217543139Y-124765547D01*
X217526417Y-124761366D01*
X217523564Y-124759940D01*
X217513382Y-124758108D01*
X217383559Y-124725652D01*
X217334941Y-124701342D01*
X217320743Y-124687144D01*
X217301731Y-124649119D01*
X217301731Y-124621952D01*
X217320744Y-124583925D01*
X217334942Y-124569727D01*
X217372969Y-124550714D01*
X217514196Y-124550714D01*
X217619695Y-124585880D01*
X217660674Y-124587362D01*
X217708034Y-124559290D01*
X217732700Y-124510070D01*
X217726840Y-124455328D01*
X217692314Y-124412444D01*
X217570206Y-124371741D01*
X217556937Y-124363214D01*
X217531114Y-124363214D01*
X217505288Y-124362280D01*
X217503712Y-124363214D01*
X217355888Y-124363214D01*
X217333534Y-124360800D01*
X217316395Y-124369369D01*
X217298013Y-124374767D01*
X217292213Y-124381460D01*
X217247995Y-124403569D01*
X217232583Y-124406922D01*
X217214324Y-124425180D01*
X217195402Y-124442782D01*
X217194948Y-124444556D01*
X217185717Y-124453787D01*
X217172153Y-124461844D01*
X217160598Y-124484953D01*
X217148220Y-124507623D01*
X217148350Y-124509449D01*
X217126386Y-124553379D01*
X217114231Y-124572293D01*
X217114231Y-124591453D01*
X217110838Y-124610310D01*
X216357916Y-124610310D01*
X216339097Y-124553851D01*
X216339858Y-124546802D01*
X216330525Y-124528137D01*
X216328371Y-124521673D01*
X216324530Y-124516146D01*
X216301358Y-124469803D01*
X216301254Y-124463580D01*
X216289225Y-124445536D01*
X216285804Y-124438694D01*
X216281779Y-124434367D01*
X216224390Y-124348283D01*
X216222308Y-124338708D01*
X216209408Y-124325809D01*
X216207080Y-124322316D01*
X216199913Y-124316313D01*
X216157595Y-124273997D01*
X216121605Y-124254346D01*
X216066690Y-124258274D01*
X216022617Y-124291268D01*
X216003378Y-124342852D01*
X214444329Y-124342852D01*
X214442386Y-124315677D01*
X214409393Y-124271603D01*
X214357810Y-124252362D01*
X214304013Y-124264064D01*
X214261368Y-124306707D01*
X214252387Y-124310628D01*
X214242267Y-124325807D01*
X214239301Y-124328774D01*
X214234823Y-124336973D01*
X214177506Y-124422950D01*
X214172153Y-124426130D01*
X214162451Y-124445532D01*
X214158213Y-124451891D01*
X214156454Y-124457526D01*
X214133269Y-124503899D01*
X214127747Y-124508345D01*
X214121147Y-124528142D01*
X214118100Y-124534238D01*
X214116908Y-124540860D01*
X214090062Y-124621395D01*
X214085735Y-124625871D01*
X214081481Y-124647138D01*
X214079064Y-124654391D01*
X214078850Y-124660293D01*
X214048099Y-124814049D01*
X214042802Y-124822293D01*
X214042802Y-124840537D01*
X214041979Y-124844653D01*
X214042802Y-124853960D01*
X214042802Y-124974948D01*
X214039224Y-124984070D01*
X213229052Y-124984070D01*
X213246292Y-124980622D01*
X213257600Y-124982248D01*
X213272744Y-124975331D01*
X213275299Y-124974821D01*
X213284974Y-124969746D01*
X213307680Y-124959378D01*
X213309171Y-124957057D01*
X213311615Y-124955776D01*
X213323944Y-124934069D01*
X213337445Y-124913063D01*
X213337445Y-124910302D01*
X213338807Y-124907905D01*
X213337445Y-124882980D01*
X213337445Y-124819154D01*
X213339858Y-124796802D01*
X213331290Y-124779666D01*
X213325892Y-124761282D01*
X213319197Y-124755481D01*
X213302513Y-124722113D01*
X213302642Y-124718472D01*
X213290317Y-124697721D01*
X213285804Y-124688694D01*
X213283458Y-124686172D01*
X213274528Y-124671136D01*
X213265074Y-124666409D01*
X213257875Y-124658670D01*
X213240929Y-124654337D01*
X213182994Y-124625369D01*
X213164080Y-124613214D01*
X213144919Y-124613214D01*
X213126063Y-124609821D01*
X213117882Y-124613214D01*
X212998745Y-124613214D01*
X212976391Y-124610800D01*
X212959252Y-124619369D01*
X212940870Y-124624767D01*
X212935070Y-124631460D01*
X212901702Y-124648144D01*
X212898059Y-124648016D01*
X212877300Y-124660345D01*
X212868283Y-124664854D01*
X212865763Y-124667197D01*
X212850724Y-124676130D01*
X212845996Y-124685584D01*
X212838259Y-124692782D01*
X212833925Y-124709727D01*
X212804957Y-124767665D01*
X212792802Y-124786579D01*
X212792802Y-124805739D01*
X212789409Y-124824596D01*
X212658874Y-124824596D01*
X212658874Y-124744336D01*
X212659786Y-124718471D01*
X212658873Y-124716935D01*
X212658874Y-124443484D01*
X212647321Y-124404139D01*
X212605713Y-124368086D01*
X212551219Y-124360251D01*
X212501139Y-124383121D01*
X212471374Y-124429436D01*
X212471374Y-124613214D01*
X212355888Y-124613214D01*
X212333534Y-124610800D01*
X212316395Y-124619369D01*
X212298013Y-124624767D01*
X212292213Y-124631460D01*
X212247995Y-124653569D01*
X212232583Y-124656922D01*
X212214324Y-124675180D01*
X212195402Y-124692782D01*
X212194948Y-124694556D01*
X212185717Y-124703787D01*
X212172153Y-124711844D01*
X212160598Y-124734953D01*
X212148220Y-124757623D01*
X212148350Y-124759449D01*
X212126386Y-124803379D01*
X212114231Y-124822293D01*
X212114230Y-124841453D01*
X212110838Y-124860310D01*
X211980302Y-124860310D01*
X211980302Y-124693484D01*
X211968749Y-124654139D01*
X211927141Y-124618086D01*
X211923811Y-124617607D01*
X211926407Y-124615664D01*
X211933378Y-124614148D01*
X211940881Y-124606644D01*
X211950537Y-124602235D01*
X211956275Y-124593305D01*
X211964771Y-124586946D01*
X211967263Y-124580262D01*
X211983818Y-124563708D01*
X212000485Y-124551232D01*
X212007761Y-124531723D01*
X212017741Y-124513447D01*
X212017232Y-124506332D01*
X212019725Y-124499649D01*
X212015298Y-124479301D01*
X212013813Y-124458533D01*
X212009538Y-124452822D01*
X212008022Y-124445852D01*
X211993298Y-124431128D01*
X211980820Y-124414459D01*
X211974135Y-124411965D01*
X211969763Y-124407593D01*
X211968749Y-124404139D01*
X211955561Y-124392712D01*
X211945106Y-124378745D01*
X211935161Y-124375035D01*
X211927141Y-124368086D01*
X211916636Y-124366575D01*
X211907321Y-124361489D01*
X211900206Y-124361997D01*
X211893523Y-124359505D01*
X211883151Y-124361761D01*
X211872647Y-124360251D01*
X211862992Y-124364659D01*
X211852407Y-124365417D01*
X211846696Y-124369691D01*
X211839726Y-124371208D01*
X211832222Y-124378711D01*
X211822567Y-124383121D01*
X211816828Y-124392050D01*
X211808333Y-124398410D01*
X211805839Y-124405094D01*
X211789288Y-124421645D01*
X211772619Y-124434124D01*
X211765342Y-124453633D01*
X211755363Y-124471909D01*
X211755871Y-124479023D01*
X211753379Y-124485707D01*
X208980303Y-124485707D01*
X208980303Y-124464055D01*
X208983377Y-124443855D01*
X208974727Y-124424494D01*
X208968750Y-124404139D01*
X208963663Y-124399731D01*
X208960919Y-124393589D01*
X208943173Y-124381976D01*
X208927142Y-124368086D01*
X208920481Y-124367128D01*
X208914851Y-124363444D01*
X208893642Y-124363269D01*
X208872648Y-124360251D01*
X208866526Y-124363046D01*
X208859798Y-124362991D01*
X208841861Y-124374310D01*
X208822568Y-124383121D01*
X208818930Y-124388781D01*
X208813239Y-124392373D01*
X208804268Y-124411595D01*
X208792803Y-124429436D01*
X208792803Y-124436164D01*
X208636552Y-124770986D01*
X208474507Y-124423747D01*
X208468750Y-124404139D01*
X208452722Y-124390251D01*
X208438700Y-124374335D01*
X208432227Y-124372492D01*
X208427142Y-124368086D01*
X208406148Y-124365067D01*
X208385749Y-124359260D01*
X208379308Y-124361208D01*
X208372648Y-124360251D01*
X208353351Y-124369063D01*
X208333054Y-124375205D01*
X208328690Y-124380324D01*
X208322568Y-124383121D01*
X208311099Y-124400966D01*
X208297344Y-124417107D01*
X208296441Y-124423774D01*
X208292803Y-124429436D01*
X208292803Y-124450644D01*
X208289957Y-124471664D01*
X205873161Y-124471664D01*
X205873161Y-124443484D01*
X205861608Y-124404139D01*
X205820000Y-124368086D01*
X205765506Y-124360251D01*
X205715426Y-124383121D01*
X205685661Y-124429436D01*
X205685661Y-124730881D01*
X205681764Y-124746121D01*
X205618495Y-124746121D01*
X205626124Y-124693059D01*
X205603254Y-124642979D01*
X205556939Y-124613214D01*
X205463030Y-124613214D01*
X205440678Y-124610801D01*
X205423543Y-124619368D01*
X205405157Y-124624767D01*
X205399356Y-124631461D01*
X205381470Y-124640404D01*
X205355714Y-124618086D01*
X205301220Y-124610251D01*
X205251140Y-124633121D01*
X205221375Y-124679436D01*
X205221375Y-124841453D01*
X205217982Y-124860310D01*
X205051733Y-124860310D01*
X205051733Y-124819153D01*
X205054146Y-124796802D01*
X205045578Y-124779666D01*
X205040180Y-124761282D01*
X205033485Y-124755481D01*
X205016801Y-124722113D01*
X205016930Y-124718472D01*
X205004605Y-124697721D01*
X205000092Y-124688694D01*
X204997746Y-124686172D01*
X204988816Y-124671136D01*
X204979362Y-124666409D01*
X204972163Y-124658670D01*
X204955217Y-124654337D01*
X204897282Y-124625369D01*
X204878368Y-124613214D01*
X204859207Y-124613214D01*
X204840351Y-124609821D01*
X204832170Y-124613214D01*
X204713033Y-124613214D01*
X204690679Y-124610800D01*
X204673540Y-124619369D01*
X204655158Y-124624767D01*
X204649358Y-124631460D01*
X204582571Y-124664854D01*
X204552547Y-124692782D01*
X204538907Y-124746121D01*
X204556269Y-124798366D01*
X204599121Y-124832931D01*
X204653858Y-124838842D01*
X204730114Y-124800714D01*
X204828708Y-124800714D01*
X204852391Y-124812555D01*
X204859864Y-124827500D01*
X204713033Y-124827500D01*
X204690679Y-124825086D01*
X204673540Y-124833655D01*
X204655158Y-124839053D01*
X204649358Y-124845746D01*
X204615990Y-124862430D01*
X204612348Y-124862302D01*
X204591591Y-124874629D01*
X204582571Y-124879140D01*
X204580051Y-124881483D01*
X204565012Y-124890416D01*
X204560284Y-124899870D01*
X204552547Y-124907068D01*
X204548213Y-124924012D01*
X204519245Y-124981949D01*
X204507090Y-125000864D01*
X204507090Y-125020024D01*
X204503697Y-125038881D01*
X204324252Y-125038881D01*
X204322094Y-125038076D01*
X204268298Y-125049779D01*
X204228767Y-125089310D01*
X204157056Y-125113214D01*
X204116054Y-125113214D01*
X204044338Y-125089309D01*
X203999317Y-125044288D01*
X203975008Y-124995670D01*
X203944590Y-124873992D01*
X203944590Y-124789931D01*
X203975008Y-124668258D01*
X203999317Y-124619639D01*
X204044338Y-124574618D01*
X204116053Y-124550714D01*
X204157055Y-124550714D01*
X204228768Y-124574618D01*
X204258365Y-124604215D01*
X204294356Y-124623867D01*
X204349270Y-124619939D01*
X204393344Y-124586946D01*
X204412584Y-124535363D01*
X204400881Y-124481566D01*
X204349275Y-124429960D01*
X204335173Y-124412444D01*
X204316995Y-124406384D01*
X204300180Y-124397203D01*
X204291345Y-124397834D01*
X204213065Y-124371741D01*
X204199796Y-124363214D01*
X204173973Y-124363214D01*
X204148147Y-124362280D01*
X204146571Y-124363214D01*
X204112595Y-124363214D01*
X204097310Y-124359320D01*
X204072816Y-124367484D01*
X204048015Y-124374767D01*
X204046815Y-124376151D01*
X203968846Y-124402140D01*
X203946871Y-124406921D01*
X203933320Y-124420471D01*
X203917590Y-124431404D01*
X203914204Y-124439587D01*
X203864289Y-124489503D01*
X203850726Y-124497559D01*
X203839170Y-124520670D01*
X203826793Y-124543338D01*
X203826923Y-124545164D01*
X203810169Y-124578672D01*
X203802280Y-124586091D01*
X203798099Y-124602812D01*
X203796673Y-124605666D01*
X203794841Y-124615847D01*
X203763631Y-124740684D01*
X203757090Y-124750864D01*
X203757090Y-124766851D01*
X203756620Y-124768732D01*
X203757090Y-124780297D01*
X203757090Y-124870105D01*
X203753213Y-124881566D01*
X203319590Y-124881566D01*
X203319590Y-123862232D01*
X222129410Y-123862232D01*
X222129410Y-125857768D01*
G37*
D10*
G36*
X227270475Y-110930179D02*
G01*
X224921071Y-110930179D01*
X224921071Y-110444043D01*
X225186455Y-110444043D01*
X225194257Y-110479907D01*
X225225503Y-110511153D01*
X225230873Y-110520195D01*
X225246273Y-110527895D01*
X225261392Y-110536150D01*
X225262609Y-110536062D01*
X225291897Y-110550706D01*
X225304505Y-110558809D01*
X225317278Y-110558809D01*
X225329850Y-110561071D01*
X225335304Y-110558809D01*
X225462348Y-110558809D01*
X225477250Y-110560418D01*
X225488674Y-110554706D01*
X225500931Y-110551107D01*
X225504798Y-110546644D01*
X225534274Y-110531905D01*
X225544552Y-110529670D01*
X225556729Y-110517491D01*
X225569338Y-110505764D01*
X225569640Y-110504580D01*
X225575794Y-110498426D01*
X225584836Y-110493056D01*
X225592536Y-110477656D01*
X225597889Y-110467853D01*
X225686455Y-110467853D01*
X225689405Y-110481414D01*
X225690396Y-110495265D01*
X225693246Y-110499072D01*
X225694257Y-110503717D01*
X225704070Y-110513530D01*
X225712393Y-110524647D01*
X225716848Y-110526308D01*
X225719762Y-110529222D01*
X225720439Y-110531526D01*
X225729228Y-110539142D01*
X225736199Y-110548454D01*
X225742827Y-110550926D01*
X225748177Y-110555562D01*
X225755183Y-110556569D01*
X225761391Y-110559959D01*
X225766133Y-110559619D01*
X225770589Y-110561282D01*
X225777503Y-110559778D01*
X225784507Y-110560785D01*
X225790941Y-110557846D01*
X225798001Y-110557342D01*
X225801809Y-110554491D01*
X225806453Y-110553481D01*
X225811456Y-110548478D01*
X225817894Y-110545538D01*
X225821718Y-110539586D01*
X225827383Y-110535346D01*
X225829045Y-110530889D01*
X225840077Y-110519857D01*
X225851193Y-110511536D01*
X225856044Y-110498529D01*
X225862697Y-110486347D01*
X225862357Y-110481603D01*
X225864020Y-110477147D01*
X225861069Y-110463586D01*
X225860080Y-110449737D01*
X225857228Y-110445927D01*
X225856818Y-110444043D01*
X225900740Y-110444043D01*
X225908542Y-110479907D01*
X225939788Y-110511153D01*
X225945158Y-110520195D01*
X225960558Y-110527895D01*
X225975677Y-110536150D01*
X225976894Y-110536062D01*
X226006182Y-110550706D01*
X226018790Y-110558809D01*
X226031563Y-110558809D01*
X226044135Y-110561071D01*
X226049589Y-110558809D01*
X226176633Y-110558809D01*
X226191535Y-110560418D01*
X226202959Y-110554706D01*
X226215216Y-110551107D01*
X226219083Y-110546644D01*
X226248559Y-110531905D01*
X226258837Y-110529670D01*
X226271014Y-110517491D01*
X226283623Y-110505764D01*
X226283925Y-110504580D01*
X226290079Y-110498426D01*
X226299121Y-110493056D01*
X226306821Y-110477656D01*
X226315078Y-110462534D01*
X226314990Y-110461317D01*
X226329633Y-110432032D01*
X226337737Y-110419423D01*
X226337737Y-110406650D01*
X226339999Y-110394079D01*
X226337737Y-110388624D01*
X226337737Y-110285392D01*
X226339346Y-110270486D01*
X226333633Y-110259061D01*
X226330035Y-110246806D01*
X226325571Y-110242938D01*
X226310833Y-110213462D01*
X226308598Y-110203187D01*
X226296431Y-110191020D01*
X226284690Y-110178398D01*
X226283506Y-110178095D01*
X226277355Y-110171944D01*
X226271984Y-110162901D01*
X226256578Y-110155198D01*
X226241464Y-110146945D01*
X226240246Y-110147032D01*
X226230615Y-110142216D01*
X226310295Y-110051153D01*
X226310454Y-110051107D01*
X226322473Y-110037236D01*
X226328191Y-110030702D01*
X226328254Y-110030565D01*
X226334490Y-110023369D01*
X226335801Y-110014247D01*
X226339667Y-110005890D01*
X226338664Y-109998663D01*
X226352998Y-109998663D01*
X226521891Y-110505347D01*
X226521637Y-110512390D01*
X226527583Y-110522423D01*
X226528309Y-110524599D01*
X226532141Y-110530113D01*
X226540351Y-110543964D01*
X226542525Y-110545053D01*
X226543911Y-110547047D01*
X226558770Y-110553194D01*
X226573165Y-110560408D01*
X226575581Y-110560149D01*
X226577826Y-110561078D01*
X226593659Y-110558213D01*
X226609660Y-110556501D01*
X226611552Y-110554977D01*
X226613943Y-110554545D01*
X226625712Y-110543576D01*
X226638249Y-110533484D01*
X226639017Y-110531178D01*
X226640795Y-110529522D01*
X226644767Y-110513927D01*
X226813562Y-110007548D01*
X226814549Y-109980228D01*
X226795836Y-109948654D01*
X226763022Y-109932211D01*
X226726527Y-109936117D01*
X226697938Y-109959135D01*
X226584760Y-110298666D01*
X226474545Y-109968019D01*
X226458943Y-109945571D01*
X226425028Y-109931540D01*
X226388911Y-109938073D01*
X226362058Y-109963096D01*
X226352998Y-109998663D01*
X226338664Y-109998663D01*
X226338358Y-109996462D01*
X226339713Y-109987039D01*
X226335886Y-109978660D01*
X226334620Y-109969536D01*
X226328420Y-109962310D01*
X226324466Y-109953652D01*
X226316718Y-109948673D01*
X226310719Y-109941681D01*
X226301594Y-109938953D01*
X226293589Y-109933809D01*
X226284381Y-109933809D01*
X226275552Y-109931170D01*
X226266402Y-109933809D01*
X225956726Y-109933809D01*
X225930496Y-109941511D01*
X225906460Y-109969249D01*
X225901237Y-110005579D01*
X225916484Y-110038966D01*
X225947361Y-110058809D01*
X226137501Y-110058809D01*
X226073511Y-110131940D01*
X226073353Y-110131987D01*
X226061333Y-110145857D01*
X226055616Y-110152392D01*
X226055552Y-110152528D01*
X226049317Y-110159725D01*
X226048005Y-110168846D01*
X226044140Y-110177204D01*
X226045448Y-110186631D01*
X226044094Y-110196055D01*
X226047920Y-110204433D01*
X226049187Y-110213558D01*
X226055386Y-110220782D01*
X226059341Y-110229442D01*
X226067091Y-110234422D01*
X226073089Y-110241412D01*
X226082208Y-110244137D01*
X226090218Y-110249285D01*
X226099429Y-110249285D01*
X226108255Y-110251923D01*
X226117403Y-110249285D01*
X226165244Y-110249285D01*
X226190596Y-110261961D01*
X226200060Y-110271425D01*
X226212737Y-110296777D01*
X226212737Y-110386316D01*
X226200060Y-110411668D01*
X226190595Y-110421133D01*
X226165245Y-110433809D01*
X226051896Y-110433809D01*
X226026545Y-110421134D01*
X226003552Y-110398141D01*
X225979559Y-110385040D01*
X225942949Y-110387657D01*
X225913567Y-110409653D01*
X225900740Y-110444043D01*
X225856818Y-110444043D01*
X225856218Y-110441282D01*
X225846406Y-110431470D01*
X225838085Y-110420354D01*
X225833626Y-110418690D01*
X225830711Y-110415775D01*
X225830035Y-110413473D01*
X225821245Y-110405856D01*
X225814273Y-110396543D01*
X225807644Y-110394070D01*
X225802297Y-110389437D01*
X225795290Y-110388429D01*
X225789083Y-110385040D01*
X225784341Y-110385378D01*
X225779883Y-110383716D01*
X225772968Y-110385220D01*
X225765967Y-110384214D01*
X225759532Y-110387152D01*
X225752473Y-110387657D01*
X225748664Y-110390508D01*
X225744019Y-110391519D01*
X225739016Y-110396521D01*
X225732580Y-110399461D01*
X225728755Y-110405412D01*
X225723091Y-110409653D01*
X225721428Y-110414110D01*
X225710398Y-110425140D01*
X225699282Y-110433463D01*
X225694430Y-110446469D01*
X225687777Y-110458655D01*
X225688116Y-110463398D01*
X225686455Y-110467853D01*
X225597889Y-110467853D01*
X225600793Y-110462534D01*
X225600705Y-110461317D01*
X225615348Y-110432032D01*
X225623452Y-110419423D01*
X225623452Y-110406650D01*
X225625714Y-110394079D01*
X225623452Y-110388624D01*
X225623452Y-110285392D01*
X225625061Y-110270486D01*
X225619348Y-110259061D01*
X225615750Y-110246806D01*
X225611286Y-110242938D01*
X225596548Y-110213462D01*
X225594313Y-110203187D01*
X225582146Y-110191020D01*
X225570405Y-110178398D01*
X225569221Y-110178095D01*
X225563070Y-110171944D01*
X225557699Y-110162901D01*
X225542293Y-110155198D01*
X225527179Y-110146945D01*
X225525961Y-110147032D01*
X225516330Y-110142216D01*
X225596010Y-110051153D01*
X225596169Y-110051107D01*
X225608188Y-110037236D01*
X225613906Y-110030702D01*
X225613969Y-110030565D01*
X225620205Y-110023369D01*
X225621516Y-110014247D01*
X225625382Y-110005890D01*
X225624073Y-109996462D01*
X225625428Y-109987039D01*
X225621601Y-109978660D01*
X225620335Y-109969536D01*
X225614135Y-109962310D01*
X225610181Y-109953652D01*
X225602433Y-109948673D01*
X225596434Y-109941681D01*
X225587309Y-109938953D01*
X225579304Y-109933809D01*
X225570096Y-109933809D01*
X225561267Y-109931170D01*
X225552117Y-109933809D01*
X225242441Y-109933809D01*
X225216211Y-109941511D01*
X225192175Y-109969249D01*
X225186952Y-110005579D01*
X225202199Y-110038966D01*
X225233076Y-110058809D01*
X225423216Y-110058809D01*
X225359226Y-110131940D01*
X225359068Y-110131987D01*
X225347048Y-110145857D01*
X225341331Y-110152392D01*
X225341267Y-110152528D01*
X225335032Y-110159725D01*
X225333720Y-110168846D01*
X225329855Y-110177204D01*
X225331163Y-110186631D01*
X225329809Y-110196055D01*
X225333635Y-110204433D01*
X225334902Y-110213558D01*
X225341101Y-110220782D01*
X225345056Y-110229442D01*
X225352806Y-110234422D01*
X225358804Y-110241412D01*
X225367923Y-110244137D01*
X225375933Y-110249285D01*
X225385144Y-110249285D01*
X225393970Y-110251923D01*
X225403118Y-110249285D01*
X225450959Y-110249285D01*
X225476311Y-110261961D01*
X225485775Y-110271425D01*
X225498452Y-110296777D01*
X225498452Y-110386316D01*
X225485775Y-110411668D01*
X225476310Y-110421133D01*
X225450960Y-110433809D01*
X225337611Y-110433809D01*
X225312260Y-110421134D01*
X225289267Y-110398141D01*
X225265274Y-110385040D01*
X225228664Y-110387657D01*
X225199282Y-110409653D01*
X225186455Y-110444043D01*
X224921071Y-110444043D01*
X224921071Y-109599821D01*
X227270475Y-109599821D01*
X227270475Y-110930179D01*
G37*
D12*
G04 #@! TO.C,R2*
X228133333Y-103111333D02*
X227900000Y-102778000D01*
X227733333Y-103111333D02*
X227733333Y-102411333D01*
X227733333Y-102411333D02*
X228000000Y-102411333D01*
X228000000Y-102411333D02*
X228066667Y-102444666D01*
X228066667Y-102444666D02*
X228100000Y-102478000D01*
X228100000Y-102478000D02*
X228133333Y-102544666D01*
X228133333Y-102544666D02*
X228133333Y-102644666D01*
X228133333Y-102644666D02*
X228100000Y-102711333D01*
X228100000Y-102711333D02*
X228066667Y-102744666D01*
X228066667Y-102744666D02*
X228000000Y-102778000D01*
X228000000Y-102778000D02*
X227733333Y-102778000D01*
X228400000Y-102478000D02*
X228433333Y-102444666D01*
X228433333Y-102444666D02*
X228500000Y-102411333D01*
X228500000Y-102411333D02*
X228666667Y-102411333D01*
X228666667Y-102411333D02*
X228733333Y-102444666D01*
X228733333Y-102444666D02*
X228766667Y-102478000D01*
X228766667Y-102478000D02*
X228800000Y-102544666D01*
X228800000Y-102544666D02*
X228800000Y-102611333D01*
X228800000Y-102611333D02*
X228766667Y-102711333D01*
X228766667Y-102711333D02*
X228366667Y-103111333D01*
X228366667Y-103111333D02*
X228800000Y-103111333D01*
D10*
X227774762Y-107371309D02*
X227489048Y-107371309D01*
X227631905Y-107371309D02*
X227631905Y-106871309D01*
X227631905Y-106871309D02*
X227584286Y-106942738D01*
X227584286Y-106942738D02*
X227536667Y-106990357D01*
X227536667Y-106990357D02*
X227489048Y-107014166D01*
X228084285Y-106871309D02*
X228131904Y-106871309D01*
X228131904Y-106871309D02*
X228179523Y-106895119D01*
X228179523Y-106895119D02*
X228203333Y-106918928D01*
X228203333Y-106918928D02*
X228227142Y-106966547D01*
X228227142Y-106966547D02*
X228250952Y-107061785D01*
X228250952Y-107061785D02*
X228250952Y-107180833D01*
X228250952Y-107180833D02*
X228227142Y-107276071D01*
X228227142Y-107276071D02*
X228203333Y-107323690D01*
X228203333Y-107323690D02*
X228179523Y-107347500D01*
X228179523Y-107347500D02*
X228131904Y-107371309D01*
X228131904Y-107371309D02*
X228084285Y-107371309D01*
X228084285Y-107371309D02*
X228036666Y-107347500D01*
X228036666Y-107347500D02*
X228012857Y-107323690D01*
X228012857Y-107323690D02*
X227989047Y-107276071D01*
X227989047Y-107276071D02*
X227965238Y-107180833D01*
X227965238Y-107180833D02*
X227965238Y-107061785D01*
X227965238Y-107061785D02*
X227989047Y-106966547D01*
X227989047Y-106966547D02*
X228012857Y-106918928D01*
X228012857Y-106918928D02*
X228036666Y-106895119D01*
X228036666Y-106895119D02*
X228084285Y-106871309D01*
X228465237Y-107371309D02*
X228465237Y-106871309D01*
X228750951Y-107371309D02*
X228536666Y-107085595D01*
X228750951Y-106871309D02*
X228465237Y-107157023D01*
D12*
G04 #@! TO.C,R3*
X229853333Y-103111333D02*
X229620000Y-102778000D01*
X229453333Y-103111333D02*
X229453333Y-102411333D01*
X229453333Y-102411333D02*
X229720000Y-102411333D01*
X229720000Y-102411333D02*
X229786667Y-102444666D01*
X229786667Y-102444666D02*
X229820000Y-102478000D01*
X229820000Y-102478000D02*
X229853333Y-102544666D01*
X229853333Y-102544666D02*
X229853333Y-102644666D01*
X229853333Y-102644666D02*
X229820000Y-102711333D01*
X229820000Y-102711333D02*
X229786667Y-102744666D01*
X229786667Y-102744666D02*
X229720000Y-102778000D01*
X229720000Y-102778000D02*
X229453333Y-102778000D01*
X230086667Y-102411333D02*
X230520000Y-102411333D01*
X230520000Y-102411333D02*
X230286667Y-102678000D01*
X230286667Y-102678000D02*
X230386667Y-102678000D01*
X230386667Y-102678000D02*
X230453333Y-102711333D01*
X230453333Y-102711333D02*
X230486667Y-102744666D01*
X230486667Y-102744666D02*
X230520000Y-102811333D01*
X230520000Y-102811333D02*
X230520000Y-102978000D01*
X230520000Y-102978000D02*
X230486667Y-103044666D01*
X230486667Y-103044666D02*
X230453333Y-103078000D01*
X230453333Y-103078000D02*
X230386667Y-103111333D01*
X230386667Y-103111333D02*
X230186667Y-103111333D01*
X230186667Y-103111333D02*
X230120000Y-103078000D01*
X230120000Y-103078000D02*
X230086667Y-103044666D01*
D10*
X229496667Y-107371309D02*
X229210953Y-107371309D01*
X229353810Y-107371309D02*
X229353810Y-106871309D01*
X229353810Y-106871309D02*
X229306191Y-106942738D01*
X229306191Y-106942738D02*
X229258572Y-106990357D01*
X229258572Y-106990357D02*
X229210953Y-107014166D01*
X229806190Y-106871309D02*
X229853809Y-106871309D01*
X229853809Y-106871309D02*
X229901428Y-106895119D01*
X229901428Y-106895119D02*
X229925238Y-106918928D01*
X229925238Y-106918928D02*
X229949047Y-106966547D01*
X229949047Y-106966547D02*
X229972857Y-107061785D01*
X229972857Y-107061785D02*
X229972857Y-107180833D01*
X229972857Y-107180833D02*
X229949047Y-107276071D01*
X229949047Y-107276071D02*
X229925238Y-107323690D01*
X229925238Y-107323690D02*
X229901428Y-107347500D01*
X229901428Y-107347500D02*
X229853809Y-107371309D01*
X229853809Y-107371309D02*
X229806190Y-107371309D01*
X229806190Y-107371309D02*
X229758571Y-107347500D01*
X229758571Y-107347500D02*
X229734762Y-107323690D01*
X229734762Y-107323690D02*
X229710952Y-107276071D01*
X229710952Y-107276071D02*
X229687143Y-107180833D01*
X229687143Y-107180833D02*
X229687143Y-107061785D01*
X229687143Y-107061785D02*
X229710952Y-106966547D01*
X229710952Y-106966547D02*
X229734762Y-106918928D01*
X229734762Y-106918928D02*
X229758571Y-106895119D01*
X229758571Y-106895119D02*
X229806190Y-106871309D01*
X230282380Y-106871309D02*
X230329999Y-106871309D01*
X230329999Y-106871309D02*
X230377618Y-106895119D01*
X230377618Y-106895119D02*
X230401428Y-106918928D01*
X230401428Y-106918928D02*
X230425237Y-106966547D01*
X230425237Y-106966547D02*
X230449047Y-107061785D01*
X230449047Y-107061785D02*
X230449047Y-107180833D01*
X230449047Y-107180833D02*
X230425237Y-107276071D01*
X230425237Y-107276071D02*
X230401428Y-107323690D01*
X230401428Y-107323690D02*
X230377618Y-107347500D01*
X230377618Y-107347500D02*
X230329999Y-107371309D01*
X230329999Y-107371309D02*
X230282380Y-107371309D01*
X230282380Y-107371309D02*
X230234761Y-107347500D01*
X230234761Y-107347500D02*
X230210952Y-107323690D01*
X230210952Y-107323690D02*
X230187142Y-107276071D01*
X230187142Y-107276071D02*
X230163333Y-107180833D01*
X230163333Y-107180833D02*
X230163333Y-107061785D01*
X230163333Y-107061785D02*
X230187142Y-106966547D01*
X230187142Y-106966547D02*
X230210952Y-106918928D01*
X230210952Y-106918928D02*
X230234761Y-106895119D01*
X230234761Y-106895119D02*
X230282380Y-106871309D01*
X230663332Y-107371309D02*
X230663332Y-106871309D01*
X230949046Y-107371309D02*
X230734761Y-107085595D01*
X230949046Y-106871309D02*
X230663332Y-107157023D01*
D12*
G04 #@! TO.C,R1*
X226153333Y-103111333D02*
X225920000Y-102778000D01*
X225753333Y-103111333D02*
X225753333Y-102411333D01*
X225753333Y-102411333D02*
X226020000Y-102411333D01*
X226020000Y-102411333D02*
X226086667Y-102444666D01*
X226086667Y-102444666D02*
X226120000Y-102478000D01*
X226120000Y-102478000D02*
X226153333Y-102544666D01*
X226153333Y-102544666D02*
X226153333Y-102644666D01*
X226153333Y-102644666D02*
X226120000Y-102711333D01*
X226120000Y-102711333D02*
X226086667Y-102744666D01*
X226086667Y-102744666D02*
X226020000Y-102778000D01*
X226020000Y-102778000D02*
X225753333Y-102778000D01*
X226820000Y-103111333D02*
X226420000Y-103111333D01*
X226620000Y-103111333D02*
X226620000Y-102411333D01*
X226620000Y-102411333D02*
X226553333Y-102511333D01*
X226553333Y-102511333D02*
X226486667Y-102578000D01*
X226486667Y-102578000D02*
X226420000Y-102611333D01*
D10*
X225784762Y-107371309D02*
X225499048Y-107371309D01*
X225641905Y-107371309D02*
X225641905Y-106871309D01*
X225641905Y-106871309D02*
X225594286Y-106942738D01*
X225594286Y-106942738D02*
X225546667Y-106990357D01*
X225546667Y-106990357D02*
X225499048Y-107014166D01*
X226094285Y-106871309D02*
X226141904Y-106871309D01*
X226141904Y-106871309D02*
X226189523Y-106895119D01*
X226189523Y-106895119D02*
X226213333Y-106918928D01*
X226213333Y-106918928D02*
X226237142Y-106966547D01*
X226237142Y-106966547D02*
X226260952Y-107061785D01*
X226260952Y-107061785D02*
X226260952Y-107180833D01*
X226260952Y-107180833D02*
X226237142Y-107276071D01*
X226237142Y-107276071D02*
X226213333Y-107323690D01*
X226213333Y-107323690D02*
X226189523Y-107347500D01*
X226189523Y-107347500D02*
X226141904Y-107371309D01*
X226141904Y-107371309D02*
X226094285Y-107371309D01*
X226094285Y-107371309D02*
X226046666Y-107347500D01*
X226046666Y-107347500D02*
X226022857Y-107323690D01*
X226022857Y-107323690D02*
X225999047Y-107276071D01*
X225999047Y-107276071D02*
X225975238Y-107180833D01*
X225975238Y-107180833D02*
X225975238Y-107061785D01*
X225975238Y-107061785D02*
X225999047Y-106966547D01*
X225999047Y-106966547D02*
X226022857Y-106918928D01*
X226022857Y-106918928D02*
X226046666Y-106895119D01*
X226046666Y-106895119D02*
X226094285Y-106871309D01*
X226475237Y-107371309D02*
X226475237Y-106871309D01*
X226760951Y-107371309D02*
X226546666Y-107085595D01*
X226760951Y-106871309D02*
X226475237Y-107157023D01*
G04 #@! TO.C,J17*
X228513333Y-117283833D02*
X228513333Y-117783833D01*
X228513333Y-117783833D02*
X228480000Y-117883833D01*
X228480000Y-117883833D02*
X228413333Y-117950500D01*
X228413333Y-117950500D02*
X228313333Y-117983833D01*
X228313333Y-117983833D02*
X228246667Y-117983833D01*
X229213333Y-117983833D02*
X228813333Y-117983833D01*
X229013333Y-117983833D02*
X229013333Y-117283833D01*
X229013333Y-117283833D02*
X228946666Y-117383833D01*
X228946666Y-117383833D02*
X228880000Y-117450500D01*
X228880000Y-117450500D02*
X228813333Y-117483833D01*
X229446667Y-117283833D02*
X229913333Y-117283833D01*
X229913333Y-117283833D02*
X229613333Y-117983833D01*
D12*
G04 #@! TO.C,U4*
X212446666Y-100943833D02*
X212446666Y-101510500D01*
X212446666Y-101510500D02*
X212480000Y-101577166D01*
X212480000Y-101577166D02*
X212513333Y-101610500D01*
X212513333Y-101610500D02*
X212580000Y-101643833D01*
X212580000Y-101643833D02*
X212713333Y-101643833D01*
X212713333Y-101643833D02*
X212780000Y-101610500D01*
X212780000Y-101610500D02*
X212813333Y-101577166D01*
X212813333Y-101577166D02*
X212846666Y-101510500D01*
X212846666Y-101510500D02*
X212846666Y-100943833D01*
X213479999Y-101177166D02*
X213479999Y-101643833D01*
X213313333Y-100910500D02*
X213146666Y-101410500D01*
X213146666Y-101410500D02*
X213579999Y-101410500D01*
D13*
G04 #@! TO.C,R2*
X227415000Y-104800436D02*
X227415000Y-105254564D01*
X228885000Y-104800436D02*
X228885000Y-105254564D01*
G04 #@! TO.C,R3*
X230885000Y-104790436D02*
X230885000Y-105244564D01*
X229415000Y-104790436D02*
X229415000Y-105244564D01*
G04 #@! TO.C,R1*
X226865000Y-105264564D02*
X226865000Y-104810436D01*
X225395000Y-105264564D02*
X225395000Y-104810436D01*
G04 #@! TO.C,J17*
X227800000Y-116675000D02*
X230460000Y-116675000D01*
X227800000Y-111535000D02*
X227800000Y-116675000D01*
X227800000Y-110265000D02*
X227800000Y-108935000D01*
X230460000Y-111535000D02*
X230460000Y-116675000D01*
X227800000Y-108935000D02*
X229130000Y-108935000D01*
X227800000Y-111535000D02*
X230460000Y-111535000D01*
D14*
G04 #@! TO.C,U4*
X223394000Y-102376000D02*
X202566000Y-102376000D01*
X202566000Y-102376000D02*
X202566000Y-123204000D01*
X223394000Y-123204000D02*
X223394000Y-102376000D01*
X202566000Y-123204000D02*
X223394000Y-123204000D01*
D15*
X202080000Y-111790000D02*
G75*
G03*
X202080000Y-111790000I-100000J0D01*
G01*
G04 #@! TD*
M02*
