G04 #@! TF.GenerationSoftware,KiCad,Pcbnew,7.0.2*
G04 #@! TF.CreationDate,2023-08-11T04:56:28+05:00*
G04 #@! TF.ProjectId,CO Sesnor Breakout,434f2053-6573-46e6-9f72-20427265616b,rev?*
G04 #@! TF.SameCoordinates,Original*
G04 #@! TF.FileFunction,Copper,L1,Top*
G04 #@! TF.FilePolarity,Positive*
%FSLAX46Y46*%
G04 Gerber Fmt 4.6, Leading zero omitted, Abs format (unit mm)*
G04 Created by KiCad (PCBNEW 7.0.2) date 2023-08-11 04:56:28*
%MOMM*%
%LPD*%
G01*
G04 APERTURE LIST*
G04 Aperture macros list*
%AMRoundRect*
0 Rectangle with rounded corners*
0 $1 Rounding radius*
0 $2 $3 $4 $5 $6 $7 $8 $9 X,Y pos of 4 corners*
0 Add a 4 corners polygon primitive as box body*
4,1,4,$2,$3,$4,$5,$6,$7,$8,$9,$2,$3,0*
0 Add four circle primitives for the rounded corners*
1,1,$1+$1,$2,$3*
1,1,$1+$1,$4,$5*
1,1,$1+$1,$6,$7*
1,1,$1+$1,$8,$9*
0 Add four rect primitives between the rounded corners*
20,1,$1+$1,$2,$3,$4,$5,0*
20,1,$1+$1,$4,$5,$6,$7,0*
20,1,$1+$1,$6,$7,$8,$9,0*
20,1,$1+$1,$8,$9,$2,$3,0*%
G04 Aperture macros list end*
G04 #@! TA.AperFunction,SMDPad,CuDef*
%ADD10RoundRect,0.249999X-0.450001X0.262501X-0.450001X-0.262501X0.450001X-0.262501X0.450001X0.262501X0*%
G04 #@! TD*
G04 #@! TA.AperFunction,SMDPad,CuDef*
%ADD11RoundRect,0.249999X0.450001X-0.262501X0.450001X0.262501X-0.450001X0.262501X-0.450001X-0.262501X0*%
G04 #@! TD*
G04 #@! TA.AperFunction,ComponentPad*
%ADD12R,1.700000X1.700000*%
G04 #@! TD*
G04 #@! TA.AperFunction,ComponentPad*
%ADD13O,1.700000X1.700000*%
G04 #@! TD*
G04 #@! TA.AperFunction,ComponentPad*
%ADD14R,1.308000X1.308000*%
G04 #@! TD*
G04 #@! TA.AperFunction,ComponentPad*
%ADD15C,1.308000*%
G04 #@! TD*
G04 #@! TA.AperFunction,Conductor*
%ADD16C,0.750000*%
G04 #@! TD*
G04 APERTURE END LIST*
D10*
G04 #@! TO.P,R2,2*
G04 #@! TO.N,GND*
X228150000Y-105940000D03*
G04 #@! TO.P,R2,1*
G04 #@! TO.N,Net-(R1-Pad2)*
X228150000Y-104115000D03*
G04 #@! TD*
G04 #@! TO.P,R3,1*
G04 #@! TO.N,Net-(R1-Pad2)*
X230150000Y-104105000D03*
G04 #@! TO.P,R3,2*
G04 #@! TO.N,3.3V*
X230150000Y-105930000D03*
G04 #@! TD*
D11*
G04 #@! TO.P,R1,2*
G04 #@! TO.N,Net-(R1-Pad2)*
X226130000Y-104125000D03*
G04 #@! TO.P,R1,1*
G04 #@! TO.N,RC*
X226130000Y-105950000D03*
G04 #@! TD*
D12*
G04 #@! TO.P,J17,1,Pin_1*
G04 #@! TO.N,3.3V*
X229130000Y-110265000D03*
D13*
G04 #@! TO.P,J17,2,Pin_2*
G04 #@! TO.N,GND*
X229130000Y-112805000D03*
G04 #@! TO.P,J17,3,Pin_3*
G04 #@! TO.N,RC*
X229130000Y-115345000D03*
G04 #@! TD*
D14*
G04 #@! TO.P,U4,1,WORKING*
G04 #@! TO.N,Net-(R1-Pad2)*
X204090000Y-111790000D03*
D15*
G04 #@! TO.P,U4,2,NC_2*
G04 #@! TO.N,unconnected-(U4-NC_2-Pad2)*
X211980000Y-103900000D03*
G04 #@! TO.P,U4,3,NC_3*
G04 #@! TO.N,unconnected-(U4-NC_3-Pad3)*
X213980000Y-103900000D03*
G04 #@! TO.P,U4,4,REFERENCE*
G04 #@! TO.N,RC*
X221870000Y-111790000D03*
G04 #@! TO.P,U4,5,COUNTER*
X221870000Y-113790000D03*
G04 #@! TO.P,U4,6,WORKING*
G04 #@! TO.N,Net-(R1-Pad2)*
X204090000Y-113790000D03*
G04 #@! TD*
D16*
G04 #@! TO.N,Net-(R1-Pad2)*
X224870000Y-101300000D02*
X226130000Y-102560000D01*
X204110000Y-101300000D02*
X224870000Y-101300000D01*
X226130000Y-102560000D02*
X226130000Y-104125000D01*
X202450000Y-102960000D02*
X204110000Y-101300000D01*
X204090000Y-111790000D02*
X202450000Y-110150000D01*
X202450000Y-110150000D02*
X202450000Y-102960000D01*
G04 #@! TO.N,RC*
X225050000Y-107030000D02*
X225050000Y-111840000D01*
X226130000Y-105950000D02*
X225050000Y-107030000D01*
G04 #@! TO.N,GND*
X226660000Y-111990000D02*
X227475000Y-112805000D01*
X226660000Y-108590000D02*
X226660000Y-111990000D01*
X227475000Y-112805000D02*
X229130000Y-112805000D01*
X228150000Y-107100000D02*
X226660000Y-108590000D01*
X228150000Y-105940000D02*
X228150000Y-107100000D01*
G04 #@! TO.N,RC*
X225000000Y-111790000D02*
X225050000Y-111840000D01*
X221870000Y-111790000D02*
X225000000Y-111790000D01*
X225050000Y-111840000D02*
X225050000Y-113360000D01*
X221870000Y-111790000D02*
X221870000Y-113790000D01*
X227035000Y-115345000D02*
X229130000Y-115345000D01*
X225050000Y-113360000D02*
X227035000Y-115345000D01*
G04 #@! TO.N,3.3V*
X229130000Y-108380000D02*
X229130000Y-110265000D01*
X230150000Y-107360000D02*
X229130000Y-108380000D01*
X230150000Y-105930000D02*
X230150000Y-107360000D01*
G04 #@! TO.N,Net-(R1-Pad2)*
X230130000Y-104125000D02*
X230150000Y-104105000D01*
X226130000Y-104125000D02*
X230130000Y-104125000D01*
X204090000Y-113790000D02*
X204090000Y-111790000D01*
G04 #@! TD*
M02*
