M48
INCH,TZ
T1C0.0118
T2C0.0236
T3C0.0236
T4C0.0394
%
G90
G05
T1
X54382Y-49165
X54429Y-49594
X54437Y-41980
X54461Y-50079
X54520Y-39583
X54618Y-42441
X54630Y-52685
X54661Y-41067
X54669Y-47543
X54728Y-49449
X54732Y-38343
X54760Y-48980
X54795Y-42984
X54894Y-48157
X54953Y-48543
X55142Y-41413
X55248Y-41803
X55256Y-42295
X55311Y-38776
X55315Y-50492
X55480Y-40303
X55488Y-38087
X55496Y-43807
X55681Y-46278
X55740Y-40622
X55811Y-48543
X56276Y-48539
X56285Y-44864
X56332Y-45480
X56335Y-41283
X56339Y-44008
X56378Y-38551
X56583Y-45799
X56760Y-42921
X56783Y-40035
X56831Y-41378
X57008Y-53055
X57087Y-40988
X57091Y-46280
X57189Y-42264
X57335Y-51248
X57386Y-40173
X57528Y-50713
X57681Y-42386
X57717Y-49524
X57815Y-50217
X57839Y-47598
X57866Y-44394
X58106Y-52654
X58110Y-50736
X58201Y-52118
X58205Y-50217
X58260Y-40965
X58260Y-41402
X58264Y-47602
X58295Y-44976
X58315Y-46118
X58319Y-48496
X58354Y-41752
X58386Y-49661
X58449Y-40567
X58618Y-50252
X58683Y-51817
X58689Y-40862
X58854Y-43417
X58929Y-47311
X59500Y-40165
X59661Y-52161
X59732Y-41071
X59795Y-42315
X59843Y-46630
X59866Y-38528
X59937Y-40161
X60031Y-45783
X60106Y-41949
X60142Y-48154
X60205Y-44047
X60244Y-40071
X60281Y-51581
X60366Y-52957
X60378Y-52390
X60618Y-53276
X60724Y-52701
X60941Y-44980
X60941Y-45831
X60957Y-44142
X61276Y-43370
X61370Y-42724
X61677Y-49177
X62244Y-42843
X62417Y-44083
T2
X61644Y-41388
T4
X53024Y-38976
X53024Y-40157
X53024Y-41339
X53024Y-42520
X53024Y-43701
X53024Y-44882
X53024Y-46063
X53024Y-47244
X53024Y-50787
X53024Y-51969
X53524Y-38976
X53524Y-40157
X53524Y-41339
X53524Y-42520
X53524Y-43701
X53524Y-44882
X53524Y-46063
X53524Y-47244
X53524Y-50787
X53524Y-51969
X60055Y-49089
X60055Y-50089
X62087Y-50022
X62087Y-51022
X62087Y-52022
X62181Y-47244
X62263Y-44882
X62263Y-46063
X62267Y-48425
X62681Y-47244
X62763Y-44882
X62763Y-46063
X62767Y-48425
T3
G00X56760Y-37821
M15
G01X56760Y-37585
M16
G05
G00X56760Y-39565
M15
G01X56760Y-39132
M16
G05
G00X60161Y-37821
M15
G01X60161Y-37585
M16
G05
G00X60161Y-39565
M15
G01X60161Y-39132
M16
G05
T0
M30
