G04 #@! TF.GenerationSoftware,KiCad,Pcbnew,7.0.2*
G04 #@! TF.CreationDate,2023-08-11T05:28:22+05:00*
G04 #@! TF.ProjectId,Adafruit QT Py ESP32-C3,41646166-7275-4697-9420-515420507920,rev?*
G04 #@! TF.SameCoordinates,Original*
G04 #@! TF.FileFunction,Soldermask,Bot*
G04 #@! TF.FilePolarity,Negative*
%FSLAX46Y46*%
G04 Gerber Fmt 4.6, Leading zero omitted, Abs format (unit mm)*
G04 Created by KiCad (PCBNEW 7.0.2) date 2023-08-11 05:28:22*
%MOMM*%
%LPD*%
G01*
G04 APERTURE LIST*
G04 Aperture macros list*
%AMRoundRect*
0 Rectangle with rounded corners*
0 $1 Rounding radius*
0 $2 $3 $4 $5 $6 $7 $8 $9 X,Y pos of 4 corners*
0 Add a 4 corners polygon primitive as box body*
4,1,4,$2,$3,$4,$5,$6,$7,$8,$9,$2,$3,0*
0 Add four circle primitives for the rounded corners*
1,1,$1+$1,$2,$3*
1,1,$1+$1,$4,$5*
1,1,$1+$1,$6,$7*
1,1,$1+$1,$8,$9*
0 Add four rect primitives between the rounded corners*
20,1,$1+$1,$2,$3,$4,$5,0*
20,1,$1+$1,$4,$5,$6,$7,0*
20,1,$1+$1,$6,$7,$8,$9,0*
20,1,$1+$1,$8,$9,$2,$3,0*%
G04 Aperture macros list end*
%ADD10O,3.657600X1.879600*%
%ADD11C,1.879600*%
%ADD12R,1.700000X1.700000*%
%ADD13O,1.700000X1.700000*%
%ADD14RoundRect,0.250000X-0.475000X0.250000X-0.475000X-0.250000X0.475000X-0.250000X0.475000X0.250000X0*%
%ADD15RoundRect,0.140000X-0.170000X0.140000X-0.170000X-0.140000X0.170000X-0.140000X0.170000X0.140000X0*%
%ADD16RoundRect,0.084550X-0.371250X-0.101250X0.371250X-0.101250X0.371250X0.101250X-0.371250X0.101250X0*%
%ADD17RoundRect,0.084550X-0.101250X-0.371250X0.101250X-0.371250X0.101250X0.371250X-0.101250X0.371250X0*%
%ADD18RoundRect,0.050800X-1.500000X-1.500000X1.500000X-1.500000X1.500000X1.500000X-1.500000X1.500000X0*%
%ADD19RoundRect,0.135000X0.185000X-0.135000X0.185000X0.135000X-0.185000X0.135000X-0.185000X-0.135000X0*%
%ADD20RoundRect,0.140000X-0.140000X-0.170000X0.140000X-0.170000X0.140000X0.170000X-0.140000X0.170000X0*%
%ADD21RoundRect,0.140000X0.170000X-0.140000X0.170000X0.140000X-0.170000X0.140000X-0.170000X-0.140000X0*%
%ADD22RoundRect,0.225000X-0.225000X-0.250000X0.225000X-0.250000X0.225000X0.250000X-0.225000X0.250000X0*%
%ADD23RoundRect,0.135000X-0.185000X0.135000X-0.185000X-0.135000X0.185000X-0.135000X0.185000X0.135000X0*%
%ADD24RoundRect,0.135000X0.135000X0.185000X-0.135000X0.185000X-0.135000X-0.185000X0.135000X-0.185000X0*%
%ADD25R,2.000000X2.000000*%
%ADD26RoundRect,0.200000X-0.275000X0.200000X-0.275000X-0.200000X0.275000X-0.200000X0.275000X0.200000X0*%
%ADD27RoundRect,0.150000X-0.512500X-0.150000X0.512500X-0.150000X0.512500X0.150000X-0.512500X0.150000X0*%
%ADD28RoundRect,0.250000X-0.250000X-0.475000X0.250000X-0.475000X0.250000X0.475000X-0.250000X0.475000X0*%
%ADD29RoundRect,0.225000X0.225000X0.250000X-0.225000X0.250000X-0.225000X-0.250000X0.225000X-0.250000X0*%
%ADD30R,0.800000X0.900000*%
%ADD31C,0.650000*%
%ADD32R,0.600000X1.450000*%
%ADD33R,0.300000X1.450000*%
%ADD34O,1.000000X1.600000*%
%ADD35O,1.000000X2.100000*%
%ADD36RoundRect,0.147500X0.147500X0.172500X-0.147500X0.172500X-0.147500X-0.172500X0.147500X-0.172500X0*%
%ADD37R,0.622000X1.105000*%
%ADD38RoundRect,0.200000X0.200000X0.275000X-0.200000X0.275000X-0.200000X-0.275000X0.200000X-0.275000X0*%
%ADD39RoundRect,0.218750X0.256250X-0.218750X0.256250X0.218750X-0.256250X0.218750X-0.256250X-0.218750X0*%
%ADD40RoundRect,0.250000X-0.300000X0.300000X-0.300000X-0.300000X0.300000X-0.300000X0.300000X0.300000X0*%
%ADD41RoundRect,0.250000X0.475000X-0.250000X0.475000X0.250000X-0.475000X0.250000X-0.475000X-0.250000X0*%
%ADD42RoundRect,0.140000X0.140000X0.170000X-0.140000X0.170000X-0.140000X-0.170000X0.140000X-0.170000X0*%
%ADD43RoundRect,0.147500X0.172500X-0.147500X0.172500X0.147500X-0.172500X0.147500X-0.172500X-0.147500X0*%
%ADD44RoundRect,0.218750X-0.256250X0.218750X-0.256250X-0.218750X0.256250X-0.218750X0.256250X0.218750X0*%
%ADD45RoundRect,0.150000X0.587500X0.150000X-0.587500X0.150000X-0.587500X-0.150000X0.587500X-0.150000X0*%
%ADD46RoundRect,0.050800X0.450000X0.400000X-0.450000X0.400000X-0.450000X-0.400000X0.450000X-0.400000X0*%
G04 APERTURE END LIST*
D10*
G04 #@! TO.C,J7*
X135950000Y-132000000D03*
D11*
X134680000Y-132000000D03*
G04 #@! TD*
G04 #@! TO.C,J3*
X159428500Y-123000000D03*
D10*
X158158500Y-123000000D03*
G04 #@! TD*
D11*
G04 #@! TO.C,J6*
X159418500Y-114000000D03*
D10*
X158148500Y-114000000D03*
G04 #@! TD*
D11*
G04 #@! TO.C,J5*
X159418500Y-117000000D03*
D10*
X158148500Y-117000000D03*
G04 #@! TD*
D11*
G04 #@! TO.C,J10*
X134680000Y-105000000D03*
D10*
X135950000Y-105000000D03*
G04 #@! TD*
D11*
G04 #@! TO.C,J9*
X134680000Y-102000000D03*
D10*
X135950000Y-102000000D03*
G04 #@! TD*
D11*
G04 #@! TO.C,J16*
X134680000Y-99000000D03*
D10*
X135950000Y-99000000D03*
G04 #@! TD*
D11*
G04 #@! TO.C,J15*
X134680000Y-114000000D03*
D10*
X135950000Y-114000000D03*
G04 #@! TD*
D11*
G04 #@! TO.C,J12*
X134680000Y-111000000D03*
D10*
X135950000Y-111000000D03*
G04 #@! TD*
D12*
G04 #@! TO.C,BZ1*
X152540000Y-124685000D03*
D13*
X152540000Y-127225000D03*
G04 #@! TD*
D11*
G04 #@! TO.C,J8*
X134680000Y-129000000D03*
D10*
X135950000Y-129000000D03*
G04 #@! TD*
G04 #@! TO.C,J13*
X135950000Y-120000000D03*
D11*
X134680000Y-120000000D03*
G04 #@! TD*
G04 #@! TO.C,J4*
X159209000Y-120000000D03*
D10*
X157939000Y-120000000D03*
G04 #@! TD*
D11*
G04 #@! TO.C,J11*
X134680000Y-108000000D03*
D10*
X135950000Y-108000000D03*
G04 #@! TD*
D13*
G04 #@! TO.C,J17*
X157700000Y-132135000D03*
X157700000Y-129595000D03*
D12*
X157700000Y-127055000D03*
G04 #@! TD*
D11*
G04 #@! TO.C,J14*
X134680000Y-117000000D03*
D10*
X135950000Y-117000000D03*
G04 #@! TD*
D14*
G04 #@! TO.C,C8*
X140390000Y-115620000D03*
X140390000Y-117520000D03*
G04 #@! TD*
D15*
G04 #@! TO.C,C9*
X155190000Y-106520000D03*
X155190000Y-107480000D03*
G04 #@! TD*
D16*
G04 #@! TO.C,U2*
X151940000Y-108530000D03*
X151940000Y-109030000D03*
X151940000Y-109530000D03*
X151940000Y-110030000D03*
X151940000Y-110530000D03*
X151940000Y-111030000D03*
X151940000Y-111530000D03*
X151940000Y-112030000D03*
D17*
X151240000Y-112730000D03*
X150740000Y-112730000D03*
X150240000Y-112730000D03*
X149740000Y-112730000D03*
X149240000Y-112730000D03*
X148740000Y-112730000D03*
X148240000Y-112730000D03*
X147740000Y-112730000D03*
D16*
X147040000Y-112030000D03*
X147040000Y-111530000D03*
X147040000Y-111030000D03*
X147040000Y-110530000D03*
X147040000Y-110030000D03*
X147040000Y-109530000D03*
X147040000Y-109030000D03*
X147040000Y-108530000D03*
D17*
X147740000Y-107830000D03*
X148240000Y-107830000D03*
X148740000Y-107830000D03*
X149240000Y-107830000D03*
X149740000Y-107830000D03*
X150240000Y-107830000D03*
X150740000Y-107830000D03*
X151240000Y-107830000D03*
D18*
X149490000Y-110280000D03*
G04 #@! TD*
D19*
G04 #@! TO.C,R4*
X149090000Y-105410000D03*
X149090000Y-104390000D03*
G04 #@! TD*
D20*
G04 #@! TO.C,C7*
X154420000Y-108520000D03*
X155380000Y-108520000D03*
G04 #@! TD*
D21*
G04 #@! TO.C,C17*
X151090000Y-105540000D03*
X151090000Y-104580000D03*
G04 #@! TD*
D22*
G04 #@! TO.C,C25*
X142112500Y-120750000D03*
X140562500Y-120750000D03*
G04 #@! TD*
D23*
G04 #@! TO.C,R21*
X152460000Y-114100000D03*
X152460000Y-115120000D03*
G04 #@! TD*
D24*
G04 #@! TO.C,R5*
X150390000Y-102620000D03*
X149370000Y-102620000D03*
G04 #@! TD*
D25*
G04 #@! TO.C,J2*
X136780000Y-126000000D03*
G04 #@! TD*
D26*
G04 #@! TO.C,R14*
X140490000Y-127425000D03*
X140490000Y-125775000D03*
G04 #@! TD*
D21*
G04 #@! TO.C,C15*
X144780000Y-113440000D03*
X144780000Y-112480000D03*
G04 #@! TD*
D19*
G04 #@! TO.C,R7*
X148130000Y-116520000D03*
X148130000Y-115500000D03*
G04 #@! TD*
D27*
G04 #@! TO.C,U5*
X140640000Y-124250000D03*
X140640000Y-123300000D03*
X140640000Y-122350000D03*
X142915000Y-122350000D03*
X142915000Y-124250000D03*
G04 #@! TD*
D28*
G04 #@! TO.C,C1*
X141230000Y-109210000D03*
X143130000Y-109210000D03*
G04 #@! TD*
D29*
G04 #@! TO.C,R9*
X141405000Y-107430000D03*
X142955000Y-107430000D03*
G04 #@! TD*
D26*
G04 #@! TO.C,R19*
X142000000Y-101225000D03*
X142000000Y-99575000D03*
G04 #@! TD*
D23*
G04 #@! TO.C,R1*
X154820000Y-112740000D03*
X154820000Y-113760000D03*
G04 #@! TD*
D30*
G04 #@! TO.C,Y1*
X152370000Y-105270000D03*
X152370000Y-103870000D03*
X153470000Y-103870000D03*
X153470000Y-105270000D03*
G04 #@! TD*
D20*
G04 #@! TO.C,C10*
X151190000Y-106570000D03*
X152150000Y-106570000D03*
G04 #@! TD*
D31*
G04 #@! TO.C,USB1*
X145600000Y-99415000D03*
X151380000Y-99415000D03*
D32*
X145240000Y-100860000D03*
X146040000Y-100860000D03*
D33*
X147240000Y-100860000D03*
X148240000Y-100860000D03*
X148740000Y-100860000D03*
X149740000Y-100860000D03*
D32*
X150940000Y-100860000D03*
X151740000Y-100860000D03*
X151740000Y-100860000D03*
X150940000Y-100860000D03*
D33*
X150240000Y-100860000D03*
X149240000Y-100860000D03*
X147740000Y-100860000D03*
X146740000Y-100860000D03*
D32*
X146040000Y-100860000D03*
X145240000Y-100860000D03*
D34*
X144170000Y-95765000D03*
D35*
X144170000Y-99945000D03*
D34*
X152810000Y-95765000D03*
D35*
X152810000Y-99945000D03*
G04 #@! TD*
D36*
G04 #@! TO.C,L1*
X155385000Y-109520000D03*
X154415000Y-109520000D03*
G04 #@! TD*
D19*
G04 #@! TO.C,R2*
X153760000Y-112750000D03*
X153760000Y-111730000D03*
G04 #@! TD*
D37*
G04 #@! TO.C,U1*
X142117252Y-114753000D03*
X143083252Y-114753000D03*
X144023252Y-114753000D03*
X144023252Y-117547000D03*
X142143252Y-117547000D03*
G04 #@! TD*
D21*
G04 #@! TO.C,C16*
X145770000Y-113440000D03*
X145770000Y-112480000D03*
G04 #@! TD*
D38*
G04 #@! TO.C,R13*
X144955000Y-124230000D03*
X146605000Y-124230000D03*
G04 #@! TD*
D39*
G04 #@! TO.C,P2*
X143640000Y-127367500D03*
X143640000Y-125792500D03*
G04 #@! TD*
D25*
G04 #@! TO.C,J1*
X136750000Y-123000000D03*
G04 #@! TD*
D15*
G04 #@! TO.C,C2*
X145770000Y-109580000D03*
X145770000Y-110540000D03*
G04 #@! TD*
D40*
G04 #@! TO.C,D1*
X145870000Y-114762500D03*
X145870000Y-117562500D03*
G04 #@! TD*
D21*
G04 #@! TO.C,C14*
X153160000Y-107480000D03*
X153160000Y-106520000D03*
G04 #@! TD*
D41*
G04 #@! TO.C,C6*
X156870000Y-110680000D03*
X156870000Y-108780000D03*
G04 #@! TD*
D23*
G04 #@! TO.C,R6*
X146090000Y-104000000D03*
X146090000Y-105020000D03*
G04 #@! TD*
D42*
G04 #@! TO.C,C11*
X145780000Y-111520000D03*
X144820000Y-111520000D03*
G04 #@! TD*
D26*
G04 #@! TO.C,R15*
X145210000Y-127425000D03*
X145210000Y-125775000D03*
G04 #@! TD*
D42*
G04 #@! TO.C,C18*
X151040000Y-103610000D03*
X150080000Y-103610000D03*
G04 #@! TD*
D43*
G04 #@! TO.C,L2*
X154170000Y-107485000D03*
X154170000Y-106515000D03*
G04 #@! TD*
D23*
G04 #@! TO.C,R20*
X151440000Y-114080000D03*
X151440000Y-115100000D03*
G04 #@! TD*
D44*
G04 #@! TO.C,Green2*
X140460000Y-99632500D03*
X140460000Y-101207500D03*
G04 #@! TD*
D15*
G04 #@! TO.C,C3*
X154820000Y-114730000D03*
X154820000Y-115690000D03*
G04 #@! TD*
D45*
G04 #@! TO.C,Q4*
X143030000Y-111040000D03*
X143030000Y-112940000D03*
X141155000Y-111990000D03*
G04 #@! TD*
D23*
G04 #@! TO.C,R3*
X150090000Y-104550000D03*
X150090000Y-105570000D03*
G04 #@! TD*
D15*
G04 #@! TO.C,C4*
X144780000Y-109580000D03*
X144780000Y-110540000D03*
G04 #@! TD*
D46*
G04 #@! TO.C,D5*
X145040000Y-102960000D03*
X142900000Y-102960000D03*
G04 #@! TD*
D44*
G04 #@! TO.C,P1*
X142040000Y-125832500D03*
X142040000Y-127407500D03*
G04 #@! TD*
D29*
G04 #@! TO.C,C24*
X145045000Y-122380000D03*
X146595000Y-122380000D03*
G04 #@! TD*
M02*
