G04 #@! TF.GenerationSoftware,KiCad,Pcbnew,7.0.2*
G04 #@! TF.CreationDate,2023-08-11T05:28:22+05:00*
G04 #@! TF.ProjectId,Adafruit QT Py ESP32-C3,41646166-7275-4697-9420-515420507920,rev?*
G04 #@! TF.SameCoordinates,Original*
G04 #@! TF.FileFunction,Copper,L2,Bot*
G04 #@! TF.FilePolarity,Positive*
%FSLAX46Y46*%
G04 Gerber Fmt 4.6, Leading zero omitted, Abs format (unit mm)*
G04 Created by KiCad (PCBNEW 7.0.2) date 2023-08-11 05:28:22*
%MOMM*%
%LPD*%
G01*
G04 APERTURE LIST*
G04 Aperture macros list*
%AMRoundRect*
0 Rectangle with rounded corners*
0 $1 Rounding radius*
0 $2 $3 $4 $5 $6 $7 $8 $9 X,Y pos of 4 corners*
0 Add a 4 corners polygon primitive as box body*
4,1,4,$2,$3,$4,$5,$6,$7,$8,$9,$2,$3,0*
0 Add four circle primitives for the rounded corners*
1,1,$1+$1,$2,$3*
1,1,$1+$1,$4,$5*
1,1,$1+$1,$6,$7*
1,1,$1+$1,$8,$9*
0 Add four rect primitives between the rounded corners*
20,1,$1+$1,$2,$3,$4,$5,0*
20,1,$1+$1,$4,$5,$6,$7,0*
20,1,$1+$1,$6,$7,$8,$9,0*
20,1,$1+$1,$8,$9,$2,$3,0*%
G04 Aperture macros list end*
G04 #@! TA.AperFunction,ComponentPad*
%ADD10O,3.556000X1.778000*%
G04 #@! TD*
G04 #@! TA.AperFunction,ComponentPad*
%ADD11C,1.778000*%
G04 #@! TD*
G04 #@! TA.AperFunction,ComponentPad*
%ADD12R,1.700000X1.700000*%
G04 #@! TD*
G04 #@! TA.AperFunction,ComponentPad*
%ADD13O,1.700000X1.700000*%
G04 #@! TD*
G04 #@! TA.AperFunction,SMDPad,CuDef*
%ADD14RoundRect,0.250000X-0.475000X0.250000X-0.475000X-0.250000X0.475000X-0.250000X0.475000X0.250000X0*%
G04 #@! TD*
G04 #@! TA.AperFunction,SMDPad,CuDef*
%ADD15RoundRect,0.140000X-0.170000X0.140000X-0.170000X-0.140000X0.170000X-0.140000X0.170000X0.140000X0*%
G04 #@! TD*
G04 #@! TA.AperFunction,SMDPad,CuDef*
%ADD16RoundRect,0.033750X-0.371250X-0.101250X0.371250X-0.101250X0.371250X0.101250X-0.371250X0.101250X0*%
G04 #@! TD*
G04 #@! TA.AperFunction,SMDPad,CuDef*
%ADD17RoundRect,0.033750X-0.101250X-0.371250X0.101250X-0.371250X0.101250X0.371250X-0.101250X0.371250X0*%
G04 #@! TD*
G04 #@! TA.AperFunction,SMDPad,CuDef*
%ADD18R,3.000000X3.000000*%
G04 #@! TD*
G04 #@! TA.AperFunction,SMDPad,CuDef*
%ADD19RoundRect,0.135000X0.185000X-0.135000X0.185000X0.135000X-0.185000X0.135000X-0.185000X-0.135000X0*%
G04 #@! TD*
G04 #@! TA.AperFunction,SMDPad,CuDef*
%ADD20RoundRect,0.140000X-0.140000X-0.170000X0.140000X-0.170000X0.140000X0.170000X-0.140000X0.170000X0*%
G04 #@! TD*
G04 #@! TA.AperFunction,SMDPad,CuDef*
%ADD21RoundRect,0.140000X0.170000X-0.140000X0.170000X0.140000X-0.170000X0.140000X-0.170000X-0.140000X0*%
G04 #@! TD*
G04 #@! TA.AperFunction,SMDPad,CuDef*
%ADD22RoundRect,0.225000X-0.225000X-0.250000X0.225000X-0.250000X0.225000X0.250000X-0.225000X0.250000X0*%
G04 #@! TD*
G04 #@! TA.AperFunction,SMDPad,CuDef*
%ADD23RoundRect,0.135000X-0.185000X0.135000X-0.185000X-0.135000X0.185000X-0.135000X0.185000X0.135000X0*%
G04 #@! TD*
G04 #@! TA.AperFunction,SMDPad,CuDef*
%ADD24RoundRect,0.135000X0.135000X0.185000X-0.135000X0.185000X-0.135000X-0.185000X0.135000X-0.185000X0*%
G04 #@! TD*
G04 #@! TA.AperFunction,SMDPad,CuDef*
%ADD25R,2.000000X2.000000*%
G04 #@! TD*
G04 #@! TA.AperFunction,SMDPad,CuDef*
%ADD26RoundRect,0.200000X-0.275000X0.200000X-0.275000X-0.200000X0.275000X-0.200000X0.275000X0.200000X0*%
G04 #@! TD*
G04 #@! TA.AperFunction,SMDPad,CuDef*
%ADD27RoundRect,0.150000X-0.512500X-0.150000X0.512500X-0.150000X0.512500X0.150000X-0.512500X0.150000X0*%
G04 #@! TD*
G04 #@! TA.AperFunction,SMDPad,CuDef*
%ADD28RoundRect,0.250000X-0.250000X-0.475000X0.250000X-0.475000X0.250000X0.475000X-0.250000X0.475000X0*%
G04 #@! TD*
G04 #@! TA.AperFunction,SMDPad,CuDef*
%ADD29RoundRect,0.225000X0.225000X0.250000X-0.225000X0.250000X-0.225000X-0.250000X0.225000X-0.250000X0*%
G04 #@! TD*
G04 #@! TA.AperFunction,SMDPad,CuDef*
%ADD30R,0.800000X0.900000*%
G04 #@! TD*
G04 #@! TA.AperFunction,SMDPad,CuDef*
%ADD31R,0.600000X1.450000*%
G04 #@! TD*
G04 #@! TA.AperFunction,SMDPad,CuDef*
%ADD32R,0.300000X1.450000*%
G04 #@! TD*
G04 #@! TA.AperFunction,ComponentPad*
%ADD33O,1.000000X1.600000*%
G04 #@! TD*
G04 #@! TA.AperFunction,ComponentPad*
%ADD34O,1.000000X2.100000*%
G04 #@! TD*
G04 #@! TA.AperFunction,SMDPad,CuDef*
%ADD35RoundRect,0.147500X0.147500X0.172500X-0.147500X0.172500X-0.147500X-0.172500X0.147500X-0.172500X0*%
G04 #@! TD*
G04 #@! TA.AperFunction,SMDPad,CuDef*
%ADD36R,0.622000X1.105000*%
G04 #@! TD*
G04 #@! TA.AperFunction,SMDPad,CuDef*
%ADD37RoundRect,0.200000X0.200000X0.275000X-0.200000X0.275000X-0.200000X-0.275000X0.200000X-0.275000X0*%
G04 #@! TD*
G04 #@! TA.AperFunction,SMDPad,CuDef*
%ADD38RoundRect,0.218750X0.256250X-0.218750X0.256250X0.218750X-0.256250X0.218750X-0.256250X-0.218750X0*%
G04 #@! TD*
G04 #@! TA.AperFunction,SMDPad,CuDef*
%ADD39RoundRect,0.250000X-0.300000X0.300000X-0.300000X-0.300000X0.300000X-0.300000X0.300000X0.300000X0*%
G04 #@! TD*
G04 #@! TA.AperFunction,SMDPad,CuDef*
%ADD40RoundRect,0.250000X0.475000X-0.250000X0.475000X0.250000X-0.475000X0.250000X-0.475000X-0.250000X0*%
G04 #@! TD*
G04 #@! TA.AperFunction,SMDPad,CuDef*
%ADD41RoundRect,0.140000X0.140000X0.170000X-0.140000X0.170000X-0.140000X-0.170000X0.140000X-0.170000X0*%
G04 #@! TD*
G04 #@! TA.AperFunction,SMDPad,CuDef*
%ADD42RoundRect,0.147500X0.172500X-0.147500X0.172500X0.147500X-0.172500X0.147500X-0.172500X-0.147500X0*%
G04 #@! TD*
G04 #@! TA.AperFunction,SMDPad,CuDef*
%ADD43RoundRect,0.218750X-0.256250X0.218750X-0.256250X-0.218750X0.256250X-0.218750X0.256250X0.218750X0*%
G04 #@! TD*
G04 #@! TA.AperFunction,SMDPad,CuDef*
%ADD44RoundRect,0.150000X0.587500X0.150000X-0.587500X0.150000X-0.587500X-0.150000X0.587500X-0.150000X0*%
G04 #@! TD*
G04 #@! TA.AperFunction,SMDPad,CuDef*
%ADD45R,0.900000X0.800000*%
G04 #@! TD*
G04 #@! TA.AperFunction,ViaPad*
%ADD46C,0.600000*%
G04 #@! TD*
G04 #@! TA.AperFunction,ViaPad*
%ADD47C,1.250000*%
G04 #@! TD*
G04 #@! TA.AperFunction,Conductor*
%ADD48C,0.500000*%
G04 #@! TD*
G04 #@! TA.AperFunction,Conductor*
%ADD49C,0.254000*%
G04 #@! TD*
G04 #@! TA.AperFunction,Conductor*
%ADD50C,0.300000*%
G04 #@! TD*
G04 #@! TA.AperFunction,Conductor*
%ADD51C,0.279400*%
G04 #@! TD*
G04 #@! TA.AperFunction,Conductor*
%ADD52C,0.700000*%
G04 #@! TD*
G04 #@! TA.AperFunction,Conductor*
%ADD53C,0.900000*%
G04 #@! TD*
G04 APERTURE END LIST*
D10*
G04 #@! TO.P,J7,1,Pin_1*
G04 #@! TO.N,SDA*
X135950000Y-132000000D03*
D11*
X134680000Y-132000000D03*
G04 #@! TD*
G04 #@! TO.P,J3,1,Pin_1*
G04 #@! TO.N,/A0*
X159428500Y-123000000D03*
D10*
X158158500Y-123000000D03*
G04 #@! TD*
D11*
G04 #@! TO.P,J6,1,Pin_1*
G04 #@! TO.N,/A3*
X159418500Y-114000000D03*
D10*
X158148500Y-114000000D03*
G04 #@! TD*
D11*
G04 #@! TO.P,J5,1,Pin_1*
G04 #@! TO.N,/A2*
X159418500Y-117000000D03*
D10*
X158148500Y-117000000D03*
G04 #@! TD*
D11*
G04 #@! TO.P,J10,1,Pin_1*
G04 #@! TO.N,+5V*
X134680000Y-105000000D03*
D10*
X135950000Y-105000000D03*
G04 #@! TD*
D11*
G04 #@! TO.P,J9,1,Pin_1*
G04 #@! TO.N,/TX*
X134680000Y-102000000D03*
D10*
X135950000Y-102000000D03*
G04 #@! TD*
D11*
G04 #@! TO.P,J16,1,Pin_1*
G04 #@! TO.N,/NEOPIX{slash}RX*
X134680000Y-99000000D03*
D10*
X135950000Y-99000000D03*
G04 #@! TD*
D11*
G04 #@! TO.P,J15,1,Pin_1*
G04 #@! TO.N,/SCK*
X134680000Y-114000000D03*
D10*
X135950000Y-114000000D03*
G04 #@! TD*
D11*
G04 #@! TO.P,J12,1,Pin_1*
G04 #@! TO.N,3.3V*
X134680000Y-111000000D03*
D10*
X135950000Y-111000000D03*
G04 #@! TD*
D12*
G04 #@! TO.P,BZ1,1,-*
G04 #@! TO.N,/A2*
X152540000Y-124685000D03*
D13*
G04 #@! TO.P,BZ1,2,+*
G04 #@! TO.N,GND*
X152540000Y-127225000D03*
G04 #@! TD*
D11*
G04 #@! TO.P,J8,1,Pin_1*
G04 #@! TO.N,SCL*
X134680000Y-129000000D03*
D10*
X135950000Y-129000000D03*
G04 #@! TD*
G04 #@! TO.P,J13,1,Pin_1*
G04 #@! TO.N,/MOSI*
X135950000Y-120000000D03*
D11*
X134680000Y-120000000D03*
G04 #@! TD*
G04 #@! TO.P,J4,1,Pin_1*
G04 #@! TO.N,/A1*
X159209000Y-120000000D03*
D10*
X157939000Y-120000000D03*
G04 #@! TD*
D11*
G04 #@! TO.P,J11,1,Pin_1*
G04 #@! TO.N,GND*
X134680000Y-108000000D03*
D10*
X135950000Y-108000000D03*
G04 #@! TD*
D13*
G04 #@! TO.P,J17,3,Pin_3*
G04 #@! TO.N,/A1*
X157700000Y-132135000D03*
G04 #@! TO.P,J17,2,Pin_2*
G04 #@! TO.N,GND*
X157700000Y-129595000D03*
D12*
G04 #@! TO.P,J17,1,Pin_1*
G04 #@! TO.N,3.3V*
X157700000Y-127055000D03*
G04 #@! TD*
D11*
G04 #@! TO.P,J14,1,Pin_1*
G04 #@! TO.N,/MISO*
X134680000Y-117000000D03*
D10*
X135950000Y-117000000D03*
G04 #@! TD*
D14*
G04 #@! TO.P,C8,1*
G04 #@! TO.N,GND*
X140390000Y-115620000D03*
G04 #@! TO.P,C8,2*
G04 #@! TO.N,3.3V*
X140390000Y-117520000D03*
G04 #@! TD*
D15*
G04 #@! TO.P,C9,1,1*
G04 #@! TO.N,Net-(X1-P$1)*
X155190000Y-106520000D03*
G04 #@! TO.P,C9,2,2*
G04 #@! TO.N,GND*
X155190000Y-107480000D03*
G04 #@! TD*
D16*
G04 #@! TO.P,U2,1,LNA_IN*
G04 #@! TO.N,/LNA*
X151940000Y-108530000D03*
G04 #@! TO.P,U2,2,VDD3P3*
G04 #@! TO.N,/VDD3P3*
X151940000Y-109030000D03*
G04 #@! TO.P,U2,3,VDD3P3*
X151940000Y-109530000D03*
G04 #@! TO.P,U2,4,GPIO0/XTAL_32K+*
G04 #@! TO.N,/A3*
X151940000Y-110030000D03*
G04 #@! TO.P,U2,5,GPIO1/XTAL_32K-*
G04 #@! TO.N,/A2*
X151940000Y-110530000D03*
G04 #@! TO.P,U2,6,GPIO2*
G04 #@! TO.N,Net-(U2-GPIO2)*
X151940000Y-111030000D03*
G04 #@! TO.P,U2,7,CHIP_EN*
G04 #@! TO.N,/~{RESET}*
X151940000Y-111530000D03*
G04 #@! TO.P,U2,8,GPIO3*
G04 #@! TO.N,/A1*
X151940000Y-112030000D03*
D17*
G04 #@! TO.P,U2,9,MTMS/GPIO4*
G04 #@! TO.N,/A0*
X151240000Y-112730000D03*
G04 #@! TO.P,U2,10,MTDI/GPIO5*
G04 #@! TO.N,SDA*
X150740000Y-112730000D03*
G04 #@! TO.P,U2,11,VDD3P3_RTC*
G04 #@! TO.N,3.3V*
X150240000Y-112730000D03*
G04 #@! TO.P,U2,12,MTCK/GPIO6*
G04 #@! TO.N,SCL*
X149740000Y-112730000D03*
G04 #@! TO.P,U2,13,MTDO/GPIO7*
G04 #@! TO.N,/MOSI*
X149240000Y-112730000D03*
G04 #@! TO.P,U2,14,GPIO8*
G04 #@! TO.N,/MISO*
X148740000Y-112730000D03*
G04 #@! TO.P,U2,15,BOOT/GPIO9*
G04 #@! TO.N,/BOOT*
X148240000Y-112730000D03*
G04 #@! TO.P,U2,16,GPIO10*
G04 #@! TO.N,/SCK*
X147740000Y-112730000D03*
D16*
G04 #@! TO.P,U2,17,VDD3P3_CPU*
G04 #@! TO.N,3.3V*
X147040000Y-112030000D03*
G04 #@! TO.P,U2,18,VDD_SPI*
G04 #@! TO.N,/VDD_SPI*
X147040000Y-111530000D03*
G04 #@! TO.P,U2,19,SPIHD*
G04 #@! TO.N,unconnected-(U2-SPIHD-Pad19)*
X147040000Y-111030000D03*
G04 #@! TO.P,U2,20,SPIWP*
G04 #@! TO.N,unconnected-(U2-SPIWP-Pad20)*
X147040000Y-110530000D03*
G04 #@! TO.P,U2,21,SPICS0*
G04 #@! TO.N,unconnected-(U2-SPICS0-Pad21)*
X147040000Y-110030000D03*
G04 #@! TO.P,U2,22,SPICLK*
G04 #@! TO.N,unconnected-(U2-SPICLK-Pad22)*
X147040000Y-109530000D03*
G04 #@! TO.P,U2,23,SPID*
G04 #@! TO.N,unconnected-(U2-SPID-Pad23)*
X147040000Y-109030000D03*
G04 #@! TO.P,U2,24,SPIQ*
G04 #@! TO.N,unconnected-(U2-SPIQ-Pad24)*
X147040000Y-108530000D03*
D17*
G04 #@! TO.P,U2,25,GPIO18*
G04 #@! TO.N,DN*
X147740000Y-107830000D03*
G04 #@! TO.P,U2,26,GPIO19*
G04 #@! TO.N,DP*
X148240000Y-107830000D03*
G04 #@! TO.P,U2,27,U0RXD/GPIO20*
G04 #@! TO.N,/NEOPIX{slash}RX*
X148740000Y-107830000D03*
G04 #@! TO.P,U2,28,U0TXD/GPIO21*
G04 #@! TO.N,Net-(U2-U0TXD{slash}GPIO21)*
X149240000Y-107830000D03*
G04 #@! TO.P,U2,29,XTAL_N*
G04 #@! TO.N,Net-(U2-XTAL_N)*
X149740000Y-107830000D03*
G04 #@! TO.P,U2,30,XTAL_P*
G04 #@! TO.N,Net-(U2-XTAL_P)*
X150240000Y-107830000D03*
G04 #@! TO.P,U2,31,VDDA*
G04 #@! TO.N,3.3V*
X150740000Y-107830000D03*
G04 #@! TO.P,U2,32,VDDA*
X151240000Y-107830000D03*
D18*
G04 #@! TO.P,U2,33,GND*
G04 #@! TO.N,GND*
X149490000Y-110280000D03*
G04 #@! TD*
D19*
G04 #@! TO.P,R4,1,1*
G04 #@! TO.N,Net-(U2-U0TXD{slash}GPIO21)*
X149090000Y-105410000D03*
G04 #@! TO.P,R4,2,2*
G04 #@! TO.N,/TX*
X149090000Y-104390000D03*
G04 #@! TD*
D20*
G04 #@! TO.P,C7,1,1*
G04 #@! TO.N,/LNA*
X154420000Y-108520000D03*
G04 #@! TO.P,C7,2,2*
G04 #@! TO.N,GND*
X155380000Y-108520000D03*
G04 #@! TD*
D21*
G04 #@! TO.P,C17,1,1*
G04 #@! TO.N,Net-(U2-XTAL_P)*
X151090000Y-105540000D03*
G04 #@! TO.P,C17,2,2*
G04 #@! TO.N,GND*
X151090000Y-104580000D03*
G04 #@! TD*
D22*
G04 #@! TO.P,C25,1*
G04 #@! TO.N,+BATT*
X142112500Y-120750000D03*
G04 #@! TO.P,C25,2*
G04 #@! TO.N,GND*
X140562500Y-120750000D03*
G04 #@! TD*
D23*
G04 #@! TO.P,R21,1*
G04 #@! TO.N,/A0*
X152460000Y-114100000D03*
G04 #@! TO.P,R21,2*
G04 #@! TO.N,GND*
X152460000Y-115120000D03*
G04 #@! TD*
D24*
G04 #@! TO.P,R5,1*
G04 #@! TO.N,Net-(USB1-CC2)*
X150390000Y-102620000D03*
G04 #@! TO.P,R5,2*
G04 #@! TO.N,GND*
X149370000Y-102620000D03*
G04 #@! TD*
D25*
G04 #@! TO.P,J2,1,Pin_1*
G04 #@! TO.N,GND*
X136780000Y-126000000D03*
G04 #@! TD*
D26*
G04 #@! TO.P,R14,1*
G04 #@! TO.N,+5V*
X140490000Y-127425000D03*
G04 #@! TO.P,R14,2*
G04 #@! TO.N,Net-(P1-A)*
X140490000Y-125775000D03*
G04 #@! TD*
D21*
G04 #@! TO.P,C15,1,1*
G04 #@! TO.N,3.3V*
X144780000Y-113440000D03*
G04 #@! TO.P,C15,2,2*
G04 #@! TO.N,GND*
X144780000Y-112480000D03*
G04 #@! TD*
D19*
G04 #@! TO.P,R7,1,1*
G04 #@! TO.N,3.3V*
X148130000Y-116520000D03*
G04 #@! TO.P,R7,2,2*
G04 #@! TO.N,/MISO*
X148130000Y-115500000D03*
G04 #@! TD*
D27*
G04 #@! TO.P,U5,1,STAT*
G04 #@! TO.N,Net-(P1-K)*
X140640000Y-124250000D03*
G04 #@! TO.P,U5,2,V_{SS}*
G04 #@! TO.N,GND*
X140640000Y-123300000D03*
G04 #@! TO.P,U5,3,V_{BAT}*
G04 #@! TO.N,+BATT*
X140640000Y-122350000D03*
G04 #@! TO.P,U5,4,V_{DD}*
G04 #@! TO.N,+5V*
X142915000Y-122350000D03*
G04 #@! TO.P,U5,5,PROG*
G04 #@! TO.N,Net-(U5-PROG)*
X142915000Y-124250000D03*
G04 #@! TD*
D28*
G04 #@! TO.P,C1,1*
G04 #@! TO.N,Net-(D1-K)*
X141230000Y-109210000D03*
G04 #@! TO.P,C1,2*
G04 #@! TO.N,GND*
X143130000Y-109210000D03*
G04 #@! TD*
D29*
G04 #@! TO.P,R9,1*
G04 #@! TO.N,+5V*
X141405000Y-107430000D03*
G04 #@! TO.P,R9,2*
G04 #@! TO.N,GND*
X142955000Y-107430000D03*
G04 #@! TD*
D26*
G04 #@! TO.P,R19,1*
G04 #@! TO.N,+5V*
X142000000Y-101225000D03*
G04 #@! TO.P,R19,2*
G04 #@! TO.N,Net-(Green2-A)*
X142000000Y-99575000D03*
G04 #@! TD*
D23*
G04 #@! TO.P,R1,1,1*
G04 #@! TO.N,3.3V*
X154820000Y-112740000D03*
G04 #@! TO.P,R1,2,2*
G04 #@! TO.N,/~{RESET}*
X154820000Y-113760000D03*
G04 #@! TD*
D30*
G04 #@! TO.P,Y1,1,1*
G04 #@! TO.N,Net-(U2-XTAL_P)*
X152370000Y-105270000D03*
G04 #@! TO.P,Y1,2,2*
G04 #@! TO.N,GND*
X152370000Y-103870000D03*
G04 #@! TO.P,Y1,3,3*
G04 #@! TO.N,Net-(C18-Pad1)*
X153470000Y-103870000D03*
G04 #@! TO.P,Y1,4,4*
G04 #@! TO.N,GND*
X153470000Y-105270000D03*
G04 #@! TD*
D20*
G04 #@! TO.P,C10,1,1*
G04 #@! TO.N,3.3V*
X151190000Y-106570000D03*
G04 #@! TO.P,C10,2,2*
G04 #@! TO.N,GND*
X152150000Y-106570000D03*
G04 #@! TD*
D31*
G04 #@! TO.P,USB1,A1,GND*
G04 #@! TO.N,GND*
X145240000Y-100860000D03*
G04 #@! TO.P,USB1,A4,VBUS*
G04 #@! TO.N,VBUS*
X146040000Y-100860000D03*
D32*
G04 #@! TO.P,USB1,A5,CC1*
G04 #@! TO.N,Net-(USB1-CC1)*
X147240000Y-100860000D03*
G04 #@! TO.P,USB1,A6,D+*
G04 #@! TO.N,DP*
X148240000Y-100860000D03*
G04 #@! TO.P,USB1,A7,D-*
G04 #@! TO.N,DN*
X148740000Y-100860000D03*
G04 #@! TO.P,USB1,A8,SBU1*
G04 #@! TO.N,unconnected-(USB1-SBU1-PadA8)*
X149740000Y-100860000D03*
D31*
G04 #@! TO.P,USB1,A9,VBUS*
G04 #@! TO.N,VBUS*
X150940000Y-100860000D03*
G04 #@! TO.P,USB1,A12,GND*
G04 #@! TO.N,GND*
X151740000Y-100860000D03*
G04 #@! TO.P,USB1,B1,GND*
X151740000Y-100860000D03*
G04 #@! TO.P,USB1,B4,VBUS*
G04 #@! TO.N,VBUS*
X150940000Y-100860000D03*
D32*
G04 #@! TO.P,USB1,B5,CC2*
G04 #@! TO.N,Net-(USB1-CC2)*
X150240000Y-100860000D03*
G04 #@! TO.P,USB1,B6,D+*
G04 #@! TO.N,DP*
X149240000Y-100860000D03*
G04 #@! TO.P,USB1,B7,D-*
G04 #@! TO.N,DN*
X147740000Y-100860000D03*
G04 #@! TO.P,USB1,B8,SBU2*
G04 #@! TO.N,unconnected-(USB1-SBU2-PadB8)*
X146740000Y-100860000D03*
D31*
G04 #@! TO.P,USB1,B9,VBUS*
G04 #@! TO.N,VBUS*
X146040000Y-100860000D03*
G04 #@! TO.P,USB1,B12,GND*
G04 #@! TO.N,GND*
X145240000Y-100860000D03*
D33*
G04 #@! TO.P,USB1,S1,SHIELD*
X144170000Y-95765000D03*
D34*
X144170000Y-99945000D03*
D33*
X152810000Y-95765000D03*
D34*
X152810000Y-99945000D03*
G04 #@! TD*
D35*
G04 #@! TO.P,L1,1,1*
G04 #@! TO.N,3.3V*
X155385000Y-109520000D03*
G04 #@! TO.P,L1,2,2*
G04 #@! TO.N,/VDD3P3*
X154415000Y-109520000D03*
G04 #@! TD*
D19*
G04 #@! TO.P,R2,1,1*
G04 #@! TO.N,3.3V*
X153760000Y-112750000D03*
G04 #@! TO.P,R2,2,2*
G04 #@! TO.N,Net-(U2-GPIO2)*
X153760000Y-111730000D03*
G04 #@! TD*
D36*
G04 #@! TO.P,U1,1,VIN*
G04 #@! TO.N,Net-(D1-K)*
X142117252Y-114753000D03*
G04 #@! TO.P,U1,2,GND*
G04 #@! TO.N,GND*
X143083252Y-114753000D03*
G04 #@! TO.P,U1,3,EN*
G04 #@! TO.N,Net-(D1-K)*
X144023252Y-114753000D03*
G04 #@! TO.P,U1,4,NC*
G04 #@! TO.N,unconnected-(U1-NC-Pad4)*
X144023252Y-117547000D03*
G04 #@! TO.P,U1,5,VOUT*
G04 #@! TO.N,3.3V*
X142143252Y-117547000D03*
G04 #@! TD*
D21*
G04 #@! TO.P,C16,1,1*
G04 #@! TO.N,3.3V*
X145770000Y-113440000D03*
G04 #@! TO.P,C16,2,2*
G04 #@! TO.N,GND*
X145770000Y-112480000D03*
G04 #@! TD*
D37*
G04 #@! TO.P,R13,1*
G04 #@! TO.N,Net-(U5-PROG)*
X144955000Y-124230000D03*
G04 #@! TO.P,R13,2*
G04 #@! TO.N,GND*
X146605000Y-124230000D03*
G04 #@! TD*
D38*
G04 #@! TO.P,P2,1,K*
G04 #@! TO.N,Net-(P2-K)*
X143640000Y-127367500D03*
G04 #@! TO.P,P2,2,A*
G04 #@! TO.N,Net-(P1-K)*
X143640000Y-125792500D03*
G04 #@! TD*
D25*
G04 #@! TO.P,J1,1,Pin_1*
G04 #@! TO.N,+BATT*
X136750000Y-123000000D03*
G04 #@! TD*
D15*
G04 #@! TO.P,C2,1,1*
G04 #@! TO.N,3.3V*
X145770000Y-109580000D03*
G04 #@! TO.P,C2,2,2*
G04 #@! TO.N,GND*
X145770000Y-110540000D03*
G04 #@! TD*
D39*
G04 #@! TO.P,D1,1,K*
G04 #@! TO.N,Net-(D1-K)*
X145870000Y-114762500D03*
G04 #@! TO.P,D1,2,A*
G04 #@! TO.N,+5V*
X145870000Y-117562500D03*
G04 #@! TD*
D21*
G04 #@! TO.P,C14,1,1*
G04 #@! TO.N,3.3V*
X153160000Y-107480000D03*
G04 #@! TO.P,C14,2,2*
G04 #@! TO.N,GND*
X153160000Y-106520000D03*
G04 #@! TD*
D40*
G04 #@! TO.P,C6,1,1*
G04 #@! TO.N,3.3V*
X156870000Y-110680000D03*
G04 #@! TO.P,C6,2,2*
G04 #@! TO.N,GND*
X156870000Y-108780000D03*
G04 #@! TD*
D23*
G04 #@! TO.P,R6,1*
G04 #@! TO.N,Net-(USB1-CC1)*
X146090000Y-104000000D03*
G04 #@! TO.P,R6,2*
G04 #@! TO.N,GND*
X146090000Y-105020000D03*
G04 #@! TD*
D41*
G04 #@! TO.P,C11,1,1*
G04 #@! TO.N,/VDD_SPI*
X145780000Y-111520000D03*
G04 #@! TO.P,C11,2,2*
G04 #@! TO.N,GND*
X144820000Y-111520000D03*
G04 #@! TD*
D26*
G04 #@! TO.P,R15,1*
G04 #@! TO.N,Net-(P2-K)*
X145210000Y-127425000D03*
G04 #@! TO.P,R15,2*
G04 #@! TO.N,GND*
X145210000Y-125775000D03*
G04 #@! TD*
D41*
G04 #@! TO.P,C18,1,1*
G04 #@! TO.N,Net-(C18-Pad1)*
X151040000Y-103610000D03*
G04 #@! TO.P,C18,2,2*
G04 #@! TO.N,GND*
X150080000Y-103610000D03*
G04 #@! TD*
D42*
G04 #@! TO.P,L2,1,1*
G04 #@! TO.N,/LNA*
X154170000Y-107485000D03*
G04 #@! TO.P,L2,2,2*
G04 #@! TO.N,Net-(X1-P$1)*
X154170000Y-106515000D03*
G04 #@! TD*
D23*
G04 #@! TO.P,R20,1*
G04 #@! TO.N,/A0*
X151440000Y-114080000D03*
G04 #@! TO.P,R20,2*
G04 #@! TO.N,+BATT*
X151440000Y-115100000D03*
G04 #@! TD*
D43*
G04 #@! TO.P,Green2,1,K*
G04 #@! TO.N,GND*
X140460000Y-99632500D03*
G04 #@! TO.P,Green2,2,A*
G04 #@! TO.N,Net-(Green2-A)*
X140460000Y-101207500D03*
G04 #@! TD*
D15*
G04 #@! TO.P,C3,1,1*
G04 #@! TO.N,/~{RESET}*
X154820000Y-114730000D03*
G04 #@! TO.P,C3,2,2*
G04 #@! TO.N,GND*
X154820000Y-115690000D03*
G04 #@! TD*
D44*
G04 #@! TO.P,Q4,1,G*
G04 #@! TO.N,+5V*
X143030000Y-111040000D03*
G04 #@! TO.P,Q4,2,S*
G04 #@! TO.N,Net-(D1-K)*
X143030000Y-112940000D03*
G04 #@! TO.P,Q4,3,D*
G04 #@! TO.N,+BATT*
X141155000Y-111990000D03*
G04 #@! TD*
D23*
G04 #@! TO.P,R3,1,1*
G04 #@! TO.N,Net-(C18-Pad1)*
X150090000Y-104550000D03*
G04 #@! TO.P,R3,2,2*
G04 #@! TO.N,Net-(U2-XTAL_N)*
X150090000Y-105570000D03*
G04 #@! TD*
D15*
G04 #@! TO.P,C4,1,1*
G04 #@! TO.N,3.3V*
X144780000Y-109580000D03*
G04 #@! TO.P,C4,2,2*
G04 #@! TO.N,GND*
X144780000Y-110540000D03*
G04 #@! TD*
D45*
G04 #@! TO.P,D5,A,A*
G04 #@! TO.N,VBUS*
X145040000Y-102960000D03*
G04 #@! TO.P,D5,C,C*
G04 #@! TO.N,+5V*
X142900000Y-102960000D03*
G04 #@! TD*
D43*
G04 #@! TO.P,P1,1,K*
G04 #@! TO.N,Net-(P1-K)*
X142040000Y-125832500D03*
G04 #@! TO.P,P1,2,A*
G04 #@! TO.N,Net-(P1-A)*
X142040000Y-127407500D03*
G04 #@! TD*
D29*
G04 #@! TO.P,C24,1*
G04 #@! TO.N,+5V*
X145045000Y-122380000D03*
G04 #@! TO.P,C24,2*
G04 #@! TO.N,GND*
X146595000Y-122380000D03*
G04 #@! TD*
D46*
G04 #@! TO.N,GND*
X147990000Y-120910000D03*
X147840000Y-127550000D03*
X140920000Y-102370000D03*
X138480000Y-100540000D03*
X138270000Y-106630000D03*
X140330000Y-106180000D03*
X156660000Y-124910000D03*
X146120000Y-128810000D03*
X138760000Y-133820000D03*
X152760000Y-122310000D03*
G04 #@! TO.N,3.3V*
X153115000Y-131015000D03*
G04 #@! TO.N,GND*
X152670000Y-106550000D03*
X153970000Y-135320000D03*
X152480000Y-116290000D03*
X141760000Y-123300000D03*
X139020000Y-97390000D03*
X143720000Y-116330000D03*
X138130000Y-124880000D03*
X147600000Y-128870000D03*
X141580000Y-103180000D03*
X143090000Y-104860000D03*
X151720000Y-104320000D03*
X158540000Y-111970000D03*
X140490000Y-98490000D03*
X148130000Y-123180000D03*
X153020000Y-101780000D03*
X151540000Y-132490000D03*
X144350000Y-105100000D03*
X138250000Y-125970000D03*
X153360000Y-133070000D03*
X139090000Y-124410000D03*
X148300000Y-126140000D03*
X153330000Y-134510000D03*
X147980000Y-105160000D03*
X148460000Y-103040000D03*
X138860000Y-120760000D03*
X138840000Y-104310000D03*
X139580000Y-123300000D03*
X155880000Y-108520000D03*
X145000000Y-104110000D03*
X146510000Y-107660000D03*
X154790000Y-116410000D03*
X152240000Y-102010000D03*
X142965000Y-113955000D03*
X139010000Y-125600000D03*
X146850000Y-127550000D03*
X143200000Y-97920000D03*
X146600000Y-125790000D03*
X152060000Y-97860000D03*
X149490000Y-110280000D03*
X148890000Y-127640000D03*
X140940000Y-96740000D03*
X147980000Y-104050000D03*
X139180000Y-109180000D03*
X143083252Y-115520000D03*
X145630000Y-130170000D03*
X140060000Y-105190000D03*
X138330000Y-127200000D03*
X154240000Y-133860000D03*
X144800000Y-134760000D03*
X158100000Y-108820000D03*
X138730000Y-107800000D03*
X144230000Y-101690000D03*
G04 #@! TO.N,/~{RESET}*
X152920000Y-111880000D03*
X154790000Y-114250000D03*
G04 #@! TO.N,VBUS*
X151130000Y-102020000D03*
X145760000Y-102040000D03*
G04 #@! TO.N,3.3V*
X145260000Y-107350000D03*
X154830000Y-112120000D03*
X155640000Y-110160000D03*
X149680000Y-120170000D03*
X149055000Y-131615000D03*
X148120000Y-117140000D03*
X144170000Y-109020000D03*
X151880000Y-107480000D03*
X146980000Y-112760000D03*
X141430000Y-117547000D03*
D47*
G04 #@! TO.N,Net-(X1-P$1)*
X156575000Y-105125000D03*
D46*
G04 #@! TO.N,+BATT*
X152000000Y-118440000D03*
X139430000Y-122320000D03*
X140960000Y-111270000D03*
G04 #@! TO.N,SDA*
X147590000Y-133740000D03*
G04 #@! TO.N,SCL*
X147830000Y-132380000D03*
G04 #@! TO.N,+5V*
X143100000Y-111780000D03*
X140350000Y-107430000D03*
X146910000Y-120900000D03*
X145010000Y-117550000D03*
X142940000Y-123290000D03*
X140500000Y-128250000D03*
G04 #@! TO.N,/TX*
X149070000Y-103790000D03*
G04 #@! TO.N,/NEOPIX{slash}RX*
X148220000Y-106050000D03*
G04 #@! TO.N,/BOOT*
X148070000Y-114240000D03*
G04 #@! TD*
D48*
G04 #@! TO.N,+5V*
X145045000Y-121255000D02*
X145045000Y-122380000D01*
X146910000Y-120900000D02*
X145400000Y-120900000D01*
X145400000Y-120900000D02*
X145045000Y-121255000D01*
D49*
G04 #@! TO.N,SCL*
X149740000Y-118542052D02*
X149740000Y-112730000D01*
X148823000Y-120723000D02*
X148823000Y-119459052D01*
X148823000Y-119459052D02*
X149740000Y-118542052D01*
X149763000Y-129657000D02*
X149763000Y-121663000D01*
X149763000Y-121663000D02*
X148823000Y-120723000D01*
X147830000Y-132380000D02*
X147830000Y-131590000D01*
X147830000Y-131590000D02*
X149763000Y-129657000D01*
D50*
G04 #@! TO.N,GND*
X146605000Y-123180000D02*
X146595000Y-123170000D01*
X148130000Y-123180000D02*
X146605000Y-123180000D01*
D48*
X146595000Y-123170000D02*
X146595000Y-124220000D01*
X146595000Y-122380000D02*
X146595000Y-123170000D01*
D49*
G04 #@! TO.N,/SCK*
X138370000Y-116420000D02*
X135950000Y-114000000D01*
X146648000Y-118572000D02*
X139182000Y-118572000D01*
X138370000Y-117760000D02*
X138370000Y-116420000D01*
X147280000Y-117940000D02*
X146648000Y-118572000D01*
X147280000Y-113710000D02*
X147280000Y-117940000D01*
X139182000Y-118572000D02*
X138370000Y-117760000D01*
X147740000Y-113250000D02*
X147280000Y-113710000D01*
X147740000Y-112730000D02*
X147740000Y-113250000D01*
G04 #@! TO.N,/A3*
X156900000Y-114000000D02*
X158148500Y-114000000D01*
X156184000Y-111824000D02*
X156184000Y-113284000D01*
X155040000Y-110680000D02*
X156184000Y-111824000D01*
X154402052Y-110680000D02*
X155040000Y-110680000D01*
X153752052Y-110030000D02*
X154402052Y-110680000D01*
X156184000Y-113284000D02*
X156900000Y-114000000D01*
X151940000Y-110030000D02*
X153752052Y-110030000D01*
G04 #@! TO.N,SDA*
X148120000Y-133740000D02*
X147590000Y-133740000D01*
X150740000Y-131120000D02*
X148120000Y-133740000D01*
X150740000Y-112730000D02*
X150740000Y-131120000D01*
D50*
G04 #@! TO.N,3.3V*
X149055000Y-131039580D02*
X150240000Y-129854580D01*
X149055000Y-131615000D02*
X149055000Y-131039580D01*
X150240000Y-129854580D02*
X150240000Y-120730000D01*
X150240000Y-120730000D02*
X149680000Y-120170000D01*
G04 #@! TO.N,SCL*
X147390000Y-132820000D02*
X147830000Y-132380000D01*
X141510000Y-130280000D02*
X144050000Y-132820000D01*
X136950000Y-129000000D02*
X138230000Y-130280000D01*
X138230000Y-130280000D02*
X141510000Y-130280000D01*
X144050000Y-132820000D02*
X147390000Y-132820000D01*
X135950000Y-129000000D02*
X136950000Y-129000000D01*
G04 #@! TO.N,SDA*
X137060000Y-132000000D02*
X135950000Y-132000000D01*
X141302894Y-130780000D02*
X138280000Y-130780000D01*
X138280000Y-130780000D02*
X137060000Y-132000000D01*
X143842893Y-133320000D02*
X141302894Y-130780000D01*
X147170000Y-133320000D02*
X143842893Y-133320000D01*
X147590000Y-133740000D02*
X147170000Y-133320000D01*
D49*
G04 #@! TO.N,/A0*
X153426000Y-114446000D02*
X153426000Y-119948052D01*
X153080000Y-114100000D02*
X153426000Y-114446000D01*
X156782500Y-121624000D02*
X158158500Y-123000000D01*
X152460000Y-114100000D02*
X153080000Y-114100000D01*
X153426000Y-119948052D02*
X155101948Y-121624000D01*
X155101948Y-121624000D02*
X156782500Y-121624000D01*
G04 #@! TO.N,/A1*
X155290000Y-121170000D02*
X156769000Y-121170000D01*
X153880000Y-113970000D02*
X153880000Y-119760000D01*
X153880000Y-119760000D02*
X155290000Y-121170000D01*
X151940000Y-112030000D02*
X153880000Y-113970000D01*
X156769000Y-121170000D02*
X157939000Y-120000000D01*
D50*
G04 #@! TO.N,3.3V*
X153115000Y-130335000D02*
X156395000Y-127055000D01*
X153115000Y-131015000D02*
X153115000Y-130335000D01*
X156395000Y-127055000D02*
X157700000Y-127055000D01*
G04 #@! TO.N,GND*
X153360000Y-132470000D02*
X153360000Y-133070000D01*
X156235000Y-129595000D02*
X153360000Y-132470000D01*
X157700000Y-129595000D02*
X156235000Y-129595000D01*
D48*
X147980000Y-104050000D02*
X147980000Y-105160000D01*
X147980000Y-103520000D02*
X147980000Y-104050000D01*
X148460000Y-103040000D02*
X147980000Y-103520000D01*
X149370000Y-102900000D02*
X150080000Y-103610000D01*
X149370000Y-102620000D02*
X149370000Y-102900000D01*
D49*
G04 #@! TO.N,Net-(USB1-CC2)*
X150370000Y-102120000D02*
X150370000Y-102600000D01*
X150370000Y-102600000D02*
X150390000Y-102620000D01*
X150240000Y-101990000D02*
X150370000Y-102120000D01*
X150240000Y-100860000D02*
X150240000Y-101990000D01*
D48*
G04 #@! TO.N,GND*
X148930000Y-103040000D02*
X149360000Y-102610000D01*
X148460000Y-103040000D02*
X148930000Y-103040000D01*
D51*
G04 #@! TO.N,DP*
X148922026Y-102047974D02*
X149240000Y-101730000D01*
X148240000Y-102047974D02*
X148922026Y-102047974D01*
X149240000Y-101730000D02*
X149240000Y-100860000D01*
D48*
G04 #@! TO.N,GND*
X146090000Y-105020000D02*
X146090000Y-106660000D01*
X155380000Y-107670000D02*
X155190000Y-107480000D01*
X144460000Y-110540000D02*
X143130000Y-109210000D01*
X144780000Y-111480000D02*
X144820000Y-111520000D01*
X136780000Y-126000000D02*
X136810000Y-125970000D01*
X146595000Y-124220000D02*
X146605000Y-124230000D01*
X140640000Y-123300000D02*
X141760000Y-123300000D01*
X138870000Y-120750000D02*
X138860000Y-120760000D01*
D49*
X151350000Y-104320000D02*
X151090000Y-104580000D01*
D48*
X144780000Y-112480000D02*
X144780000Y-111560000D01*
X140640000Y-123300000D02*
X139580000Y-123300000D01*
D50*
X154820000Y-115690000D02*
X154820000Y-116380000D01*
X140460000Y-99632500D02*
X140460000Y-98520000D01*
D48*
X146585000Y-125775000D02*
X146600000Y-125790000D01*
D50*
X143083252Y-114073252D02*
X143083252Y-114753000D01*
D48*
X146510000Y-107100000D02*
X146510000Y-107660000D01*
X158060000Y-108780000D02*
X158100000Y-108820000D01*
X144350000Y-105100000D02*
X146010000Y-105100000D01*
D50*
X140460000Y-98520000D02*
X140490000Y-98490000D01*
D48*
X143083252Y-115520000D02*
X143083252Y-114753000D01*
X142955000Y-107430000D02*
X142955000Y-106495000D01*
X144780000Y-111560000D02*
X144820000Y-111520000D01*
X152810000Y-95765000D02*
X152810000Y-97880000D01*
D50*
X152190000Y-106550000D02*
X153130000Y-106550000D01*
D48*
X156870000Y-108780000D02*
X158060000Y-108780000D01*
D50*
X153470000Y-105270000D02*
X153470000Y-105700000D01*
D48*
X145240000Y-100860000D02*
X145060000Y-100860000D01*
X152810000Y-97880000D02*
X152810000Y-99945000D01*
D50*
X152460000Y-115120000D02*
X152460000Y-116270000D01*
D48*
X146090000Y-106660000D02*
X146520000Y-107090000D01*
D50*
X152460000Y-116270000D02*
X152480000Y-116290000D01*
D48*
X151895000Y-100860000D02*
X152810000Y-99945000D01*
X136810000Y-125970000D02*
X138250000Y-125970000D01*
X151740000Y-100860000D02*
X151895000Y-100860000D01*
X146010000Y-105100000D02*
X146090000Y-105020000D01*
D50*
X154820000Y-116380000D02*
X154790000Y-116410000D01*
D49*
X151720000Y-104320000D02*
X152170000Y-103870000D01*
D48*
X152060000Y-97860000D02*
X152790000Y-97860000D01*
D49*
X151720000Y-104320000D02*
X151350000Y-104320000D01*
D50*
X139180000Y-113060000D02*
X139180000Y-109180000D01*
D48*
X144780000Y-110540000D02*
X144460000Y-110540000D01*
X145770000Y-112480000D02*
X144780000Y-112480000D01*
X144170000Y-95765000D02*
X152810000Y-95765000D01*
X137010000Y-126000000D02*
X136780000Y-126000000D01*
X145210000Y-125775000D02*
X146585000Y-125775000D01*
X144170000Y-97960000D02*
X144170000Y-95765000D01*
X156610000Y-108520000D02*
X155380000Y-108520000D01*
X155380000Y-108520000D02*
X155380000Y-107670000D01*
X151740000Y-100860000D02*
X151740000Y-101510000D01*
D50*
X142965000Y-113955000D02*
X143083252Y-114073252D01*
X140390000Y-115620000D02*
X140390000Y-114270000D01*
D48*
X138330000Y-127200000D02*
X137980000Y-127200000D01*
X144170000Y-99945000D02*
X144170000Y-97960000D01*
X152790000Y-97860000D02*
X152810000Y-97880000D01*
D50*
X153470000Y-105700000D02*
X153160000Y-106010000D01*
D48*
X144780000Y-110540000D02*
X144780000Y-111480000D01*
X142955000Y-106495000D02*
X144350000Y-105100000D01*
X146605000Y-124230000D02*
X146605000Y-125785000D01*
D50*
X153130000Y-106550000D02*
X153160000Y-106520000D01*
D48*
X145770000Y-110540000D02*
X144780000Y-110540000D01*
D50*
X153160000Y-106010000D02*
X153160000Y-106520000D01*
D49*
X152170000Y-103870000D02*
X152370000Y-103870000D01*
D48*
X143130000Y-109210000D02*
X143130000Y-107605000D01*
D50*
X140390000Y-114270000D02*
X139180000Y-113060000D01*
D48*
X146605000Y-125785000D02*
X146600000Y-125790000D01*
X138130000Y-124880000D02*
X137010000Y-126000000D01*
X144170000Y-97960000D02*
X143240000Y-97960000D01*
X146520000Y-107090000D02*
X146510000Y-107100000D01*
X140562500Y-120750000D02*
X138870000Y-120750000D01*
X137980000Y-127200000D02*
X136780000Y-126000000D01*
X143130000Y-107605000D02*
X142955000Y-107430000D01*
X145060000Y-100860000D02*
X144230000Y-101690000D01*
X145085000Y-100860000D02*
X144170000Y-99945000D01*
X145240000Y-100860000D02*
X145085000Y-100860000D01*
X143240000Y-97960000D02*
X143200000Y-97920000D01*
X156870000Y-108780000D02*
X156610000Y-108520000D01*
X151740000Y-101510000D02*
X152240000Y-102010000D01*
D49*
G04 #@! TO.N,/~{RESET}*
X154790000Y-113790000D02*
X154820000Y-113760000D01*
X152920000Y-111880000D02*
X152570000Y-111530000D01*
X154790000Y-114250000D02*
X154790000Y-113790000D01*
X154790000Y-114250000D02*
X154790000Y-114700000D01*
X152570000Y-111530000D02*
X151940000Y-111530000D01*
X154790000Y-114700000D02*
X154820000Y-114730000D01*
D50*
G04 #@! TO.N,VBUS*
X146040000Y-100860000D02*
X146040000Y-100160000D01*
D48*
X146040000Y-100860000D02*
X146040000Y-101760000D01*
X146040000Y-101760000D02*
X145760000Y-102040000D01*
D50*
X146040000Y-100160000D02*
X147120000Y-99080000D01*
X150940000Y-100190000D02*
X150940000Y-100860000D01*
D48*
X150940000Y-100860000D02*
X150940000Y-101830000D01*
D50*
X147120000Y-99080000D02*
X149830000Y-99080000D01*
D48*
X145040000Y-102960000D02*
X145040000Y-102760000D01*
X145040000Y-102760000D02*
X145760000Y-102040000D01*
X150940000Y-101830000D02*
X151130000Y-102020000D01*
D50*
X149830000Y-99080000D02*
X150940000Y-100190000D01*
D52*
G04 #@! TO.N,/LNA*
X154410000Y-108530000D02*
X154170000Y-108290000D01*
D49*
X152800000Y-108520000D02*
X152790000Y-108530000D01*
X151940000Y-108530000D02*
X152790000Y-108530000D01*
D52*
X154420000Y-108520000D02*
X152800000Y-108520000D01*
X154170000Y-108290000D02*
X154170000Y-107485000D01*
D48*
G04 #@! TO.N,3.3V*
X144780000Y-109580000D02*
X144730000Y-109580000D01*
X140390000Y-117520000D02*
X141403000Y-117520000D01*
D49*
X151240000Y-107420000D02*
X151240000Y-106560000D01*
D48*
X145770000Y-113440000D02*
X144780000Y-113440000D01*
X155400000Y-109520000D02*
X155400000Y-109920000D01*
X146980000Y-112760000D02*
X146300000Y-113440000D01*
X154830000Y-112730000D02*
X154820000Y-112740000D01*
X140390000Y-117520000D02*
X138580000Y-115710000D01*
X147040000Y-112700000D02*
X147040000Y-112200000D01*
X146980000Y-112760000D02*
X147040000Y-112700000D01*
X156160000Y-110680000D02*
X155640000Y-110160000D01*
X146300000Y-113440000D02*
X145770000Y-113440000D01*
D50*
X150240000Y-119610000D02*
X150240000Y-112730000D01*
X149680000Y-120170000D02*
X150240000Y-119610000D01*
D48*
X156870000Y-110680000D02*
X156160000Y-110680000D01*
X153770000Y-112740000D02*
X153760000Y-112750000D01*
X154820000Y-112740000D02*
X153770000Y-112740000D01*
X138580000Y-115710000D02*
X138580000Y-113630000D01*
X144780000Y-109580000D02*
X144780000Y-107830000D01*
X144780000Y-109580000D02*
X145770000Y-109580000D01*
D50*
X148130000Y-117130000D02*
X148120000Y-117140000D01*
D49*
X151880000Y-107480000D02*
X151300000Y-107480000D01*
D48*
X144730000Y-109580000D02*
X144170000Y-109020000D01*
D49*
X151300000Y-107480000D02*
X151240000Y-107420000D01*
X151240000Y-106560000D02*
X151230000Y-106550000D01*
D48*
X141430000Y-117547000D02*
X142143252Y-117547000D01*
X138580000Y-113630000D02*
X135950000Y-111000000D01*
X154830000Y-112120000D02*
X154830000Y-112730000D01*
D49*
X151240000Y-107830000D02*
X150740000Y-107830000D01*
D48*
X144780000Y-107830000D02*
X145260000Y-107350000D01*
X141403000Y-117520000D02*
X141430000Y-117547000D01*
D49*
X153160000Y-107480000D02*
X151880000Y-107480000D01*
X151240000Y-107830000D02*
X151240000Y-107420000D01*
D48*
X155400000Y-109920000D02*
X155640000Y-110160000D01*
D50*
X148130000Y-116520000D02*
X148130000Y-117130000D01*
D53*
G04 #@! TO.N,Net-(X1-P$1)*
X156575000Y-105125000D02*
X155185000Y-106515000D01*
D48*
X155185000Y-106515000D02*
X155190000Y-106520000D01*
D52*
X154170000Y-106515000D02*
X155185000Y-106515000D01*
D50*
G04 #@! TO.N,/VDD_SPI*
X145780000Y-111520000D02*
X147030000Y-111520000D01*
D49*
G04 #@! TO.N,Net-(U2-XTAL_P)*
X150240000Y-106393367D02*
X151090000Y-105543367D01*
X151090000Y-105543367D02*
X151090000Y-105540000D01*
X152100000Y-105540000D02*
X152370000Y-105270000D01*
X151090000Y-105540000D02*
X152100000Y-105540000D01*
X150240000Y-107830000D02*
X150240000Y-106393367D01*
D48*
G04 #@! TO.N,+BATT*
X152000000Y-118440000D02*
X151440000Y-117880000D01*
X139460000Y-122350000D02*
X140640000Y-122350000D01*
X138150000Y-123000000D02*
X136750000Y-123000000D01*
X138830000Y-122320000D02*
X138150000Y-123000000D01*
X140640000Y-122222500D02*
X142112500Y-120750000D01*
X139430000Y-122320000D02*
X138830000Y-122320000D01*
X140640000Y-122350000D02*
X140640000Y-122222500D01*
X151440000Y-117880000D02*
X151440000Y-115100000D01*
X140960000Y-111270000D02*
X140960000Y-111795000D01*
X140960000Y-111795000D02*
X141155000Y-111990000D01*
X139430000Y-122320000D02*
X139460000Y-122350000D01*
G04 #@! TO.N,+5V*
X142940000Y-122380000D02*
X145045000Y-122380000D01*
X145870000Y-117562500D02*
X145022500Y-117562500D01*
X145022500Y-117562500D02*
X145010000Y-117550000D01*
X142940000Y-123290000D02*
X142940000Y-122375000D01*
X141405000Y-107430000D02*
X141405000Y-105235000D01*
X142900000Y-102960000D02*
X142900000Y-102125000D01*
X142915000Y-122350000D02*
X142940000Y-122350000D01*
X143100000Y-111110000D02*
X143030000Y-111040000D01*
X141405000Y-105235000D02*
X142900000Y-103740000D01*
X140490000Y-127425000D02*
X140490000Y-128240000D01*
X142900000Y-103740000D02*
X142900000Y-102960000D01*
X140490000Y-128240000D02*
X140500000Y-128250000D01*
X142940000Y-122375000D02*
X142915000Y-122350000D01*
X142940000Y-123290000D02*
X142940000Y-122380000D01*
X140350000Y-107430000D02*
X141405000Y-107430000D01*
X143100000Y-111780000D02*
X143100000Y-111110000D01*
X142900000Y-102125000D02*
X142000000Y-101225000D01*
D50*
G04 #@! TO.N,Net-(P1-K)*
X142040000Y-125832500D02*
X143600000Y-125832500D01*
X142040000Y-125650000D02*
X140640000Y-124250000D01*
X143600000Y-125832500D02*
X143640000Y-125792500D01*
X142040000Y-125832500D02*
X142040000Y-125650000D01*
D49*
G04 #@! TO.N,/A0*
X152440000Y-114080000D02*
X152460000Y-114100000D01*
X151440000Y-114080000D02*
X152440000Y-114080000D01*
X151240000Y-113880000D02*
X151440000Y-114080000D01*
X151240000Y-112730000D02*
X151240000Y-113880000D01*
G04 #@! TO.N,/A2*
X154851948Y-111134000D02*
X155730000Y-112012052D01*
X155730000Y-112012052D02*
X155730000Y-115771000D01*
X151940000Y-110530000D02*
X153610000Y-110530000D01*
X154214000Y-111134000D02*
X154851948Y-111134000D01*
X153610000Y-110530000D02*
X154214000Y-111134000D01*
X155730000Y-115771000D02*
X156879000Y-116920000D01*
G04 #@! TO.N,/TX*
X149090000Y-104390000D02*
X149090000Y-103810000D01*
X149090000Y-103810000D02*
X149070000Y-103790000D01*
G04 #@! TO.N,/NEOPIX{slash}RX*
X148740000Y-106570000D02*
X148740000Y-107830000D01*
X148220000Y-106050000D02*
X148740000Y-106570000D01*
G04 #@! TO.N,/MISO*
X148786000Y-118211948D02*
X148786000Y-116156000D01*
X148740000Y-112730000D02*
X148740000Y-114890000D01*
X138993948Y-119026000D02*
X147971948Y-119026000D01*
X148786000Y-116156000D02*
X148130000Y-115500000D01*
X147971948Y-119026000D02*
X148786000Y-118211948D01*
X135950000Y-117000000D02*
X136967948Y-117000000D01*
X136967948Y-117000000D02*
X138993948Y-119026000D01*
X148740000Y-114890000D02*
X148130000Y-115500000D01*
G04 #@! TO.N,/MOSI*
X138070000Y-120000000D02*
X135950000Y-120000000D01*
X138590000Y-119480000D02*
X138070000Y-120000000D01*
X149240000Y-118400000D02*
X148160000Y-119480000D01*
X148160000Y-119480000D02*
X138590000Y-119480000D01*
X149240000Y-112730000D02*
X149240000Y-118400000D01*
G04 #@! TO.N,/VDD3P3*
X151940000Y-109530000D02*
X154420000Y-109530000D01*
X151940000Y-109030000D02*
X151940000Y-109530000D01*
G04 #@! TO.N,Net-(U2-GPIO2)*
X153760000Y-111730000D02*
X153060000Y-111030000D01*
X153060000Y-111030000D02*
X151940000Y-111030000D01*
G04 #@! TO.N,/BOOT*
X148070000Y-114240000D02*
X148240000Y-114070000D01*
X148240000Y-114070000D02*
X148240000Y-112730000D01*
G04 #@! TO.N,Net-(U2-XTAL_N)*
X149740000Y-105920000D02*
X150090000Y-105570000D01*
X149740000Y-107830000D02*
X149740000Y-105920000D01*
G04 #@! TO.N,Net-(U2-U0TXD{slash}GPIO21)*
X149090000Y-106277947D02*
X149090000Y-105410000D01*
X149240000Y-107830000D02*
X149240000Y-106427947D01*
X149240000Y-106427947D02*
X149090000Y-106277947D01*
G04 #@! TO.N,Net-(USB1-CC1)*
X147240000Y-100860000D02*
X147240000Y-101709986D01*
X147240000Y-101709986D02*
X146070000Y-102879986D01*
X146070000Y-102879986D02*
X146070000Y-103880000D01*
D50*
G04 #@! TO.N,Net-(P1-A)*
X142040000Y-127325000D02*
X140490000Y-125775000D01*
D51*
G04 #@! TO.N,DP*
X148240000Y-107120000D02*
X147310000Y-106190000D01*
X147310000Y-102977974D02*
X148240000Y-102047974D01*
X147310000Y-106190000D02*
X147310000Y-102977974D01*
X148240000Y-100860000D02*
X148240000Y-102047974D01*
X148240000Y-107830000D02*
X148240000Y-107120000D01*
G04 #@! TO.N,DN*
X147740000Y-107297974D02*
X146830600Y-106388574D01*
X147740000Y-99985600D02*
X147740000Y-100860000D01*
X146830600Y-102779400D02*
X147740000Y-101870000D01*
X147965600Y-99760000D02*
X147740000Y-99985600D01*
X147740000Y-107830000D02*
X147740000Y-107297974D01*
X147740000Y-101870000D02*
X147740000Y-100860000D01*
X148740000Y-99990000D02*
X148510000Y-99760000D01*
X148740000Y-100860000D02*
X148740000Y-99990000D01*
X146830600Y-106388574D02*
X146830600Y-102779400D01*
X148510000Y-99760000D02*
X147965600Y-99760000D01*
D50*
G04 #@! TO.N,Net-(Green2-A)*
X140460000Y-101115000D02*
X142000000Y-99575000D01*
X140460000Y-101207500D02*
X140460000Y-101115000D01*
G04 #@! TO.N,Net-(U5-PROG)*
X142915000Y-124250000D02*
X144935000Y-124250000D01*
X144935000Y-124250000D02*
X144955000Y-124230000D01*
G04 #@! TO.N,Net-(P2-K)*
X145152500Y-127367500D02*
X145210000Y-127425000D01*
X143640000Y-127367500D02*
X145152500Y-127367500D01*
D49*
G04 #@! TO.N,Net-(C18-Pad1)*
X153470000Y-103260000D02*
X153470000Y-103870000D01*
X150090000Y-104550000D02*
X150110438Y-104550000D01*
X151040000Y-103490000D02*
X151610000Y-102920000D01*
X151040000Y-103620438D02*
X151040000Y-103610000D01*
X151610000Y-102920000D02*
X153130000Y-102920000D01*
X150110438Y-104550000D02*
X151040000Y-103620438D01*
X153130000Y-102920000D02*
X153470000Y-103260000D01*
X151040000Y-103610000D02*
X151040000Y-103490000D01*
D50*
G04 #@! TO.N,Net-(D1-K)*
X145870000Y-114762500D02*
X144032752Y-114762500D01*
X144032752Y-114762500D02*
X144023252Y-114753000D01*
X142117252Y-113302748D02*
X140822748Y-113302748D01*
X143030000Y-112940000D02*
X142480000Y-112940000D01*
X144023252Y-114753000D02*
X144023252Y-113933252D01*
X142117252Y-113302748D02*
X142117252Y-114753000D01*
X142480000Y-112940000D02*
X142117252Y-113302748D01*
X139940000Y-112420000D02*
X139940000Y-110500000D01*
X144023252Y-113933252D02*
X143030000Y-112940000D01*
X139940000Y-110500000D02*
X141230000Y-109210000D01*
X140822748Y-113302748D02*
X139940000Y-112420000D01*
G04 #@! TD*
G04 #@! TA.AperFunction,Conductor*
G04 #@! TO.N,GND*
G36*
X143314117Y-94715502D02*
G01*
X143360610Y-94769158D01*
X143370714Y-94839432D01*
X143349412Y-94893480D01*
X143291144Y-94977194D01*
X143210939Y-95164094D01*
X143170000Y-95363310D01*
X143170000Y-95515000D01*
X143870000Y-95515000D01*
X143870000Y-96015000D01*
X143170000Y-96015000D01*
X143170000Y-96112511D01*
X143170324Y-96118908D01*
X143185418Y-96267333D01*
X143246303Y-96461389D01*
X143345003Y-96639213D01*
X143477481Y-96793532D01*
X143638306Y-96918020D01*
X143820904Y-97007588D01*
X143920000Y-97033244D01*
X143920000Y-96231110D01*
X143944457Y-96270610D01*
X144033962Y-96338201D01*
X144141840Y-96368895D01*
X144253521Y-96358546D01*
X144353922Y-96308552D01*
X144420000Y-96236069D01*
X144420000Y-97038365D01*
X144420001Y-97038366D01*
X144421943Y-97038070D01*
X144612667Y-96967434D01*
X144785260Y-96859856D01*
X144932672Y-96719730D01*
X145048855Y-96552806D01*
X145129060Y-96365905D01*
X145170000Y-96166689D01*
X145170000Y-96015000D01*
X144470000Y-96015000D01*
X144470000Y-95515000D01*
X145170000Y-95515000D01*
X145170000Y-95417488D01*
X145169675Y-95411091D01*
X145154581Y-95262666D01*
X145093696Y-95068610D01*
X144990479Y-94882648D01*
X144974909Y-94813380D01*
X144999259Y-94746690D01*
X145055800Y-94703751D01*
X145100647Y-94695500D01*
X151885996Y-94695500D01*
X151954117Y-94715502D01*
X152000610Y-94769158D01*
X152010714Y-94839432D01*
X151989412Y-94893480D01*
X151931144Y-94977194D01*
X151850939Y-95164094D01*
X151810000Y-95363310D01*
X151810000Y-95515000D01*
X152510000Y-95515000D01*
X152510000Y-96015000D01*
X151810000Y-96015000D01*
X151810000Y-96112511D01*
X151810324Y-96118908D01*
X151825418Y-96267333D01*
X151886303Y-96461389D01*
X151985003Y-96639213D01*
X152117481Y-96793532D01*
X152278306Y-96918020D01*
X152460904Y-97007588D01*
X152560000Y-97033244D01*
X152560000Y-96231110D01*
X152584457Y-96270610D01*
X152673962Y-96338201D01*
X152781840Y-96368895D01*
X152893521Y-96358546D01*
X152993922Y-96308552D01*
X153060000Y-96236069D01*
X153060000Y-97038365D01*
X153060001Y-97038366D01*
X153061943Y-97038070D01*
X153252667Y-96967434D01*
X153425260Y-96859856D01*
X153572672Y-96719730D01*
X153688855Y-96552806D01*
X153769060Y-96365905D01*
X153810000Y-96166689D01*
X153810000Y-96015000D01*
X153110000Y-96015000D01*
X153110000Y-95515000D01*
X153810000Y-95515000D01*
X153810000Y-95417488D01*
X153809675Y-95411091D01*
X153794581Y-95262666D01*
X153733696Y-95068610D01*
X153630479Y-94882648D01*
X153614909Y-94813380D01*
X153639259Y-94746690D01*
X153695800Y-94703751D01*
X153740647Y-94695500D01*
X154162483Y-94695500D01*
X154230604Y-94715502D01*
X154277097Y-94769158D01*
X154288471Y-94823199D01*
X154268974Y-96267333D01*
X154176056Y-103149340D01*
X154155136Y-103217185D01*
X154100857Y-103262949D01*
X154030453Y-103272103D01*
X153980065Y-103252404D01*
X153948231Y-103231133D01*
X153948231Y-103231132D01*
X153889748Y-103219500D01*
X153889747Y-103219500D01*
X153877576Y-103217079D01*
X153878221Y-103213831D01*
X153829406Y-103199498D01*
X153788407Y-103156499D01*
X153783476Y-103147958D01*
X153772070Y-103120421D01*
X153749630Y-103088374D01*
X153743721Y-103079100D01*
X153742696Y-103077324D01*
X153724750Y-103046240D01*
X153695681Y-103021848D01*
X153687578Y-103014423D01*
X153375581Y-102702427D01*
X153368154Y-102694322D01*
X153343760Y-102665250D01*
X153310888Y-102646271D01*
X153301624Y-102640369D01*
X153269576Y-102617928D01*
X153244899Y-102607706D01*
X153206364Y-102600911D01*
X153195637Y-102598533D01*
X153158984Y-102588712D01*
X153121188Y-102592020D01*
X153110205Y-102592500D01*
X151629795Y-102592500D01*
X151618812Y-102592020D01*
X151565168Y-102587326D01*
X151499050Y-102561462D01*
X151457411Y-102503958D01*
X151453471Y-102433071D01*
X151480925Y-102379295D01*
X151555377Y-102293373D01*
X151615165Y-102162457D01*
X151635647Y-102020000D01*
X151615165Y-101877543D01*
X151555377Y-101746627D01*
X151534962Y-101723067D01*
X151520774Y-101706692D01*
X151491282Y-101642111D01*
X151490000Y-101624181D01*
X151490000Y-101109999D01*
X151477404Y-101097403D01*
X151443379Y-101035090D01*
X151440500Y-101008308D01*
X151440500Y-100711690D01*
X151460502Y-100643569D01*
X151477405Y-100622594D01*
X151490000Y-100609999D01*
X151490000Y-100076543D01*
X151510002Y-100008422D01*
X151563658Y-99961929D01*
X151567762Y-99960142D01*
X151645763Y-99927834D01*
X151670231Y-99917699D01*
X151670231Y-99917698D01*
X151670233Y-99917698D01*
X151787296Y-99827871D01*
X151853516Y-99802271D01*
X151923064Y-99816535D01*
X151973861Y-99866136D01*
X151990000Y-99927834D01*
X151990000Y-102085000D01*
X152084461Y-102085000D01*
X152091176Y-102084640D01*
X152147375Y-102078597D01*
X152282088Y-102028353D01*
X152397189Y-101942189D01*
X152483353Y-101827088D01*
X152533597Y-101692375D01*
X152539640Y-101636176D01*
X152540000Y-101629460D01*
X152540000Y-101540531D01*
X152560000Y-101472416D01*
X152560000Y-100661110D01*
X152584457Y-100700610D01*
X152673962Y-100768201D01*
X152781840Y-100798895D01*
X152893521Y-100788546D01*
X152993922Y-100738552D01*
X153060000Y-100666069D01*
X153060000Y-101468365D01*
X153060001Y-101468366D01*
X153061943Y-101468070D01*
X153252667Y-101397434D01*
X153425260Y-101289856D01*
X153572672Y-101149730D01*
X153688855Y-100982806D01*
X153769060Y-100795905D01*
X153810000Y-100596689D01*
X153810000Y-100195000D01*
X153110000Y-100195000D01*
X153110000Y-99695000D01*
X153810000Y-99695000D01*
X153810000Y-99347488D01*
X153809675Y-99341091D01*
X153794581Y-99192666D01*
X153733696Y-98998610D01*
X153634996Y-98820786D01*
X153502518Y-98666467D01*
X153341693Y-98541979D01*
X153159096Y-98452412D01*
X153060000Y-98426754D01*
X153060000Y-99228889D01*
X153035543Y-99189390D01*
X152946038Y-99121799D01*
X152838160Y-99091105D01*
X152726479Y-99101454D01*
X152626078Y-99151448D01*
X152560000Y-99223930D01*
X152560000Y-98421634D01*
X152559999Y-98421633D01*
X152558053Y-98421931D01*
X152367332Y-98492565D01*
X152194739Y-98600143D01*
X152047327Y-98740269D01*
X151931143Y-98907194D01*
X151928774Y-98912716D01*
X151883527Y-98967426D01*
X151815884Y-98988989D01*
X151747321Y-98970558D01*
X151736288Y-98962988D01*
X151670233Y-98912302D01*
X151670232Y-98912301D01*
X151530235Y-98854312D01*
X151421807Y-98840038D01*
X151421806Y-98840037D01*
X151417720Y-98839500D01*
X151342280Y-98839500D01*
X151338194Y-98840037D01*
X151338192Y-98840038D01*
X151229764Y-98854312D01*
X151089767Y-98912301D01*
X150969549Y-99004549D01*
X150877301Y-99124767D01*
X150819312Y-99264764D01*
X150816730Y-99284382D01*
X150788008Y-99349309D01*
X150728743Y-99388401D01*
X150657751Y-99389246D01*
X150602713Y-99357031D01*
X150112785Y-98867103D01*
X150096397Y-98846923D01*
X150091436Y-98839330D01*
X150068624Y-98821574D01*
X150057577Y-98811817D01*
X150041675Y-98800464D01*
X150037498Y-98797349D01*
X149993228Y-98762892D01*
X149957870Y-98752365D01*
X149939441Y-98746878D01*
X149934513Y-98745300D01*
X149888488Y-98729500D01*
X149888487Y-98729500D01*
X149881420Y-98727074D01*
X149825380Y-98729392D01*
X149820173Y-98729500D01*
X147169418Y-98729500D01*
X147143560Y-98726818D01*
X147134685Y-98724957D01*
X147134684Y-98724957D01*
X147106006Y-98728532D01*
X147091276Y-98729446D01*
X147072011Y-98732661D01*
X147066863Y-98733411D01*
X147011192Y-98740350D01*
X146961822Y-98767068D01*
X146957192Y-98769450D01*
X146906804Y-98794082D01*
X146868792Y-98835373D01*
X146865188Y-98839129D01*
X146373796Y-99330520D01*
X146311484Y-99364545D01*
X146240668Y-99359480D01*
X146183833Y-99316933D01*
X146168570Y-99279453D01*
X146167035Y-99280089D01*
X146102698Y-99124767D01*
X146084809Y-99101454D01*
X146010451Y-99004549D01*
X145890233Y-98912302D01*
X145890232Y-98912301D01*
X145750235Y-98854312D01*
X145641807Y-98840038D01*
X145641806Y-98840037D01*
X145637720Y-98839500D01*
X145562280Y-98839500D01*
X145558194Y-98840037D01*
X145558192Y-98840038D01*
X145449764Y-98854312D01*
X145309765Y-98912302D01*
X145240583Y-98965387D01*
X145174363Y-98990987D01*
X145104814Y-98976722D01*
X145054018Y-98927120D01*
X145053712Y-98926572D01*
X144994996Y-98820786D01*
X144862518Y-98666467D01*
X144701693Y-98541979D01*
X144519096Y-98452412D01*
X144420000Y-98426754D01*
X144420000Y-99228889D01*
X144395543Y-99189390D01*
X144306038Y-99121799D01*
X144198160Y-99091105D01*
X144086479Y-99101454D01*
X143986078Y-99151448D01*
X143920000Y-99223930D01*
X143920000Y-98421634D01*
X143919999Y-98421633D01*
X143918053Y-98421931D01*
X143727332Y-98492565D01*
X143554739Y-98600143D01*
X143407327Y-98740269D01*
X143291144Y-98907193D01*
X143210939Y-99094094D01*
X143170000Y-99293310D01*
X143170000Y-99695000D01*
X143870000Y-99695000D01*
X143870000Y-100195000D01*
X143170000Y-100195000D01*
X143170000Y-100542511D01*
X143170324Y-100548908D01*
X143185418Y-100697333D01*
X143246303Y-100891389D01*
X143345003Y-101069213D01*
X143477481Y-101223532D01*
X143638306Y-101348020D01*
X143820904Y-101437588D01*
X143920000Y-101463244D01*
X143920000Y-100661110D01*
X143944457Y-100700610D01*
X144033962Y-100768201D01*
X144141840Y-100798895D01*
X144253521Y-100788546D01*
X144353922Y-100738552D01*
X144429484Y-100655666D01*
X144447175Y-100610000D01*
X144990000Y-100610000D01*
X144990000Y-99927834D01*
X145010002Y-99859713D01*
X145063658Y-99813220D01*
X145133932Y-99803116D01*
X145192702Y-99827871D01*
X145250017Y-99871850D01*
X145309768Y-99917699D01*
X145349555Y-99934179D01*
X145412218Y-99960134D01*
X145467499Y-100004682D01*
X145489920Y-100072045D01*
X145490000Y-100076543D01*
X145490000Y-100984000D01*
X145469998Y-101052121D01*
X145416342Y-101098614D01*
X145364000Y-101110000D01*
X144420000Y-101110000D01*
X144420000Y-101484674D01*
X144434739Y-101507389D01*
X144440000Y-101543418D01*
X144440000Y-101629460D01*
X144440359Y-101636176D01*
X144446402Y-101692375D01*
X144496646Y-101827088D01*
X144582810Y-101942189D01*
X144697912Y-102028353D01*
X144832229Y-102078450D01*
X144889065Y-102120996D01*
X144913877Y-102187516D01*
X144898786Y-102256890D01*
X144877296Y-102285599D01*
X144840304Y-102322593D01*
X144777993Y-102356620D01*
X144751206Y-102359500D01*
X144570252Y-102359500D01*
X144542657Y-102364989D01*
X144511768Y-102371133D01*
X144445447Y-102415447D01*
X144401133Y-102481768D01*
X144389500Y-102540253D01*
X144389500Y-103379746D01*
X144401133Y-103438231D01*
X144445447Y-103504552D01*
X144476635Y-103525391D01*
X144511769Y-103548867D01*
X144570252Y-103560500D01*
X144570253Y-103560500D01*
X145479026Y-103560500D01*
X145547147Y-103580502D01*
X145593640Y-103634158D01*
X145603744Y-103704432D01*
X145593221Y-103739750D01*
X145575931Y-103776827D01*
X145571019Y-103814143D01*
X145569500Y-103825684D01*
X145569500Y-104174316D01*
X145570037Y-104178402D01*
X145570038Y-104178403D01*
X145578463Y-104242400D01*
X145575607Y-104242775D01*
X145581694Y-104282871D01*
X145552709Y-104347682D01*
X145520982Y-104374371D01*
X145512711Y-104379262D01*
X145399266Y-104492707D01*
X145317593Y-104630808D01*
X145277155Y-104770000D01*
X146214000Y-104770000D01*
X146282121Y-104790002D01*
X146328614Y-104843658D01*
X146340000Y-104896000D01*
X146340000Y-105789930D01*
X146354515Y-105788788D01*
X146423995Y-105803385D01*
X146474554Y-105853227D01*
X146490400Y-105914400D01*
X146490400Y-106368221D01*
X146489920Y-106379204D01*
X146486465Y-106418682D01*
X146496723Y-106456965D01*
X146499101Y-106467693D01*
X146506128Y-106507544D01*
X146517037Y-106533880D01*
X146517517Y-106534566D01*
X146517518Y-106534567D01*
X146540249Y-106567030D01*
X146546150Y-106576293D01*
X146564124Y-106607426D01*
X146565971Y-106610624D01*
X146569198Y-106613332D01*
X146596342Y-106636108D01*
X146604446Y-106643535D01*
X147362895Y-107401984D01*
X147396921Y-107464296D01*
X147399800Y-107491078D01*
X147399800Y-107859763D01*
X147402586Y-107875562D01*
X147404500Y-107897442D01*
X147404500Y-108068500D01*
X147384498Y-108136621D01*
X147330842Y-108183114D01*
X147278500Y-108194500D01*
X146645680Y-108194500D01*
X146611514Y-108201296D01*
X146577349Y-108208092D01*
X146499865Y-108259865D01*
X146448092Y-108337349D01*
X146441330Y-108371342D01*
X146434500Y-108405680D01*
X146434500Y-108654320D01*
X146439754Y-108680734D01*
X146452982Y-108747231D01*
X146451395Y-108747546D01*
X146460853Y-108777747D01*
X146451335Y-108812441D01*
X146452981Y-108812769D01*
X146434500Y-108905679D01*
X146434500Y-109148768D01*
X146414498Y-109216889D01*
X146360842Y-109263382D01*
X146290568Y-109273486D01*
X146225988Y-109243992D01*
X146219405Y-109237864D01*
X146138316Y-109156776D01*
X146029486Y-109106027D01*
X145983990Y-109100038D01*
X145983985Y-109100037D01*
X145979901Y-109099500D01*
X145975779Y-109099500D01*
X145564224Y-109099500D01*
X145564208Y-109099500D01*
X145560100Y-109099501D01*
X145556018Y-109100038D01*
X145556007Y-109100039D01*
X145510513Y-109106027D01*
X145485493Y-109117695D01*
X145432244Y-109129500D01*
X145356500Y-109129500D01*
X145288379Y-109109498D01*
X145241886Y-109055842D01*
X145230500Y-109003500D01*
X145230500Y-108068793D01*
X145250502Y-108000672D01*
X145267400Y-107979702D01*
X145400733Y-107846368D01*
X145454330Y-107814569D01*
X145470053Y-107809953D01*
X145591128Y-107732143D01*
X145685377Y-107623373D01*
X145745165Y-107492457D01*
X145765647Y-107350000D01*
X145745165Y-107207543D01*
X145685377Y-107076627D01*
X145591128Y-106967857D01*
X145591127Y-106967856D01*
X145591126Y-106967855D01*
X145470053Y-106890047D01*
X145331962Y-106849500D01*
X145331961Y-106849500D01*
X145188039Y-106849500D01*
X145188038Y-106849500D01*
X145049946Y-106890047D01*
X144928873Y-106967855D01*
X144834621Y-107076628D01*
X144792247Y-107169414D01*
X144766729Y-107206166D01*
X144484342Y-107488553D01*
X144473809Y-107497967D01*
X144446028Y-107520122D01*
X144413840Y-107567332D01*
X144411116Y-107571172D01*
X144373511Y-107622125D01*
X144371359Y-107626388D01*
X144352690Y-107686913D01*
X144351218Y-107691387D01*
X144330301Y-107751166D01*
X144329500Y-107755885D01*
X144329500Y-107819213D01*
X144329412Y-107823924D01*
X144327043Y-107887238D01*
X144329500Y-107905898D01*
X144329500Y-108393500D01*
X144309498Y-108461621D01*
X144255842Y-108508114D01*
X144203500Y-108519500D01*
X144189680Y-108519500D01*
X144121559Y-108499498D01*
X144075066Y-108445842D01*
X144070076Y-108433133D01*
X144064359Y-108415880D01*
X143972314Y-108266652D01*
X143855761Y-108150099D01*
X143821735Y-108087787D01*
X143826800Y-108016972D01*
X143837618Y-107994853D01*
X143841546Y-107988485D01*
X143894856Y-107827601D01*
X143904673Y-107731516D01*
X143905000Y-107725109D01*
X143905000Y-107680000D01*
X143205000Y-107680000D01*
X143205000Y-107945000D01*
X143254000Y-107945000D01*
X143322121Y-107965002D01*
X143368614Y-108018658D01*
X143380000Y-108071000D01*
X143380000Y-109334000D01*
X143359998Y-109402121D01*
X143306342Y-109448614D01*
X143254000Y-109460000D01*
X143006000Y-109460000D01*
X142937879Y-109439998D01*
X142891386Y-109386342D01*
X142880000Y-109334000D01*
X142880000Y-108445000D01*
X142831000Y-108445000D01*
X142762879Y-108424998D01*
X142716386Y-108371342D01*
X142705000Y-108319000D01*
X142705000Y-106455000D01*
X143205000Y-106455000D01*
X143205000Y-107180000D01*
X143904999Y-107180000D01*
X143904999Y-107134891D01*
X143904673Y-107128500D01*
X143894855Y-107032393D01*
X143841545Y-106871512D01*
X143752573Y-106727267D01*
X143632732Y-106607426D01*
X143488488Y-106518455D01*
X143327601Y-106465143D01*
X143231516Y-106455326D01*
X143225110Y-106455000D01*
X143205000Y-106455000D01*
X142705000Y-106455000D01*
X142684893Y-106455000D01*
X142678498Y-106455326D01*
X142582393Y-106465144D01*
X142421512Y-106518454D01*
X142277267Y-106607426D01*
X142157427Y-106727266D01*
X142096719Y-106825688D01*
X142043933Y-106873166D01*
X141973858Y-106884568D01*
X141908742Y-106856275D01*
X141900384Y-106848635D01*
X141892405Y-106840656D01*
X141858379Y-106778344D01*
X141855500Y-106751561D01*
X141855500Y-105473792D01*
X141875502Y-105405671D01*
X141892400Y-105384702D01*
X142007102Y-105270000D01*
X145277155Y-105270000D01*
X145317593Y-105409191D01*
X145399266Y-105547292D01*
X145512707Y-105660733D01*
X145650808Y-105742406D01*
X145804873Y-105787166D01*
X145840000Y-105789930D01*
X145840000Y-105270000D01*
X145277155Y-105270000D01*
X142007102Y-105270000D01*
X143195661Y-104081440D01*
X143206178Y-104072041D01*
X143233970Y-104049879D01*
X143266191Y-104002618D01*
X143268855Y-103998863D01*
X143302793Y-103952882D01*
X143302793Y-103952880D01*
X143306504Y-103947853D01*
X143308631Y-103943640D01*
X143312081Y-103932457D01*
X143327321Y-103883046D01*
X143328770Y-103878642D01*
X143347646Y-103824700D01*
X143347646Y-103824696D01*
X143349707Y-103818807D01*
X143350500Y-103814143D01*
X143350500Y-103750785D01*
X143350588Y-103746074D01*
X143353434Y-103670014D01*
X143356428Y-103670126D01*
X143357402Y-103629177D01*
X143397194Y-103570380D01*
X143407418Y-103562773D01*
X143428228Y-103548867D01*
X143428231Y-103548867D01*
X143494552Y-103504552D01*
X143538867Y-103438231D01*
X143550500Y-103379748D01*
X143550500Y-102540252D01*
X143538867Y-102481769D01*
X143513402Y-102443658D01*
X143494552Y-102415447D01*
X143407392Y-102357209D01*
X143409698Y-102353757D01*
X143388992Y-102342921D01*
X143353872Y-102281220D01*
X143350500Y-102252266D01*
X143350500Y-102157377D01*
X143351292Y-102143270D01*
X143352726Y-102130543D01*
X143355270Y-102107965D01*
X143344643Y-102051805D01*
X143343860Y-102047194D01*
X143335348Y-101990713D01*
X143335347Y-101990711D01*
X143334417Y-101984540D01*
X143332939Y-101980046D01*
X143330023Y-101974529D01*
X143330023Y-101974528D01*
X143303315Y-101923996D01*
X143301209Y-101919825D01*
X143276425Y-101868358D01*
X143276422Y-101868355D01*
X143273718Y-101862739D01*
X143270974Y-101858871D01*
X143256345Y-101844242D01*
X143226163Y-101814060D01*
X143222947Y-101810722D01*
X143184055Y-101768806D01*
X143184051Y-101768804D01*
X143179816Y-101764239D01*
X143164881Y-101752778D01*
X142712404Y-101300301D01*
X142678378Y-101237989D01*
X142675499Y-101211206D01*
X142675499Y-100993481D01*
X142668593Y-100949876D01*
X142660646Y-100899696D01*
X142603050Y-100786658D01*
X142603049Y-100786657D01*
X142603048Y-100786655D01*
X142513344Y-100696951D01*
X142400304Y-100639354D01*
X142400303Y-100639354D01*
X142306519Y-100624500D01*
X142306518Y-100624500D01*
X141750370Y-100624500D01*
X141682249Y-100604498D01*
X141635756Y-100550842D01*
X141625652Y-100480568D01*
X141655146Y-100415988D01*
X141661257Y-100409422D01*
X141858277Y-100212402D01*
X141920589Y-100178378D01*
X141947372Y-100175499D01*
X142306518Y-100175499D01*
X142400304Y-100160646D01*
X142513342Y-100103050D01*
X142603050Y-100013342D01*
X142660646Y-99900304D01*
X142675500Y-99806519D01*
X142675499Y-99343482D01*
X142660646Y-99249696D01*
X142603050Y-99136658D01*
X142603049Y-99136657D01*
X142603048Y-99136655D01*
X142513344Y-99046951D01*
X142400304Y-98989354D01*
X142397999Y-98988989D01*
X142306519Y-98974500D01*
X142306517Y-98974500D01*
X141693481Y-98974500D01*
X141599696Y-98989354D01*
X141474348Y-99053222D01*
X141404571Y-99066326D01*
X141338786Y-99039626D01*
X141309904Y-99007102D01*
X141283884Y-98964917D01*
X141165082Y-98846115D01*
X141022072Y-98757905D01*
X140862582Y-98705056D01*
X140767344Y-98695326D01*
X140760938Y-98695000D01*
X140710000Y-98695000D01*
X140710000Y-99756500D01*
X140689998Y-99824621D01*
X140636342Y-99871114D01*
X140584000Y-99882500D01*
X139485001Y-99882500D01*
X139485001Y-99895936D01*
X139485326Y-99902327D01*
X139495057Y-99997581D01*
X139547908Y-100157075D01*
X139636115Y-100300082D01*
X139754917Y-100418884D01*
X139882640Y-100497665D01*
X139930118Y-100550451D01*
X139941521Y-100620526D01*
X139913228Y-100685642D01*
X139905589Y-100694001D01*
X139860342Y-100739248D01*
X139810616Y-100836842D01*
X139800049Y-100857580D01*
X139784500Y-100955754D01*
X139784500Y-101459246D01*
X139800049Y-101557420D01*
X139854019Y-101663342D01*
X139860343Y-101675753D01*
X139954246Y-101769656D01*
X139954248Y-101769657D01*
X139954249Y-101769658D01*
X140072580Y-101829951D01*
X140170754Y-101845500D01*
X140170755Y-101845500D01*
X140749245Y-101845500D01*
X140749246Y-101845500D01*
X140847420Y-101829951D01*
X140965751Y-101769658D01*
X141059658Y-101675751D01*
X141119198Y-101558896D01*
X141167946Y-101507281D01*
X141236861Y-101490215D01*
X141304063Y-101513115D01*
X141343731Y-101558895D01*
X141357929Y-101586760D01*
X141396951Y-101663344D01*
X141486655Y-101753048D01*
X141486657Y-101753049D01*
X141486658Y-101753050D01*
X141599696Y-101810646D01*
X141693481Y-101825500D01*
X141911203Y-101825499D01*
X141979324Y-101845501D01*
X142000299Y-101862403D01*
X142198847Y-102060951D01*
X142345487Y-102207590D01*
X142379512Y-102269903D01*
X142374448Y-102340718D01*
X142331901Y-102397554D01*
X142326396Y-102401450D01*
X142305448Y-102415447D01*
X142261133Y-102481768D01*
X142249500Y-102540253D01*
X142249500Y-103379746D01*
X142261133Y-103438231D01*
X142319372Y-103525391D01*
X142318206Y-103526170D01*
X142338950Y-103550989D01*
X142347802Y-103621431D01*
X142317164Y-103685477D01*
X142312518Y-103690378D01*
X141109342Y-104893553D01*
X141098809Y-104902967D01*
X141071028Y-104925122D01*
X141038840Y-104972332D01*
X141036116Y-104976172D01*
X140998511Y-105027125D01*
X140996359Y-105031388D01*
X140977690Y-105091913D01*
X140976218Y-105096387D01*
X140955301Y-105156166D01*
X140954500Y-105160885D01*
X140954500Y-105224213D01*
X140954412Y-105228924D01*
X140952043Y-105292238D01*
X140954500Y-105310898D01*
X140954500Y-106751561D01*
X140934498Y-106819682D01*
X140917595Y-106840656D01*
X140817360Y-106940891D01*
X140814167Y-106937698D01*
X140790927Y-106962311D01*
X140727397Y-106979500D01*
X140610363Y-106979500D01*
X140574865Y-106974396D01*
X140421962Y-106929500D01*
X140421961Y-106929500D01*
X140278039Y-106929500D01*
X140278038Y-106929500D01*
X140139946Y-106970047D01*
X140018873Y-107047855D01*
X139924622Y-107156628D01*
X139864834Y-107287543D01*
X139844352Y-107430000D01*
X139864834Y-107572456D01*
X139924622Y-107703371D01*
X139924623Y-107703373D01*
X140018872Y-107812143D01*
X140018873Y-107812144D01*
X140042771Y-107827502D01*
X140139947Y-107889953D01*
X140231840Y-107916935D01*
X140278038Y-107930500D01*
X140278039Y-107930500D01*
X140421962Y-107930500D01*
X140574865Y-107885604D01*
X140610363Y-107880500D01*
X140727397Y-107880500D01*
X140795518Y-107900502D01*
X140814729Y-107921739D01*
X140817360Y-107919109D01*
X140926778Y-108028527D01*
X140963938Y-108047461D01*
X141015554Y-108096209D01*
X141032620Y-108165124D01*
X141009720Y-108232325D01*
X140954122Y-108276478D01*
X140918502Y-108285177D01*
X140895301Y-108287352D01*
X140767117Y-108332206D01*
X140657849Y-108412849D01*
X140577206Y-108522117D01*
X140532354Y-108650297D01*
X140529775Y-108677798D01*
X140529500Y-108680734D01*
X140529500Y-108683686D01*
X140529500Y-108683687D01*
X140529500Y-109362626D01*
X140509498Y-109430747D01*
X140492595Y-109451722D01*
X139727098Y-110217218D01*
X139706923Y-110233602D01*
X139699331Y-110238562D01*
X139681577Y-110261372D01*
X139671807Y-110272437D01*
X139660461Y-110288327D01*
X139657353Y-110292496D01*
X139622891Y-110336773D01*
X139606884Y-110390536D01*
X139605297Y-110395489D01*
X139587073Y-110448576D01*
X139589392Y-110504619D01*
X139589500Y-110509826D01*
X139589500Y-112370581D01*
X139586818Y-112396438D01*
X139584956Y-112405314D01*
X139588532Y-112433993D01*
X139589446Y-112448724D01*
X139592658Y-112467972D01*
X139593408Y-112473117D01*
X139600352Y-112528811D01*
X139627057Y-112578159D01*
X139629440Y-112582788D01*
X139654082Y-112633194D01*
X139659581Y-112638256D01*
X139659582Y-112638258D01*
X139695373Y-112671206D01*
X139699130Y-112674812D01*
X140539960Y-113515642D01*
X140556347Y-113535821D01*
X140561308Y-113543414D01*
X140561310Y-113543415D01*
X140561311Y-113543417D01*
X140584123Y-113561172D01*
X140595178Y-113570935D01*
X140595440Y-113571122D01*
X140595441Y-113571123D01*
X140611076Y-113582285D01*
X140615214Y-113585371D01*
X140653622Y-113615265D01*
X140653623Y-113615265D01*
X140659519Y-113619854D01*
X140666680Y-113621986D01*
X140666682Y-113621987D01*
X140713287Y-113635861D01*
X140718229Y-113637444D01*
X140764260Y-113653248D01*
X140764262Y-113653248D01*
X140771326Y-113655673D01*
X140778791Y-113655364D01*
X140778794Y-113655365D01*
X140827367Y-113653356D01*
X140832575Y-113653248D01*
X141640752Y-113653248D01*
X141708873Y-113673250D01*
X141755366Y-113726906D01*
X141766752Y-113779248D01*
X141766752Y-113918405D01*
X141746750Y-113986526D01*
X141710755Y-114023169D01*
X141661700Y-114055946D01*
X141617385Y-114122268D01*
X141605752Y-114180753D01*
X141605752Y-114745899D01*
X141585750Y-114814020D01*
X141532094Y-114860513D01*
X141461820Y-114870617D01*
X141397240Y-114841123D01*
X141390657Y-114834995D01*
X141333345Y-114777684D01*
X141184119Y-114685640D01*
X141017695Y-114630493D01*
X140918180Y-114620326D01*
X140911774Y-114620000D01*
X140640000Y-114620000D01*
X140640000Y-115370000D01*
X141540862Y-115370000D01*
X141608983Y-115390002D01*
X141645626Y-115425996D01*
X141661700Y-115450052D01*
X141728021Y-115494367D01*
X141786504Y-115506000D01*
X141786505Y-115506000D01*
X142234694Y-115506000D01*
X142302815Y-115526002D01*
X142335562Y-115556490D01*
X142415062Y-115662689D01*
X142530163Y-115748853D01*
X142664876Y-115799097D01*
X142721075Y-115805140D01*
X142727791Y-115805500D01*
X142833252Y-115805500D01*
X142833252Y-113700500D01*
X142727791Y-113700500D01*
X142721075Y-113700859D01*
X142664876Y-113706902D01*
X142637784Y-113717007D01*
X142566968Y-113722071D01*
X142504656Y-113688046D01*
X142470631Y-113625733D01*
X142467752Y-113598951D01*
X142467752Y-113566500D01*
X142487754Y-113498379D01*
X142541410Y-113451886D01*
X142593752Y-113440500D01*
X142982627Y-113440500D01*
X143050748Y-113460502D01*
X143071722Y-113477403D01*
X143296348Y-113702030D01*
X143330372Y-113764340D01*
X143333252Y-113791124D01*
X143333252Y-115805500D01*
X143438713Y-115805500D01*
X143445428Y-115805140D01*
X143501627Y-115799097D01*
X143636340Y-115748853D01*
X143751441Y-115662689D01*
X143830942Y-115556490D01*
X143887778Y-115513944D01*
X143931810Y-115506000D01*
X144353999Y-115506000D01*
X144354000Y-115506000D01*
X144412483Y-115494367D01*
X144478804Y-115450052D01*
X144523119Y-115383731D01*
X144534752Y-115325248D01*
X144534752Y-115239000D01*
X144554754Y-115170879D01*
X144608410Y-115124386D01*
X144660752Y-115113000D01*
X145020985Y-115113000D01*
X145089106Y-115133002D01*
X145135599Y-115186658D01*
X145139914Y-115197385D01*
X145167206Y-115275382D01*
X145247849Y-115384650D01*
X145357117Y-115465293D01*
X145485297Y-115510145D01*
X145485298Y-115510145D01*
X145485301Y-115510146D01*
X145515734Y-115513000D01*
X145518687Y-115513000D01*
X146221313Y-115513000D01*
X146224266Y-115513000D01*
X146254699Y-115510146D01*
X146382882Y-115465293D01*
X146492150Y-115384650D01*
X146572793Y-115275382D01*
X146617646Y-115147199D01*
X146620500Y-115116766D01*
X146620500Y-114408234D01*
X146617646Y-114377801D01*
X146600085Y-114327615D01*
X146572793Y-114249617D01*
X146492151Y-114140350D01*
X146422666Y-114089068D01*
X146379734Y-114032523D01*
X146374188Y-113961743D01*
X146407789Y-113899201D01*
X146438611Y-113876291D01*
X146450469Y-113870023D01*
X146450472Y-113870023D01*
X146501006Y-113843313D01*
X146505190Y-113841201D01*
X146556642Y-113816425D01*
X146556643Y-113816423D01*
X146562260Y-113813719D01*
X146566128Y-113810974D01*
X146570533Y-113806568D01*
X146570538Y-113806566D01*
X146610962Y-113766140D01*
X146614302Y-113762923D01*
X146656194Y-113724055D01*
X146656195Y-113724051D01*
X146660762Y-113719815D01*
X146672222Y-113704881D01*
X146737324Y-113639779D01*
X146799636Y-113605753D01*
X146870451Y-113610818D01*
X146927287Y-113653365D01*
X146951932Y-113717811D01*
X146952013Y-113718730D01*
X146952500Y-113729793D01*
X146952500Y-117752154D01*
X146932498Y-117820275D01*
X146915595Y-117841249D01*
X146835595Y-117921249D01*
X146773283Y-117955275D01*
X146702468Y-117950210D01*
X146645632Y-117907663D01*
X146620821Y-117841143D01*
X146620500Y-117832154D01*
X146620500Y-117211187D01*
X146620500Y-117211186D01*
X146620500Y-117208234D01*
X146617646Y-117177801D01*
X146614166Y-117167857D01*
X146572793Y-117049617D01*
X146492150Y-116940349D01*
X146382882Y-116859706D01*
X146254702Y-116814854D01*
X146227201Y-116812275D01*
X146227195Y-116812274D01*
X146224266Y-116812000D01*
X145515734Y-116812000D01*
X145512805Y-116812274D01*
X145512798Y-116812275D01*
X145485297Y-116814854D01*
X145357117Y-116859706D01*
X145247850Y-116940348D01*
X145204422Y-116999192D01*
X145147877Y-117042124D01*
X145100077Y-117045869D01*
X145100077Y-117049500D01*
X144938038Y-117049500D01*
X144799949Y-117090046D01*
X144728872Y-117135724D01*
X144660751Y-117155725D01*
X144592630Y-117135722D01*
X144546138Y-117082066D01*
X144534752Y-117029725D01*
X144534752Y-116974753D01*
X144534752Y-116974752D01*
X144523119Y-116916269D01*
X144508414Y-116894262D01*
X144478804Y-116849947D01*
X144412483Y-116805633D01*
X144378870Y-116798947D01*
X144354000Y-116794000D01*
X143692504Y-116794000D01*
X143667634Y-116798947D01*
X143634020Y-116805633D01*
X143567699Y-116849947D01*
X143523385Y-116916268D01*
X143511752Y-116974753D01*
X143511752Y-118118500D01*
X143491750Y-118186621D01*
X143438094Y-118233114D01*
X143385752Y-118244500D01*
X142780752Y-118244500D01*
X142712631Y-118224498D01*
X142666138Y-118170842D01*
X142654752Y-118118500D01*
X142654752Y-116974753D01*
X142654752Y-116974752D01*
X142643119Y-116916269D01*
X142628414Y-116894262D01*
X142598804Y-116849947D01*
X142532483Y-116805633D01*
X142498870Y-116798947D01*
X142474000Y-116794000D01*
X141812504Y-116794000D01*
X141787634Y-116798947D01*
X141754020Y-116805633D01*
X141687699Y-116849947D01*
X141643385Y-116916268D01*
X141643384Y-116916269D01*
X141643385Y-116916269D01*
X141638596Y-116940348D01*
X141637654Y-116945082D01*
X141604746Y-117007991D01*
X141543051Y-117043123D01*
X141514075Y-117046500D01*
X141339923Y-117046500D01*
X141339923Y-117045343D01*
X141290973Y-117045341D01*
X141231249Y-117006954D01*
X141225099Y-116999268D01*
X141187150Y-116947849D01*
X141077882Y-116867206D01*
X141019510Y-116846781D01*
X140961818Y-116805403D01*
X140935656Y-116739402D01*
X140949329Y-116669735D01*
X140998497Y-116618519D01*
X141021492Y-116608247D01*
X141184122Y-116554356D01*
X141333347Y-116462314D01*
X141457314Y-116338347D01*
X141549359Y-116189119D01*
X141604506Y-116022695D01*
X141614673Y-115923180D01*
X141615000Y-115916773D01*
X141615000Y-115870000D01*
X140266000Y-115870000D01*
X140197879Y-115849998D01*
X140151386Y-115796342D01*
X140140000Y-115744000D01*
X140140000Y-114620000D01*
X139868227Y-114620000D01*
X139861836Y-114620326D01*
X139762301Y-114630494D01*
X139595880Y-114685640D01*
X139446652Y-114777685D01*
X139322685Y-114901652D01*
X139263741Y-114997216D01*
X139210955Y-115044694D01*
X139140880Y-115056097D01*
X139075764Y-115027804D01*
X139036282Y-114968799D01*
X139030500Y-114931069D01*
X139030500Y-113662377D01*
X139031292Y-113648270D01*
X139031994Y-113642039D01*
X139035270Y-113612965D01*
X139024650Y-113556839D01*
X139023861Y-113552196D01*
X139022121Y-113540654D01*
X139015348Y-113495713D01*
X139015346Y-113495710D01*
X139014417Y-113489543D01*
X139012935Y-113485040D01*
X139010024Y-113479533D01*
X139010024Y-113479529D01*
X138983314Y-113428992D01*
X138981196Y-113424796D01*
X138956425Y-113373358D01*
X138956424Y-113373357D01*
X138953722Y-113367746D01*
X138950968Y-113363865D01*
X138933038Y-113345935D01*
X138906163Y-113319060D01*
X138902947Y-113315722D01*
X138864055Y-113273806D01*
X138864051Y-113273804D01*
X138859816Y-113269239D01*
X138844881Y-113257778D01*
X137574255Y-111987152D01*
X137540229Y-111924840D01*
X137545294Y-111854025D01*
X137585464Y-111799013D01*
X137585814Y-111798737D01*
X137594261Y-111792095D01*
X137730518Y-111634847D01*
X137834552Y-111454653D01*
X137902605Y-111258028D01*
X137928493Y-111077969D01*
X137932216Y-111052077D01*
X137922316Y-110844242D01*
X137873263Y-110642041D01*
X137786825Y-110452767D01*
X137666138Y-110283287D01*
X137658699Y-110276194D01*
X137515548Y-110139699D01*
X137394686Y-110062026D01*
X137340507Y-110027207D01*
X137147344Y-109949876D01*
X136943035Y-109910500D01*
X135009098Y-109910500D01*
X135006123Y-109910784D01*
X135006124Y-109910784D01*
X134875770Y-109923231D01*
X134840644Y-109921656D01*
X134780958Y-109910500D01*
X134780957Y-109910500D01*
X134711500Y-109910500D01*
X134643379Y-109890498D01*
X134596886Y-109836842D01*
X134585500Y-109784500D01*
X134585500Y-109515000D01*
X134605502Y-109446879D01*
X134659158Y-109400386D01*
X134711500Y-109389000D01*
X134795096Y-109389000D01*
X134848910Y-109380019D01*
X134890945Y-109380112D01*
X134942781Y-109389000D01*
X135700000Y-109389000D01*
X135700000Y-108435501D01*
X135807685Y-108484680D01*
X135914237Y-108500000D01*
X135985763Y-108500000D01*
X136092315Y-108484680D01*
X136200000Y-108435501D01*
X136200000Y-109389000D01*
X136895338Y-109389000D01*
X136900660Y-109388773D01*
X137074592Y-109373970D01*
X137303399Y-109314393D01*
X137518859Y-109216999D01*
X137714751Y-109084599D01*
X137885453Y-108920995D01*
X138026049Y-108730896D01*
X138132498Y-108519768D01*
X138201734Y-108293689D01*
X138207329Y-108250000D01*
X136383686Y-108250000D01*
X136409493Y-108209844D01*
X136450000Y-108071889D01*
X136450000Y-107928111D01*
X136409493Y-107790156D01*
X136383686Y-107750000D01*
X138206012Y-107750000D01*
X138206012Y-107749999D01*
X138171917Y-107591798D01*
X138083759Y-107372407D01*
X137959786Y-107171063D01*
X137803579Y-106993578D01*
X137619617Y-106845038D01*
X137413200Y-106729727D01*
X137190263Y-106650959D01*
X136957219Y-106611000D01*
X136200000Y-106611000D01*
X136200000Y-107564498D01*
X136092315Y-107515320D01*
X135985763Y-107500000D01*
X135914237Y-107500000D01*
X135807685Y-107515320D01*
X135700000Y-107564498D01*
X135700000Y-106611000D01*
X135004663Y-106611000D01*
X134999336Y-106611226D01*
X134880771Y-106621316D01*
X134849351Y-106620052D01*
X134795097Y-106611000D01*
X134711500Y-106611000D01*
X134643379Y-106590998D01*
X134596886Y-106537342D01*
X134585500Y-106485000D01*
X134585500Y-106215500D01*
X134605502Y-106147379D01*
X134659158Y-106100886D01*
X134711500Y-106089500D01*
X134780953Y-106089500D01*
X134780957Y-106089500D01*
X134846799Y-106077192D01*
X134893789Y-106077323D01*
X134956965Y-106089500D01*
X134956966Y-106089500D01*
X136887901Y-106089500D01*
X136890902Y-106089500D01*
X137046127Y-106074678D01*
X137245768Y-106016058D01*
X137430708Y-105920715D01*
X137594261Y-105792095D01*
X137730518Y-105634847D01*
X137834552Y-105454653D01*
X137902605Y-105258028D01*
X137930210Y-105066028D01*
X137932216Y-105052077D01*
X137930405Y-105014068D01*
X137922316Y-104844243D01*
X137922174Y-104843658D01*
X137873263Y-104642041D01*
X137786825Y-104452767D01*
X137666138Y-104283287D01*
X137634055Y-104252696D01*
X137515548Y-104139699D01*
X137444311Y-104093918D01*
X137340507Y-104027207D01*
X137147344Y-103949876D01*
X136943035Y-103910500D01*
X135009098Y-103910500D01*
X135006123Y-103910784D01*
X135006124Y-103910784D01*
X134875770Y-103923231D01*
X134840644Y-103921656D01*
X134780958Y-103910500D01*
X134780957Y-103910500D01*
X134711500Y-103910500D01*
X134643379Y-103890498D01*
X134596886Y-103836842D01*
X134585500Y-103784500D01*
X134585500Y-103215500D01*
X134605502Y-103147379D01*
X134659158Y-103100886D01*
X134711500Y-103089500D01*
X134780953Y-103089500D01*
X134780957Y-103089500D01*
X134846799Y-103077192D01*
X134893789Y-103077323D01*
X134956965Y-103089500D01*
X134956966Y-103089500D01*
X136887901Y-103089500D01*
X136890902Y-103089500D01*
X137046127Y-103074678D01*
X137245768Y-103016058D01*
X137430708Y-102920715D01*
X137594261Y-102792095D01*
X137730518Y-102634847D01*
X137834552Y-102454653D01*
X137902605Y-102258028D01*
X137932216Y-102052076D01*
X137922316Y-101844243D01*
X137922316Y-101844242D01*
X137873263Y-101642041D01*
X137786825Y-101452767D01*
X137666138Y-101283287D01*
X137590542Y-101211206D01*
X137515548Y-101139699D01*
X137405869Y-101069213D01*
X137340507Y-101027207D01*
X137147344Y-100949876D01*
X136943035Y-100910500D01*
X135009098Y-100910500D01*
X135006123Y-100910784D01*
X135006124Y-100910784D01*
X134875770Y-100923231D01*
X134840644Y-100921656D01*
X134780958Y-100910500D01*
X134780957Y-100910500D01*
X134711500Y-100910500D01*
X134643379Y-100890498D01*
X134596886Y-100836842D01*
X134585500Y-100784500D01*
X134585500Y-100215500D01*
X134605502Y-100147379D01*
X134659158Y-100100886D01*
X134711500Y-100089500D01*
X134780953Y-100089500D01*
X134780957Y-100089500D01*
X134846799Y-100077192D01*
X134893789Y-100077323D01*
X134956965Y-100089500D01*
X134956966Y-100089500D01*
X136887901Y-100089500D01*
X136890902Y-100089500D01*
X137046127Y-100074678D01*
X137245768Y-100016058D01*
X137430708Y-99920715D01*
X137594261Y-99792095D01*
X137730518Y-99634847D01*
X137834552Y-99454653D01*
X137859525Y-99382500D01*
X139485000Y-99382500D01*
X140210000Y-99382500D01*
X140210000Y-98695000D01*
X140209999Y-98694999D01*
X140159064Y-98695000D01*
X140152671Y-98695326D01*
X140057418Y-98705057D01*
X139897924Y-98757908D01*
X139754917Y-98846115D01*
X139636115Y-98964917D01*
X139547905Y-99107927D01*
X139495056Y-99267417D01*
X139485326Y-99362655D01*
X139485000Y-99369062D01*
X139485000Y-99382500D01*
X137859525Y-99382500D01*
X137902605Y-99258028D01*
X137932216Y-99052076D01*
X137922316Y-98844243D01*
X137921296Y-98840038D01*
X137873263Y-98642041D01*
X137786825Y-98452767D01*
X137666138Y-98283287D01*
X137644719Y-98262864D01*
X137515548Y-98139699D01*
X137465605Y-98107602D01*
X137340507Y-98027207D01*
X137147344Y-97949876D01*
X136943035Y-97910500D01*
X135009098Y-97910500D01*
X135006123Y-97910784D01*
X135006124Y-97910784D01*
X134875770Y-97923231D01*
X134840644Y-97921656D01*
X134780958Y-97910500D01*
X134780957Y-97910500D01*
X134711500Y-97910500D01*
X134643379Y-97890498D01*
X134596886Y-97836842D01*
X134585500Y-97784500D01*
X134585500Y-94821500D01*
X134605502Y-94753379D01*
X134659158Y-94706886D01*
X134711500Y-94695500D01*
X143245996Y-94695500D01*
X143314117Y-94715502D01*
G37*
G04 #@! TD.AperFunction*
G04 #@! TA.AperFunction,Conductor*
G36*
X152652121Y-114890002D02*
G01*
X152698614Y-114943658D01*
X152710000Y-114996000D01*
X152710000Y-115889930D01*
X152745126Y-115887166D01*
X152899192Y-115842405D01*
X152908360Y-115836984D01*
X152977176Y-115819524D01*
X153044507Y-115842040D01*
X153088977Y-115897384D01*
X153098500Y-115945437D01*
X153098500Y-119928257D01*
X153098020Y-119939240D01*
X153094712Y-119977036D01*
X153104533Y-120013689D01*
X153106911Y-120024416D01*
X153113706Y-120062951D01*
X153123928Y-120087628D01*
X153146369Y-120119676D01*
X153152275Y-120128946D01*
X153171250Y-120161812D01*
X153200328Y-120186211D01*
X153208432Y-120193638D01*
X154856365Y-121841572D01*
X154863791Y-121849675D01*
X154885996Y-121876138D01*
X154888188Y-121878750D01*
X154921061Y-121897729D01*
X154930314Y-121903624D01*
X154961405Y-121925394D01*
X154961407Y-121925394D01*
X154962375Y-121926072D01*
X154987047Y-121936292D01*
X154988208Y-121936496D01*
X154988209Y-121936497D01*
X155025591Y-121943088D01*
X155036299Y-121945461D01*
X155072963Y-121955286D01*
X155107798Y-121952238D01*
X155110763Y-121951979D01*
X155121744Y-121951500D01*
X156476232Y-121951500D01*
X156544353Y-121971502D01*
X156590846Y-122025158D01*
X156600950Y-122095432D01*
X156571456Y-122160012D01*
X156554125Y-122176537D01*
X156514239Y-122207905D01*
X156514238Y-122207906D01*
X156377982Y-122365152D01*
X156273947Y-122545347D01*
X156205894Y-122741974D01*
X156176283Y-122947922D01*
X156186183Y-123155757D01*
X156235236Y-123357958D01*
X156321674Y-123547232D01*
X156442361Y-123716712D01*
X156442364Y-123716715D01*
X156442365Y-123716716D01*
X156592952Y-123860301D01*
X156656731Y-123901289D01*
X156767992Y-123972792D01*
X156961155Y-124050123D01*
X157165465Y-124089500D01*
X159096402Y-124089500D01*
X159099402Y-124089500D01*
X159232729Y-124076768D01*
X159267860Y-124078343D01*
X159321653Y-124088399D01*
X159384938Y-124120578D01*
X159420780Y-124181863D01*
X159424500Y-124212253D01*
X159424500Y-135688500D01*
X159404498Y-135756621D01*
X159350842Y-135803114D01*
X159298500Y-135814500D01*
X134711500Y-135814500D01*
X134643379Y-135794498D01*
X134596886Y-135740842D01*
X134585500Y-135688500D01*
X134585500Y-133215500D01*
X134605502Y-133147379D01*
X134659158Y-133100886D01*
X134711500Y-133089500D01*
X134780953Y-133089500D01*
X134780957Y-133089500D01*
X134846799Y-133077192D01*
X134893789Y-133077323D01*
X134956965Y-133089500D01*
X134956966Y-133089500D01*
X136887901Y-133089500D01*
X136890902Y-133089500D01*
X137046127Y-133074678D01*
X137245768Y-133016058D01*
X137430708Y-132920715D01*
X137594261Y-132792095D01*
X137730518Y-132634847D01*
X137834552Y-132454653D01*
X137902605Y-132258028D01*
X137932216Y-132052076D01*
X137922316Y-131844243D01*
X137897827Y-131743299D01*
X137901204Y-131672387D01*
X137931178Y-131624502D01*
X138388277Y-131167404D01*
X138450590Y-131133379D01*
X138477373Y-131130500D01*
X141105522Y-131130500D01*
X141173643Y-131150502D01*
X141194617Y-131167405D01*
X143560104Y-133532892D01*
X143576490Y-133553069D01*
X143581454Y-133560666D01*
X143581456Y-133560669D01*
X143604270Y-133578425D01*
X143615320Y-133588185D01*
X143631204Y-133599526D01*
X143635379Y-133602639D01*
X143679664Y-133637107D01*
X143686825Y-133639239D01*
X143686827Y-133639240D01*
X143733457Y-133653122D01*
X143738373Y-133654697D01*
X143784405Y-133670500D01*
X143784406Y-133670500D01*
X143791472Y-133672926D01*
X143847524Y-133670608D01*
X143852730Y-133670500D01*
X146965181Y-133670500D01*
X147033302Y-133690502D01*
X147079795Y-133744158D01*
X147089897Y-133778564D01*
X147104835Y-133882457D01*
X147164623Y-134013373D01*
X147215947Y-134072604D01*
X147258873Y-134122144D01*
X147319409Y-134161048D01*
X147379947Y-134199953D01*
X147477491Y-134228594D01*
X147518038Y-134240500D01*
X147518039Y-134240500D01*
X147661962Y-134240500D01*
X147693305Y-134231296D01*
X147800053Y-134199953D01*
X147889252Y-134142628D01*
X147921127Y-134122144D01*
X147930794Y-134110988D01*
X147990521Y-134072604D01*
X148026019Y-134067500D01*
X148100206Y-134067500D01*
X148111189Y-134067980D01*
X148148982Y-134071287D01*
X148148982Y-134071286D01*
X148148984Y-134071287D01*
X148185641Y-134061463D01*
X148196373Y-134059085D01*
X148233739Y-134052497D01*
X148233740Y-134052495D01*
X148234903Y-134052291D01*
X148259570Y-134042074D01*
X148260539Y-134041394D01*
X148260543Y-134041394D01*
X148291637Y-134019620D01*
X148300871Y-134013737D01*
X148333760Y-133994750D01*
X148358176Y-133965649D01*
X148365572Y-133957580D01*
X150957586Y-131365567D01*
X150965656Y-131358171D01*
X150994750Y-131333760D01*
X151013728Y-131300885D01*
X151019609Y-131291653D01*
X151041395Y-131260543D01*
X151041396Y-131260538D01*
X151042073Y-131259572D01*
X151052289Y-131234909D01*
X151052494Y-131233743D01*
X151052497Y-131233739D01*
X151059089Y-131196345D01*
X151061456Y-131185667D01*
X151071287Y-131148984D01*
X151067979Y-131111172D01*
X151067500Y-131100191D01*
X151067500Y-131014999D01*
X152609352Y-131014999D01*
X152629834Y-131157456D01*
X152675439Y-131257315D01*
X152689623Y-131288373D01*
X152750083Y-131358148D01*
X152783873Y-131397144D01*
X152844409Y-131436047D01*
X152904947Y-131474953D01*
X153002491Y-131503594D01*
X153043038Y-131515500D01*
X153043039Y-131515500D01*
X153186962Y-131515500D01*
X153218305Y-131506296D01*
X153325053Y-131474953D01*
X153446128Y-131397143D01*
X153540377Y-131288373D01*
X153600165Y-131157457D01*
X153620647Y-131015000D01*
X153607695Y-130924919D01*
X153600165Y-130872543D01*
X153583861Y-130836842D01*
X153540377Y-130741627D01*
X153513454Y-130710555D01*
X153496274Y-130690728D01*
X153466782Y-130626147D01*
X153465500Y-130608217D01*
X153465500Y-130532372D01*
X153485502Y-130464251D01*
X153502405Y-130443277D01*
X156434405Y-127511277D01*
X156496717Y-127477251D01*
X156567532Y-127482316D01*
X156624368Y-127524863D01*
X156649179Y-127591383D01*
X156649500Y-127600372D01*
X156649500Y-127924748D01*
X156654941Y-127952103D01*
X156661133Y-127983231D01*
X156705447Y-128049552D01*
X156711407Y-128053534D01*
X156771769Y-128093867D01*
X156830252Y-128105500D01*
X156830253Y-128105500D01*
X157131521Y-128105500D01*
X157199642Y-128125502D01*
X157246135Y-128179158D01*
X157256239Y-128249432D01*
X157226745Y-128314012D01*
X157184771Y-128345695D01*
X157022421Y-128421400D01*
X156828918Y-128556892D01*
X156661892Y-128723918D01*
X156526400Y-128917420D01*
X156426570Y-129131507D01*
X156369365Y-129345000D01*
X157266314Y-129345000D01*
X157240507Y-129385156D01*
X157200000Y-129523111D01*
X157200000Y-129666889D01*
X157240507Y-129804844D01*
X157266314Y-129845000D01*
X156369364Y-129845000D01*
X156426568Y-130058490D01*
X156526400Y-130272579D01*
X156661892Y-130466081D01*
X156828918Y-130633107D01*
X157022420Y-130768599D01*
X157236508Y-130868430D01*
X157351884Y-130899345D01*
X157412506Y-130936296D01*
X157443528Y-131000157D01*
X157435100Y-131070651D01*
X157389898Y-131125398D01*
X157355850Y-131141626D01*
X157296047Y-131159767D01*
X157113550Y-131257314D01*
X156953589Y-131388589D01*
X156822314Y-131548550D01*
X156724769Y-131731043D01*
X156724768Y-131731045D01*
X156724768Y-131731046D01*
X156690431Y-131844243D01*
X156664699Y-131929070D01*
X156644416Y-132134999D01*
X156664699Y-132340929D01*
X156664699Y-132340931D01*
X156664700Y-132340934D01*
X156719764Y-132522457D01*
X156724769Y-132538956D01*
X156822314Y-132721449D01*
X156953589Y-132881410D01*
X157073064Y-132979459D01*
X157113550Y-133012685D01*
X157296046Y-133110232D01*
X157494066Y-133170300D01*
X157700000Y-133190583D01*
X157905934Y-133170300D01*
X158103954Y-133110232D01*
X158286450Y-133012685D01*
X158446410Y-132881410D01*
X158577685Y-132721450D01*
X158675232Y-132538954D01*
X158735300Y-132340934D01*
X158755583Y-132135000D01*
X158735300Y-131929066D01*
X158675232Y-131731046D01*
X158577685Y-131548550D01*
X158557835Y-131524363D01*
X158446410Y-131388589D01*
X158286449Y-131257314D01*
X158103952Y-131159767D01*
X158044149Y-131141626D01*
X157984769Y-131102711D01*
X157955853Y-131037869D01*
X157966584Y-130967688D01*
X158013555Y-130914450D01*
X158048116Y-130899345D01*
X158163489Y-130868431D01*
X158377579Y-130768599D01*
X158571081Y-130633107D01*
X158738107Y-130466081D01*
X158873599Y-130272579D01*
X158973431Y-130058490D01*
X159030636Y-129845000D01*
X158133686Y-129845000D01*
X158159493Y-129804844D01*
X158200000Y-129666889D01*
X158200000Y-129523111D01*
X158159493Y-129385156D01*
X158133686Y-129345000D01*
X159030635Y-129345000D01*
X158973429Y-129131507D01*
X158873599Y-128917420D01*
X158738107Y-128723918D01*
X158571081Y-128556892D01*
X158377579Y-128421400D01*
X158215229Y-128345695D01*
X158161944Y-128298778D01*
X158142483Y-128230500D01*
X158163025Y-128162540D01*
X158217048Y-128116475D01*
X158268479Y-128105500D01*
X158569747Y-128105500D01*
X158569748Y-128105500D01*
X158628231Y-128093867D01*
X158694552Y-128049552D01*
X158738867Y-127983231D01*
X158750500Y-127924748D01*
X158750500Y-126185252D01*
X158738867Y-126126769D01*
X158710454Y-126084246D01*
X158694552Y-126060447D01*
X158628231Y-126016133D01*
X158569748Y-126004500D01*
X156830252Y-126004500D01*
X156820107Y-126006518D01*
X156771768Y-126016133D01*
X156705447Y-126060447D01*
X156661133Y-126126768D01*
X156661132Y-126126769D01*
X156661133Y-126126769D01*
X156653149Y-126166910D01*
X156649500Y-126185253D01*
X156649500Y-126578500D01*
X156629498Y-126646621D01*
X156575842Y-126693114D01*
X156523500Y-126704500D01*
X156444413Y-126704500D01*
X156418556Y-126701818D01*
X156416950Y-126701481D01*
X156409684Y-126699957D01*
X156381013Y-126703532D01*
X156366271Y-126704447D01*
X156347010Y-126707661D01*
X156341863Y-126708411D01*
X156286190Y-126715351D01*
X156236839Y-126742058D01*
X156232211Y-126744440D01*
X156181805Y-126769082D01*
X156143791Y-126810374D01*
X156140188Y-126814128D01*
X152902101Y-130052215D01*
X152881926Y-130068600D01*
X152874331Y-130073562D01*
X152856577Y-130096372D01*
X152846807Y-130107437D01*
X152835461Y-130123327D01*
X152832353Y-130127496D01*
X152797891Y-130171773D01*
X152781884Y-130225536D01*
X152780297Y-130230489D01*
X152762073Y-130283576D01*
X152764392Y-130339619D01*
X152764500Y-130344826D01*
X152764500Y-130608217D01*
X152744498Y-130676338D01*
X152733726Y-130690728D01*
X152689622Y-130741628D01*
X152629834Y-130872543D01*
X152609352Y-131014999D01*
X151067500Y-131014999D01*
X151067500Y-127829935D01*
X151087502Y-127761814D01*
X151141158Y-127715321D01*
X151211432Y-127705217D01*
X151276012Y-127734711D01*
X151307695Y-127776685D01*
X151366400Y-127902579D01*
X151501892Y-128096081D01*
X151668918Y-128263107D01*
X151862420Y-128398599D01*
X152076508Y-128498431D01*
X152290000Y-128555635D01*
X152290000Y-127660501D01*
X152397685Y-127709680D01*
X152504237Y-127725000D01*
X152575763Y-127725000D01*
X152682315Y-127709680D01*
X152790000Y-127660501D01*
X152790000Y-128555634D01*
X153003491Y-128498431D01*
X153217579Y-128398599D01*
X153411081Y-128263107D01*
X153578107Y-128096081D01*
X153713599Y-127902579D01*
X153813431Y-127688490D01*
X153870636Y-127475000D01*
X152973686Y-127475000D01*
X152999493Y-127434844D01*
X153040000Y-127296889D01*
X153040000Y-127153111D01*
X152999493Y-127015156D01*
X152973686Y-126975000D01*
X153870635Y-126975000D01*
X153813429Y-126761507D01*
X153713599Y-126547420D01*
X153578107Y-126353918D01*
X153411081Y-126186892D01*
X153217579Y-126051400D01*
X153055229Y-125975695D01*
X153001944Y-125928778D01*
X152982483Y-125860500D01*
X153003025Y-125792540D01*
X153057048Y-125746475D01*
X153108479Y-125735500D01*
X153409747Y-125735500D01*
X153409748Y-125735500D01*
X153468231Y-125723867D01*
X153534552Y-125679552D01*
X153578867Y-125613231D01*
X153590500Y-125554748D01*
X153590500Y-123815252D01*
X153578867Y-123756769D01*
X153552104Y-123716716D01*
X153534552Y-123690447D01*
X153468231Y-123646133D01*
X153444592Y-123641431D01*
X153409748Y-123634500D01*
X151670252Y-123634500D01*
X151641010Y-123640316D01*
X151611768Y-123646133D01*
X151545447Y-123690447D01*
X151501133Y-123756768D01*
X151489500Y-123815253D01*
X151489500Y-125554746D01*
X151501133Y-125613231D01*
X151545447Y-125679552D01*
X151589762Y-125709162D01*
X151611769Y-125723867D01*
X151670252Y-125735500D01*
X151670253Y-125735500D01*
X151971521Y-125735500D01*
X152039642Y-125755502D01*
X152086135Y-125809158D01*
X152096239Y-125879432D01*
X152066745Y-125944012D01*
X152024771Y-125975695D01*
X151862421Y-126051400D01*
X151668918Y-126186892D01*
X151501892Y-126353918D01*
X151366400Y-126547421D01*
X151307695Y-126673314D01*
X151260777Y-126726599D01*
X151192500Y-126746060D01*
X151124540Y-126725518D01*
X151078475Y-126671495D01*
X151067500Y-126620064D01*
X151067500Y-118448794D01*
X151087502Y-118380673D01*
X151141158Y-118334180D01*
X151211432Y-118324076D01*
X151276012Y-118353570D01*
X151282595Y-118359699D01*
X151506729Y-118583833D01*
X151532247Y-118620585D01*
X151574621Y-118713371D01*
X151668873Y-118822144D01*
X151691744Y-118836842D01*
X151789947Y-118899953D01*
X151876347Y-118925322D01*
X151928038Y-118940500D01*
X151928039Y-118940500D01*
X152071962Y-118940500D01*
X152103305Y-118931296D01*
X152210053Y-118899953D01*
X152331128Y-118822143D01*
X152425377Y-118713373D01*
X152485165Y-118582457D01*
X152505647Y-118440000D01*
X152485165Y-118297543D01*
X152425377Y-118166627D01*
X152331128Y-118057857D01*
X152331127Y-118057856D01*
X152331126Y-118057855D01*
X152210054Y-117980047D01*
X152201325Y-117977484D01*
X152194327Y-117975429D01*
X152140732Y-117943629D01*
X151927404Y-117730300D01*
X151893379Y-117667988D01*
X151890500Y-117641205D01*
X151890500Y-115972364D01*
X151910502Y-115904243D01*
X151964158Y-115857750D01*
X152034432Y-115847646D01*
X152051653Y-115851367D01*
X152174874Y-115887166D01*
X152210000Y-115889930D01*
X152210000Y-114996000D01*
X152230002Y-114927879D01*
X152283658Y-114881386D01*
X152336000Y-114870000D01*
X152584000Y-114870000D01*
X152652121Y-114890002D01*
G37*
G04 #@! TD.AperFunction*
G04 #@! TA.AperFunction,Conductor*
G36*
X148433359Y-119778308D02*
G01*
X148481945Y-119830076D01*
X148495500Y-119886927D01*
X148495500Y-120703205D01*
X148495020Y-120714188D01*
X148491712Y-120751984D01*
X148501533Y-120788637D01*
X148503911Y-120799364D01*
X148510706Y-120837899D01*
X148520928Y-120862576D01*
X148543369Y-120894624D01*
X148549271Y-120903888D01*
X148560289Y-120922971D01*
X148568250Y-120936760D01*
X148597328Y-120961159D01*
X148605432Y-120968586D01*
X149398595Y-121761749D01*
X149432621Y-121824061D01*
X149435500Y-121850844D01*
X149435500Y-129469155D01*
X149415498Y-129537276D01*
X149398595Y-129558250D01*
X147612430Y-131344414D01*
X147604328Y-131351839D01*
X147575251Y-131376238D01*
X147556271Y-131409111D01*
X147550368Y-131418377D01*
X147527928Y-131450424D01*
X147517706Y-131475105D01*
X147510911Y-131513637D01*
X147508533Y-131524363D01*
X147498712Y-131561015D01*
X147502020Y-131598809D01*
X147502500Y-131609793D01*
X147502500Y-131946674D01*
X147482498Y-132014795D01*
X147471725Y-132029186D01*
X147404622Y-132106628D01*
X147344834Y-132237543D01*
X147328647Y-132350127D01*
X147299154Y-132414708D01*
X147293033Y-132421283D01*
X147281730Y-132432588D01*
X147219421Y-132466618D01*
X147192627Y-132469500D01*
X144247372Y-132469500D01*
X144179251Y-132449498D01*
X144158277Y-132432595D01*
X141792785Y-130067103D01*
X141776397Y-130046923D01*
X141771436Y-130039330D01*
X141748624Y-130021574D01*
X141737577Y-130011817D01*
X141721675Y-130000464D01*
X141717498Y-129997349D01*
X141673228Y-129962892D01*
X141637870Y-129952365D01*
X141619441Y-129946878D01*
X141614513Y-129945300D01*
X141568488Y-129929500D01*
X141568487Y-129929500D01*
X141561420Y-129927074D01*
X141505380Y-129929392D01*
X141500173Y-129929500D01*
X138427372Y-129929500D01*
X138359251Y-129909498D01*
X138338277Y-129892595D01*
X137907237Y-129461555D01*
X137873211Y-129399243D01*
X137877261Y-129331249D01*
X137902605Y-129258028D01*
X137932216Y-129052076D01*
X137922316Y-128844243D01*
X137922316Y-128844242D01*
X137873263Y-128642041D01*
X137786825Y-128452767D01*
X137666138Y-128283287D01*
X137556931Y-128179158D01*
X137515548Y-128139699D01*
X137462333Y-128105500D01*
X137340507Y-128027207D01*
X137147344Y-127949876D01*
X136943035Y-127910500D01*
X135009098Y-127910500D01*
X135006123Y-127910784D01*
X135006124Y-127910784D01*
X134875770Y-127923231D01*
X134840644Y-127921656D01*
X134780958Y-127910500D01*
X134780957Y-127910500D01*
X134711500Y-127910500D01*
X134643379Y-127890498D01*
X134596886Y-127836842D01*
X134585500Y-127784500D01*
X134585500Y-126250000D01*
X135280000Y-126250000D01*
X135280000Y-127044460D01*
X135280359Y-127051176D01*
X135286402Y-127107375D01*
X135336646Y-127242088D01*
X135422810Y-127357189D01*
X135537911Y-127443353D01*
X135672624Y-127493597D01*
X135728823Y-127499640D01*
X135735539Y-127500000D01*
X136530000Y-127500000D01*
X136530000Y-126250000D01*
X137030000Y-126250000D01*
X137030000Y-127500000D01*
X137824461Y-127500000D01*
X137831176Y-127499640D01*
X137887375Y-127493597D01*
X138022088Y-127443353D01*
X138137189Y-127357189D01*
X138223353Y-127242088D01*
X138273597Y-127107375D01*
X138279640Y-127051176D01*
X138280000Y-127044460D01*
X138280000Y-126250000D01*
X137030000Y-126250000D01*
X136530000Y-126250000D01*
X135280000Y-126250000D01*
X134585500Y-126250000D01*
X134585500Y-125750000D01*
X135280000Y-125750000D01*
X136530000Y-125750000D01*
X136530000Y-124500000D01*
X137030000Y-124500000D01*
X137030000Y-125750000D01*
X138280000Y-125750000D01*
X138280000Y-124955539D01*
X138279640Y-124948823D01*
X138273597Y-124892624D01*
X138223353Y-124757911D01*
X138137189Y-124642810D01*
X138022088Y-124556646D01*
X137887375Y-124506402D01*
X137831176Y-124500359D01*
X137824461Y-124500000D01*
X137030000Y-124500000D01*
X136530000Y-124500000D01*
X135735539Y-124500000D01*
X135728823Y-124500359D01*
X135672624Y-124506402D01*
X135537911Y-124556646D01*
X135422810Y-124642810D01*
X135336646Y-124757911D01*
X135286402Y-124892624D01*
X135280359Y-124948823D01*
X135280000Y-124955539D01*
X135280000Y-125750000D01*
X134585500Y-125750000D01*
X134585500Y-121215500D01*
X134605502Y-121147379D01*
X134659158Y-121100886D01*
X134711500Y-121089500D01*
X134780953Y-121089500D01*
X134780957Y-121089500D01*
X134846799Y-121077192D01*
X134893789Y-121077323D01*
X134956965Y-121089500D01*
X134956966Y-121089500D01*
X136887901Y-121089500D01*
X136890902Y-121089500D01*
X137046127Y-121074678D01*
X137245768Y-121016058D01*
X137430708Y-120920715D01*
X137594261Y-120792095D01*
X137730518Y-120634847D01*
X137834552Y-120454653D01*
X137849213Y-120412290D01*
X137890396Y-120354458D01*
X137956307Y-120328071D01*
X137968284Y-120327500D01*
X138050206Y-120327500D01*
X138061189Y-120327980D01*
X138098982Y-120331287D01*
X138098982Y-120331286D01*
X138098984Y-120331287D01*
X138135641Y-120321463D01*
X138146373Y-120319085D01*
X138183739Y-120312497D01*
X138183740Y-120312495D01*
X138184903Y-120312291D01*
X138209570Y-120302074D01*
X138210539Y-120301394D01*
X138210543Y-120301394D01*
X138241637Y-120279620D01*
X138250871Y-120273737D01*
X138283760Y-120254750D01*
X138308171Y-120225656D01*
X138315566Y-120217586D01*
X138688749Y-119844404D01*
X138751062Y-119810379D01*
X138777845Y-119807500D01*
X139700504Y-119807500D01*
X139768625Y-119827502D01*
X139815118Y-119881158D01*
X139825222Y-119951432D01*
X139795728Y-120016012D01*
X139789599Y-120022595D01*
X139764926Y-120047267D01*
X139675955Y-120191511D01*
X139622643Y-120352398D01*
X139612826Y-120448483D01*
X139612500Y-120454890D01*
X139612500Y-120500000D01*
X140686500Y-120500000D01*
X140754621Y-120520002D01*
X140801114Y-120573658D01*
X140812500Y-120626000D01*
X140812500Y-120874000D01*
X140792498Y-120942121D01*
X140738842Y-120988614D01*
X140686500Y-121000000D01*
X139612501Y-121000000D01*
X139612501Y-121045108D01*
X139612826Y-121051499D01*
X139622644Y-121147606D01*
X139675954Y-121308487D01*
X139764926Y-121452732D01*
X139884764Y-121572570D01*
X140012106Y-121651116D01*
X140059584Y-121703902D01*
X140070987Y-121773977D01*
X140042694Y-121839093D01*
X140001301Y-121871553D01*
X139985049Y-121879499D01*
X139970326Y-121886696D01*
X139914986Y-121899500D01*
X139738440Y-121899500D01*
X139670321Y-121879499D01*
X139640053Y-121860047D01*
X139640050Y-121860046D01*
X139501962Y-121819500D01*
X139501961Y-121819500D01*
X139358039Y-121819500D01*
X139358038Y-121819500D01*
X139205135Y-121864396D01*
X139169637Y-121869500D01*
X138862378Y-121869500D01*
X138848272Y-121868708D01*
X138812965Y-121864730D01*
X138812964Y-121864730D01*
X138756832Y-121875350D01*
X138752191Y-121876138D01*
X138689560Y-121885579D01*
X138685028Y-121887070D01*
X138679527Y-121889977D01*
X138679528Y-121889977D01*
X138629020Y-121916671D01*
X138624828Y-121918787D01*
X138567756Y-121946272D01*
X138563858Y-121949038D01*
X138519072Y-121993823D01*
X138515681Y-121997089D01*
X138469244Y-122040177D01*
X138457782Y-122055113D01*
X138165596Y-122347300D01*
X138103283Y-122381325D01*
X138032468Y-122376261D01*
X137975632Y-122333714D01*
X137950821Y-122267194D01*
X137950500Y-122258205D01*
X137950500Y-121980253D01*
X137949164Y-121973536D01*
X137938867Y-121921769D01*
X137916101Y-121887698D01*
X137894552Y-121855447D01*
X137828231Y-121811133D01*
X137803808Y-121806275D01*
X137769748Y-121799500D01*
X135730252Y-121799500D01*
X135701010Y-121805316D01*
X135671768Y-121811133D01*
X135605447Y-121855447D01*
X135561133Y-121921768D01*
X135556703Y-121944042D01*
X135551241Y-121971502D01*
X135549500Y-121980253D01*
X135549500Y-124019746D01*
X135561133Y-124078231D01*
X135605447Y-124144552D01*
X135649762Y-124174162D01*
X135671769Y-124188867D01*
X135730252Y-124200500D01*
X135730253Y-124200500D01*
X137769747Y-124200500D01*
X137769748Y-124200500D01*
X137828231Y-124188867D01*
X137894552Y-124144552D01*
X137938867Y-124078231D01*
X137950500Y-124019748D01*
X137950500Y-123576499D01*
X137958281Y-123550000D01*
X139480204Y-123550000D01*
X139480400Y-123552492D01*
X139526217Y-123710196D01*
X139609819Y-123851559D01*
X139737199Y-123978939D01*
X139734310Y-123981827D01*
X139763582Y-124013166D01*
X139777000Y-124069746D01*
X139777000Y-124433257D01*
X139786927Y-124501394D01*
X139838302Y-124606484D01*
X139921015Y-124689197D01*
X139921016Y-124689197D01*
X139921017Y-124689198D01*
X140026107Y-124740573D01*
X140094240Y-124750500D01*
X140592628Y-124750500D01*
X140660749Y-124770502D01*
X140681723Y-124787405D01*
X140853723Y-124959405D01*
X140887749Y-125021717D01*
X140882684Y-125092532D01*
X140840137Y-125149368D01*
X140773617Y-125174179D01*
X140764628Y-125174500D01*
X140183481Y-125174500D01*
X140089696Y-125189354D01*
X139976655Y-125246951D01*
X139886951Y-125336655D01*
X139829354Y-125449695D01*
X139814500Y-125543482D01*
X139814500Y-126006518D01*
X139823042Y-126060448D01*
X139829354Y-126100304D01*
X139884874Y-126209268D01*
X139886951Y-126213344D01*
X139976655Y-126303048D01*
X139976657Y-126303049D01*
X139976658Y-126303050D01*
X140089696Y-126360646D01*
X140183481Y-126375500D01*
X140542627Y-126375499D01*
X140610747Y-126395501D01*
X140631722Y-126412404D01*
X140828723Y-126609405D01*
X140862749Y-126671717D01*
X140857684Y-126742532D01*
X140815137Y-126799368D01*
X140748617Y-126824179D01*
X140739628Y-126824500D01*
X140183481Y-126824500D01*
X140089696Y-126839354D01*
X139976655Y-126896951D01*
X139886951Y-126986655D01*
X139829354Y-127099695D01*
X139814500Y-127193482D01*
X139814500Y-127656518D01*
X139826959Y-127735182D01*
X139829354Y-127750304D01*
X139869928Y-127829935D01*
X139886951Y-127863344D01*
X139989440Y-127965833D01*
X140023466Y-128028145D01*
X140018401Y-128098960D01*
X140014962Y-128107262D01*
X140014835Y-128107539D01*
X139994352Y-128250000D01*
X140014834Y-128392456D01*
X140028053Y-128421400D01*
X140074623Y-128523373D01*
X140168872Y-128632143D01*
X140168873Y-128632144D01*
X140229409Y-128671047D01*
X140289947Y-128709953D01*
X140387491Y-128738594D01*
X140428038Y-128750500D01*
X140428039Y-128750500D01*
X140571962Y-128750500D01*
X140603305Y-128741296D01*
X140710053Y-128709953D01*
X140831128Y-128632143D01*
X140925377Y-128523373D01*
X140985165Y-128392457D01*
X141005647Y-128250000D01*
X140985165Y-128107543D01*
X140978769Y-128093538D01*
X140968665Y-128023270D01*
X140998157Y-127958689D01*
X141004274Y-127952117D01*
X141093050Y-127863342D01*
X141150646Y-127750304D01*
X141150646Y-127750302D01*
X141151267Y-127749084D01*
X141200015Y-127697468D01*
X141268930Y-127680402D01*
X141336131Y-127703302D01*
X141375801Y-127749083D01*
X141440343Y-127875753D01*
X141534246Y-127969656D01*
X141534248Y-127969657D01*
X141534249Y-127969658D01*
X141652580Y-128029951D01*
X141750754Y-128045500D01*
X141750755Y-128045500D01*
X142329245Y-128045500D01*
X142329246Y-128045500D01*
X142427420Y-128029951D01*
X142545751Y-127969658D01*
X142639658Y-127875751D01*
X142699951Y-127757420D01*
X142715500Y-127659246D01*
X142715500Y-127648102D01*
X142735502Y-127579982D01*
X142789158Y-127533489D01*
X142859432Y-127523385D01*
X142924012Y-127552879D01*
X142962396Y-127612605D01*
X142965948Y-127628388D01*
X142980049Y-127717420D01*
X143000430Y-127757419D01*
X143040343Y-127835753D01*
X143134246Y-127929656D01*
X143134248Y-127929657D01*
X143134249Y-127929658D01*
X143252580Y-127989951D01*
X143350754Y-128005500D01*
X143350755Y-128005500D01*
X143929245Y-128005500D01*
X143929246Y-128005500D01*
X144027420Y-127989951D01*
X144145751Y-127929658D01*
X144239658Y-127835751D01*
X144264601Y-127786796D01*
X144313349Y-127735182D01*
X144376868Y-127718000D01*
X144455681Y-127718000D01*
X144523802Y-127738002D01*
X144567948Y-127786797D01*
X144606951Y-127863344D01*
X144696655Y-127953048D01*
X144696657Y-127953049D01*
X144696658Y-127953050D01*
X144809696Y-128010646D01*
X144903481Y-128025500D01*
X145516518Y-128025499D01*
X145610304Y-128010646D01*
X145723342Y-127953050D01*
X145813050Y-127863342D01*
X145870646Y-127750304D01*
X145885500Y-127656519D01*
X145885499Y-127193482D01*
X145870646Y-127099696D01*
X145813050Y-126986658D01*
X145813049Y-126986657D01*
X145813048Y-126986655D01*
X145723343Y-126896950D01*
X145678763Y-126874235D01*
X145627149Y-126825487D01*
X145610083Y-126756572D01*
X145632984Y-126689371D01*
X145688582Y-126645219D01*
X145698482Y-126641674D01*
X145774400Y-126618017D01*
X145919875Y-126530074D01*
X146040074Y-126409875D01*
X146128016Y-126264400D01*
X146178591Y-126102103D01*
X146184741Y-126034424D01*
X146185000Y-126028713D01*
X146185000Y-126025000D01*
X145086000Y-126025000D01*
X145017879Y-126004998D01*
X144971386Y-125951342D01*
X144960000Y-125899000D01*
X144960000Y-125651000D01*
X144980002Y-125582879D01*
X145033658Y-125536386D01*
X145086000Y-125525000D01*
X146184999Y-125525000D01*
X146184999Y-125521289D01*
X146184739Y-125515572D01*
X146178591Y-125447897D01*
X146151847Y-125362073D01*
X146150677Y-125291086D01*
X146188072Y-125230735D01*
X146252158Y-125200182D01*
X146283545Y-125199104D01*
X146345580Y-125204741D01*
X146351281Y-125204999D01*
X146354999Y-125204998D01*
X146355000Y-125204998D01*
X146355000Y-124480000D01*
X146855000Y-124480000D01*
X146855000Y-125204999D01*
X146858711Y-125204999D01*
X146864427Y-125204739D01*
X146932103Y-125198591D01*
X147094399Y-125148017D01*
X147239875Y-125060074D01*
X147360074Y-124939875D01*
X147448016Y-124794400D01*
X147498591Y-124632103D01*
X147504741Y-124564424D01*
X147505000Y-124558713D01*
X147505000Y-124480000D01*
X146855000Y-124480000D01*
X146355000Y-124480000D01*
X146355000Y-123372629D01*
X146347878Y-123359585D01*
X146345000Y-123332808D01*
X146345000Y-122630000D01*
X146845000Y-122630000D01*
X146845000Y-123237364D01*
X146852119Y-123250401D01*
X146855000Y-123277190D01*
X146855000Y-123980000D01*
X147504999Y-123980000D01*
X147504999Y-123901289D01*
X147504739Y-123895572D01*
X147498591Y-123827896D01*
X147448017Y-123665600D01*
X147360074Y-123520124D01*
X147243026Y-123403076D01*
X147209000Y-123340764D01*
X147214065Y-123269949D01*
X147256612Y-123213113D01*
X147265978Y-123206738D01*
X147272736Y-123202569D01*
X147392573Y-123082732D01*
X147481544Y-122938488D01*
X147534856Y-122777601D01*
X147544673Y-122681516D01*
X147545000Y-122675109D01*
X147545000Y-122630000D01*
X146845000Y-122630000D01*
X146345000Y-122630000D01*
X146345000Y-122256000D01*
X146365002Y-122187879D01*
X146418658Y-122141386D01*
X146471000Y-122130000D01*
X147544999Y-122130000D01*
X147544999Y-122084891D01*
X147544673Y-122078500D01*
X147534855Y-121982393D01*
X147481545Y-121821512D01*
X147392573Y-121677267D01*
X147272735Y-121557429D01*
X147208349Y-121517715D01*
X147160871Y-121464929D01*
X147149468Y-121394854D01*
X147177761Y-121329738D01*
X147206376Y-121304476D01*
X147241128Y-121282143D01*
X147335377Y-121173373D01*
X147395165Y-121042457D01*
X147415647Y-120900000D01*
X147410463Y-120863947D01*
X147395165Y-120757543D01*
X147347858Y-120653956D01*
X147335377Y-120626627D01*
X147241128Y-120517857D01*
X147241127Y-120517856D01*
X147241126Y-120517855D01*
X147120053Y-120440047D01*
X146981962Y-120399500D01*
X146981961Y-120399500D01*
X146838039Y-120399500D01*
X146838038Y-120399500D01*
X146685135Y-120444396D01*
X146649637Y-120449500D01*
X145432378Y-120449500D01*
X145418272Y-120448708D01*
X145415322Y-120448375D01*
X145382963Y-120444729D01*
X145326805Y-120455354D01*
X145322165Y-120456142D01*
X145259565Y-120465577D01*
X145255018Y-120467074D01*
X145198996Y-120496682D01*
X145194792Y-120498805D01*
X145137764Y-120526268D01*
X145133845Y-120529049D01*
X145089091Y-120573804D01*
X145085699Y-120577072D01*
X145039244Y-120620177D01*
X145027784Y-120635110D01*
X144749338Y-120913557D01*
X144738804Y-120922971D01*
X144711028Y-120945122D01*
X144678840Y-120992332D01*
X144676116Y-120996172D01*
X144638511Y-121047125D01*
X144636359Y-121051388D01*
X144617690Y-121111913D01*
X144616218Y-121116387D01*
X144595301Y-121176166D01*
X144594500Y-121180885D01*
X144594500Y-121244213D01*
X144594412Y-121248924D01*
X144592043Y-121312238D01*
X144594500Y-121330898D01*
X144594500Y-121701561D01*
X144574498Y-121769682D01*
X144557595Y-121790656D01*
X144457360Y-121890891D01*
X144454167Y-121887698D01*
X144430927Y-121912311D01*
X144367397Y-121929500D01*
X143701381Y-121929500D01*
X143646042Y-121916697D01*
X143528894Y-121859427D01*
X143504459Y-121855867D01*
X143460760Y-121849500D01*
X142369240Y-121849500D01*
X142328423Y-121855447D01*
X142301105Y-121859427D01*
X142196015Y-121910802D01*
X142113302Y-121993515D01*
X142061927Y-122098605D01*
X142061926Y-122098607D01*
X142061927Y-122098607D01*
X142052001Y-122166737D01*
X142052000Y-122166742D01*
X142052000Y-122533257D01*
X142061927Y-122601394D01*
X142113302Y-122706484D01*
X142196015Y-122789197D01*
X142196016Y-122789197D01*
X142196017Y-122789198D01*
X142301107Y-122840573D01*
X142369240Y-122850500D01*
X142369243Y-122850500D01*
X142378275Y-122851816D01*
X142377852Y-122854714D01*
X142431621Y-122870502D01*
X142478114Y-122924158D01*
X142489500Y-122976500D01*
X142489500Y-123044228D01*
X142478114Y-123096570D01*
X142454834Y-123147545D01*
X142434352Y-123290000D01*
X142454834Y-123432456D01*
X142518178Y-123571157D01*
X142528283Y-123641431D01*
X142498790Y-123706012D01*
X142439064Y-123744396D01*
X142403565Y-123749500D01*
X142369240Y-123749500D01*
X142328360Y-123755456D01*
X142301105Y-123759427D01*
X142196015Y-123810802D01*
X142113302Y-123893515D01*
X142061927Y-123998605D01*
X142061926Y-123998607D01*
X142061927Y-123998607D01*
X142054090Y-124052399D01*
X142052000Y-124066742D01*
X142052000Y-124433257D01*
X142061927Y-124501394D01*
X142113302Y-124606484D01*
X142196015Y-124689197D01*
X142196016Y-124689197D01*
X142196017Y-124689198D01*
X142301107Y-124740573D01*
X142369240Y-124750500D01*
X142369243Y-124750500D01*
X143460757Y-124750500D01*
X143460760Y-124750500D01*
X143528893Y-124740573D01*
X143633983Y-124689198D01*
X143653884Y-124669297D01*
X143685777Y-124637405D01*
X143748089Y-124603379D01*
X143774872Y-124600500D01*
X144276955Y-124600500D01*
X144345076Y-124620502D01*
X144389222Y-124669297D01*
X144426951Y-124743344D01*
X144513174Y-124829567D01*
X144547200Y-124891879D01*
X144542135Y-124962694D01*
X144508912Y-125007074D01*
X144510944Y-125009106D01*
X144379926Y-125140123D01*
X144340908Y-125204666D01*
X144288548Y-125252614D01*
X144218578Y-125264643D01*
X144153212Y-125236933D01*
X144146173Y-125230557D01*
X144105924Y-125210049D01*
X144027420Y-125170049D01*
X143929246Y-125154500D01*
X143350754Y-125154500D01*
X143331213Y-125157595D01*
X143252580Y-125170049D01*
X143134246Y-125230343D01*
X143040343Y-125324246D01*
X143034019Y-125336658D01*
X142995016Y-125413204D01*
X142946270Y-125464818D01*
X142882751Y-125482000D01*
X142776868Y-125482000D01*
X142708747Y-125461998D01*
X142664601Y-125413203D01*
X142639656Y-125364246D01*
X142545753Y-125270343D01*
X142510958Y-125252614D01*
X142427420Y-125210049D01*
X142329246Y-125194500D01*
X142329245Y-125194500D01*
X142132372Y-125194500D01*
X142064251Y-125174498D01*
X142043277Y-125157595D01*
X141521882Y-124636200D01*
X141487856Y-124573888D01*
X141491632Y-124521081D01*
X141490234Y-124520878D01*
X141503000Y-124433257D01*
X141503000Y-124069746D01*
X141523002Y-124001625D01*
X141544640Y-123980778D01*
X141542801Y-123978939D01*
X141670180Y-123851559D01*
X141753782Y-123710196D01*
X141799599Y-123552492D01*
X141799796Y-123550000D01*
X139480204Y-123550000D01*
X137958281Y-123550000D01*
X137970502Y-123508379D01*
X138024158Y-123461886D01*
X138076500Y-123450500D01*
X138117622Y-123450500D01*
X138131728Y-123451292D01*
X138167035Y-123455270D01*
X138223211Y-123444640D01*
X138227772Y-123443865D01*
X138284287Y-123435348D01*
X138284291Y-123435346D01*
X138290468Y-123434415D01*
X138294946Y-123432942D01*
X138300467Y-123430023D01*
X138300472Y-123430023D01*
X138351027Y-123403302D01*
X138355190Y-123401202D01*
X138406642Y-123376425D01*
X138406643Y-123376423D01*
X138412260Y-123373719D01*
X138416128Y-123370974D01*
X138420533Y-123366568D01*
X138420538Y-123366566D01*
X138460962Y-123326140D01*
X138464302Y-123322923D01*
X138506194Y-123284055D01*
X138506194Y-123284053D01*
X138510763Y-123279815D01*
X138522216Y-123264886D01*
X138979700Y-122807402D01*
X139042010Y-122773379D01*
X139068793Y-122770500D01*
X139169637Y-122770500D01*
X139205135Y-122775604D01*
X139358038Y-122820500D01*
X139378536Y-122820500D01*
X139446657Y-122840502D01*
X139493150Y-122894158D01*
X139503254Y-122964432D01*
X139499533Y-122981653D01*
X139480400Y-123047507D01*
X139480204Y-123050000D01*
X141799795Y-123050000D01*
X141799599Y-123047507D01*
X141753782Y-122889803D01*
X141670180Y-122748440D01*
X141542801Y-122621061D01*
X141545688Y-122618173D01*
X141516404Y-122586805D01*
X141503000Y-122530253D01*
X141503000Y-122166737D01*
X141490478Y-122080799D01*
X141500449Y-122010507D01*
X141526063Y-121973539D01*
X142037199Y-121462404D01*
X142099512Y-121428379D01*
X142126295Y-121425500D01*
X142370986Y-121425500D01*
X142370988Y-121425500D01*
X142470626Y-121409719D01*
X142590720Y-121348528D01*
X142686028Y-121253220D01*
X142747219Y-121133126D01*
X142763000Y-121033488D01*
X142763000Y-120466512D01*
X142747219Y-120366874D01*
X142686028Y-120246780D01*
X142686027Y-120246779D01*
X142686026Y-120246777D01*
X142590722Y-120151473D01*
X142537156Y-120124180D01*
X142470626Y-120090281D01*
X142370988Y-120074500D01*
X141854012Y-120074500D01*
X141765019Y-120088595D01*
X141754374Y-120090281D01*
X141634278Y-120151472D01*
X141617114Y-120168637D01*
X141554801Y-120202661D01*
X141483986Y-120197595D01*
X141427151Y-120155047D01*
X141420780Y-120145687D01*
X141360073Y-120047267D01*
X141335401Y-120022595D01*
X141301375Y-119960283D01*
X141306440Y-119889468D01*
X141348987Y-119832632D01*
X141415507Y-119807821D01*
X141424496Y-119807500D01*
X148140206Y-119807500D01*
X148151189Y-119807980D01*
X148188982Y-119811287D01*
X148188982Y-119811286D01*
X148188984Y-119811287D01*
X148225641Y-119801463D01*
X148236373Y-119799085D01*
X148237156Y-119798947D01*
X148273739Y-119792497D01*
X148273740Y-119792495D01*
X148274903Y-119792291D01*
X148302447Y-119780883D01*
X148317889Y-119776747D01*
X148364498Y-119761026D01*
X148433359Y-119778308D01*
G37*
G04 #@! TD.AperFunction*
G04 #@! TA.AperFunction,Conductor*
G36*
X155012121Y-115460002D02*
G01*
X155058614Y-115513658D01*
X155070000Y-115566000D01*
X155070000Y-116468790D01*
X155090913Y-116467145D01*
X155246193Y-116422032D01*
X155385381Y-116339716D01*
X155510975Y-116214123D01*
X155511506Y-116214654D01*
X155551231Y-116177558D01*
X155621080Y-116164847D01*
X155686713Y-116191917D01*
X155696893Y-116201047D01*
X155948617Y-116452772D01*
X156156566Y-116660721D01*
X156190591Y-116723033D01*
X156192188Y-116767747D01*
X156166283Y-116947926D01*
X156176183Y-117155757D01*
X156225236Y-117357958D01*
X156311674Y-117547232D01*
X156432361Y-117716712D01*
X156432364Y-117716715D01*
X156432365Y-117716716D01*
X156582952Y-117860301D01*
X156670814Y-117916766D01*
X156757992Y-117972792D01*
X156951155Y-118050123D01*
X157155465Y-118089500D01*
X159086402Y-118089500D01*
X159089402Y-118089500D01*
X159222729Y-118076768D01*
X159257854Y-118078341D01*
X159317543Y-118089500D01*
X159317549Y-118089500D01*
X159321652Y-118090267D01*
X159384938Y-118122446D01*
X159420780Y-118183731D01*
X159424500Y-118214122D01*
X159424500Y-118784500D01*
X159404498Y-118852621D01*
X159350842Y-118899114D01*
X159298500Y-118910500D01*
X159108041Y-118910500D01*
X159042200Y-118922806D01*
X158995207Y-118922674D01*
X158932037Y-118910500D01*
X158932035Y-118910500D01*
X156998098Y-118910500D01*
X156995123Y-118910784D01*
X156995124Y-118910784D01*
X156842871Y-118925322D01*
X156676895Y-118974057D01*
X156670008Y-118976080D01*
X156643229Y-118983943D01*
X156458291Y-119079284D01*
X156294741Y-119207903D01*
X156294739Y-119207904D01*
X156294739Y-119207905D01*
X156279709Y-119225251D01*
X156158482Y-119365152D01*
X156054447Y-119545347D01*
X155986394Y-119741974D01*
X155956783Y-119947922D01*
X155966683Y-120155757D01*
X156015736Y-120357958D01*
X156102174Y-120547232D01*
X156170665Y-120643413D01*
X156193886Y-120710504D01*
X156177148Y-120779500D01*
X156125766Y-120828493D01*
X156068029Y-120842500D01*
X155477845Y-120842500D01*
X155409724Y-120822498D01*
X155388750Y-120805595D01*
X154244405Y-119661250D01*
X154210379Y-119598938D01*
X154207500Y-119572155D01*
X154207500Y-116532752D01*
X154227502Y-116464631D01*
X154281158Y-116418138D01*
X154351432Y-116408034D01*
X154378868Y-116417692D01*
X154549086Y-116467145D01*
X154569999Y-116468790D01*
X154570000Y-116468789D01*
X154570000Y-115566000D01*
X154590002Y-115497879D01*
X154643658Y-115451386D01*
X154696000Y-115440000D01*
X154944000Y-115440000D01*
X155012121Y-115460002D01*
G37*
G04 #@! TD.AperFunction*
G04 #@! TA.AperFunction,Conductor*
G36*
X143965135Y-110290000D02*
G01*
X145894000Y-110290000D01*
X145962121Y-110310002D01*
X146008614Y-110363658D01*
X146020000Y-110416000D01*
X146020000Y-110664000D01*
X145999998Y-110732121D01*
X145946342Y-110778614D01*
X145894000Y-110790000D01*
X145070000Y-110790000D01*
X145070000Y-112230000D01*
X145894000Y-112230000D01*
X145962121Y-112250002D01*
X146008614Y-112303658D01*
X146020000Y-112356000D01*
X146020000Y-112604000D01*
X145999998Y-112672121D01*
X145946342Y-112718614D01*
X145894000Y-112730000D01*
X144656000Y-112730000D01*
X144587879Y-112709998D01*
X144541386Y-112656342D01*
X144530000Y-112604000D01*
X144530000Y-111770000D01*
X144041209Y-111770000D01*
X144042854Y-111790913D01*
X144076505Y-111906740D01*
X144076302Y-111977737D01*
X144063962Y-112006031D01*
X144017968Y-112083803D01*
X143972855Y-112239084D01*
X143970193Y-112272906D01*
X143970000Y-112277832D01*
X143970000Y-112370337D01*
X143949998Y-112438458D01*
X143896342Y-112484951D01*
X143826068Y-112495055D01*
X143788661Y-112483534D01*
X143718894Y-112449427D01*
X143697953Y-112446376D01*
X143650760Y-112439500D01*
X143428668Y-112439500D01*
X143360547Y-112419498D01*
X143314054Y-112365842D01*
X143303950Y-112295568D01*
X143333444Y-112230988D01*
X143360548Y-112207502D01*
X143381452Y-112194068D01*
X143431128Y-112162143D01*
X143525377Y-112053373D01*
X143585165Y-111922457D01*
X143605647Y-111780000D01*
X143590742Y-111676334D01*
X143600845Y-111606062D01*
X143647337Y-111552406D01*
X143697291Y-111533720D01*
X143718893Y-111530573D01*
X143823983Y-111479198D01*
X143906698Y-111396483D01*
X143920716Y-111367807D01*
X143933988Y-111340661D01*
X143981876Y-111288247D01*
X144047185Y-111270000D01*
X144530000Y-111270000D01*
X144530000Y-110790000D01*
X144037407Y-110790000D01*
X143969286Y-110769998D01*
X143924210Y-110719339D01*
X143906698Y-110683517D01*
X143906696Y-110683515D01*
X143906696Y-110683514D01*
X143823983Y-110600801D01*
X143750404Y-110564831D01*
X143697989Y-110516944D01*
X143679786Y-110448320D01*
X143701572Y-110380749D01*
X143739595Y-110344393D01*
X143830873Y-110288092D01*
X143899352Y-110269355D01*
X143965135Y-110290000D01*
G37*
G04 #@! TD.AperFunction*
G04 #@! TA.AperFunction,Conductor*
G36*
X155604343Y-107233317D02*
G01*
X156060000Y-107340000D01*
X157085635Y-107536077D01*
X157148786Y-107568514D01*
X157184376Y-107629945D01*
X157181105Y-107700867D01*
X157151069Y-107748930D01*
X157120000Y-107779999D01*
X157120000Y-108530000D01*
X158094999Y-108530000D01*
X158094999Y-108483227D01*
X158094673Y-108476836D01*
X158084505Y-108377301D01*
X158029359Y-108210880D01*
X157937314Y-108061652D01*
X157813346Y-107937684D01*
X157779707Y-107916935D01*
X157732230Y-107864149D01*
X157720827Y-107794074D01*
X157749120Y-107728959D01*
X157808126Y-107689476D01*
X157869512Y-107685936D01*
X159322160Y-107963648D01*
X159385313Y-107996086D01*
X159420903Y-108057517D01*
X159424500Y-108087407D01*
X159424500Y-112785877D01*
X159404498Y-112853998D01*
X159350842Y-112900491D01*
X159321649Y-112909732D01*
X159251700Y-112922806D01*
X159204707Y-112922674D01*
X159141537Y-112910500D01*
X159141535Y-112910500D01*
X157207598Y-112910500D01*
X157204623Y-112910784D01*
X157204624Y-112910784D01*
X157052371Y-112925322D01*
X156952552Y-112954631D01*
X156852732Y-112983942D01*
X156695234Y-113065137D01*
X156625522Y-113078572D01*
X156559612Y-113052185D01*
X156518430Y-112994353D01*
X156511500Y-112953143D01*
X156511500Y-111843795D01*
X156511979Y-111832814D01*
X156515286Y-111795015D01*
X156505461Y-111758351D01*
X156503087Y-111747638D01*
X156501494Y-111738605D01*
X156496497Y-111710261D01*
X156496496Y-111710260D01*
X156496292Y-111709099D01*
X156486072Y-111684427D01*
X156485394Y-111683459D01*
X156485394Y-111683457D01*
X156463624Y-111652366D01*
X156457729Y-111643113D01*
X156438750Y-111610240D01*
X156430145Y-111603019D01*
X156390821Y-111543910D01*
X156389695Y-111472923D01*
X156427127Y-111412596D01*
X156491233Y-111382082D01*
X156511139Y-111380500D01*
X157396313Y-111380500D01*
X157399266Y-111380500D01*
X157429699Y-111377646D01*
X157557882Y-111332793D01*
X157667150Y-111252150D01*
X157747793Y-111142882D01*
X157779567Y-111052076D01*
X157792645Y-111014702D01*
X157792645Y-111014701D01*
X157792646Y-111014699D01*
X157795500Y-110984266D01*
X157795500Y-110375734D01*
X157792646Y-110345301D01*
X157792328Y-110344393D01*
X157747793Y-110217117D01*
X157667150Y-110107849D01*
X157557882Y-110027206D01*
X157499510Y-110006781D01*
X157441818Y-109965403D01*
X157415656Y-109899402D01*
X157429329Y-109829735D01*
X157478497Y-109778519D01*
X157501492Y-109768247D01*
X157664122Y-109714356D01*
X157813347Y-109622314D01*
X157937314Y-109498347D01*
X158029359Y-109349119D01*
X158084506Y-109182695D01*
X158094673Y-109083180D01*
X158095000Y-109076773D01*
X158095000Y-109030000D01*
X156746000Y-109030000D01*
X156677879Y-109009998D01*
X156631386Y-108956342D01*
X156620000Y-108904000D01*
X156620000Y-107780000D01*
X156348227Y-107780000D01*
X156341836Y-107780326D01*
X156242301Y-107790494D01*
X156166240Y-107815698D01*
X156095286Y-107818137D01*
X156034276Y-107781829D01*
X156025849Y-107771746D01*
X155994505Y-107730000D01*
X155630000Y-107730000D01*
X155630000Y-108644000D01*
X155609998Y-108712121D01*
X155556342Y-108758614D01*
X155504000Y-108770000D01*
X155256000Y-108770000D01*
X155187879Y-108749998D01*
X155141386Y-108696342D01*
X155130000Y-108644000D01*
X155130000Y-108300000D01*
X155066000Y-108300000D01*
X154997879Y-108279998D01*
X154951386Y-108226342D01*
X154940000Y-108174000D01*
X154940000Y-107356000D01*
X154960002Y-107287879D01*
X155013658Y-107241386D01*
X155066000Y-107230000D01*
X155575621Y-107230000D01*
X155604343Y-107233317D01*
G37*
G04 #@! TD.AperFunction*
G04 #@! TA.AperFunction,Conductor*
G36*
X153352121Y-106290002D02*
G01*
X153398614Y-106343658D01*
X153410000Y-106396000D01*
X153410000Y-106644000D01*
X153389998Y-106712121D01*
X153336342Y-106758614D01*
X153284000Y-106770000D01*
X152969999Y-106770000D01*
X152956904Y-106783095D01*
X152894592Y-106817121D01*
X152867809Y-106820000D01*
X152026000Y-106820000D01*
X151957879Y-106799998D01*
X151911386Y-106746342D01*
X151900000Y-106694000D01*
X151900000Y-106446000D01*
X151920002Y-106377879D01*
X151973658Y-106331386D01*
X152026000Y-106320000D01*
X152310001Y-106320000D01*
X152323096Y-106306905D01*
X152385408Y-106272879D01*
X152412191Y-106270000D01*
X153284000Y-106270000D01*
X153352121Y-106290002D01*
G37*
G04 #@! TD.AperFunction*
G04 #@! TA.AperFunction,Conductor*
G36*
X149562121Y-102390002D02*
G01*
X149608614Y-102443658D01*
X149620000Y-102496000D01*
X149620000Y-102744000D01*
X149599998Y-102812121D01*
X149546342Y-102858614D01*
X149494000Y-102870000D01*
X148600069Y-102870000D01*
X148602833Y-102905126D01*
X148647593Y-103059191D01*
X148729266Y-103197292D01*
X148750648Y-103218674D01*
X148784674Y-103280986D01*
X148779609Y-103351801D01*
X148749013Y-103392672D01*
X148750736Y-103394165D01*
X148644622Y-103516628D01*
X148584834Y-103647543D01*
X148564352Y-103789999D01*
X148584834Y-103932456D01*
X148610349Y-103988327D01*
X148620452Y-104058601D01*
X148609930Y-104093918D01*
X148575931Y-104166827D01*
X148570038Y-104211594D01*
X148569500Y-104215684D01*
X148569500Y-104564316D01*
X148570037Y-104568400D01*
X148570038Y-104568405D01*
X148575931Y-104613173D01*
X148625935Y-104720405D01*
X148716435Y-104810905D01*
X148750461Y-104873217D01*
X148745396Y-104944032D01*
X148716435Y-104989095D01*
X148625935Y-105079594D01*
X148575931Y-105186826D01*
X148570038Y-105231594D01*
X148569500Y-105235684D01*
X148569500Y-105239804D01*
X148569500Y-105239805D01*
X148569500Y-105462676D01*
X148549498Y-105530797D01*
X148495842Y-105577290D01*
X148425568Y-105587394D01*
X148408002Y-105583572D01*
X148291962Y-105549500D01*
X148291961Y-105549500D01*
X148148039Y-105549500D01*
X148148038Y-105549500D01*
X148009946Y-105590047D01*
X147888873Y-105667855D01*
X147871425Y-105687992D01*
X147811699Y-105726376D01*
X147740702Y-105726376D01*
X147680976Y-105687993D01*
X147651483Y-105623412D01*
X147650200Y-105605480D01*
X147650200Y-103171080D01*
X147670202Y-103102959D01*
X147687105Y-103081984D01*
X148344012Y-102425078D01*
X148406324Y-102391053D01*
X148433107Y-102388174D01*
X148901675Y-102388174D01*
X148912656Y-102388653D01*
X148925092Y-102389741D01*
X148952132Y-102392108D01*
X148952132Y-102392107D01*
X148952134Y-102392108D01*
X148990422Y-102381847D01*
X149001154Y-102379469D01*
X149044006Y-102371914D01*
X149065883Y-102370000D01*
X149494000Y-102370000D01*
X149562121Y-102390002D01*
G37*
G04 #@! TD.AperFunction*
G04 #@! TD*
M02*
