G04 #@! TF.GenerationSoftware,KiCad,Pcbnew,7.0.2*
G04 #@! TF.CreationDate,2023-08-11T05:28:22+05:00*
G04 #@! TF.ProjectId,Adafruit QT Py ESP32-C3,41646166-7275-4697-9420-515420507920,rev?*
G04 #@! TF.SameCoordinates,Original*
G04 #@! TF.FileFunction,Copper,L1,Top*
G04 #@! TF.FilePolarity,Positive*
%FSLAX46Y46*%
G04 Gerber Fmt 4.6, Leading zero omitted, Abs format (unit mm)*
G04 Created by KiCad (PCBNEW 7.0.2) date 2023-08-11 05:28:22*
%MOMM*%
%LPD*%
G01*
G04 APERTURE LIST*
G04 Aperture macros list*
%AMRoundRect*
0 Rectangle with rounded corners*
0 $1 Rounding radius*
0 $2 $3 $4 $5 $6 $7 $8 $9 X,Y pos of 4 corners*
0 Add a 4 corners polygon primitive as box body*
4,1,4,$2,$3,$4,$5,$6,$7,$8,$9,$2,$3,0*
0 Add four circle primitives for the rounded corners*
1,1,$1+$1,$2,$3*
1,1,$1+$1,$4,$5*
1,1,$1+$1,$6,$7*
1,1,$1+$1,$8,$9*
0 Add four rect primitives between the rounded corners*
20,1,$1+$1,$2,$3,$4,$5,0*
20,1,$1+$1,$4,$5,$6,$7,0*
20,1,$1+$1,$6,$7,$8,$9,0*
20,1,$1+$1,$8,$9,$2,$3,0*%
G04 Aperture macros list end*
G04 #@! TA.AperFunction,ComponentPad*
%ADD10O,3.556000X1.778000*%
G04 #@! TD*
G04 #@! TA.AperFunction,ComponentPad*
%ADD11C,1.778000*%
G04 #@! TD*
G04 #@! TA.AperFunction,SMDPad,CuDef*
%ADD12RoundRect,0.140000X0.140000X0.170000X-0.140000X0.170000X-0.140000X-0.170000X0.140000X-0.170000X0*%
G04 #@! TD*
G04 #@! TA.AperFunction,SMDPad,CuDef*
%ADD13R,1.800000X1.600000*%
G04 #@! TD*
G04 #@! TA.AperFunction,SMDPad,CuDef*
%ADD14R,1.360000X1.230000*%
G04 #@! TD*
G04 #@! TA.AperFunction,SMDPad,CuDef*
%ADD15R,0.500000X0.500000*%
G04 #@! TD*
G04 #@! TA.AperFunction,SMDPad,CuDef*
%ADD16O,0.900000X0.448000*%
G04 #@! TD*
G04 #@! TA.AperFunction,SMDPad,CuDef*
%ADD17RoundRect,0.135000X0.135000X0.185000X-0.135000X0.185000X-0.135000X-0.185000X0.135000X-0.185000X0*%
G04 #@! TD*
G04 #@! TA.AperFunction,ComponentPad*
%ADD18R,1.700000X1.700000*%
G04 #@! TD*
G04 #@! TA.AperFunction,ComponentPad*
%ADD19O,1.700000X1.700000*%
G04 #@! TD*
G04 #@! TA.AperFunction,ComponentPad*
%ADD20O,1.000000X1.600000*%
G04 #@! TD*
G04 #@! TA.AperFunction,ComponentPad*
%ADD21O,1.000000X2.100000*%
G04 #@! TD*
G04 #@! TA.AperFunction,ViaPad*
%ADD22C,0.600000*%
G04 #@! TD*
G04 #@! TA.AperFunction,ViaPad*
%ADD23C,1.250000*%
G04 #@! TD*
G04 #@! TA.AperFunction,Conductor*
%ADD24C,0.500000*%
G04 #@! TD*
G04 #@! TA.AperFunction,Conductor*
%ADD25C,0.300000*%
G04 #@! TD*
G04 #@! TA.AperFunction,Conductor*
%ADD26C,0.254000*%
G04 #@! TD*
G04 #@! TA.AperFunction,Conductor*
%ADD27C,1.300000*%
G04 #@! TD*
G04 APERTURE END LIST*
D10*
G04 #@! TO.P,J7,1,Pin_1*
G04 #@! TO.N,SDA*
X135950000Y-132000000D03*
D11*
X134680000Y-132000000D03*
G04 #@! TD*
G04 #@! TO.P,J3,1,Pin_1*
G04 #@! TO.N,/A0*
X159428500Y-123000000D03*
D10*
X158158500Y-123000000D03*
G04 #@! TD*
D11*
G04 #@! TO.P,J6,1,Pin_1*
G04 #@! TO.N,/A3*
X159418500Y-114000000D03*
D10*
X158148500Y-114000000D03*
G04 #@! TD*
D11*
G04 #@! TO.P,J5,1,Pin_1*
G04 #@! TO.N,/A2*
X159418500Y-117000000D03*
D10*
X158148500Y-117000000D03*
G04 #@! TD*
D12*
G04 #@! TO.P,C12,1,1*
G04 #@! TO.N,GND*
X153330000Y-133750000D03*
G04 #@! TO.P,C12,2,2*
G04 #@! TO.N,3.3V*
X152370000Y-133750000D03*
G04 #@! TD*
D11*
G04 #@! TO.P,J10,1,Pin_1*
G04 #@! TO.N,+5V*
X134680000Y-105000000D03*
D10*
X135950000Y-105000000D03*
G04 #@! TD*
D11*
G04 #@! TO.P,J9,1,Pin_1*
G04 #@! TO.N,/TX*
X134680000Y-102000000D03*
D10*
X135950000Y-102000000D03*
G04 #@! TD*
D13*
G04 #@! TO.P,X1,FP,P$1*
G04 #@! TO.N,Net-(X1-P$1)*
X158420000Y-98590000D03*
G04 #@! TO.P,X1,NC*
G04 #@! TO.N,N/C*
X158420000Y-95790000D03*
G04 #@! TD*
D11*
G04 #@! TO.P,J16,1,Pin_1*
G04 #@! TO.N,/NEOPIX{slash}RX*
X134680000Y-99000000D03*
D10*
X135950000Y-99000000D03*
G04 #@! TD*
D11*
G04 #@! TO.P,J15,1,Pin_1*
G04 #@! TO.N,/SCK*
X134680000Y-114000000D03*
D10*
X135950000Y-114000000D03*
G04 #@! TD*
D14*
G04 #@! TO.P,Q1,1,1*
G04 #@! TO.N,GND*
X145000000Y-110925000D03*
G04 #@! TO.P,Q1,2,2*
G04 #@! TO.N,/BOOT*
X145000000Y-115295000D03*
G04 #@! TD*
D15*
G04 #@! TO.P,LED1,1,DI*
G04 #@! TO.N,/NEOPIX{slash}RX*
X144350000Y-106630000D03*
G04 #@! TO.P,LED1,2,VDD*
G04 #@! TO.N,3.3V*
X145350000Y-106630000D03*
G04 #@! TO.P,LED1,3,DO*
G04 #@! TO.N,unconnected-(LED1-DO-Pad3)*
X145350000Y-105730000D03*
G04 #@! TO.P,LED1,4,GND*
G04 #@! TO.N,GND*
X144350000Y-105730000D03*
G04 #@! TD*
D14*
G04 #@! TO.P,Q2,1,1*
G04 #@! TO.N,/~{RESET}*
X151930000Y-110925000D03*
G04 #@! TO.P,Q2,2,2*
G04 #@! TO.N,GND*
X151930000Y-115295000D03*
G04 #@! TD*
D12*
G04 #@! TO.P,C5,1,1*
G04 #@! TO.N,GND*
X153330000Y-135330000D03*
G04 #@! TO.P,C5,2,2*
G04 #@! TO.N,3.3V*
X152370000Y-135330000D03*
G04 #@! TD*
D16*
G04 #@! TO.P,U3,1,GND*
G04 #@! TO.N,GND*
X148300000Y-135339000D03*
G04 #@! TO.P,U3,2,CSB*
G04 #@! TO.N,3.3V*
X148300000Y-134539000D03*
G04 #@! TO.P,U3,3,SDI*
G04 #@! TO.N,SDA*
X148300000Y-133739000D03*
G04 #@! TO.P,U3,4,SCK*
G04 #@! TO.N,SCL*
X148300000Y-132939000D03*
G04 #@! TO.P,U3,5,SDO*
G04 #@! TO.N,GND*
X151100000Y-132939000D03*
G04 #@! TO.P,U3,6,VDDIO*
G04 #@! TO.N,3.3V*
X151100000Y-133739000D03*
G04 #@! TO.P,U3,7,GND*
G04 #@! TO.N,GND*
X151100000Y-134539000D03*
G04 #@! TO.P,U3,8,VDD*
G04 #@! TO.N,3.3V*
X151100000Y-135339000D03*
G04 #@! TD*
D17*
G04 #@! TO.P,R22,2,2*
G04 #@! TO.N,3.3V*
X146020000Y-132770000D03*
G04 #@! TO.P,R22,1,1*
G04 #@! TO.N,SCL*
X147040000Y-132770000D03*
G04 #@! TD*
D11*
G04 #@! TO.P,J12,1,Pin_1*
G04 #@! TO.N,3.3V*
X134680000Y-111000000D03*
D10*
X135950000Y-111000000D03*
G04 #@! TD*
D18*
G04 #@! TO.P,BZ1,1,-*
G04 #@! TO.N,/A2*
X152540000Y-124685000D03*
D19*
G04 #@! TO.P,BZ1,2,+*
G04 #@! TO.N,GND*
X152540000Y-127225000D03*
G04 #@! TD*
D11*
G04 #@! TO.P,J8,1,Pin_1*
G04 #@! TO.N,SCL*
X134680000Y-129000000D03*
D10*
X135950000Y-129000000D03*
G04 #@! TD*
G04 #@! TO.P,J13,1,Pin_1*
G04 #@! TO.N,/MOSI*
X135950000Y-120000000D03*
D11*
X134680000Y-120000000D03*
G04 #@! TD*
G04 #@! TO.P,J4,1,Pin_1*
G04 #@! TO.N,/A1*
X159209000Y-120000000D03*
D10*
X157939000Y-120000000D03*
G04 #@! TD*
D11*
G04 #@! TO.P,J11,1,Pin_1*
G04 #@! TO.N,GND*
X134680000Y-108000000D03*
D10*
X135950000Y-108000000D03*
G04 #@! TD*
D19*
G04 #@! TO.P,J17,3,Pin_3*
G04 #@! TO.N,/A1*
X157700000Y-132135000D03*
G04 #@! TO.P,J17,2,Pin_2*
G04 #@! TO.N,GND*
X157700000Y-129595000D03*
D18*
G04 #@! TO.P,J17,1,Pin_1*
G04 #@! TO.N,3.3V*
X157700000Y-127055000D03*
G04 #@! TD*
D17*
G04 #@! TO.P,R23,2,2*
G04 #@! TO.N,3.3V*
X146020000Y-133770000D03*
G04 #@! TO.P,R23,1,1*
G04 #@! TO.N,SDA*
X147040000Y-133770000D03*
G04 #@! TD*
D11*
G04 #@! TO.P,J14,1,Pin_1*
G04 #@! TO.N,/MISO*
X134680000Y-117000000D03*
D10*
X135950000Y-117000000D03*
G04 #@! TD*
D20*
G04 #@! TO.P,USB1,S1,SHIELD*
G04 #@! TO.N,GND*
X144170000Y-95765000D03*
D21*
X144170000Y-99945000D03*
D20*
X152810000Y-95765000D03*
D21*
X152810000Y-99945000D03*
G04 #@! TD*
D22*
G04 #@! TO.N,GND*
X147990000Y-120910000D03*
X147840000Y-127550000D03*
X140920000Y-102370000D03*
X138480000Y-100540000D03*
X138270000Y-106630000D03*
X140330000Y-106180000D03*
X156660000Y-124910000D03*
X146120000Y-128810000D03*
X138760000Y-133820000D03*
X152760000Y-122310000D03*
G04 #@! TO.N,3.3V*
X153115000Y-131015000D03*
G04 #@! TO.N,GND*
X152670000Y-106550000D03*
X153970000Y-135320000D03*
X152480000Y-116290000D03*
X141760000Y-123300000D03*
X139020000Y-97390000D03*
X143720000Y-116330000D03*
X138130000Y-124880000D03*
X147600000Y-128870000D03*
X141580000Y-103180000D03*
X143090000Y-104860000D03*
X151720000Y-104320000D03*
X158540000Y-111970000D03*
X140490000Y-98490000D03*
X148130000Y-123180000D03*
X153020000Y-101780000D03*
X151540000Y-132490000D03*
X144350000Y-105100000D03*
X138250000Y-125970000D03*
X153360000Y-133070000D03*
X139090000Y-124410000D03*
X148300000Y-126140000D03*
X153330000Y-134510000D03*
X147980000Y-105160000D03*
X148460000Y-103040000D03*
X138860000Y-120760000D03*
X138840000Y-104310000D03*
X139580000Y-123300000D03*
X155880000Y-108520000D03*
X145000000Y-104110000D03*
X146510000Y-107660000D03*
X154790000Y-116410000D03*
X152240000Y-102010000D03*
X142965000Y-113955000D03*
X139010000Y-125600000D03*
X146850000Y-127550000D03*
X143200000Y-97920000D03*
X146600000Y-125790000D03*
X152060000Y-97860000D03*
X149490000Y-110280000D03*
X148890000Y-127640000D03*
X140940000Y-96740000D03*
X147980000Y-104050000D03*
X139180000Y-109180000D03*
X143083252Y-115520000D03*
X145630000Y-130170000D03*
X140060000Y-105190000D03*
X138330000Y-127200000D03*
X154240000Y-133860000D03*
X144800000Y-134760000D03*
X158100000Y-108820000D03*
X138730000Y-107800000D03*
X144230000Y-101690000D03*
G04 #@! TO.N,/~{RESET}*
X152920000Y-111880000D03*
X154790000Y-114250000D03*
G04 #@! TO.N,VBUS*
X151130000Y-102020000D03*
X145760000Y-102040000D03*
G04 #@! TO.N,3.3V*
X145260000Y-107350000D03*
X154830000Y-112120000D03*
X155640000Y-110160000D03*
X149680000Y-120170000D03*
X149055000Y-131615000D03*
X148120000Y-117140000D03*
X144170000Y-109020000D03*
X151880000Y-107480000D03*
X146980000Y-112760000D03*
X141430000Y-117547000D03*
D23*
G04 #@! TO.N,Net-(X1-P$1)*
X156575000Y-105125000D03*
D22*
G04 #@! TO.N,+BATT*
X152000000Y-118440000D03*
X139430000Y-122320000D03*
X140960000Y-111270000D03*
G04 #@! TO.N,SDA*
X147590000Y-133740000D03*
G04 #@! TO.N,SCL*
X147830000Y-132380000D03*
G04 #@! TO.N,+5V*
X143100000Y-111780000D03*
X140350000Y-107430000D03*
X146910000Y-120900000D03*
X145010000Y-117550000D03*
X142940000Y-123290000D03*
X140500000Y-128250000D03*
G04 #@! TO.N,/TX*
X149070000Y-103790000D03*
G04 #@! TO.N,/NEOPIX{slash}RX*
X148220000Y-106050000D03*
G04 #@! TO.N,/BOOT*
X148070000Y-114240000D03*
G04 #@! TD*
D24*
G04 #@! TO.N,+5V*
X146910000Y-119470000D02*
X145010000Y-117570000D01*
X146910000Y-120900000D02*
X146910000Y-119470000D01*
X145010000Y-117570000D02*
X145010000Y-117550000D01*
D25*
G04 #@! TO.N,GND*
X145000000Y-111920000D02*
X142965000Y-113955000D01*
X145000000Y-110925000D02*
X145000000Y-111920000D01*
G04 #@! TO.N,3.3V*
X151960000Y-131340000D02*
X152370000Y-131750000D01*
X149330000Y-131340000D02*
X151960000Y-131340000D01*
X149055000Y-131615000D02*
X149330000Y-131340000D01*
D26*
G04 #@! TO.N,SCL*
X147440000Y-132770000D02*
X147830000Y-132380000D01*
X147040000Y-132770000D02*
X147440000Y-132770000D01*
G04 #@! TO.N,/A1*
X155540000Y-129975000D02*
X157700000Y-132135000D01*
X157939000Y-120000000D02*
X155540000Y-122399000D01*
X155540000Y-122399000D02*
X155540000Y-129975000D01*
D25*
G04 #@! TO.N,GND*
X153440000Y-133860000D02*
X153330000Y-133750000D01*
X154240000Y-133860000D02*
X153440000Y-133860000D01*
X154690000Y-133410000D02*
X154240000Y-133860000D01*
X154690000Y-129375000D02*
X154690000Y-133410000D01*
X152540000Y-127225000D02*
X154690000Y-129375000D01*
G04 #@! TO.N,3.3V*
X152380000Y-131750000D02*
X152370000Y-131750000D01*
X153115000Y-131015000D02*
X152380000Y-131750000D01*
G04 #@! TO.N,/A2*
X156090000Y-117000000D02*
X158148500Y-117000000D01*
X153890000Y-123335000D02*
X153890000Y-119200000D01*
X152135000Y-125090000D02*
X153890000Y-123335000D01*
X153890000Y-119200000D02*
X156090000Y-117000000D01*
D24*
G04 #@! TO.N,GND*
X151210000Y-103040000D02*
X151210000Y-103810000D01*
X151210000Y-103810000D02*
X151720000Y-104320000D01*
X151210000Y-103040000D02*
X152240000Y-102010000D01*
X148460000Y-103040000D02*
X151210000Y-103040000D01*
X145000000Y-104110000D02*
X144230000Y-104110000D01*
X144230000Y-104110000D02*
X144230000Y-104980000D01*
X144230000Y-101690000D02*
X144230000Y-104110000D01*
X146980000Y-105160000D02*
X146510000Y-105630000D01*
X147980000Y-105160000D02*
X146980000Y-105160000D01*
X146510000Y-105630000D02*
X146510000Y-107660000D01*
X138130000Y-121490000D02*
X138860000Y-120760000D01*
X144230000Y-100005000D02*
X144170000Y-99945000D01*
D25*
X153330000Y-134510000D02*
X153330000Y-135330000D01*
D24*
X138795000Y-124085000D02*
X138795000Y-124115000D01*
D25*
X153330000Y-135330000D02*
X153960000Y-135330000D01*
D24*
X138130000Y-124880000D02*
X138130000Y-121490000D01*
D25*
X153330000Y-133750000D02*
X153360000Y-133720000D01*
D24*
X143200000Y-97920000D02*
X141060000Y-97920000D01*
D25*
X151100000Y-134539000D02*
X153301000Y-134539000D01*
X151100000Y-132930000D02*
X151540000Y-132490000D01*
X152480000Y-115845000D02*
X151930000Y-115295000D01*
D24*
X138130000Y-124880000D02*
X138130000Y-124750000D01*
X149490000Y-111210000D02*
X151930000Y-113650000D01*
X144230000Y-101690000D02*
X144230000Y-100005000D01*
X138795000Y-124085000D02*
X139580000Y-123300000D01*
D25*
X153330000Y-133750000D02*
X153330000Y-134510000D01*
D24*
X145379000Y-135339000D02*
X144800000Y-134760000D01*
D25*
X152600000Y-116410000D02*
X152480000Y-116290000D01*
D24*
X138860000Y-110910000D02*
X135950000Y-108000000D01*
X149490000Y-110280000D02*
X149490000Y-111210000D01*
X138860000Y-120760000D02*
X138860000Y-110910000D01*
D25*
X153301000Y-134539000D02*
X153330000Y-134510000D01*
X154790000Y-116410000D02*
X152600000Y-116410000D01*
D24*
X141060000Y-97920000D02*
X140490000Y-98490000D01*
X151930000Y-113650000D02*
X151930000Y-115295000D01*
D25*
X153960000Y-135330000D02*
X153970000Y-135320000D01*
X153360000Y-133720000D02*
X153360000Y-133070000D01*
D24*
X138795000Y-124115000D02*
X139090000Y-124410000D01*
D25*
X152480000Y-116290000D02*
X152480000Y-115845000D01*
D24*
X144230000Y-104980000D02*
X144350000Y-105100000D01*
X152670000Y-106550000D02*
X152670000Y-105270000D01*
X152670000Y-105270000D02*
X151720000Y-104320000D01*
D25*
X151100000Y-132939000D02*
X151100000Y-132930000D01*
D24*
X148300000Y-135339000D02*
X145379000Y-135339000D01*
X138130000Y-124750000D02*
X138795000Y-124085000D01*
D25*
X144350000Y-105730000D02*
X144350000Y-105100000D01*
G04 #@! TO.N,/~{RESET}*
X152920000Y-111880000D02*
X152885000Y-111880000D01*
X152885000Y-111880000D02*
X151930000Y-110925000D01*
X152920000Y-112380000D02*
X152920000Y-111880000D01*
X154790000Y-114250000D02*
X152920000Y-112380000D01*
D24*
G04 #@! TO.N,VBUS*
X151130000Y-102020000D02*
X145780000Y-102020000D01*
X145780000Y-102020000D02*
X145760000Y-102040000D01*
G04 #@! TO.N,3.3V*
X149680000Y-120990000D02*
X148500000Y-122170000D01*
X149360000Y-113060000D02*
X148020000Y-111720000D01*
X151880000Y-107480000D02*
X150838054Y-107480000D01*
X148120000Y-118610000D02*
X148120000Y-117140000D01*
X148300000Y-134539000D02*
X149351000Y-134539000D01*
X150151000Y-135339000D02*
X151100000Y-135339000D01*
X149360000Y-115900000D02*
X149360000Y-113060000D01*
X144170000Y-109020000D02*
X144631000Y-109481000D01*
X151100000Y-133739000D02*
X152359000Y-133739000D01*
X145260000Y-107350000D02*
X145260000Y-106720000D01*
X154445000Y-110045000D02*
X155525000Y-110045000D01*
X149680000Y-120170000D02*
X149680000Y-120990000D01*
X148300000Y-134539000D02*
X148299000Y-134540000D01*
X148020000Y-111720000D02*
X146980000Y-112760000D01*
X148299000Y-134540000D02*
X146550000Y-134540000D01*
X152361000Y-135339000D02*
X152370000Y-135330000D01*
X151100000Y-135339000D02*
X152361000Y-135339000D01*
X148020000Y-110298054D02*
X148020000Y-111720000D01*
X152359000Y-133739000D02*
X152370000Y-133750000D01*
X146020000Y-134010000D02*
X146020000Y-133770000D01*
X146550000Y-134540000D02*
X146020000Y-134010000D01*
X149351000Y-134539000D02*
X150151000Y-135339000D01*
X148500000Y-122170000D02*
X146053000Y-122170000D01*
X149680000Y-120170000D02*
X148120000Y-118610000D01*
D25*
X152370000Y-133750000D02*
X152370000Y-131750000D01*
D24*
X154445000Y-110045000D02*
X151880000Y-107480000D01*
X155525000Y-110045000D02*
X155640000Y-110160000D01*
X148120000Y-117140000D02*
X149360000Y-115900000D01*
X154830000Y-112120000D02*
X154445000Y-111735000D01*
X144631000Y-109481000D02*
X147202946Y-109481000D01*
X146020000Y-133770000D02*
X146020000Y-132770000D01*
X145260000Y-106720000D02*
X145350000Y-106630000D01*
X154445000Y-111735000D02*
X154445000Y-110045000D01*
X149351000Y-134539000D02*
X150151000Y-133739000D01*
X147202946Y-109481000D02*
X148020000Y-110298054D01*
X150838054Y-107480000D02*
X148020000Y-110298054D01*
X150151000Y-133739000D02*
X151100000Y-133739000D01*
X146053000Y-122170000D02*
X141430000Y-117547000D01*
D27*
G04 #@! TO.N,Net-(X1-P$1)*
X158420000Y-103280000D02*
X158420000Y-98590000D01*
X156575000Y-105125000D02*
X158420000Y-103280000D01*
D24*
G04 #@! TO.N,+BATT*
X152000000Y-121090000D02*
X148870000Y-124220000D01*
X140190000Y-121560000D02*
X140190000Y-120250000D01*
X139780000Y-119840000D02*
X140190000Y-120250000D01*
X139430000Y-122320000D02*
X140190000Y-121560000D01*
X139780000Y-113050000D02*
X139780000Y-119840000D01*
X152000000Y-118440000D02*
X152000000Y-121090000D01*
X141980000Y-120250000D02*
X140190000Y-120250000D01*
X145950000Y-124220000D02*
X141980000Y-120250000D01*
X140960000Y-111270000D02*
X140960000Y-111870000D01*
X140960000Y-111870000D02*
X139780000Y-113050000D01*
X148870000Y-124220000D02*
X145950000Y-124220000D01*
D25*
G04 #@! TO.N,SDA*
X147071000Y-133739000D02*
X147040000Y-133770000D01*
X148300000Y-133739000D02*
X147071000Y-133739000D01*
D26*
G04 #@! TO.N,SCL*
X147830000Y-132469000D02*
X148300000Y-132939000D01*
X148300000Y-132939000D02*
X147209000Y-132939000D01*
X147209000Y-132939000D02*
X147040000Y-132770000D01*
X147830000Y-132380000D02*
X147830000Y-132469000D01*
D24*
G04 #@! TO.N,+5V*
X141340000Y-128250000D02*
X140500000Y-128250000D01*
X140350000Y-107430000D02*
X137920000Y-105000000D01*
X137920000Y-105000000D02*
X135950000Y-105000000D01*
X142940000Y-126650000D02*
X141340000Y-128250000D01*
X141700000Y-113850000D02*
X143100000Y-112450000D01*
X143460000Y-117550000D02*
X141700000Y-115790000D01*
X143100000Y-111780000D02*
X143100000Y-110080000D01*
X141700000Y-115790000D02*
X141700000Y-113850000D01*
X145010000Y-117550000D02*
X143460000Y-117550000D01*
X143100000Y-112450000D02*
X143100000Y-111780000D01*
X140450000Y-107430000D02*
X140350000Y-107430000D01*
X142940000Y-123290000D02*
X142940000Y-126650000D01*
X143100000Y-110080000D02*
X140450000Y-107430000D01*
D26*
G04 #@! TO.N,/TX*
X136238474Y-102020000D02*
X135280526Y-102020000D01*
X149394000Y-104114000D02*
X149394000Y-108108052D01*
X149070000Y-103790000D02*
X149394000Y-104114000D01*
X148598052Y-108904000D02*
X145211948Y-108904000D01*
X149394000Y-108108052D02*
X148598052Y-108904000D01*
X138307948Y-102000000D02*
X135950000Y-102000000D01*
X136693224Y-102020000D02*
X134825776Y-102020000D01*
X145211948Y-108904000D02*
X138307948Y-102000000D01*
G04 #@! TO.N,/NEOPIX{slash}RX*
X139290000Y-100180000D02*
X138460000Y-99350000D01*
X148220000Y-106050000D02*
X148740000Y-106570000D01*
X148410000Y-108450000D02*
X145400000Y-108450000D01*
X145400000Y-108450000D02*
X144350000Y-107400000D01*
X138460000Y-99350000D02*
X137370000Y-99350000D01*
X148740000Y-106570000D02*
X148740000Y-108120000D01*
X139290000Y-102340000D02*
X139290000Y-100180000D01*
X144350000Y-107400000D02*
X144350000Y-106630000D01*
X144350000Y-106630000D02*
X143580000Y-106630000D01*
X148740000Y-108120000D02*
X148410000Y-108450000D01*
X143580000Y-106630000D02*
X139290000Y-102340000D01*
G04 #@! TO.N,/BOOT*
X148070000Y-114240000D02*
X147015000Y-115295000D01*
X147015000Y-115295000D02*
X145000000Y-115295000D01*
G04 #@! TD*
G04 #@! TA.AperFunction,Conductor*
G04 #@! TO.N,GND*
G36*
X143314117Y-94715502D02*
G01*
X143360610Y-94769158D01*
X143370714Y-94839432D01*
X143349412Y-94893480D01*
X143291144Y-94977194D01*
X143210939Y-95164094D01*
X143170000Y-95363310D01*
X143170000Y-95515000D01*
X143870000Y-95515000D01*
X143870000Y-96015000D01*
X143170000Y-96015000D01*
X143170000Y-96112511D01*
X143170324Y-96118908D01*
X143185418Y-96267333D01*
X143246303Y-96461389D01*
X143345003Y-96639213D01*
X143477481Y-96793532D01*
X143638306Y-96918020D01*
X143820904Y-97007588D01*
X143920000Y-97033244D01*
X143920000Y-96231110D01*
X143944457Y-96270610D01*
X144033962Y-96338201D01*
X144141840Y-96368895D01*
X144253521Y-96358546D01*
X144353922Y-96308552D01*
X144420000Y-96236069D01*
X144420000Y-97038365D01*
X144420001Y-97038366D01*
X144421943Y-97038070D01*
X144612667Y-96967434D01*
X144785260Y-96859856D01*
X144932672Y-96719730D01*
X145048855Y-96552806D01*
X145129060Y-96365905D01*
X145170000Y-96166689D01*
X145170000Y-96015000D01*
X144470000Y-96015000D01*
X144470000Y-95515000D01*
X145170000Y-95515000D01*
X145170000Y-95417488D01*
X145169675Y-95411091D01*
X145154581Y-95262666D01*
X145093696Y-95068610D01*
X144990479Y-94882648D01*
X144974909Y-94813380D01*
X144999259Y-94746690D01*
X145055800Y-94703751D01*
X145100647Y-94695500D01*
X151885996Y-94695500D01*
X151954117Y-94715502D01*
X152000610Y-94769158D01*
X152010714Y-94839432D01*
X151989412Y-94893480D01*
X151931144Y-94977194D01*
X151850939Y-95164094D01*
X151810000Y-95363310D01*
X151810000Y-95515000D01*
X152510000Y-95515000D01*
X152510000Y-96015000D01*
X151810000Y-96015000D01*
X151810000Y-96112511D01*
X151810324Y-96118908D01*
X151825418Y-96267333D01*
X151886303Y-96461389D01*
X151985003Y-96639213D01*
X152117481Y-96793532D01*
X152278306Y-96918020D01*
X152460904Y-97007588D01*
X152560000Y-97033244D01*
X152560000Y-96231110D01*
X152584457Y-96270610D01*
X152673962Y-96338201D01*
X152781840Y-96368895D01*
X152893521Y-96358546D01*
X152993922Y-96308552D01*
X153060000Y-96236069D01*
X153060000Y-97038365D01*
X153060001Y-97038366D01*
X153061943Y-97038070D01*
X153252667Y-96967434D01*
X153425260Y-96859856D01*
X153572672Y-96719730D01*
X153688855Y-96552806D01*
X153769060Y-96365905D01*
X153810000Y-96166689D01*
X153810000Y-96015000D01*
X153110000Y-96015000D01*
X153110000Y-95515000D01*
X153810000Y-95515000D01*
X153810000Y-95417488D01*
X153809675Y-95411091D01*
X153794581Y-95262666D01*
X153733696Y-95068610D01*
X153630479Y-94882648D01*
X153614909Y-94813380D01*
X153639259Y-94746690D01*
X153695800Y-94703751D01*
X153740647Y-94695500D01*
X154162484Y-94695500D01*
X154230605Y-94715502D01*
X154277098Y-94769158D01*
X154288471Y-94823194D01*
X154192178Y-101955327D01*
X154140488Y-105783809D01*
X154120376Y-105850416D01*
X153540000Y-106749999D01*
X153540000Y-106750001D01*
X154868800Y-107061108D01*
X156060000Y-107340000D01*
X159157422Y-107932154D01*
X159322160Y-107963648D01*
X159385313Y-107996086D01*
X159420903Y-108057517D01*
X159424500Y-108087407D01*
X159424500Y-112785877D01*
X159404498Y-112853998D01*
X159350842Y-112900491D01*
X159321649Y-112909732D01*
X159251700Y-112922806D01*
X159204707Y-112922674D01*
X159141537Y-112910500D01*
X159141535Y-112910500D01*
X157207598Y-112910500D01*
X157204623Y-112910784D01*
X157204624Y-112910784D01*
X157052371Y-112925322D01*
X156852729Y-112983943D01*
X156667791Y-113079284D01*
X156504241Y-113207903D01*
X156504239Y-113207904D01*
X156504239Y-113207905D01*
X156493800Y-113219952D01*
X156367982Y-113365152D01*
X156263947Y-113545347D01*
X156195894Y-113741974D01*
X156166283Y-113947922D01*
X156176183Y-114155757D01*
X156225236Y-114357958D01*
X156311674Y-114547232D01*
X156432361Y-114716712D01*
X156432364Y-114716715D01*
X156432365Y-114716716D01*
X156582952Y-114860301D01*
X156676959Y-114920715D01*
X156757992Y-114972792D01*
X156951155Y-115050123D01*
X157155465Y-115089500D01*
X159086402Y-115089500D01*
X159089402Y-115089500D01*
X159222729Y-115076768D01*
X159257854Y-115078341D01*
X159317543Y-115089500D01*
X159317549Y-115089500D01*
X159321652Y-115090267D01*
X159384938Y-115122446D01*
X159420780Y-115183731D01*
X159424500Y-115214122D01*
X159424500Y-115785877D01*
X159404498Y-115853998D01*
X159350842Y-115900491D01*
X159321649Y-115909732D01*
X159251700Y-115922806D01*
X159204707Y-115922674D01*
X159141537Y-115910500D01*
X159141535Y-115910500D01*
X157207598Y-115910500D01*
X157204623Y-115910784D01*
X157204624Y-115910784D01*
X157052371Y-115925322D01*
X156907359Y-115967902D01*
X156879399Y-115976112D01*
X156852729Y-115983943D01*
X156667791Y-116079284D01*
X156504241Y-116207903D01*
X156504239Y-116207904D01*
X156504239Y-116207905D01*
X156502529Y-116209879D01*
X156367982Y-116365152D01*
X156263948Y-116545346D01*
X156257330Y-116564469D01*
X156216147Y-116622300D01*
X156150236Y-116648687D01*
X156112403Y-116646575D01*
X156104685Y-116644956D01*
X156076006Y-116648532D01*
X156061279Y-116649446D01*
X156042027Y-116652658D01*
X156036886Y-116653407D01*
X155981190Y-116660351D01*
X155931839Y-116687058D01*
X155927211Y-116689440D01*
X155876805Y-116714082D01*
X155838791Y-116755374D01*
X155835188Y-116759128D01*
X153677101Y-118917215D01*
X153656926Y-118933600D01*
X153649331Y-118938562D01*
X153631577Y-118961372D01*
X153621807Y-118972437D01*
X153610461Y-118988327D01*
X153607353Y-118992496D01*
X153572891Y-119036773D01*
X153556884Y-119090536D01*
X153555297Y-119095489D01*
X153537073Y-119148576D01*
X153539392Y-119204619D01*
X153539500Y-119209826D01*
X153539500Y-123137627D01*
X153519498Y-123205748D01*
X153502595Y-123226721D01*
X153131721Y-123597596D01*
X153069411Y-123631620D01*
X153042628Y-123634500D01*
X151670252Y-123634500D01*
X151641010Y-123640316D01*
X151611768Y-123646133D01*
X151545447Y-123690447D01*
X151501133Y-123756768D01*
X151489500Y-123815253D01*
X151489500Y-125554746D01*
X151501133Y-125613231D01*
X151545447Y-125679552D01*
X151589762Y-125709162D01*
X151611769Y-125723867D01*
X151670252Y-125735500D01*
X151670253Y-125735500D01*
X151971521Y-125735500D01*
X152039642Y-125755502D01*
X152086135Y-125809158D01*
X152096239Y-125879432D01*
X152066745Y-125944012D01*
X152024771Y-125975695D01*
X151862421Y-126051400D01*
X151668918Y-126186892D01*
X151501892Y-126353918D01*
X151366400Y-126547420D01*
X151266570Y-126761507D01*
X151209365Y-126975000D01*
X152106314Y-126975000D01*
X152080507Y-127015156D01*
X152040000Y-127153111D01*
X152040000Y-127296889D01*
X152080507Y-127434844D01*
X152106314Y-127475000D01*
X151209364Y-127475000D01*
X151266568Y-127688490D01*
X151366400Y-127902579D01*
X151501892Y-128096081D01*
X151668918Y-128263107D01*
X151862420Y-128398599D01*
X152076508Y-128498431D01*
X152290000Y-128555635D01*
X152290000Y-127660501D01*
X152397685Y-127709680D01*
X152504237Y-127725000D01*
X152575763Y-127725000D01*
X152682315Y-127709680D01*
X152790000Y-127660501D01*
X152790000Y-128555634D01*
X153003491Y-128498431D01*
X153217579Y-128398599D01*
X153411081Y-128263107D01*
X153578107Y-128096081D01*
X153713599Y-127902579D01*
X153813431Y-127688490D01*
X153870636Y-127475000D01*
X152973686Y-127475000D01*
X152999493Y-127434844D01*
X153040000Y-127296889D01*
X153040000Y-127153111D01*
X152999493Y-127015156D01*
X152973686Y-126975000D01*
X153870635Y-126975000D01*
X153813429Y-126761507D01*
X153713599Y-126547420D01*
X153578107Y-126353918D01*
X153411081Y-126186892D01*
X153217579Y-126051400D01*
X153055229Y-125975695D01*
X153001944Y-125928778D01*
X152982483Y-125860500D01*
X153003025Y-125792540D01*
X153057048Y-125746475D01*
X153108479Y-125735500D01*
X153409747Y-125735500D01*
X153409748Y-125735500D01*
X153468231Y-125723867D01*
X153534552Y-125679552D01*
X153578867Y-125613231D01*
X153590500Y-125554748D01*
X153590500Y-124182371D01*
X153610502Y-124114250D01*
X153627400Y-124093280D01*
X154102898Y-123617781D01*
X154123073Y-123601398D01*
X154130669Y-123596437D01*
X154148418Y-123573631D01*
X154158178Y-123562579D01*
X154158367Y-123562313D01*
X154158375Y-123562306D01*
X154169557Y-123546643D01*
X154172619Y-123542536D01*
X154202517Y-123504126D01*
X154202517Y-123504124D01*
X154207108Y-123498227D01*
X154211514Y-123483426D01*
X154223122Y-123444434D01*
X154224705Y-123439495D01*
X154227122Y-123432454D01*
X154240500Y-123393488D01*
X154240500Y-123393484D01*
X154242925Y-123386421D01*
X154242616Y-123378955D01*
X154242617Y-123378954D01*
X154240608Y-123330369D01*
X154240500Y-123325163D01*
X154240500Y-119397370D01*
X154260502Y-119329249D01*
X154277400Y-119308280D01*
X156097695Y-117487984D01*
X156160005Y-117453961D01*
X156230820Y-117459025D01*
X156287656Y-117501572D01*
X156301401Y-117524737D01*
X156311671Y-117547226D01*
X156332165Y-117576005D01*
X156432365Y-117716716D01*
X156582952Y-117860301D01*
X156676959Y-117920715D01*
X156757992Y-117972792D01*
X156951155Y-118050123D01*
X157155465Y-118089500D01*
X159086402Y-118089500D01*
X159089402Y-118089500D01*
X159222729Y-118076768D01*
X159257854Y-118078341D01*
X159317543Y-118089500D01*
X159317549Y-118089500D01*
X159321652Y-118090267D01*
X159384938Y-118122446D01*
X159420780Y-118183731D01*
X159424500Y-118214122D01*
X159424500Y-118784500D01*
X159404498Y-118852621D01*
X159350842Y-118899114D01*
X159298500Y-118910500D01*
X159108041Y-118910500D01*
X159042200Y-118922806D01*
X158995207Y-118922674D01*
X158932037Y-118910500D01*
X158932035Y-118910500D01*
X156998098Y-118910500D01*
X156995123Y-118910784D01*
X156995124Y-118910784D01*
X156842871Y-118925322D01*
X156643229Y-118983943D01*
X156458291Y-119079284D01*
X156294741Y-119207903D01*
X156294739Y-119207904D01*
X156294739Y-119207905D01*
X156290014Y-119213358D01*
X156158482Y-119365152D01*
X156054447Y-119545347D01*
X155986394Y-119741974D01*
X155956783Y-119947922D01*
X155966683Y-120155757D01*
X156015736Y-120357958D01*
X156102174Y-120547232D01*
X156222861Y-120716712D01*
X156222864Y-120716715D01*
X156222865Y-120716716D01*
X156373452Y-120860301D01*
X156389295Y-120870482D01*
X156435786Y-120924133D01*
X156445892Y-120994407D01*
X156416401Y-121058989D01*
X156410269Y-121065574D01*
X155322430Y-122153414D01*
X155314328Y-122160839D01*
X155285251Y-122185238D01*
X155266271Y-122218111D01*
X155260368Y-122227377D01*
X155237928Y-122259424D01*
X155227706Y-122284105D01*
X155220911Y-122322637D01*
X155218533Y-122333363D01*
X155208712Y-122370015D01*
X155212020Y-122407809D01*
X155212500Y-122418793D01*
X155212500Y-129955205D01*
X155212020Y-129966188D01*
X155208712Y-130003984D01*
X155218533Y-130040637D01*
X155220911Y-130051364D01*
X155227706Y-130089899D01*
X155237928Y-130114576D01*
X155260369Y-130146624D01*
X155266275Y-130155894D01*
X155285250Y-130188760D01*
X155314328Y-130213159D01*
X155322432Y-130220586D01*
X156696531Y-131594686D01*
X156730557Y-131656998D01*
X156728011Y-131720357D01*
X156724769Y-131731043D01*
X156724768Y-131731046D01*
X156664700Y-131929066D01*
X156664699Y-131929070D01*
X156644416Y-132134999D01*
X156664699Y-132340929D01*
X156664699Y-132340931D01*
X156664700Y-132340934D01*
X156699196Y-132454652D01*
X156724769Y-132538956D01*
X156822314Y-132721449D01*
X156953589Y-132881410D01*
X157031677Y-132945494D01*
X157113550Y-133012685D01*
X157296046Y-133110232D01*
X157494066Y-133170300D01*
X157700000Y-133190583D01*
X157905934Y-133170300D01*
X158103954Y-133110232D01*
X158286450Y-133012685D01*
X158446410Y-132881410D01*
X158577685Y-132721450D01*
X158675232Y-132538954D01*
X158735300Y-132340934D01*
X158755583Y-132135000D01*
X158735300Y-131929066D01*
X158675232Y-131731046D01*
X158577685Y-131548550D01*
X158577684Y-131548549D01*
X158446410Y-131388589D01*
X158286449Y-131257314D01*
X158103952Y-131159767D01*
X158044149Y-131141626D01*
X157984769Y-131102711D01*
X157955853Y-131037869D01*
X157966584Y-130967688D01*
X158013555Y-130914450D01*
X158048116Y-130899345D01*
X158163489Y-130868431D01*
X158377579Y-130768599D01*
X158571081Y-130633107D01*
X158738107Y-130466081D01*
X158873599Y-130272579D01*
X158973431Y-130058490D01*
X159030636Y-129845000D01*
X158133686Y-129845000D01*
X158159493Y-129804844D01*
X158200000Y-129666889D01*
X158200000Y-129523111D01*
X158159493Y-129385156D01*
X158133686Y-129345000D01*
X159030635Y-129345000D01*
X158973429Y-129131507D01*
X158873599Y-128917420D01*
X158738107Y-128723918D01*
X158571081Y-128556892D01*
X158377579Y-128421400D01*
X158215229Y-128345695D01*
X158161944Y-128298778D01*
X158142483Y-128230500D01*
X158163025Y-128162540D01*
X158217048Y-128116475D01*
X158268479Y-128105500D01*
X158569747Y-128105500D01*
X158569748Y-128105500D01*
X158628231Y-128093867D01*
X158694552Y-128049552D01*
X158738867Y-127983231D01*
X158750500Y-127924748D01*
X158750500Y-126185252D01*
X158738867Y-126126769D01*
X158724162Y-126104761D01*
X158694552Y-126060447D01*
X158628231Y-126016133D01*
X158569748Y-126004500D01*
X156830252Y-126004500D01*
X156801010Y-126010316D01*
X156771768Y-126016133D01*
X156705447Y-126060447D01*
X156661133Y-126126768D01*
X156661132Y-126126769D01*
X156661133Y-126126769D01*
X156649500Y-126185252D01*
X156649500Y-127924748D01*
X156659819Y-127976627D01*
X156661133Y-127983231D01*
X156705447Y-128049552D01*
X156749761Y-128079162D01*
X156771769Y-128093867D01*
X156830252Y-128105500D01*
X156830253Y-128105500D01*
X157131521Y-128105500D01*
X157199642Y-128125502D01*
X157246135Y-128179158D01*
X157256239Y-128249432D01*
X157226745Y-128314012D01*
X157184771Y-128345695D01*
X157022421Y-128421400D01*
X156828918Y-128556892D01*
X156661892Y-128723918D01*
X156526400Y-128917420D01*
X156426570Y-129131507D01*
X156369365Y-129345000D01*
X157266314Y-129345000D01*
X157240507Y-129385156D01*
X157200000Y-129523111D01*
X157200000Y-129666889D01*
X157240507Y-129804844D01*
X157266314Y-129845000D01*
X156369364Y-129845000D01*
X156429282Y-130068619D01*
X156427592Y-130139596D01*
X156387798Y-130198391D01*
X156322533Y-130226339D01*
X156252520Y-130214565D01*
X156218480Y-130190325D01*
X155904405Y-129876250D01*
X155870379Y-129813938D01*
X155867500Y-129787155D01*
X155867500Y-122586844D01*
X155887502Y-122518723D01*
X155904399Y-122497754D01*
X156167026Y-122235127D01*
X156229335Y-122201105D01*
X156300150Y-122206169D01*
X156356986Y-122248716D01*
X156381797Y-122315236D01*
X156366706Y-122384610D01*
X156365238Y-122387224D01*
X156273947Y-122545347D01*
X156205894Y-122741974D01*
X156176283Y-122947922D01*
X156186183Y-123155757D01*
X156235236Y-123357958D01*
X156321674Y-123547232D01*
X156442361Y-123716712D01*
X156442364Y-123716715D01*
X156442365Y-123716716D01*
X156592952Y-123860301D01*
X156705442Y-123932594D01*
X156767992Y-123972792D01*
X156961155Y-124050123D01*
X157165465Y-124089500D01*
X159096402Y-124089500D01*
X159099402Y-124089500D01*
X159232729Y-124076768D01*
X159267860Y-124078343D01*
X159321653Y-124088399D01*
X159384938Y-124120578D01*
X159420780Y-124181863D01*
X159424500Y-124212253D01*
X159424500Y-135688500D01*
X159404498Y-135756621D01*
X159350842Y-135803114D01*
X159298500Y-135814500D01*
X154212909Y-135814500D01*
X154144788Y-135794498D01*
X154098295Y-135740842D01*
X154088191Y-135670568D01*
X154091912Y-135653347D01*
X154107144Y-135600916D01*
X154108791Y-135580000D01*
X153206000Y-135580000D01*
X153137879Y-135559998D01*
X153091386Y-135506342D01*
X153080000Y-135454000D01*
X153080000Y-134000000D01*
X153580000Y-134000000D01*
X153580000Y-135080000D01*
X154108790Y-135080000D01*
X154108790Y-135079999D01*
X154107145Y-135059086D01*
X154062032Y-134903806D01*
X153979716Y-134764618D01*
X153865379Y-134650281D01*
X153862289Y-134648454D01*
X153813836Y-134596561D01*
X153801130Y-134526711D01*
X153828205Y-134461080D01*
X153862289Y-134431546D01*
X153865379Y-134429718D01*
X153979716Y-134315381D01*
X154062032Y-134176193D01*
X154107144Y-134020916D01*
X154108791Y-134000000D01*
X153580000Y-134000000D01*
X153080000Y-134000000D01*
X153080000Y-132945494D01*
X153580000Y-132945494D01*
X153580000Y-133500000D01*
X154108790Y-133500000D01*
X154108790Y-133499999D01*
X154107145Y-133479086D01*
X154062032Y-133323806D01*
X153979716Y-133184618D01*
X153865378Y-133070280D01*
X153726197Y-132987968D01*
X153580000Y-132945494D01*
X153080000Y-132945494D01*
X152933803Y-132987968D01*
X152910638Y-133001668D01*
X152841822Y-133019127D01*
X152774491Y-132996610D01*
X152730022Y-132941265D01*
X152720500Y-132893214D01*
X152720500Y-131957372D01*
X152740502Y-131889251D01*
X152757405Y-131868276D01*
X153073278Y-131552404D01*
X153135590Y-131518379D01*
X153162373Y-131515500D01*
X153186962Y-131515500D01*
X153218305Y-131506296D01*
X153325053Y-131474953D01*
X153446128Y-131397143D01*
X153540377Y-131288373D01*
X153600165Y-131157457D01*
X153620647Y-131015000D01*
X153617542Y-130993407D01*
X153600165Y-130872543D01*
X153583861Y-130836842D01*
X153540377Y-130741627D01*
X153446128Y-130632857D01*
X153446127Y-130632856D01*
X153446126Y-130632855D01*
X153325053Y-130555047D01*
X153186962Y-130514500D01*
X153186961Y-130514500D01*
X153043039Y-130514500D01*
X153043038Y-130514500D01*
X152904946Y-130555047D01*
X152783873Y-130632855D01*
X152689622Y-130741628D01*
X152629834Y-130872543D01*
X152613647Y-130985128D01*
X152584154Y-131049709D01*
X152578025Y-131056291D01*
X152464094Y-131170222D01*
X152401782Y-131204248D01*
X152330967Y-131199183D01*
X152285903Y-131170221D01*
X152242782Y-131127099D01*
X152226395Y-131106920D01*
X152221436Y-131099330D01*
X152198624Y-131081574D01*
X152187582Y-131071822D01*
X152187309Y-131071627D01*
X152187307Y-131071625D01*
X152171667Y-131060458D01*
X152167517Y-131057363D01*
X152123228Y-131022892D01*
X152087870Y-131012365D01*
X152069441Y-131006878D01*
X152064513Y-131005300D01*
X152018488Y-130989500D01*
X152018487Y-130989500D01*
X152011420Y-130987074D01*
X151955380Y-130989392D01*
X151950173Y-130989500D01*
X149379418Y-130989500D01*
X149353560Y-130986818D01*
X149344685Y-130984957D01*
X149344684Y-130984957D01*
X149316006Y-130988532D01*
X149301279Y-130989446D01*
X149282027Y-130992658D01*
X149276886Y-130993407D01*
X149221190Y-131000351D01*
X149171825Y-131027065D01*
X149167222Y-131029434D01*
X149149971Y-131037869D01*
X149116803Y-131054084D01*
X149098615Y-131073841D01*
X149037761Y-131110410D01*
X149005917Y-131114500D01*
X148983038Y-131114500D01*
X148844946Y-131155047D01*
X148723873Y-131232855D01*
X148629622Y-131341628D01*
X148569834Y-131472543D01*
X148549352Y-131614999D01*
X148569834Y-131757456D01*
X148572895Y-131764158D01*
X148629623Y-131888373D01*
X148664887Y-131929070D01*
X148723873Y-131997144D01*
X148784409Y-132036047D01*
X148844947Y-132074953D01*
X148942491Y-132103594D01*
X148983038Y-132115500D01*
X148983039Y-132115500D01*
X149126962Y-132115500D01*
X149158305Y-132106296D01*
X149265053Y-132074953D01*
X149386128Y-131997143D01*
X149480377Y-131888373D01*
X149537105Y-131764156D01*
X149583597Y-131710502D01*
X149651718Y-131690500D01*
X151762628Y-131690500D01*
X151830749Y-131710502D01*
X151851723Y-131727405D01*
X151982595Y-131858277D01*
X152016621Y-131920589D01*
X152019500Y-131947372D01*
X152019500Y-132305593D01*
X151999498Y-132373714D01*
X151945842Y-132420207D01*
X151875568Y-132430311D01*
X151812509Y-132402115D01*
X151726553Y-132329989D01*
X151575308Y-132254031D01*
X151410621Y-132215000D01*
X151324000Y-132215000D01*
X151324000Y-133037000D01*
X151303998Y-133105121D01*
X151250342Y-133151614D01*
X151198000Y-133163000D01*
X150182139Y-133163000D01*
X150171327Y-133179439D01*
X150172862Y-133191997D01*
X150142008Y-133255938D01*
X150081482Y-133293049D01*
X150067335Y-133296020D01*
X150010561Y-133304578D01*
X150006018Y-133306073D01*
X149950012Y-133335674D01*
X149945807Y-133337797D01*
X149888764Y-133365268D01*
X149884851Y-133368044D01*
X149840071Y-133412823D01*
X149836681Y-133416089D01*
X149790242Y-133459179D01*
X149778784Y-133474110D01*
X149201302Y-134051595D01*
X149138990Y-134085620D01*
X149112206Y-134088500D01*
X149029962Y-134088500D01*
X148961841Y-134068498D01*
X148915348Y-134014842D01*
X148905244Y-133944568D01*
X148917695Y-133905297D01*
X148919998Y-133900776D01*
X148934756Y-133871813D01*
X148955791Y-133739000D01*
X148934756Y-133606187D01*
X148873708Y-133486375D01*
X148873707Y-133486374D01*
X148873706Y-133486372D01*
X148815429Y-133428095D01*
X148781403Y-133365783D01*
X148786468Y-133294968D01*
X148815429Y-133249905D01*
X148873706Y-133191627D01*
X148873706Y-133191626D01*
X148873708Y-133191625D01*
X148934756Y-133071813D01*
X148955791Y-132939000D01*
X148934756Y-132806187D01*
X148888293Y-132715000D01*
X150185312Y-132715000D01*
X150876000Y-132715000D01*
X150876000Y-132215000D01*
X150835499Y-132215000D01*
X150828184Y-132215426D01*
X150705895Y-132229719D01*
X150546859Y-132287603D01*
X150405450Y-132380609D01*
X150289309Y-132503713D01*
X150204686Y-132650283D01*
X150185312Y-132715000D01*
X148888293Y-132715000D01*
X148873708Y-132686375D01*
X148873707Y-132686374D01*
X148873706Y-132686372D01*
X148778627Y-132591293D01*
X148658813Y-132530244D01*
X148559407Y-132514500D01*
X148559406Y-132514500D01*
X148461721Y-132514500D01*
X148393600Y-132494498D01*
X148347107Y-132440842D01*
X148340882Y-132397551D01*
X148338226Y-132397933D01*
X148315165Y-132237543D01*
X148289019Y-132180292D01*
X148255377Y-132106627D01*
X148161128Y-131997857D01*
X148161127Y-131997856D01*
X148161126Y-131997855D01*
X148040053Y-131920047D01*
X147901962Y-131879500D01*
X147901961Y-131879500D01*
X147758039Y-131879500D01*
X147758038Y-131879500D01*
X147619946Y-131920047D01*
X147498873Y-131997855D01*
X147404622Y-132106627D01*
X147370980Y-132180292D01*
X147324486Y-132233947D01*
X147256365Y-132253948D01*
X147239925Y-132252871D01*
X147218398Y-132250037D01*
X147218392Y-132250036D01*
X147214316Y-132249500D01*
X146865684Y-132249500D01*
X146861600Y-132250037D01*
X146861594Y-132250038D01*
X146816826Y-132255931D01*
X146709594Y-132305935D01*
X146619095Y-132396435D01*
X146556783Y-132430461D01*
X146485968Y-132425396D01*
X146440905Y-132396435D01*
X146350405Y-132305935D01*
X146243173Y-132255931D01*
X146198405Y-132250038D01*
X146198400Y-132250037D01*
X146194316Y-132249500D01*
X145845684Y-132249500D01*
X145841600Y-132250037D01*
X145841594Y-132250038D01*
X145796826Y-132255931D01*
X145689594Y-132305935D01*
X145605935Y-132389594D01*
X145555931Y-132496826D01*
X145550038Y-132541594D01*
X145549500Y-132545684D01*
X145549500Y-132994316D01*
X145550037Y-132998400D01*
X145550038Y-132998405D01*
X145555931Y-133043171D01*
X145557694Y-133046951D01*
X145569500Y-133100203D01*
X145569500Y-133439796D01*
X145557696Y-133493044D01*
X145555931Y-133496827D01*
X145550235Y-133540100D01*
X145549500Y-133545684D01*
X145549500Y-133994316D01*
X145550037Y-133998400D01*
X145550038Y-133998405D01*
X145555931Y-134043173D01*
X145568161Y-134069399D01*
X145578560Y-134103870D01*
X145585581Y-134150455D01*
X145587066Y-134154965D01*
X145616673Y-134210984D01*
X145618796Y-134215189D01*
X145642324Y-134264045D01*
X145646274Y-134272246D01*
X145649040Y-134276145D01*
X145693819Y-134320924D01*
X145697088Y-134324317D01*
X145740182Y-134370761D01*
X145755116Y-134382220D01*
X146208551Y-134835655D01*
X146217966Y-134846190D01*
X146240118Y-134873968D01*
X146240121Y-134873970D01*
X146287340Y-134906163D01*
X146291144Y-134908862D01*
X146337118Y-134942793D01*
X146337120Y-134942793D01*
X146342138Y-134946497D01*
X146346370Y-134948634D01*
X146352325Y-134950470D01*
X146352327Y-134950472D01*
X146406987Y-134967332D01*
X146411321Y-134968758D01*
X146465300Y-134987646D01*
X146471190Y-134989707D01*
X146475858Y-134990500D01*
X146482098Y-134990500D01*
X146539214Y-134990500D01*
X146543924Y-134990587D01*
X146601010Y-134992724D01*
X146601012Y-134992723D01*
X146607236Y-134992956D01*
X146625899Y-134990500D01*
X147253338Y-134990500D01*
X147321459Y-135010502D01*
X147367952Y-135064158D01*
X147372856Y-135098269D01*
X147385312Y-135115000D01*
X149237705Y-135115000D01*
X149305826Y-135135002D01*
X149326800Y-135151904D01*
X149774301Y-135599404D01*
X149808326Y-135661717D01*
X149803262Y-135732532D01*
X149760715Y-135789368D01*
X149694195Y-135814179D01*
X149685206Y-135814500D01*
X149305712Y-135814500D01*
X149237591Y-135794498D01*
X149191098Y-135740842D01*
X149180994Y-135670568D01*
X149192031Y-135638679D01*
X149214688Y-135563000D01*
X147382139Y-135563000D01*
X147414747Y-135638594D01*
X147423362Y-135709066D01*
X147392510Y-135773008D01*
X147331985Y-135810120D01*
X147299052Y-135814500D01*
X134711500Y-135814500D01*
X134643379Y-135794498D01*
X134596886Y-135740842D01*
X134585500Y-135688500D01*
X134585500Y-133215500D01*
X134605502Y-133147379D01*
X134659158Y-133100886D01*
X134711500Y-133089500D01*
X134780953Y-133089500D01*
X134780957Y-133089500D01*
X134846799Y-133077192D01*
X134893789Y-133077323D01*
X134956965Y-133089500D01*
X134956966Y-133089500D01*
X136887901Y-133089500D01*
X136890902Y-133089500D01*
X137046127Y-133074678D01*
X137245768Y-133016058D01*
X137430708Y-132920715D01*
X137594261Y-132792095D01*
X137730518Y-132634847D01*
X137834552Y-132454653D01*
X137902605Y-132258028D01*
X137932216Y-132052076D01*
X137926357Y-131929070D01*
X137922316Y-131844242D01*
X137873263Y-131642041D01*
X137786825Y-131452767D01*
X137666138Y-131283287D01*
X137641000Y-131259318D01*
X137515548Y-131139699D01*
X137449550Y-131097285D01*
X137340507Y-131027207D01*
X137147344Y-130949876D01*
X136943035Y-130910500D01*
X135009098Y-130910500D01*
X135006123Y-130910784D01*
X135006124Y-130910784D01*
X134875770Y-130923231D01*
X134840644Y-130921656D01*
X134780958Y-130910500D01*
X134780957Y-130910500D01*
X134711500Y-130910500D01*
X134643379Y-130890498D01*
X134596886Y-130836842D01*
X134585500Y-130784500D01*
X134585500Y-130215500D01*
X134605502Y-130147379D01*
X134659158Y-130100886D01*
X134711500Y-130089500D01*
X134780953Y-130089500D01*
X134780957Y-130089500D01*
X134846799Y-130077192D01*
X134893789Y-130077323D01*
X134956965Y-130089500D01*
X134956966Y-130089500D01*
X136887901Y-130089500D01*
X136890902Y-130089500D01*
X137046127Y-130074678D01*
X137245768Y-130016058D01*
X137430708Y-129920715D01*
X137594261Y-129792095D01*
X137730518Y-129634847D01*
X137834552Y-129454653D01*
X137902605Y-129258028D01*
X137932216Y-129052076D01*
X137922316Y-128844243D01*
X137922316Y-128844242D01*
X137873263Y-128642041D01*
X137786825Y-128452767D01*
X137666138Y-128283287D01*
X137631228Y-128250000D01*
X139994352Y-128250000D01*
X140014834Y-128392456D01*
X140028053Y-128421400D01*
X140074623Y-128523373D01*
X140168872Y-128632143D01*
X140168873Y-128632144D01*
X140201824Y-128653320D01*
X140289947Y-128709953D01*
X140387491Y-128738594D01*
X140428038Y-128750500D01*
X140428039Y-128750500D01*
X140571962Y-128750500D01*
X140724865Y-128705604D01*
X140760363Y-128700500D01*
X141307622Y-128700500D01*
X141321728Y-128701292D01*
X141357035Y-128705270D01*
X141413211Y-128694640D01*
X141417772Y-128693865D01*
X141474287Y-128685348D01*
X141474291Y-128685346D01*
X141480468Y-128684415D01*
X141484946Y-128682942D01*
X141490467Y-128680023D01*
X141490472Y-128680023D01*
X141541027Y-128653302D01*
X141545190Y-128651202D01*
X141596642Y-128626425D01*
X141596643Y-128626423D01*
X141602260Y-128623719D01*
X141606128Y-128620974D01*
X141610533Y-128616568D01*
X141610538Y-128616566D01*
X141650962Y-128576140D01*
X141654302Y-128572923D01*
X141696194Y-128534055D01*
X141696195Y-128534053D01*
X141700764Y-128529814D01*
X141712219Y-128514883D01*
X143235661Y-126991440D01*
X143246178Y-126982041D01*
X143273970Y-126959879D01*
X143306191Y-126912618D01*
X143308855Y-126908863D01*
X143342793Y-126862882D01*
X143342793Y-126862880D01*
X143346501Y-126857857D01*
X143348632Y-126853636D01*
X143350470Y-126847675D01*
X143350472Y-126847673D01*
X143367318Y-126793053D01*
X143368770Y-126788641D01*
X143387646Y-126734699D01*
X143387646Y-126734695D01*
X143389707Y-126728806D01*
X143390500Y-126724140D01*
X143390500Y-126660801D01*
X143390588Y-126656089D01*
X143392725Y-126598990D01*
X143392724Y-126598987D01*
X143392957Y-126592767D01*
X143390500Y-126574097D01*
X143390500Y-123535770D01*
X143401886Y-123483428D01*
X143425165Y-123432457D01*
X143445647Y-123290000D01*
X143432858Y-123201053D01*
X143425165Y-123147543D01*
X143365377Y-123016628D01*
X143365377Y-123016627D01*
X143271128Y-122907857D01*
X143271127Y-122907856D01*
X143271126Y-122907855D01*
X143150053Y-122830047D01*
X143011962Y-122789500D01*
X143011961Y-122789500D01*
X142868039Y-122789500D01*
X142868038Y-122789500D01*
X142729946Y-122830047D01*
X142608873Y-122907855D01*
X142514622Y-123016628D01*
X142454834Y-123147543D01*
X142434352Y-123289999D01*
X142454834Y-123432454D01*
X142454834Y-123432455D01*
X142454835Y-123432457D01*
X142478113Y-123483428D01*
X142489500Y-123535770D01*
X142489500Y-126411206D01*
X142469498Y-126479327D01*
X142452595Y-126500301D01*
X141190302Y-127762595D01*
X141127990Y-127796620D01*
X141101207Y-127799500D01*
X140760363Y-127799500D01*
X140724865Y-127794396D01*
X140571962Y-127749500D01*
X140571961Y-127749500D01*
X140428039Y-127749500D01*
X140428038Y-127749500D01*
X140289946Y-127790047D01*
X140168873Y-127867855D01*
X140074622Y-127976628D01*
X140014834Y-128107543D01*
X139994352Y-128250000D01*
X137631228Y-128250000D01*
X137556931Y-128179158D01*
X137515548Y-128139699D01*
X137375276Y-128049552D01*
X137340507Y-128027207D01*
X137147344Y-127949876D01*
X136943035Y-127910500D01*
X135009098Y-127910500D01*
X135006123Y-127910784D01*
X135006124Y-127910784D01*
X134875770Y-127923231D01*
X134840644Y-127921656D01*
X134780958Y-127910500D01*
X134780957Y-127910500D01*
X134711500Y-127910500D01*
X134643379Y-127890498D01*
X134596886Y-127836842D01*
X134585500Y-127784500D01*
X134585500Y-122320000D01*
X138924352Y-122320000D01*
X138944834Y-122462456D01*
X138995224Y-122572793D01*
X139004623Y-122593373D01*
X139028205Y-122620588D01*
X139098873Y-122702144D01*
X139159409Y-122741047D01*
X139219947Y-122779953D01*
X139317491Y-122808594D01*
X139358038Y-122820500D01*
X139358039Y-122820500D01*
X139501962Y-122820500D01*
X139533305Y-122811296D01*
X139640053Y-122779953D01*
X139761128Y-122702143D01*
X139855377Y-122593373D01*
X139897751Y-122500583D01*
X139923267Y-122463834D01*
X140485661Y-121901440D01*
X140496178Y-121892041D01*
X140523970Y-121869879D01*
X140556191Y-121822618D01*
X140558855Y-121818863D01*
X140592793Y-121772882D01*
X140592793Y-121772880D01*
X140596504Y-121767853D01*
X140598631Y-121763640D01*
X140613135Y-121716620D01*
X140617321Y-121703046D01*
X140618770Y-121698642D01*
X140637646Y-121644700D01*
X140637646Y-121644696D01*
X140639707Y-121638807D01*
X140640500Y-121634143D01*
X140640500Y-121570785D01*
X140640588Y-121566074D01*
X140642724Y-121508990D01*
X140642723Y-121508987D01*
X140642956Y-121502768D01*
X140640500Y-121484101D01*
X140640500Y-120826500D01*
X140660502Y-120758379D01*
X140714158Y-120711886D01*
X140766500Y-120700500D01*
X141741206Y-120700500D01*
X141809327Y-120720502D01*
X141830301Y-120737405D01*
X145608547Y-124515650D01*
X145617962Y-124526185D01*
X145640118Y-124553968D01*
X145640121Y-124553970D01*
X145687340Y-124586163D01*
X145691144Y-124588862D01*
X145737118Y-124622793D01*
X145737120Y-124622793D01*
X145742138Y-124626497D01*
X145746369Y-124628633D01*
X145752323Y-124630469D01*
X145752327Y-124630472D01*
X145806942Y-124647317D01*
X145811405Y-124648787D01*
X145830156Y-124655348D01*
X145865301Y-124667646D01*
X145871186Y-124669705D01*
X145875863Y-124670500D01*
X145882098Y-124670500D01*
X145939199Y-124670500D01*
X145943909Y-124670587D01*
X146001010Y-124672725D01*
X146001012Y-124672724D01*
X146007233Y-124672957D01*
X146025902Y-124670500D01*
X148837622Y-124670500D01*
X148851728Y-124671292D01*
X148887035Y-124675270D01*
X148943211Y-124664640D01*
X148947772Y-124663865D01*
X149004287Y-124655348D01*
X149004291Y-124655346D01*
X149010468Y-124654415D01*
X149014946Y-124652942D01*
X149020467Y-124650023D01*
X149020472Y-124650023D01*
X149071027Y-124623302D01*
X149075190Y-124621202D01*
X149126642Y-124596425D01*
X149126643Y-124596423D01*
X149132260Y-124593719D01*
X149136128Y-124590974D01*
X149140533Y-124586568D01*
X149140538Y-124586566D01*
X149180963Y-124546139D01*
X149184302Y-124542922D01*
X149226194Y-124504055D01*
X149226195Y-124504053D01*
X149230764Y-124499814D01*
X149242219Y-124484883D01*
X152295666Y-121431436D01*
X152306183Y-121422037D01*
X152333970Y-121399879D01*
X152366172Y-121352646D01*
X152368853Y-121348867D01*
X152402792Y-121302883D01*
X152402792Y-121302881D01*
X152406500Y-121297858D01*
X152408634Y-121293630D01*
X152410471Y-121287674D01*
X152410472Y-121287673D01*
X152427313Y-121233070D01*
X152428788Y-121228590D01*
X152437784Y-121202882D01*
X152447646Y-121174700D01*
X152447646Y-121174698D01*
X152449707Y-121168809D01*
X152450500Y-121164144D01*
X152450500Y-121100785D01*
X152450588Y-121096074D01*
X152450845Y-121089214D01*
X152452724Y-121038990D01*
X152452723Y-121038987D01*
X152452956Y-121032763D01*
X152450500Y-121014101D01*
X152450500Y-118685770D01*
X152461886Y-118633428D01*
X152485165Y-118582457D01*
X152505647Y-118440000D01*
X152485165Y-118297543D01*
X152425377Y-118166627D01*
X152331128Y-118057857D01*
X152331127Y-118057856D01*
X152331126Y-118057855D01*
X152210053Y-117980047D01*
X152071962Y-117939500D01*
X152071961Y-117939500D01*
X151928039Y-117939500D01*
X151928038Y-117939500D01*
X151789946Y-117980047D01*
X151668873Y-118057855D01*
X151574622Y-118166628D01*
X151514834Y-118297543D01*
X151494352Y-118439999D01*
X151514834Y-118582454D01*
X151514834Y-118582455D01*
X151514835Y-118582457D01*
X151538113Y-118633428D01*
X151549500Y-118685770D01*
X151549500Y-120851206D01*
X151529498Y-120919327D01*
X151512595Y-120940301D01*
X148720302Y-123732595D01*
X148657990Y-123766621D01*
X148631207Y-123769500D01*
X146188794Y-123769500D01*
X146120673Y-123749498D01*
X146099699Y-123732595D01*
X142321451Y-119954348D01*
X142312035Y-119943813D01*
X142289877Y-119916028D01*
X142242657Y-119883833D01*
X142238816Y-119881108D01*
X142192882Y-119847207D01*
X142192880Y-119847206D01*
X142187868Y-119843507D01*
X142183620Y-119841362D01*
X142159783Y-119834009D01*
X142123041Y-119822676D01*
X142118593Y-119821212D01*
X142058831Y-119800300D01*
X142054119Y-119799500D01*
X142047902Y-119799500D01*
X141990785Y-119799500D01*
X141986074Y-119799412D01*
X141922763Y-119797043D01*
X141904101Y-119799500D01*
X140428793Y-119799500D01*
X140360672Y-119779498D01*
X140339702Y-119762599D01*
X140267404Y-119690301D01*
X140233379Y-119627988D01*
X140230500Y-119601206D01*
X140230500Y-113288792D01*
X140250502Y-113220671D01*
X140267400Y-113199701D01*
X141255661Y-112211440D01*
X141266178Y-112202041D01*
X141293970Y-112179879D01*
X141326191Y-112132618D01*
X141328855Y-112128863D01*
X141362793Y-112082882D01*
X141362793Y-112082880D01*
X141366501Y-112077857D01*
X141368632Y-112073636D01*
X141370470Y-112067675D01*
X141370472Y-112067673D01*
X141387318Y-112013053D01*
X141388770Y-112008641D01*
X141407646Y-111954699D01*
X141407646Y-111954693D01*
X141409706Y-111948807D01*
X141410500Y-111944138D01*
X141410500Y-111880785D01*
X141410588Y-111876074D01*
X141410842Y-111869287D01*
X141412724Y-111818990D01*
X141412723Y-111818987D01*
X141412956Y-111812768D01*
X141410500Y-111794101D01*
X141410500Y-111515770D01*
X141421886Y-111463428D01*
X141445165Y-111412457D01*
X141465647Y-111270000D01*
X141445165Y-111127543D01*
X141385377Y-110996627D01*
X141291128Y-110887857D01*
X141291127Y-110887856D01*
X141291126Y-110887855D01*
X141170053Y-110810047D01*
X141031962Y-110769500D01*
X141031961Y-110769500D01*
X140888039Y-110769500D01*
X140888038Y-110769500D01*
X140749946Y-110810047D01*
X140628873Y-110887855D01*
X140534622Y-110996628D01*
X140474834Y-111127543D01*
X140454352Y-111270000D01*
X140474834Y-111412454D01*
X140474834Y-111412455D01*
X140474835Y-111412457D01*
X140498113Y-111463428D01*
X140509500Y-111515770D01*
X140509500Y-111631206D01*
X140489498Y-111699327D01*
X140472595Y-111720301D01*
X139484342Y-112708553D01*
X139473809Y-112717967D01*
X139446028Y-112740122D01*
X139413840Y-112787332D01*
X139411116Y-112791172D01*
X139373511Y-112842125D01*
X139371359Y-112846388D01*
X139352690Y-112906913D01*
X139351218Y-112911387D01*
X139330301Y-112971166D01*
X139329500Y-112975885D01*
X139329500Y-113039213D01*
X139329412Y-113043924D01*
X139327043Y-113107238D01*
X139329500Y-113125898D01*
X139329500Y-119807621D01*
X139328708Y-119821728D01*
X139324729Y-119857036D01*
X139335345Y-119913140D01*
X139336134Y-119917783D01*
X139345579Y-119980444D01*
X139347068Y-119984970D01*
X139376673Y-120040984D01*
X139378797Y-120045190D01*
X139406274Y-120102248D01*
X139409037Y-120106141D01*
X139453831Y-120150934D01*
X139457102Y-120154330D01*
X139500181Y-120200760D01*
X139515115Y-120212219D01*
X139616727Y-120313831D01*
X139702595Y-120399698D01*
X139736620Y-120462010D01*
X139739500Y-120488794D01*
X139739500Y-121321205D01*
X139719498Y-121389326D01*
X139702595Y-121410301D01*
X139289265Y-121823630D01*
X139235671Y-121855429D01*
X139219949Y-121860045D01*
X139098872Y-121937856D01*
X139004622Y-122046628D01*
X138944834Y-122177543D01*
X138924352Y-122320000D01*
X134585500Y-122320000D01*
X134585500Y-121215500D01*
X134605502Y-121147379D01*
X134659158Y-121100886D01*
X134711500Y-121089500D01*
X134780953Y-121089500D01*
X134780957Y-121089500D01*
X134846799Y-121077192D01*
X134893789Y-121077323D01*
X134956965Y-121089500D01*
X134956966Y-121089500D01*
X136887901Y-121089500D01*
X136890902Y-121089500D01*
X137046127Y-121074678D01*
X137245768Y-121016058D01*
X137430708Y-120920715D01*
X137594261Y-120792095D01*
X137730518Y-120634847D01*
X137834552Y-120454653D01*
X137902605Y-120258028D01*
X137932216Y-120052076D01*
X137922316Y-119844243D01*
X137922316Y-119844242D01*
X137873263Y-119642041D01*
X137786825Y-119452767D01*
X137666138Y-119283287D01*
X137666135Y-119283284D01*
X137515548Y-119139699D01*
X137450317Y-119097778D01*
X137340507Y-119027207D01*
X137147344Y-118949876D01*
X136943035Y-118910500D01*
X135009098Y-118910500D01*
X135006123Y-118910784D01*
X135006124Y-118910784D01*
X134875770Y-118923231D01*
X134840644Y-118921656D01*
X134780958Y-118910500D01*
X134780957Y-118910500D01*
X134711500Y-118910500D01*
X134643379Y-118890498D01*
X134596886Y-118836842D01*
X134585500Y-118784500D01*
X134585500Y-118215500D01*
X134605502Y-118147379D01*
X134659158Y-118100886D01*
X134711500Y-118089500D01*
X134780953Y-118089500D01*
X134780957Y-118089500D01*
X134846799Y-118077192D01*
X134893789Y-118077323D01*
X134956965Y-118089500D01*
X134956966Y-118089500D01*
X136887901Y-118089500D01*
X136890902Y-118089500D01*
X137046127Y-118074678D01*
X137245768Y-118016058D01*
X137430708Y-117920715D01*
X137594261Y-117792095D01*
X137730518Y-117634847D01*
X137834552Y-117454653D01*
X137902605Y-117258028D01*
X137932216Y-117052076D01*
X137922316Y-116844243D01*
X137922316Y-116844242D01*
X137873263Y-116642041D01*
X137786825Y-116452767D01*
X137666138Y-116283287D01*
X137622260Y-116241449D01*
X137515548Y-116139699D01*
X137450154Y-116097673D01*
X137340507Y-116027207D01*
X137147344Y-115949876D01*
X136943035Y-115910500D01*
X135009098Y-115910500D01*
X135006123Y-115910784D01*
X135006124Y-115910784D01*
X134875770Y-115923231D01*
X134840644Y-115921656D01*
X134780958Y-115910500D01*
X134780957Y-115910500D01*
X134711500Y-115910500D01*
X134643379Y-115890498D01*
X134596886Y-115836842D01*
X134585500Y-115784500D01*
X134585500Y-115215500D01*
X134605502Y-115147379D01*
X134659158Y-115100886D01*
X134711500Y-115089500D01*
X134780953Y-115089500D01*
X134780957Y-115089500D01*
X134846799Y-115077192D01*
X134893789Y-115077323D01*
X134956965Y-115089500D01*
X134956966Y-115089500D01*
X136887901Y-115089500D01*
X136890902Y-115089500D01*
X137046127Y-115074678D01*
X137245768Y-115016058D01*
X137430708Y-114920715D01*
X137594261Y-114792095D01*
X137730518Y-114634847D01*
X137834552Y-114454653D01*
X137902605Y-114258028D01*
X137932216Y-114052076D01*
X137923441Y-113867855D01*
X137922316Y-113844242D01*
X137873263Y-113642041D01*
X137786825Y-113452767D01*
X137666138Y-113283287D01*
X137627665Y-113246603D01*
X137515548Y-113139699D01*
X137430901Y-113085300D01*
X137340507Y-113027207D01*
X137147344Y-112949876D01*
X136943035Y-112910500D01*
X135009098Y-112910500D01*
X135006123Y-112910784D01*
X135006124Y-112910784D01*
X134875770Y-112923231D01*
X134840644Y-112921656D01*
X134780958Y-112910500D01*
X134780957Y-112910500D01*
X134711500Y-112910500D01*
X134643379Y-112890498D01*
X134596886Y-112836842D01*
X134585500Y-112784500D01*
X134585500Y-112215500D01*
X134605502Y-112147379D01*
X134659158Y-112100886D01*
X134711500Y-112089500D01*
X134780953Y-112089500D01*
X134780957Y-112089500D01*
X134846799Y-112077192D01*
X134893789Y-112077323D01*
X134956965Y-112089500D01*
X134956966Y-112089500D01*
X136887901Y-112089500D01*
X136890902Y-112089500D01*
X137046127Y-112074678D01*
X137245768Y-112016058D01*
X137430708Y-111920715D01*
X137594261Y-111792095D01*
X137730518Y-111634847D01*
X137834552Y-111454653D01*
X137902605Y-111258028D01*
X137932216Y-111052076D01*
X137922316Y-110844243D01*
X137914020Y-110810047D01*
X137873263Y-110642041D01*
X137786825Y-110452767D01*
X137666138Y-110283287D01*
X137666135Y-110283284D01*
X137515548Y-110139699D01*
X137451083Y-110098270D01*
X137340507Y-110027207D01*
X137147344Y-109949876D01*
X136943035Y-109910500D01*
X135009098Y-109910500D01*
X135006123Y-109910784D01*
X135006124Y-109910784D01*
X134875770Y-109923231D01*
X134840644Y-109921656D01*
X134780958Y-109910500D01*
X134780957Y-109910500D01*
X134711500Y-109910500D01*
X134643379Y-109890498D01*
X134596886Y-109836842D01*
X134585500Y-109784500D01*
X134585500Y-109515000D01*
X134605502Y-109446879D01*
X134659158Y-109400386D01*
X134711500Y-109389000D01*
X134795096Y-109389000D01*
X134848910Y-109380019D01*
X134890945Y-109380112D01*
X134942781Y-109389000D01*
X135700000Y-109389000D01*
X135700000Y-108435501D01*
X135807685Y-108484680D01*
X135914237Y-108500000D01*
X135985763Y-108500000D01*
X136092315Y-108484680D01*
X136200000Y-108435501D01*
X136200000Y-109389000D01*
X136895338Y-109389000D01*
X136900660Y-109388773D01*
X137074592Y-109373970D01*
X137303399Y-109314393D01*
X137518859Y-109216999D01*
X137714751Y-109084599D01*
X137885453Y-108920995D01*
X138026049Y-108730896D01*
X138132498Y-108519768D01*
X138201734Y-108293689D01*
X138207329Y-108250000D01*
X136383686Y-108250000D01*
X136409493Y-108209844D01*
X136450000Y-108071889D01*
X136450000Y-107928111D01*
X136409493Y-107790156D01*
X136383686Y-107750000D01*
X138206012Y-107750000D01*
X138206012Y-107749999D01*
X138171917Y-107591798D01*
X138083759Y-107372407D01*
X137959786Y-107171063D01*
X137803579Y-106993578D01*
X137619617Y-106845038D01*
X137413200Y-106729727D01*
X137190263Y-106650959D01*
X136957219Y-106611000D01*
X136200000Y-106611000D01*
X136200000Y-107564498D01*
X136092315Y-107515320D01*
X135985763Y-107500000D01*
X135914237Y-107500000D01*
X135807685Y-107515320D01*
X135700000Y-107564498D01*
X135700000Y-106611000D01*
X135004663Y-106611000D01*
X134999336Y-106611226D01*
X134880771Y-106621316D01*
X134849351Y-106620052D01*
X134795097Y-106611000D01*
X134711500Y-106611000D01*
X134643379Y-106590998D01*
X134596886Y-106537342D01*
X134585500Y-106485000D01*
X134585500Y-106215500D01*
X134605502Y-106147379D01*
X134659158Y-106100886D01*
X134711500Y-106089500D01*
X134780953Y-106089500D01*
X134780957Y-106089500D01*
X134846799Y-106077192D01*
X134893789Y-106077323D01*
X134956965Y-106089500D01*
X134956966Y-106089500D01*
X136887901Y-106089500D01*
X136890902Y-106089500D01*
X137046127Y-106074678D01*
X137245768Y-106016058D01*
X137430708Y-105920715D01*
X137594261Y-105792095D01*
X137728812Y-105636814D01*
X137788537Y-105598433D01*
X137859534Y-105598433D01*
X137913130Y-105630234D01*
X139856728Y-107573831D01*
X139882246Y-107610583D01*
X139924621Y-107703371D01*
X140018873Y-107812144D01*
X140078557Y-107850500D01*
X140139947Y-107889953D01*
X140255575Y-107923904D01*
X140269902Y-107928111D01*
X140278039Y-107930500D01*
X140295421Y-107935604D01*
X140294084Y-107940154D01*
X140329327Y-107950502D01*
X140350301Y-107967405D01*
X142612595Y-110229698D01*
X142646620Y-110292010D01*
X142649500Y-110318793D01*
X142649500Y-111534228D01*
X142638114Y-111586570D01*
X142614834Y-111637545D01*
X142594352Y-111780000D01*
X142614834Y-111922454D01*
X142614834Y-111922455D01*
X142614835Y-111922457D01*
X142638113Y-111973428D01*
X142649500Y-112025770D01*
X142649500Y-112211206D01*
X142629498Y-112279327D01*
X142612595Y-112300301D01*
X141404342Y-113508553D01*
X141393809Y-113517967D01*
X141366028Y-113540122D01*
X141333840Y-113587332D01*
X141331116Y-113591172D01*
X141293511Y-113642125D01*
X141291359Y-113646388D01*
X141272690Y-113706913D01*
X141271218Y-113711387D01*
X141250301Y-113771166D01*
X141249500Y-113775885D01*
X141249500Y-113839213D01*
X141249412Y-113843924D01*
X141247043Y-113907238D01*
X141249500Y-113925898D01*
X141249500Y-115757621D01*
X141248708Y-115771728D01*
X141244729Y-115807036D01*
X141255345Y-115863140D01*
X141256134Y-115867783D01*
X141265579Y-115930444D01*
X141267068Y-115934970D01*
X141296673Y-115990984D01*
X141298796Y-115995189D01*
X141311005Y-116020541D01*
X141326274Y-116052246D01*
X141329040Y-116056145D01*
X141373819Y-116100924D01*
X141377088Y-116104317D01*
X141420181Y-116150761D01*
X141435118Y-116162222D01*
X143118547Y-117845650D01*
X143127962Y-117856185D01*
X143150118Y-117883968D01*
X143150121Y-117883970D01*
X143197340Y-117916163D01*
X143201144Y-117918862D01*
X143247118Y-117952793D01*
X143247120Y-117952793D01*
X143252138Y-117956497D01*
X143256369Y-117958633D01*
X143262323Y-117960469D01*
X143262327Y-117960472D01*
X143316942Y-117977317D01*
X143321405Y-117978787D01*
X143355172Y-117990602D01*
X143375301Y-117997646D01*
X143381186Y-117999705D01*
X143385863Y-118000500D01*
X143392098Y-118000500D01*
X143449199Y-118000500D01*
X143453909Y-118000587D01*
X143511010Y-118002725D01*
X143511012Y-118002724D01*
X143517233Y-118002957D01*
X143535902Y-118000500D01*
X144749637Y-118000500D01*
X144785128Y-118005602D01*
X144787349Y-118006254D01*
X144840953Y-118038057D01*
X146422595Y-119619698D01*
X146456620Y-119682010D01*
X146459500Y-119708793D01*
X146459500Y-120654228D01*
X146448114Y-120706570D01*
X146424834Y-120757545D01*
X146404352Y-120900000D01*
X146424834Y-121042456D01*
X146479958Y-121163158D01*
X146484623Y-121173373D01*
X146550004Y-121248827D01*
X146578873Y-121282144D01*
X146596746Y-121293630D01*
X146699947Y-121359953D01*
X146797491Y-121388594D01*
X146838038Y-121400500D01*
X146838039Y-121400500D01*
X146981962Y-121400500D01*
X147013305Y-121391296D01*
X147120053Y-121359953D01*
X147241128Y-121282143D01*
X147335377Y-121173373D01*
X147395165Y-121042457D01*
X147415647Y-120900000D01*
X147395165Y-120757543D01*
X147371885Y-120706569D01*
X147360500Y-120654228D01*
X147360500Y-119502377D01*
X147361292Y-119488270D01*
X147365270Y-119452965D01*
X147354650Y-119396839D01*
X147353861Y-119392196D01*
X147349785Y-119365152D01*
X147345348Y-119335713D01*
X147345346Y-119335710D01*
X147344417Y-119329543D01*
X147342935Y-119325040D01*
X147340024Y-119319533D01*
X147340024Y-119319529D01*
X147313314Y-119268992D01*
X147311196Y-119264796D01*
X147283722Y-119207746D01*
X147280968Y-119203865D01*
X147276566Y-119199463D01*
X147236163Y-119159060D01*
X147232947Y-119155722D01*
X147194055Y-119113806D01*
X147194051Y-119113804D01*
X147189816Y-119109239D01*
X147174881Y-119097778D01*
X145520082Y-117442979D01*
X145494565Y-117406231D01*
X145435377Y-117276627D01*
X145341128Y-117167857D01*
X145341127Y-117167856D01*
X145341126Y-117167855D01*
X145220053Y-117090047D01*
X145081962Y-117049500D01*
X145081961Y-117049500D01*
X144938039Y-117049500D01*
X144938038Y-117049500D01*
X144785135Y-117094396D01*
X144749637Y-117099500D01*
X143698794Y-117099500D01*
X143630673Y-117079498D01*
X143609699Y-117062595D01*
X142476852Y-115929748D01*
X144119500Y-115929748D01*
X144127089Y-115967902D01*
X144131133Y-115988231D01*
X144175447Y-116054552D01*
X144212461Y-116079284D01*
X144241769Y-116098867D01*
X144300252Y-116110500D01*
X144300253Y-116110500D01*
X145699747Y-116110500D01*
X145699748Y-116110500D01*
X145758231Y-116098867D01*
X145824552Y-116054552D01*
X145868867Y-115988231D01*
X145880500Y-115929748D01*
X145880500Y-115748500D01*
X145900502Y-115680379D01*
X145954158Y-115633886D01*
X146006500Y-115622500D01*
X146995206Y-115622500D01*
X147006189Y-115622980D01*
X147043982Y-115626287D01*
X147043982Y-115626286D01*
X147043984Y-115626287D01*
X147080641Y-115616463D01*
X147091373Y-115614085D01*
X147128739Y-115607497D01*
X147128740Y-115607495D01*
X147129903Y-115607291D01*
X147154570Y-115597074D01*
X147155539Y-115596394D01*
X147155543Y-115596394D01*
X147186637Y-115574620D01*
X147195871Y-115568737D01*
X147228760Y-115549750D01*
X147253171Y-115520656D01*
X147260566Y-115512586D01*
X147995750Y-114777404D01*
X148058063Y-114743379D01*
X148084846Y-114740500D01*
X148141962Y-114740500D01*
X148173305Y-114731296D01*
X148280053Y-114699953D01*
X148401128Y-114622143D01*
X148495377Y-114513373D01*
X148555165Y-114382457D01*
X148575647Y-114240000D01*
X148555165Y-114097543D01*
X148495377Y-113966627D01*
X148401128Y-113857857D01*
X148401127Y-113857856D01*
X148401126Y-113857855D01*
X148280053Y-113780047D01*
X148141962Y-113739500D01*
X148141961Y-113739500D01*
X147998039Y-113739500D01*
X147998038Y-113739500D01*
X147859946Y-113780047D01*
X147738873Y-113857855D01*
X147644622Y-113966628D01*
X147584834Y-114097543D01*
X147563185Y-114248117D01*
X147533692Y-114312698D01*
X147527564Y-114319280D01*
X147367345Y-114479500D01*
X147054750Y-114792096D01*
X146916251Y-114930595D01*
X146853938Y-114964620D01*
X146827155Y-114967500D01*
X146006500Y-114967500D01*
X145938379Y-114947498D01*
X145891886Y-114893842D01*
X145880500Y-114841500D01*
X145880500Y-114660253D01*
X145875584Y-114635539D01*
X145868867Y-114601769D01*
X145832426Y-114547232D01*
X145824552Y-114535447D01*
X145758231Y-114491133D01*
X145699748Y-114479500D01*
X144300252Y-114479500D01*
X144271010Y-114485316D01*
X144241768Y-114491133D01*
X144175447Y-114535447D01*
X144131133Y-114601768D01*
X144131132Y-114601769D01*
X144131133Y-114601769D01*
X144119500Y-114660252D01*
X144119500Y-115929748D01*
X142476852Y-115929748D01*
X142187405Y-115640301D01*
X142153379Y-115577989D01*
X142150500Y-115551206D01*
X142150500Y-114088792D01*
X142170502Y-114020671D01*
X142187400Y-113999701D01*
X143395661Y-112791440D01*
X143406178Y-112782041D01*
X143433970Y-112759879D01*
X143466191Y-112712618D01*
X143468855Y-112708863D01*
X143502793Y-112662882D01*
X143502793Y-112662880D01*
X143506501Y-112657857D01*
X143508632Y-112653636D01*
X143510470Y-112647675D01*
X143510472Y-112647673D01*
X143527318Y-112593053D01*
X143528770Y-112588641D01*
X143547646Y-112534699D01*
X143547646Y-112534693D01*
X143549706Y-112528807D01*
X143550500Y-112524138D01*
X143550500Y-112460785D01*
X143550588Y-112456074D01*
X143552724Y-112398990D01*
X143552723Y-112398987D01*
X143552956Y-112392768D01*
X143550500Y-112374101D01*
X143550500Y-112025770D01*
X143561886Y-111973428D01*
X143585165Y-111922457D01*
X143605647Y-111780000D01*
X143602927Y-111761082D01*
X143613029Y-111690809D01*
X143626893Y-111674807D01*
X143611488Y-111667772D01*
X143591637Y-111641255D01*
X143799320Y-111641255D01*
X143842257Y-111690805D01*
X143845700Y-111699117D01*
X143876646Y-111782088D01*
X143962810Y-111897189D01*
X144077911Y-111983353D01*
X144212624Y-112033597D01*
X144268823Y-112039640D01*
X144275539Y-112040000D01*
X144750000Y-112040000D01*
X144750000Y-111175000D01*
X145250000Y-111175000D01*
X145250000Y-112040000D01*
X145724461Y-112040000D01*
X145731176Y-112039640D01*
X145787375Y-112033597D01*
X145922088Y-111983353D01*
X146037189Y-111897189D01*
X146123353Y-111782088D01*
X146173597Y-111647375D01*
X146179640Y-111591176D01*
X146180000Y-111584460D01*
X146180000Y-111175000D01*
X145250000Y-111175000D01*
X144750000Y-111175000D01*
X143820000Y-111175000D01*
X143820000Y-111572548D01*
X143799998Y-111640669D01*
X143799320Y-111641255D01*
X143591637Y-111641255D01*
X143579387Y-111624891D01*
X143561885Y-111586569D01*
X143550500Y-111534228D01*
X143550500Y-110112377D01*
X143551292Y-110098270D01*
X143555270Y-110062965D01*
X143544643Y-110006805D01*
X143543860Y-110002194D01*
X143536417Y-109952810D01*
X143535348Y-109945713D01*
X143535347Y-109945712D01*
X143534417Y-109939536D01*
X143532940Y-109935046D01*
X143503320Y-109879004D01*
X143501196Y-109874796D01*
X143473724Y-109817749D01*
X143470967Y-109813863D01*
X143466566Y-109809462D01*
X143426152Y-109769048D01*
X143422909Y-109765681D01*
X143379820Y-109719241D01*
X143364882Y-109707778D01*
X140791451Y-107134348D01*
X140782035Y-107123813D01*
X140770557Y-107109420D01*
X140759879Y-107096030D01*
X140759878Y-107096029D01*
X140759877Y-107096028D01*
X140712657Y-107063833D01*
X140708816Y-107061108D01*
X140665989Y-107029500D01*
X140662882Y-107027207D01*
X140662881Y-107027206D01*
X140657867Y-107023506D01*
X140653621Y-107021363D01*
X140643709Y-107018305D01*
X140612733Y-107003902D01*
X140560054Y-106970047D01*
X140552702Y-106967888D01*
X140544326Y-106965429D01*
X140490733Y-106933629D01*
X138261451Y-104704348D01*
X138252035Y-104693813D01*
X138229877Y-104666028D01*
X138182657Y-104633833D01*
X138178816Y-104631108D01*
X138143090Y-104604741D01*
X138132882Y-104597207D01*
X138132880Y-104597206D01*
X138127868Y-104593507D01*
X138123620Y-104591362D01*
X138099783Y-104584009D01*
X138063041Y-104572676D01*
X138058593Y-104571212D01*
X137998831Y-104550300D01*
X137994119Y-104549500D01*
X137987902Y-104549500D01*
X137930785Y-104549500D01*
X137926074Y-104549412D01*
X137906937Y-104548695D01*
X137839613Y-104526161D01*
X137797034Y-104475123D01*
X137786825Y-104452767D01*
X137666138Y-104283287D01*
X137644719Y-104262864D01*
X137515548Y-104139699D01*
X137396779Y-104063371D01*
X137340507Y-104027207D01*
X137147344Y-103949876D01*
X136943035Y-103910500D01*
X135009098Y-103910500D01*
X135006123Y-103910784D01*
X135006124Y-103910784D01*
X134875770Y-103923231D01*
X134840644Y-103921656D01*
X134780958Y-103910500D01*
X134780957Y-103910500D01*
X134711500Y-103910500D01*
X134643379Y-103890498D01*
X134596886Y-103836842D01*
X134585500Y-103784500D01*
X134585500Y-103215500D01*
X134605502Y-103147379D01*
X134659158Y-103100886D01*
X134711500Y-103089500D01*
X134780953Y-103089500D01*
X134780957Y-103089500D01*
X134846799Y-103077192D01*
X134893789Y-103077323D01*
X134956965Y-103089500D01*
X134956966Y-103089500D01*
X136887901Y-103089500D01*
X136890902Y-103089500D01*
X137046127Y-103074678D01*
X137245768Y-103016058D01*
X137430708Y-102920715D01*
X137594261Y-102792095D01*
X137730518Y-102634847D01*
X137834552Y-102454653D01*
X137849213Y-102412290D01*
X137890396Y-102354458D01*
X137956307Y-102328071D01*
X137968284Y-102327500D01*
X138120104Y-102327500D01*
X138188225Y-102347502D01*
X138209199Y-102364405D01*
X144153696Y-108308903D01*
X144187722Y-108371215D01*
X144182657Y-108442030D01*
X144140110Y-108498866D01*
X144100100Y-108518894D01*
X143959946Y-108560047D01*
X143838873Y-108637855D01*
X143744622Y-108746628D01*
X143684834Y-108877543D01*
X143664352Y-109019999D01*
X143684834Y-109162456D01*
X143716366Y-109231500D01*
X143744623Y-109293373D01*
X143762837Y-109314393D01*
X143838872Y-109402143D01*
X143959947Y-109479953D01*
X143975665Y-109484568D01*
X144029266Y-109516370D01*
X144158967Y-109646071D01*
X144192993Y-109708383D01*
X144187928Y-109779198D01*
X144145381Y-109836034D01*
X144113904Y-109853222D01*
X144077911Y-109866646D01*
X143962810Y-109952810D01*
X143876646Y-110067911D01*
X143826402Y-110202624D01*
X143820359Y-110258823D01*
X143820000Y-110265539D01*
X143820000Y-110675000D01*
X146180000Y-110675000D01*
X146180000Y-110265539D01*
X146179640Y-110258823D01*
X146173597Y-110202624D01*
X146135893Y-110101532D01*
X146130829Y-110030716D01*
X146164854Y-109968404D01*
X146227167Y-109934379D01*
X146253949Y-109931500D01*
X146964151Y-109931500D01*
X147032272Y-109951502D01*
X147053246Y-109968404D01*
X147532595Y-110447752D01*
X147566620Y-110510065D01*
X147569500Y-110536848D01*
X147569500Y-111481205D01*
X147549498Y-111549326D01*
X147532595Y-111570300D01*
X146839266Y-112263629D01*
X146785671Y-112295430D01*
X146769946Y-112300047D01*
X146648872Y-112377856D01*
X146554622Y-112486628D01*
X146494834Y-112617543D01*
X146474352Y-112760000D01*
X146494834Y-112902456D01*
X146548763Y-113020541D01*
X146554623Y-113033373D01*
X146646754Y-113139699D01*
X146648873Y-113142144D01*
X146709409Y-113181047D01*
X146769947Y-113219953D01*
X146860710Y-113246603D01*
X146908038Y-113260500D01*
X146908039Y-113260500D01*
X147051962Y-113260500D01*
X147099290Y-113246603D01*
X147190053Y-113219953D01*
X147311128Y-113142143D01*
X147405377Y-113033373D01*
X147447751Y-112940583D01*
X147473267Y-112903834D01*
X147930905Y-112446196D01*
X147993215Y-112412172D01*
X148064030Y-112417237D01*
X148109093Y-112446197D01*
X148872595Y-113209698D01*
X148906620Y-113272011D01*
X148909500Y-113298794D01*
X148909500Y-115661206D01*
X148889498Y-115729327D01*
X148872599Y-115750296D01*
X148414993Y-116207903D01*
X147979266Y-116643630D01*
X147925671Y-116675430D01*
X147909946Y-116680047D01*
X147788872Y-116757856D01*
X147694622Y-116866628D01*
X147634834Y-116997543D01*
X147614352Y-117140000D01*
X147634834Y-117282454D01*
X147634834Y-117282455D01*
X147634835Y-117282457D01*
X147658113Y-117333428D01*
X147669500Y-117385770D01*
X147669499Y-118577621D01*
X147668707Y-118591725D01*
X147664729Y-118627034D01*
X147675345Y-118683140D01*
X147676134Y-118687783D01*
X147685579Y-118750444D01*
X147687068Y-118754970D01*
X147716673Y-118810984D01*
X147718797Y-118815190D01*
X147746274Y-118872246D01*
X147749040Y-118876145D01*
X147793819Y-118920924D01*
X147797088Y-118924317D01*
X147840181Y-118970761D01*
X147855118Y-118982222D01*
X149186728Y-120313831D01*
X149212244Y-120350577D01*
X149218111Y-120363424D01*
X149229500Y-120415771D01*
X149229500Y-120751205D01*
X149209498Y-120819326D01*
X149192596Y-120840300D01*
X148350302Y-121682595D01*
X148287989Y-121716620D01*
X148261206Y-121719500D01*
X146291793Y-121719500D01*
X146223672Y-121699498D01*
X146202698Y-121682595D01*
X141923271Y-117403168D01*
X141897753Y-117366416D01*
X141860037Y-117283832D01*
X141855377Y-117273627D01*
X141761128Y-117164857D01*
X141761127Y-117164856D01*
X141761126Y-117164855D01*
X141640053Y-117087047D01*
X141501962Y-117046500D01*
X141501961Y-117046500D01*
X141358039Y-117046500D01*
X141358038Y-117046500D01*
X141219946Y-117087047D01*
X141098873Y-117164855D01*
X141004622Y-117273628D01*
X140944834Y-117404543D01*
X140924352Y-117546999D01*
X140944834Y-117689456D01*
X140991709Y-117792095D01*
X141004623Y-117820373D01*
X141098872Y-117929143D01*
X141219947Y-118006953D01*
X141230164Y-118009953D01*
X141235665Y-118011568D01*
X141289266Y-118043370D01*
X145711547Y-122465650D01*
X145720962Y-122476185D01*
X145743118Y-122503968D01*
X145743121Y-122503970D01*
X145790340Y-122536163D01*
X145794144Y-122538862D01*
X145840118Y-122572793D01*
X145840120Y-122572793D01*
X145845138Y-122576497D01*
X145849370Y-122578634D01*
X145855325Y-122580470D01*
X145855327Y-122580472D01*
X145909987Y-122597332D01*
X145914321Y-122598758D01*
X145968300Y-122617646D01*
X145974190Y-122619707D01*
X145978858Y-122620500D01*
X145985098Y-122620500D01*
X146042214Y-122620500D01*
X146046924Y-122620587D01*
X146104010Y-122622724D01*
X146104012Y-122622723D01*
X146110236Y-122622956D01*
X146128899Y-122620500D01*
X148467622Y-122620500D01*
X148481728Y-122621292D01*
X148517035Y-122625270D01*
X148573211Y-122614640D01*
X148577772Y-122613865D01*
X148634287Y-122605348D01*
X148634291Y-122605346D01*
X148640468Y-122604415D01*
X148644946Y-122602942D01*
X148650467Y-122600023D01*
X148650472Y-122600023D01*
X148701027Y-122573302D01*
X148705190Y-122571202D01*
X148756642Y-122546425D01*
X148756643Y-122546423D01*
X148762260Y-122543719D01*
X148766128Y-122540974D01*
X148770533Y-122536568D01*
X148770538Y-122536566D01*
X148810962Y-122496140D01*
X148814302Y-122492923D01*
X148856194Y-122454055D01*
X148856195Y-122454053D01*
X148860764Y-122449814D01*
X148872219Y-122434883D01*
X149975661Y-121331440D01*
X149986178Y-121322041D01*
X150013970Y-121299879D01*
X150046191Y-121252618D01*
X150048855Y-121248863D01*
X150082793Y-121202882D01*
X150082793Y-121202880D01*
X150086501Y-121197857D01*
X150088632Y-121193636D01*
X150090470Y-121187675D01*
X150090472Y-121187673D01*
X150107318Y-121133053D01*
X150108770Y-121128641D01*
X150127646Y-121074699D01*
X150127646Y-121074693D01*
X150129706Y-121068807D01*
X150130500Y-121064138D01*
X150130500Y-121000785D01*
X150130588Y-120996074D01*
X150130650Y-120994407D01*
X150132724Y-120938990D01*
X150132723Y-120938987D01*
X150132956Y-120932768D01*
X150130500Y-120914101D01*
X150130500Y-120415770D01*
X150141886Y-120363428D01*
X150165165Y-120312457D01*
X150185647Y-120170000D01*
X150165165Y-120027543D01*
X150105377Y-119896627D01*
X150011128Y-119787857D01*
X150011127Y-119787856D01*
X150011126Y-119787855D01*
X149890053Y-119710047D01*
X149885782Y-119708793D01*
X149874327Y-119705429D01*
X149820732Y-119673629D01*
X148607405Y-118460302D01*
X148573379Y-118397990D01*
X148570500Y-118371207D01*
X148570500Y-117385769D01*
X148581884Y-117333432D01*
X148581887Y-117333426D01*
X148587751Y-117320585D01*
X148613266Y-117283835D01*
X149655661Y-116241440D01*
X149666178Y-116232041D01*
X149693970Y-116209879D01*
X149726191Y-116162618D01*
X149728855Y-116158863D01*
X149762793Y-116112882D01*
X149762793Y-116112880D01*
X149766501Y-116107857D01*
X149768632Y-116103636D01*
X149770470Y-116097675D01*
X149770472Y-116097673D01*
X149787318Y-116043053D01*
X149788770Y-116038641D01*
X149807646Y-115984699D01*
X149807646Y-115984695D01*
X149809707Y-115978806D01*
X149810500Y-115974140D01*
X149810500Y-115910801D01*
X149810588Y-115906089D01*
X149812725Y-115848990D01*
X149812724Y-115848987D01*
X149812957Y-115842767D01*
X149810500Y-115824097D01*
X149810500Y-115545000D01*
X150750000Y-115545000D01*
X150750000Y-115954460D01*
X150750359Y-115961176D01*
X150756402Y-116017375D01*
X150806646Y-116152088D01*
X150892810Y-116267189D01*
X151007911Y-116353353D01*
X151142624Y-116403597D01*
X151198823Y-116409640D01*
X151205539Y-116410000D01*
X151680000Y-116410000D01*
X151680000Y-115545000D01*
X152180000Y-115545000D01*
X152180000Y-116410000D01*
X152654461Y-116410000D01*
X152661176Y-116409640D01*
X152717375Y-116403597D01*
X152852088Y-116353353D01*
X152967189Y-116267189D01*
X153053353Y-116152088D01*
X153103597Y-116017375D01*
X153109640Y-115961176D01*
X153110000Y-115954460D01*
X153110000Y-115545000D01*
X152180000Y-115545000D01*
X151680000Y-115545000D01*
X150750000Y-115545000D01*
X149810500Y-115545000D01*
X149810500Y-115045000D01*
X150750000Y-115045000D01*
X151680000Y-115045000D01*
X151680000Y-114180000D01*
X152180000Y-114180000D01*
X152180000Y-115045000D01*
X153110000Y-115045000D01*
X153110000Y-114635539D01*
X153109640Y-114628823D01*
X153103597Y-114572624D01*
X153053353Y-114437911D01*
X152967189Y-114322810D01*
X152852088Y-114236646D01*
X152717375Y-114186402D01*
X152661176Y-114180359D01*
X152654461Y-114180000D01*
X152180000Y-114180000D01*
X151680000Y-114180000D01*
X151205539Y-114180000D01*
X151198823Y-114180359D01*
X151142624Y-114186402D01*
X151007911Y-114236646D01*
X150892810Y-114322810D01*
X150806646Y-114437911D01*
X150756402Y-114572624D01*
X150750359Y-114628823D01*
X150750000Y-114635539D01*
X150750000Y-115045000D01*
X149810500Y-115045000D01*
X149810500Y-113092377D01*
X149811292Y-113078270D01*
X149815270Y-113042965D01*
X149804643Y-112986805D01*
X149803860Y-112982194D01*
X149803846Y-112982098D01*
X149795348Y-112925713D01*
X149795347Y-112925711D01*
X149794417Y-112919540D01*
X149792939Y-112915046D01*
X149790023Y-112909529D01*
X149790023Y-112909528D01*
X149763315Y-112858996D01*
X149761209Y-112854825D01*
X149760006Y-112852327D01*
X149736425Y-112803358D01*
X149736422Y-112803355D01*
X149733718Y-112797739D01*
X149730974Y-112793871D01*
X149719134Y-112782031D01*
X149686163Y-112749060D01*
X149682947Y-112745722D01*
X149644055Y-112703806D01*
X149644051Y-112703804D01*
X149639816Y-112699239D01*
X149624881Y-112687778D01*
X148507405Y-111570301D01*
X148501642Y-111559748D01*
X151049500Y-111559748D01*
X151058825Y-111606627D01*
X151061133Y-111618231D01*
X151105447Y-111684552D01*
X151149761Y-111714162D01*
X151171769Y-111728867D01*
X151230252Y-111740500D01*
X152197628Y-111740500D01*
X152265749Y-111760502D01*
X152286723Y-111777405D01*
X152388902Y-111879584D01*
X152422928Y-111941896D01*
X152424524Y-111950747D01*
X152434834Y-112022456D01*
X152494623Y-112153373D01*
X152538724Y-112204269D01*
X152568217Y-112268849D01*
X152569500Y-112286781D01*
X152569500Y-112330581D01*
X152566818Y-112356438D01*
X152564956Y-112365314D01*
X152568532Y-112393993D01*
X152569446Y-112408724D01*
X152572658Y-112427972D01*
X152573408Y-112433117D01*
X152580352Y-112488811D01*
X152607057Y-112538159D01*
X152609440Y-112542788D01*
X152634082Y-112593194D01*
X152639581Y-112598256D01*
X152639582Y-112598258D01*
X152660531Y-112617543D01*
X152675373Y-112631206D01*
X152679130Y-112634812D01*
X154253025Y-114208707D01*
X154287051Y-114271019D01*
X154288647Y-114279870D01*
X154304834Y-114392456D01*
X154349899Y-114491133D01*
X154364623Y-114523373D01*
X154385297Y-114547232D01*
X154458873Y-114632144D01*
X154502612Y-114660253D01*
X154579947Y-114709953D01*
X154672525Y-114737136D01*
X154718038Y-114750500D01*
X154718039Y-114750500D01*
X154861962Y-114750500D01*
X154907475Y-114737136D01*
X155000053Y-114709953D01*
X155121128Y-114632143D01*
X155215377Y-114523373D01*
X155275165Y-114392457D01*
X155295647Y-114250000D01*
X155275165Y-114107543D01*
X155215377Y-113976627D01*
X155121128Y-113867857D01*
X155121127Y-113867856D01*
X155121126Y-113867855D01*
X155000053Y-113790047D01*
X154861962Y-113749500D01*
X154861961Y-113749500D01*
X154837372Y-113749500D01*
X154769251Y-113729498D01*
X154748277Y-113712595D01*
X153355757Y-112320075D01*
X153321731Y-112257763D01*
X153326796Y-112186948D01*
X153340895Y-112163186D01*
X153345375Y-112153374D01*
X153345377Y-112153373D01*
X153405165Y-112022457D01*
X153425647Y-111880000D01*
X153425219Y-111877026D01*
X153405165Y-111737543D01*
X153383820Y-111690805D01*
X153345377Y-111606627D01*
X153251128Y-111497857D01*
X153251127Y-111497856D01*
X153251126Y-111497855D01*
X153130053Y-111420047D01*
X152991962Y-111379500D01*
X152991961Y-111379500D01*
X152936500Y-111379500D01*
X152868379Y-111359498D01*
X152821886Y-111305842D01*
X152810500Y-111253500D01*
X152810500Y-110290253D01*
X152809215Y-110283793D01*
X152798867Y-110231769D01*
X152774097Y-110194698D01*
X152754552Y-110165447D01*
X152688231Y-110121133D01*
X152629748Y-110109500D01*
X151230252Y-110109500D01*
X151201010Y-110115316D01*
X151171768Y-110121133D01*
X151105447Y-110165447D01*
X151061133Y-110231768D01*
X151061132Y-110231769D01*
X151061133Y-110231769D01*
X151049500Y-110290252D01*
X151049500Y-111559748D01*
X148501642Y-111559748D01*
X148473379Y-111507989D01*
X148470500Y-111481206D01*
X148470500Y-110536847D01*
X148490502Y-110468726D01*
X148507405Y-110447752D01*
X150987752Y-107967405D01*
X151050064Y-107933379D01*
X151076847Y-107930500D01*
X151619635Y-107930500D01*
X151655129Y-107935603D01*
X151685665Y-107944568D01*
X151739266Y-107976370D01*
X153957595Y-110194698D01*
X153991620Y-110257010D01*
X153994500Y-110283793D01*
X153994500Y-111702621D01*
X153993708Y-111716728D01*
X153989729Y-111752036D01*
X154000345Y-111808140D01*
X154001134Y-111812783D01*
X154010579Y-111875444D01*
X154012068Y-111879970D01*
X154041673Y-111935984D01*
X154043797Y-111940190D01*
X154071274Y-111997246D01*
X154074037Y-112001141D01*
X154078433Y-112005537D01*
X154078434Y-112005538D01*
X154118832Y-112045936D01*
X154122075Y-112049303D01*
X154165181Y-112095761D01*
X154180118Y-112107222D01*
X154336729Y-112263833D01*
X154362247Y-112300585D01*
X154404621Y-112393371D01*
X154498873Y-112502144D01*
X154533097Y-112524138D01*
X154619947Y-112579953D01*
X154717491Y-112608594D01*
X154758038Y-112620500D01*
X154758039Y-112620500D01*
X154901962Y-112620500D01*
X154933305Y-112611296D01*
X155040053Y-112579953D01*
X155161128Y-112502143D01*
X155255377Y-112393373D01*
X155315165Y-112262457D01*
X155335647Y-112120000D01*
X155315165Y-111977543D01*
X155255377Y-111846627D01*
X155161128Y-111737857D01*
X155161127Y-111737856D01*
X155161126Y-111737855D01*
X155040054Y-111660047D01*
X155031325Y-111657484D01*
X155024327Y-111655429D01*
X154970731Y-111623628D01*
X154932403Y-111585299D01*
X154898379Y-111522987D01*
X154895500Y-111496205D01*
X154895500Y-110621500D01*
X154915502Y-110553379D01*
X154969158Y-110506886D01*
X155021500Y-110495500D01*
X155210913Y-110495500D01*
X155279034Y-110515502D01*
X155306137Y-110538988D01*
X155308870Y-110542142D01*
X155362623Y-110576687D01*
X155429947Y-110619953D01*
X155505166Y-110642039D01*
X155568038Y-110660500D01*
X155568039Y-110660500D01*
X155711962Y-110660500D01*
X155743305Y-110651296D01*
X155850053Y-110619953D01*
X155971128Y-110542143D01*
X156065377Y-110433373D01*
X156125165Y-110302457D01*
X156145647Y-110160000D01*
X156125165Y-110017543D01*
X156065377Y-109886627D01*
X155971128Y-109777857D01*
X155971127Y-109777856D01*
X155850050Y-109700045D01*
X155815303Y-109689842D01*
X155775983Y-109670327D01*
X155737882Y-109642207D01*
X155737880Y-109642206D01*
X155732868Y-109638507D01*
X155728620Y-109636362D01*
X155704783Y-109629009D01*
X155668041Y-109617676D01*
X155663593Y-109616212D01*
X155603831Y-109595300D01*
X155599119Y-109594500D01*
X155592902Y-109594500D01*
X155535785Y-109594500D01*
X155531074Y-109594412D01*
X155467763Y-109592043D01*
X155449101Y-109594500D01*
X154683793Y-109594500D01*
X154615672Y-109574498D01*
X154594698Y-109557595D01*
X152373271Y-107336168D01*
X152347753Y-107299416D01*
X152305377Y-107206628D01*
X152305377Y-107206627D01*
X152211128Y-107097857D01*
X152211127Y-107097856D01*
X152211126Y-107097855D01*
X152090053Y-107020047D01*
X151951962Y-106979500D01*
X151951961Y-106979500D01*
X151808039Y-106979500D01*
X151808038Y-106979500D01*
X151655135Y-107024396D01*
X151619637Y-107029500D01*
X150870432Y-107029500D01*
X150856326Y-107028708D01*
X150821019Y-107024730D01*
X150821018Y-107024730D01*
X150764886Y-107035350D01*
X150760245Y-107036138D01*
X150697614Y-107045579D01*
X150693082Y-107047070D01*
X150687581Y-107049977D01*
X150687582Y-107049977D01*
X150637074Y-107076671D01*
X150632882Y-107078787D01*
X150575810Y-107106272D01*
X150571912Y-107109038D01*
X150527126Y-107153823D01*
X150523735Y-107157089D01*
X150477298Y-107200177D01*
X150465836Y-107215113D01*
X149936596Y-107744354D01*
X149874283Y-107778379D01*
X149803468Y-107773315D01*
X149746632Y-107730768D01*
X149721821Y-107664248D01*
X149721500Y-107655259D01*
X149721500Y-104133795D01*
X149721979Y-104122814D01*
X149725286Y-104085016D01*
X149715462Y-104048355D01*
X149713086Y-104037635D01*
X149710072Y-104020541D01*
X149706497Y-104000261D01*
X149706496Y-104000260D01*
X149706292Y-103999099D01*
X149696072Y-103974426D01*
X149695394Y-103973458D01*
X149695394Y-103973457D01*
X149673624Y-103942366D01*
X149667729Y-103933113D01*
X149648750Y-103900240D01*
X149648748Y-103900238D01*
X149620516Y-103876548D01*
X149581191Y-103817438D01*
X149576792Y-103797960D01*
X149555165Y-103647543D01*
X149495377Y-103516628D01*
X149495377Y-103516627D01*
X149401128Y-103407857D01*
X149401127Y-103407856D01*
X149401126Y-103407855D01*
X149280053Y-103330047D01*
X149141962Y-103289500D01*
X149141961Y-103289500D01*
X148998039Y-103289500D01*
X148998038Y-103289500D01*
X148859946Y-103330047D01*
X148738873Y-103407855D01*
X148644622Y-103516628D01*
X148584834Y-103647543D01*
X148564352Y-103790000D01*
X148584834Y-103932456D01*
X148615800Y-104000261D01*
X148644623Y-104063373D01*
X148738872Y-104172143D01*
X148738873Y-104172144D01*
X148799409Y-104211048D01*
X148859947Y-104249953D01*
X148975998Y-104284028D01*
X149035724Y-104322411D01*
X149065217Y-104386992D01*
X149066500Y-104404924D01*
X149066500Y-106129155D01*
X149046498Y-106197276D01*
X148992842Y-106243769D01*
X148922568Y-106253873D01*
X148857988Y-106224379D01*
X148851405Y-106218251D01*
X148812654Y-106179500D01*
X148762435Y-106129281D01*
X148728412Y-106066972D01*
X148726815Y-106058120D01*
X148705165Y-105907543D01*
X148680712Y-105854000D01*
X148645377Y-105776627D01*
X148551128Y-105667857D01*
X148551127Y-105667856D01*
X148551126Y-105667855D01*
X148430053Y-105590047D01*
X148291962Y-105549500D01*
X148291961Y-105549500D01*
X148148039Y-105549500D01*
X148148038Y-105549500D01*
X148009946Y-105590047D01*
X147888873Y-105667855D01*
X147794622Y-105776628D01*
X147734834Y-105907543D01*
X147714352Y-106050000D01*
X147734834Y-106192456D01*
X147794622Y-106323371D01*
X147794623Y-106323373D01*
X147886545Y-106429457D01*
X147888873Y-106432144D01*
X147915152Y-106449032D01*
X148009947Y-106509953D01*
X148107491Y-106538594D01*
X148148038Y-106550500D01*
X148148039Y-106550500D01*
X148205156Y-106550500D01*
X148273277Y-106570502D01*
X148294251Y-106587405D01*
X148375595Y-106668749D01*
X148409621Y-106731061D01*
X148412500Y-106757844D01*
X148412500Y-107932154D01*
X148392498Y-108000275D01*
X148375596Y-108021249D01*
X148311251Y-108085595D01*
X148248939Y-108119620D01*
X148222155Y-108122500D01*
X145587845Y-108122500D01*
X145519724Y-108102498D01*
X145498750Y-108085595D01*
X145429321Y-108016166D01*
X145395295Y-107953854D01*
X145400360Y-107883039D01*
X145442907Y-107826203D01*
X145455054Y-107820122D01*
X145454813Y-107819747D01*
X145591126Y-107732144D01*
X145591125Y-107732144D01*
X145591128Y-107732143D01*
X145685377Y-107623373D01*
X145745165Y-107492457D01*
X145765647Y-107350000D01*
X145745165Y-107207543D01*
X145724464Y-107162216D01*
X145714361Y-107091944D01*
X145734314Y-107039874D01*
X145744656Y-107024396D01*
X145788867Y-106958231D01*
X145800500Y-106899748D01*
X145800500Y-106640784D01*
X145800588Y-106636074D01*
X145801140Y-106621316D01*
X145802724Y-106578990D01*
X145802723Y-106578987D01*
X145802956Y-106572768D01*
X145800500Y-106554101D01*
X145800500Y-106360253D01*
X145793164Y-106323373D01*
X145788867Y-106301769D01*
X145754276Y-106250001D01*
X145733061Y-106182250D01*
X145751843Y-106113783D01*
X145754277Y-106109997D01*
X145767973Y-106089500D01*
X145788867Y-106058231D01*
X145800500Y-105999748D01*
X145800500Y-105460252D01*
X145788867Y-105401769D01*
X145769393Y-105372624D01*
X145744552Y-105335447D01*
X145678231Y-105291133D01*
X145678230Y-105291133D01*
X145619748Y-105279500D01*
X145137557Y-105279500D01*
X145069436Y-105259498D01*
X145036689Y-105229009D01*
X144957190Y-105122812D01*
X144842088Y-105036646D01*
X144707375Y-104986402D01*
X144651176Y-104980359D01*
X144644461Y-104980000D01*
X144600000Y-104980000D01*
X144600000Y-105854000D01*
X144579998Y-105922121D01*
X144526342Y-105968614D01*
X144474000Y-105980000D01*
X143599999Y-105980000D01*
X143585672Y-105994327D01*
X143523360Y-106028353D01*
X143452545Y-106023288D01*
X143407482Y-105994327D01*
X142893155Y-105480000D01*
X143600000Y-105480000D01*
X144100000Y-105480000D01*
X144100000Y-104980000D01*
X144055539Y-104980000D01*
X144048823Y-104980359D01*
X143992624Y-104986402D01*
X143857911Y-105036646D01*
X143742810Y-105122810D01*
X143656646Y-105237911D01*
X143606402Y-105372624D01*
X143600359Y-105428823D01*
X143600000Y-105435539D01*
X143600000Y-105480000D01*
X142893155Y-105480000D01*
X139654405Y-102241250D01*
X139620379Y-102178938D01*
X139617500Y-102152155D01*
X139617500Y-102039999D01*
X145254352Y-102039999D01*
X145274834Y-102182456D01*
X145284831Y-102204345D01*
X145334623Y-102313373D01*
X145428872Y-102422143D01*
X145428873Y-102422144D01*
X145479454Y-102454650D01*
X145549947Y-102499953D01*
X145647491Y-102528594D01*
X145688038Y-102540500D01*
X145688039Y-102540500D01*
X145831962Y-102540500D01*
X145863305Y-102531296D01*
X145970053Y-102499953D01*
X145984759Y-102490501D01*
X146052879Y-102470500D01*
X150869637Y-102470500D01*
X150905135Y-102475604D01*
X151058038Y-102520500D01*
X151058039Y-102520500D01*
X151201962Y-102520500D01*
X151233305Y-102511296D01*
X151340053Y-102479953D01*
X151461128Y-102402143D01*
X151555377Y-102293373D01*
X151615165Y-102162457D01*
X151635647Y-102020000D01*
X151615165Y-101877543D01*
X151555377Y-101746627D01*
X151461128Y-101637857D01*
X151461127Y-101637856D01*
X151461126Y-101637855D01*
X151340053Y-101560047D01*
X151201962Y-101519500D01*
X151201961Y-101519500D01*
X151058039Y-101519500D01*
X151058038Y-101519500D01*
X150905135Y-101564396D01*
X150869637Y-101569500D01*
X145952248Y-101569500D01*
X145916750Y-101564396D01*
X145831962Y-101539500D01*
X145831961Y-101539500D01*
X145688039Y-101539500D01*
X145688038Y-101539500D01*
X145549946Y-101580047D01*
X145428873Y-101657855D01*
X145334622Y-101766628D01*
X145274834Y-101897543D01*
X145254352Y-102039999D01*
X139617500Y-102039999D01*
X139617500Y-100542511D01*
X143170000Y-100542511D01*
X143170324Y-100548908D01*
X143185418Y-100697333D01*
X143246303Y-100891389D01*
X143345003Y-101069213D01*
X143477481Y-101223532D01*
X143638306Y-101348020D01*
X143820904Y-101437588D01*
X143920000Y-101463244D01*
X143920000Y-100661110D01*
X143944457Y-100700610D01*
X144033962Y-100768201D01*
X144141840Y-100798895D01*
X144253521Y-100788546D01*
X144353922Y-100738552D01*
X144420000Y-100666069D01*
X144420000Y-101468365D01*
X144420001Y-101468366D01*
X144421943Y-101468070D01*
X144612667Y-101397434D01*
X144785260Y-101289856D01*
X144932672Y-101149730D01*
X145048855Y-100982806D01*
X145129060Y-100795905D01*
X145170000Y-100596689D01*
X145170000Y-100048377D01*
X145190002Y-99980256D01*
X145243658Y-99933763D01*
X145313932Y-99923659D01*
X145344214Y-99931966D01*
X145449764Y-99975687D01*
X145562280Y-99990500D01*
X145566402Y-99990500D01*
X145633598Y-99990500D01*
X145637720Y-99990500D01*
X145750236Y-99975687D01*
X145890233Y-99917698D01*
X146010451Y-99825451D01*
X146102698Y-99705233D01*
X146160687Y-99565236D01*
X146180466Y-99415000D01*
X146180466Y-99414999D01*
X150799534Y-99414999D01*
X150819312Y-99565235D01*
X150877301Y-99705232D01*
X150898764Y-99733203D01*
X150969549Y-99825451D01*
X151089767Y-99917698D01*
X151229764Y-99975687D01*
X151342280Y-99990500D01*
X151346402Y-99990500D01*
X151413598Y-99990500D01*
X151417720Y-99990500D01*
X151530236Y-99975687D01*
X151635782Y-99931967D01*
X151706371Y-99924379D01*
X151769858Y-99956158D01*
X151806086Y-100017216D01*
X151810000Y-100048377D01*
X151810000Y-100542511D01*
X151810324Y-100548908D01*
X151825418Y-100697333D01*
X151886303Y-100891389D01*
X151985003Y-101069213D01*
X152117481Y-101223532D01*
X152278306Y-101348020D01*
X152460904Y-101437588D01*
X152560000Y-101463244D01*
X152560000Y-100661110D01*
X152584457Y-100700610D01*
X152673962Y-100768201D01*
X152781840Y-100798895D01*
X152893521Y-100788546D01*
X152993922Y-100738552D01*
X153060000Y-100666069D01*
X153060000Y-101468365D01*
X153060001Y-101468366D01*
X153061943Y-101468070D01*
X153252667Y-101397434D01*
X153425260Y-101289856D01*
X153572672Y-101149730D01*
X153688855Y-100982806D01*
X153769060Y-100795905D01*
X153810000Y-100596689D01*
X153810000Y-100195000D01*
X153110000Y-100195000D01*
X153110000Y-99695000D01*
X153810000Y-99695000D01*
X153810000Y-99347488D01*
X153809675Y-99341091D01*
X153794581Y-99192666D01*
X153733696Y-98998610D01*
X153634996Y-98820786D01*
X153502518Y-98666467D01*
X153341693Y-98541979D01*
X153159096Y-98452412D01*
X153060000Y-98426754D01*
X153060000Y-99228889D01*
X153035543Y-99189390D01*
X152946038Y-99121799D01*
X152838160Y-99091105D01*
X152726479Y-99101454D01*
X152626078Y-99151448D01*
X152560000Y-99223930D01*
X152560000Y-98421634D01*
X152559999Y-98421633D01*
X152558053Y-98421931D01*
X152367332Y-98492565D01*
X152194739Y-98600143D01*
X152047327Y-98740269D01*
X151931143Y-98907194D01*
X151928774Y-98912716D01*
X151883527Y-98967426D01*
X151815884Y-98988989D01*
X151747321Y-98970558D01*
X151736288Y-98962988D01*
X151670233Y-98912302D01*
X151670232Y-98912301D01*
X151530235Y-98854312D01*
X151421807Y-98840038D01*
X151421806Y-98840037D01*
X151417720Y-98839500D01*
X151342280Y-98839500D01*
X151338194Y-98840037D01*
X151338192Y-98840038D01*
X151229764Y-98854312D01*
X151089767Y-98912301D01*
X150969549Y-99004549D01*
X150877301Y-99124767D01*
X150819312Y-99264764D01*
X150799534Y-99414999D01*
X146180466Y-99414999D01*
X146160687Y-99264764D01*
X146102698Y-99124767D01*
X146010451Y-99004549D01*
X145890233Y-98912302D01*
X145890232Y-98912301D01*
X145750235Y-98854312D01*
X145641807Y-98840038D01*
X145641806Y-98840037D01*
X145637720Y-98839500D01*
X145562280Y-98839500D01*
X145558194Y-98840037D01*
X145558192Y-98840038D01*
X145449764Y-98854312D01*
X145309765Y-98912302D01*
X145240583Y-98965387D01*
X145174363Y-98990987D01*
X145104814Y-98976722D01*
X145054018Y-98927120D01*
X145053712Y-98926572D01*
X144994996Y-98820786D01*
X144862518Y-98666467D01*
X144701693Y-98541979D01*
X144519096Y-98452412D01*
X144420000Y-98426754D01*
X144420000Y-99228889D01*
X144395543Y-99189390D01*
X144306038Y-99121799D01*
X144198160Y-99091105D01*
X144086479Y-99101454D01*
X143986078Y-99151448D01*
X143920000Y-99223930D01*
X143920000Y-98421634D01*
X143919999Y-98421633D01*
X143918053Y-98421931D01*
X143727332Y-98492565D01*
X143554739Y-98600143D01*
X143407327Y-98740269D01*
X143291144Y-98907193D01*
X143210939Y-99094094D01*
X143170000Y-99293310D01*
X143170000Y-99695000D01*
X143870000Y-99695000D01*
X143870000Y-100195000D01*
X143170000Y-100195000D01*
X143170000Y-100542511D01*
X139617500Y-100542511D01*
X139617500Y-100199795D01*
X139617979Y-100188814D01*
X139621286Y-100151016D01*
X139611462Y-100114355D01*
X139609086Y-100103635D01*
X139608601Y-100100886D01*
X139602497Y-100066261D01*
X139602496Y-100066260D01*
X139602292Y-100065099D01*
X139592072Y-100040426D01*
X139591394Y-100039458D01*
X139591394Y-100039457D01*
X139569624Y-100008366D01*
X139563729Y-99999113D01*
X139544750Y-99966240D01*
X139515681Y-99941848D01*
X139507578Y-99934423D01*
X138705581Y-99132427D01*
X138698154Y-99124322D01*
X138673760Y-99095250D01*
X138666581Y-99091105D01*
X138640888Y-99076271D01*
X138631624Y-99070369D01*
X138599576Y-99047928D01*
X138574899Y-99037706D01*
X138536364Y-99030911D01*
X138525637Y-99028533D01*
X138488984Y-99018712D01*
X138451188Y-99022020D01*
X138440205Y-99022500D01*
X138050948Y-99022500D01*
X137982827Y-99002498D01*
X137936334Y-98948842D01*
X137925091Y-98902495D01*
X137922316Y-98844242D01*
X137873263Y-98642041D01*
X137786825Y-98452767D01*
X137666138Y-98283287D01*
X137644719Y-98262864D01*
X137515548Y-98139699D01*
X137465605Y-98107602D01*
X137340507Y-98027207D01*
X137147344Y-97949876D01*
X136943035Y-97910500D01*
X135009098Y-97910500D01*
X135006123Y-97910784D01*
X135006124Y-97910784D01*
X134875770Y-97923231D01*
X134840644Y-97921656D01*
X134780958Y-97910500D01*
X134780957Y-97910500D01*
X134711500Y-97910500D01*
X134643379Y-97890498D01*
X134596886Y-97836842D01*
X134585500Y-97784500D01*
X134585500Y-94821500D01*
X134605502Y-94753379D01*
X134659158Y-94706886D01*
X134711500Y-94695500D01*
X143245996Y-94695500D01*
X143314117Y-94715502D01*
G37*
G04 #@! TD.AperFunction*
G04 #@! TA.AperFunction,Conductor*
G36*
X152190099Y-134260500D02*
G01*
X152549900Y-134260499D01*
X152558219Y-134259403D01*
X152628363Y-134270337D01*
X152667807Y-134305340D01*
X152669025Y-134304123D01*
X152794621Y-134429719D01*
X152797713Y-134431548D01*
X152846165Y-134483441D01*
X152858869Y-134553292D01*
X152831792Y-134618923D01*
X152797713Y-134648452D01*
X152794621Y-134650280D01*
X152669026Y-134775876D01*
X152667527Y-134774377D01*
X152631220Y-134808271D01*
X152561368Y-134820969D01*
X152558238Y-134820597D01*
X152553990Y-134820038D01*
X152553985Y-134820037D01*
X152549901Y-134819500D01*
X152545779Y-134819500D01*
X152194224Y-134819500D01*
X152194208Y-134819500D01*
X152190100Y-134819501D01*
X152186021Y-134820037D01*
X152186019Y-134820038D01*
X152178947Y-134820969D01*
X152141988Y-134825833D01*
X152071840Y-134814892D01*
X152024479Y-134776152D01*
X152014688Y-134763000D01*
X151002000Y-134763000D01*
X150933879Y-134742998D01*
X150887386Y-134689342D01*
X150876000Y-134637000D01*
X150876000Y-134441000D01*
X150896002Y-134372879D01*
X150949658Y-134326386D01*
X151002000Y-134315000D01*
X152017860Y-134315000D01*
X152021169Y-134309969D01*
X152075313Y-134264045D01*
X152142885Y-134254284D01*
X152190099Y-134260500D01*
G37*
G04 #@! TD.AperFunction*
G04 #@! TA.AperFunction,Conductor*
G36*
X138340277Y-99697502D02*
G01*
X138361251Y-99714405D01*
X138925595Y-100278749D01*
X138959621Y-100341061D01*
X138962500Y-100367844D01*
X138962500Y-101887206D01*
X138942498Y-101955327D01*
X138888842Y-102001820D01*
X138818568Y-102011924D01*
X138753988Y-101982430D01*
X138747405Y-101976302D01*
X138553529Y-101782427D01*
X138546102Y-101774322D01*
X138521708Y-101745250D01*
X138488836Y-101726271D01*
X138479572Y-101720369D01*
X138447524Y-101697928D01*
X138422847Y-101687706D01*
X138384312Y-101680911D01*
X138373585Y-101678533D01*
X138336932Y-101668712D01*
X138299136Y-101672020D01*
X138288153Y-101672500D01*
X137968149Y-101672500D01*
X137900028Y-101652498D01*
X137853535Y-101598842D01*
X137786825Y-101452767D01*
X137666138Y-101283287D01*
X137603469Y-101223532D01*
X137515548Y-101139699D01*
X137405869Y-101069213D01*
X137340507Y-101027207D01*
X137147344Y-100949876D01*
X136943035Y-100910500D01*
X135009098Y-100910500D01*
X135006123Y-100910784D01*
X135006124Y-100910784D01*
X134875770Y-100923231D01*
X134840644Y-100921656D01*
X134780958Y-100910500D01*
X134780957Y-100910500D01*
X134711500Y-100910500D01*
X134643379Y-100890498D01*
X134596886Y-100836842D01*
X134585500Y-100784500D01*
X134585500Y-100215500D01*
X134605502Y-100147379D01*
X134659158Y-100100886D01*
X134711500Y-100089500D01*
X134780953Y-100089500D01*
X134780957Y-100089500D01*
X134846799Y-100077192D01*
X134893789Y-100077323D01*
X134956965Y-100089500D01*
X134956966Y-100089500D01*
X136887901Y-100089500D01*
X136890902Y-100089500D01*
X137046127Y-100074678D01*
X137245768Y-100016058D01*
X137430708Y-99920715D01*
X137594261Y-99792095D01*
X137655876Y-99720987D01*
X137715604Y-99682604D01*
X137751101Y-99677500D01*
X138272156Y-99677500D01*
X138340277Y-99697502D01*
G37*
G04 #@! TD.AperFunction*
G04 #@! TD*
M02*
