G04 #@! TF.GenerationSoftware,KiCad,Pcbnew,7.0.2*
G04 #@! TF.CreationDate,2023-08-11T05:28:22+05:00*
G04 #@! TF.ProjectId,Adafruit QT Py ESP32-C3,41646166-7275-4697-9420-515420507920,rev?*
G04 #@! TF.SameCoordinates,Original*
G04 #@! TF.FileFunction,Legend,Bot*
G04 #@! TF.FilePolarity,Positive*
%FSLAX46Y46*%
G04 Gerber Fmt 4.6, Leading zero omitted, Abs format (unit mm)*
G04 Created by KiCad (PCBNEW 7.0.2) date 2023-08-11 05:28:22*
%MOMM*%
%LPD*%
G01*
G04 APERTURE LIST*
%ADD10C,0.154340*%
%ADD11C,0.125000*%
%ADD12C,0.075000*%
%ADD13C,0.112500*%
%ADD14C,0.120000*%
%ADD15C,0.127000*%
%ADD16C,0.304800*%
%ADD17C,0.254000*%
%ADD18C,0.249000*%
%ADD19C,0.203200*%
G04 APERTURE END LIST*
D10*
X152837170Y-108540000D02*
G75*
G03*
X152837170Y-108540000I-77170J0D01*
G01*
D11*
G36*
X143786668Y-132261843D02*
G01*
X143796134Y-132271310D01*
X143808809Y-132296659D01*
X143808809Y-132362263D01*
X143600476Y-132362263D01*
X143600476Y-132296660D01*
X143613151Y-132271308D01*
X143622618Y-132261842D01*
X143647968Y-132249168D01*
X143761316Y-132249168D01*
X143786668Y-132261843D01*
G37*
G36*
X143607651Y-131924359D02*
G01*
X143600476Y-131910008D01*
X143600476Y-131844279D01*
X143608370Y-131828490D01*
X143624158Y-131820597D01*
X143628404Y-131820597D01*
X143607651Y-131924359D01*
G37*
G36*
X143786668Y-131380891D02*
G01*
X143796134Y-131390358D01*
X143808809Y-131415707D01*
X143808809Y-131481311D01*
X143600476Y-131481311D01*
X143600476Y-131415708D01*
X143613151Y-131390356D01*
X143622618Y-131380890D01*
X143647968Y-131368216D01*
X143761316Y-131368216D01*
X143786668Y-131380891D01*
G37*
G36*
X143800915Y-130614205D02*
G01*
X143808809Y-130629992D01*
X143808809Y-130719406D01*
X143743333Y-130719406D01*
X143743333Y-130629993D01*
X143751227Y-130614204D01*
X143767015Y-130606311D01*
X143785126Y-130606311D01*
X143800915Y-130614205D01*
G37*
G36*
X144305179Y-132908989D02*
G01*
X142974821Y-132908989D01*
X142974821Y-132434033D01*
X143306833Y-132434033D01*
X143322080Y-132467420D01*
X143352957Y-132487263D01*
X143553917Y-132487263D01*
X143564080Y-132489862D01*
X143571900Y-132487263D01*
X143846390Y-132487263D01*
X143863638Y-132487871D01*
X143864662Y-132487263D01*
X143880296Y-132487263D01*
X143906526Y-132479561D01*
X143930562Y-132451823D01*
X143935785Y-132415493D01*
X143929625Y-132402005D01*
X143933809Y-132395496D01*
X143933809Y-132382723D01*
X143936071Y-132370151D01*
X143933809Y-132364697D01*
X143933809Y-132285272D01*
X143935418Y-132270370D01*
X143929705Y-132258945D01*
X143926107Y-132246689D01*
X143921644Y-132242821D01*
X143906906Y-132213345D01*
X143904671Y-132203069D01*
X143892496Y-132190894D01*
X143880764Y-132178282D01*
X143879580Y-132177979D01*
X143873425Y-132171824D01*
X143868055Y-132162782D01*
X143852648Y-132155079D01*
X143837536Y-132146827D01*
X143836318Y-132146914D01*
X143807033Y-132132272D01*
X143794423Y-132124168D01*
X143781650Y-132124168D01*
X143769078Y-132121906D01*
X143763624Y-132124168D01*
X143636580Y-132124168D01*
X143621678Y-132122559D01*
X143610253Y-132128271D01*
X143597997Y-132131870D01*
X143594129Y-132136332D01*
X143564653Y-132151070D01*
X143554377Y-132153306D01*
X143542202Y-132165480D01*
X143529590Y-132177213D01*
X143529287Y-132178396D01*
X143523132Y-132184551D01*
X143514090Y-132189922D01*
X143506387Y-132205328D01*
X143498135Y-132220441D01*
X143498222Y-132221658D01*
X143483580Y-132250943D01*
X143475476Y-132263554D01*
X143475476Y-132276327D01*
X143473214Y-132288899D01*
X143475476Y-132294353D01*
X143475476Y-132362263D01*
X143362322Y-132362263D01*
X143336092Y-132369965D01*
X143312056Y-132397703D01*
X143306833Y-132434033D01*
X142974821Y-132434033D01*
X142974821Y-131836518D01*
X143473214Y-131836518D01*
X143475476Y-131841972D01*
X143475476Y-131921396D01*
X143473867Y-131936299D01*
X143479578Y-131947723D01*
X143483178Y-131959980D01*
X143487640Y-131963847D01*
X143498761Y-131986089D01*
X143498676Y-131988519D01*
X143506898Y-132002363D01*
X143509902Y-132008370D01*
X143511463Y-132010048D01*
X143517419Y-132020076D01*
X143523721Y-132023227D01*
X143528521Y-132028387D01*
X143539819Y-132031276D01*
X143578442Y-132050588D01*
X143591052Y-132058692D01*
X143603824Y-132058692D01*
X143616396Y-132060954D01*
X143621851Y-132058692D01*
X143646286Y-132058692D01*
X143653468Y-132061234D01*
X143664276Y-132058692D01*
X143666010Y-132058692D01*
X143672985Y-132056643D01*
X143689197Y-132052831D01*
X143690476Y-132051507D01*
X143692240Y-132050990D01*
X143703142Y-132038408D01*
X143714710Y-132026445D01*
X143715070Y-132024643D01*
X143716276Y-132023252D01*
X143718646Y-132006760D01*
X143755880Y-131820597D01*
X143785126Y-131820597D01*
X143800915Y-131828491D01*
X143808809Y-131844278D01*
X143808809Y-131910008D01*
X143787579Y-131952470D01*
X143782738Y-131979375D01*
X143796798Y-132013278D01*
X143826957Y-132034197D01*
X143863638Y-132035490D01*
X143895195Y-132016747D01*
X143925706Y-131955722D01*
X143933809Y-131943115D01*
X143933809Y-131930342D01*
X143936071Y-131917770D01*
X143933809Y-131912316D01*
X143933809Y-131832891D01*
X143935418Y-131817989D01*
X143929705Y-131806564D01*
X143926107Y-131794308D01*
X143921644Y-131790440D01*
X143910522Y-131768196D01*
X143910608Y-131765767D01*
X143902391Y-131751935D01*
X143899383Y-131745917D01*
X143897817Y-131744234D01*
X143891864Y-131734211D01*
X143885563Y-131731061D01*
X143880764Y-131725901D01*
X143869463Y-131723010D01*
X143830842Y-131703701D01*
X143818232Y-131695597D01*
X143805458Y-131695597D01*
X143792886Y-131693335D01*
X143787432Y-131695597D01*
X143715379Y-131695597D01*
X143708197Y-131693055D01*
X143697389Y-131695597D01*
X143612770Y-131695597D01*
X143597868Y-131693988D01*
X143586443Y-131699700D01*
X143574187Y-131703299D01*
X143570319Y-131707761D01*
X143548075Y-131718883D01*
X143545647Y-131718798D01*
X143531812Y-131727014D01*
X143525796Y-131730023D01*
X143524114Y-131731586D01*
X143514090Y-131737541D01*
X143510939Y-131743842D01*
X143505780Y-131748642D01*
X143502890Y-131759940D01*
X143483580Y-131798562D01*
X143475476Y-131811173D01*
X143475476Y-131823946D01*
X143473214Y-131836518D01*
X142974821Y-131836518D01*
X142974821Y-131407947D01*
X143473214Y-131407947D01*
X143475476Y-131413401D01*
X143475476Y-131492825D01*
X143473867Y-131507728D01*
X143478646Y-131517286D01*
X143473500Y-131553081D01*
X143488747Y-131586468D01*
X143519624Y-131606311D01*
X143553917Y-131606311D01*
X143564080Y-131608910D01*
X143571900Y-131606311D01*
X143846390Y-131606311D01*
X143863638Y-131606919D01*
X143864662Y-131606311D01*
X143939369Y-131606311D01*
X143954275Y-131607920D01*
X143965699Y-131602207D01*
X143977955Y-131598609D01*
X143981822Y-131594145D01*
X144011298Y-131579407D01*
X144021574Y-131577172D01*
X144033740Y-131565005D01*
X144046363Y-131553264D01*
X144046665Y-131552080D01*
X144052816Y-131545929D01*
X144061860Y-131540558D01*
X144069562Y-131525152D01*
X144077816Y-131510038D01*
X144077728Y-131508820D01*
X144092372Y-131479534D01*
X144100476Y-131466925D01*
X144100476Y-131454152D01*
X144102738Y-131441581D01*
X144100476Y-131436126D01*
X144100476Y-131380513D01*
X144102085Y-131365607D01*
X144096372Y-131354182D01*
X144092774Y-131341927D01*
X144088310Y-131338059D01*
X144066048Y-131293535D01*
X144047429Y-131273519D01*
X144011870Y-131264426D01*
X143977040Y-131276002D01*
X143953996Y-131304571D01*
X143950057Y-131341062D01*
X143975476Y-131391898D01*
X143975476Y-131433818D01*
X143962799Y-131459170D01*
X143953335Y-131468634D01*
X143933809Y-131478398D01*
X143933809Y-131404320D01*
X143935418Y-131389418D01*
X143929705Y-131377993D01*
X143926107Y-131365737D01*
X143921644Y-131361869D01*
X143906906Y-131332393D01*
X143904671Y-131322117D01*
X143892496Y-131309942D01*
X143880764Y-131297330D01*
X143879580Y-131297027D01*
X143873425Y-131290872D01*
X143868055Y-131281830D01*
X143852648Y-131274127D01*
X143837536Y-131265875D01*
X143836318Y-131265962D01*
X143807033Y-131251320D01*
X143794423Y-131243216D01*
X143781650Y-131243216D01*
X143769078Y-131240954D01*
X143763624Y-131243216D01*
X143636580Y-131243216D01*
X143621678Y-131241607D01*
X143610253Y-131247319D01*
X143597997Y-131250918D01*
X143594129Y-131255380D01*
X143564653Y-131270118D01*
X143554377Y-131272354D01*
X143542202Y-131284528D01*
X143529590Y-131296261D01*
X143529287Y-131297444D01*
X143523132Y-131303599D01*
X143514090Y-131308970D01*
X143506387Y-131324376D01*
X143498135Y-131339489D01*
X143498222Y-131340706D01*
X143483580Y-131369991D01*
X143475476Y-131382602D01*
X143475476Y-131395375D01*
X143473214Y-131407947D01*
X142974821Y-131407947D01*
X142974821Y-131122232D01*
X143473214Y-131122232D01*
X143475476Y-131127686D01*
X143475476Y-131171845D01*
X143483178Y-131198075D01*
X143510916Y-131222111D01*
X143547246Y-131227334D01*
X143580633Y-131212087D01*
X143600476Y-131181210D01*
X143600476Y-131129993D01*
X143613151Y-131104641D01*
X143622616Y-131095177D01*
X143647969Y-131082501D01*
X143880296Y-131082501D01*
X143906526Y-131074799D01*
X143930562Y-131047061D01*
X143935785Y-131010731D01*
X143920538Y-130977344D01*
X143889661Y-130957501D01*
X143636583Y-130957501D01*
X143621677Y-130955892D01*
X143618459Y-130957501D01*
X143528989Y-130957501D01*
X143502759Y-130965203D01*
X143478723Y-130992941D01*
X143473500Y-131029271D01*
X143488747Y-131062658D01*
X143493017Y-131065402D01*
X143483580Y-131084276D01*
X143475476Y-131096887D01*
X143475476Y-131109660D01*
X143473214Y-131122232D01*
X142974821Y-131122232D01*
X142974821Y-130622232D01*
X143473214Y-130622232D01*
X143475476Y-130627686D01*
X143475476Y-130707110D01*
X143473867Y-130722013D01*
X143479578Y-130733437D01*
X143483178Y-130745694D01*
X143487640Y-130749561D01*
X143498761Y-130771803D01*
X143498676Y-130774233D01*
X143506898Y-130788077D01*
X143509902Y-130794084D01*
X143511463Y-130795762D01*
X143517419Y-130805790D01*
X143523721Y-130808941D01*
X143528521Y-130814101D01*
X143539819Y-130816990D01*
X143578442Y-130836302D01*
X143591052Y-130844406D01*
X143603824Y-130844406D01*
X143616396Y-130846668D01*
X143621851Y-130844406D01*
X143655897Y-130844406D01*
X143673160Y-130845015D01*
X143674185Y-130844406D01*
X143846390Y-130844406D01*
X143863638Y-130845014D01*
X143864662Y-130844406D01*
X143880296Y-130844406D01*
X143906526Y-130836704D01*
X143930562Y-130808966D01*
X143935785Y-130772636D01*
X143929625Y-130759148D01*
X143933809Y-130752639D01*
X143933809Y-130739866D01*
X143936071Y-130727294D01*
X143933809Y-130721840D01*
X143933809Y-130618605D01*
X143935418Y-130603703D01*
X143929705Y-130592278D01*
X143926107Y-130580022D01*
X143921644Y-130576154D01*
X143910522Y-130553910D01*
X143910608Y-130551481D01*
X143902391Y-130537649D01*
X143899383Y-130531631D01*
X143897817Y-130529948D01*
X143891864Y-130519925D01*
X143885563Y-130516775D01*
X143880764Y-130511615D01*
X143869463Y-130508724D01*
X143830842Y-130489415D01*
X143818232Y-130481311D01*
X143805458Y-130481311D01*
X143792886Y-130479049D01*
X143787432Y-130481311D01*
X143755627Y-130481311D01*
X143740725Y-130479702D01*
X143729300Y-130485414D01*
X143717044Y-130489013D01*
X143713176Y-130493475D01*
X143690932Y-130504597D01*
X143688504Y-130504512D01*
X143674669Y-130512728D01*
X143668653Y-130515737D01*
X143666971Y-130517300D01*
X143656947Y-130523255D01*
X143653796Y-130529556D01*
X143648637Y-130534356D01*
X143645747Y-130545654D01*
X143626437Y-130584276D01*
X143618333Y-130596887D01*
X143618333Y-130609660D01*
X143616071Y-130622232D01*
X143618333Y-130627686D01*
X143618333Y-130716493D01*
X143608370Y-130711511D01*
X143600476Y-130695722D01*
X143600476Y-130629993D01*
X143621706Y-130587533D01*
X143626547Y-130560627D01*
X143612486Y-130526724D01*
X143582327Y-130505805D01*
X143545647Y-130504512D01*
X143514090Y-130523255D01*
X143483580Y-130584276D01*
X143475476Y-130596887D01*
X143475476Y-130609660D01*
X143473214Y-130622232D01*
X142974821Y-130622232D01*
X142974821Y-130124509D01*
X143306833Y-130124509D01*
X143322080Y-130157896D01*
X143352957Y-130177739D01*
X143475476Y-130177739D01*
X143475476Y-130181089D01*
X143473214Y-130193661D01*
X143475476Y-130199115D01*
X143475476Y-130254729D01*
X143473867Y-130269632D01*
X143479578Y-130281056D01*
X143483178Y-130293313D01*
X143487640Y-130297180D01*
X143498761Y-130319422D01*
X143498676Y-130321852D01*
X143506898Y-130335696D01*
X143509902Y-130341703D01*
X143511463Y-130343381D01*
X143517419Y-130353409D01*
X143523721Y-130356560D01*
X143528521Y-130361720D01*
X143539819Y-130364609D01*
X143578442Y-130383921D01*
X143591052Y-130392025D01*
X143603824Y-130392025D01*
X143616396Y-130394287D01*
X143621851Y-130392025D01*
X143880296Y-130392025D01*
X143906526Y-130384323D01*
X143930562Y-130356585D01*
X143935785Y-130320255D01*
X143920538Y-130286868D01*
X143889661Y-130267025D01*
X143624159Y-130267025D01*
X143608370Y-130259130D01*
X143600476Y-130243341D01*
X143600476Y-130201422D01*
X143612318Y-130177739D01*
X143880296Y-130177739D01*
X143906526Y-130170037D01*
X143930562Y-130142299D01*
X143935785Y-130105969D01*
X143920538Y-130072582D01*
X143889661Y-130052739D01*
X143596872Y-130052739D01*
X143590242Y-130050266D01*
X143578874Y-130052739D01*
X143362322Y-130052739D01*
X143336092Y-130060441D01*
X143312056Y-130088179D01*
X143306833Y-130124509D01*
X142974821Y-130124509D01*
X142974821Y-129808069D01*
X143306213Y-129808069D01*
X143311656Y-129824399D01*
X143316511Y-129840932D01*
X143317433Y-129841731D01*
X143334762Y-129893716D01*
X143337948Y-129908361D01*
X143346978Y-129917391D01*
X143354270Y-129927883D01*
X143359728Y-129930141D01*
X143381089Y-129951502D01*
X143405082Y-129964603D01*
X143441692Y-129961986D01*
X143471074Y-129939990D01*
X143483901Y-129905600D01*
X143476099Y-129869736D01*
X143449745Y-129843383D01*
X143433809Y-129795572D01*
X143433809Y-129768239D01*
X143449746Y-129720428D01*
X143479761Y-129690414D01*
X143512171Y-129674208D01*
X143593288Y-129653930D01*
X143649329Y-129653930D01*
X143730446Y-129674209D01*
X143762857Y-129690415D01*
X143792872Y-129720429D01*
X143808809Y-129768238D01*
X143808809Y-129795573D01*
X143792872Y-129843382D01*
X143773142Y-129863113D01*
X143760040Y-129887106D01*
X143762657Y-129923716D01*
X143784652Y-129953098D01*
X143819042Y-129965926D01*
X143854906Y-129958125D01*
X143889309Y-129923722D01*
X143900990Y-129914318D01*
X143905029Y-129902199D01*
X143911150Y-129890991D01*
X143910728Y-129885100D01*
X143928123Y-129832913D01*
X143933809Y-129824067D01*
X143933809Y-129806859D01*
X143934432Y-129789633D01*
X143933809Y-129788581D01*
X143933809Y-129765934D01*
X143936405Y-129755743D01*
X143930962Y-129739415D01*
X143926107Y-129722879D01*
X143925184Y-129722079D01*
X143907857Y-129670098D01*
X143904671Y-129655450D01*
X143895639Y-129646418D01*
X143888350Y-129635930D01*
X143882892Y-129633672D01*
X143849616Y-129600397D01*
X143844246Y-129591355D01*
X143828836Y-129583649D01*
X143813725Y-129575399D01*
X143812508Y-129575485D01*
X143790168Y-129564315D01*
X143785223Y-129559056D01*
X143774076Y-129556269D01*
X143772174Y-129555318D01*
X143765383Y-129554096D01*
X143682160Y-129533290D01*
X143675375Y-129528930D01*
X143664718Y-129528930D01*
X143663462Y-129528616D01*
X143655742Y-129528930D01*
X143595882Y-129528930D01*
X143588241Y-129526345D01*
X143577901Y-129528930D01*
X143576608Y-129528930D01*
X143569200Y-129531105D01*
X143486000Y-129551905D01*
X143478820Y-129551130D01*
X143468540Y-129556269D01*
X143466480Y-129556785D01*
X143460534Y-129560272D01*
X143421796Y-129579642D01*
X143411520Y-129581878D01*
X143399343Y-129594055D01*
X143386732Y-129605786D01*
X143386429Y-129606968D01*
X143353307Y-129640091D01*
X143341630Y-129649493D01*
X143337590Y-129661611D01*
X143331469Y-129672822D01*
X143331890Y-129678711D01*
X143314493Y-129730897D01*
X143308809Y-129739744D01*
X143308809Y-129756949D01*
X143308186Y-129774177D01*
X143308809Y-129775228D01*
X143308809Y-129797877D01*
X143306213Y-129808069D01*
X142974821Y-129808069D01*
X142974821Y-129131012D01*
X144305179Y-129131012D01*
X144305179Y-132908989D01*
G37*
G36*
X142186668Y-132392794D02*
G01*
X142196134Y-132402261D01*
X142208809Y-132427610D01*
X142208809Y-132493214D01*
X142000476Y-132493214D01*
X142000476Y-132427611D01*
X142013151Y-132402259D01*
X142022618Y-132392793D01*
X142047968Y-132380119D01*
X142161316Y-132380119D01*
X142186668Y-132392794D01*
G37*
G36*
X142186668Y-131249937D02*
G01*
X142196134Y-131259404D01*
X142208809Y-131284753D01*
X142208809Y-131350357D01*
X142000476Y-131350357D01*
X142000476Y-131284754D01*
X142013151Y-131259402D01*
X142022618Y-131249936D01*
X142047968Y-131237262D01*
X142161316Y-131237262D01*
X142186668Y-131249937D01*
G37*
G36*
X142200915Y-130483251D02*
G01*
X142208809Y-130499038D01*
X142208809Y-130588452D01*
X142143333Y-130588452D01*
X142143333Y-130499039D01*
X142151227Y-130483250D01*
X142167015Y-130475357D01*
X142185126Y-130475357D01*
X142200915Y-130483251D01*
G37*
G36*
X142705179Y-133039941D02*
G01*
X141374821Y-133039941D01*
X141374821Y-132419850D01*
X141873214Y-132419850D01*
X141875476Y-132425304D01*
X141875476Y-132504728D01*
X141873867Y-132519631D01*
X141878646Y-132529189D01*
X141873500Y-132564984D01*
X141888747Y-132598371D01*
X141919624Y-132618214D01*
X141953917Y-132618214D01*
X141964080Y-132620813D01*
X141971900Y-132618214D01*
X142246390Y-132618214D01*
X142263638Y-132618822D01*
X142264662Y-132618214D01*
X142339369Y-132618214D01*
X142354275Y-132619823D01*
X142365699Y-132614110D01*
X142377955Y-132610512D01*
X142381822Y-132606048D01*
X142411298Y-132591310D01*
X142421574Y-132589075D01*
X142433740Y-132576908D01*
X142446363Y-132565167D01*
X142446665Y-132563983D01*
X142452816Y-132557832D01*
X142461860Y-132552461D01*
X142469562Y-132537055D01*
X142477816Y-132521941D01*
X142477728Y-132520723D01*
X142492372Y-132491437D01*
X142500476Y-132478828D01*
X142500476Y-132466055D01*
X142502738Y-132453484D01*
X142500476Y-132448029D01*
X142500476Y-132392416D01*
X142502085Y-132377510D01*
X142496372Y-132366085D01*
X142492774Y-132353830D01*
X142488310Y-132349962D01*
X142466048Y-132305438D01*
X142447429Y-132285422D01*
X142411870Y-132276329D01*
X142377040Y-132287905D01*
X142353996Y-132316474D01*
X142350057Y-132352965D01*
X142375476Y-132403801D01*
X142375476Y-132445721D01*
X142362799Y-132471073D01*
X142353335Y-132480537D01*
X142333809Y-132490301D01*
X142333809Y-132416223D01*
X142335418Y-132401321D01*
X142329705Y-132389896D01*
X142326107Y-132377640D01*
X142321644Y-132373772D01*
X142306906Y-132344296D01*
X142304671Y-132334020D01*
X142292496Y-132321845D01*
X142280764Y-132309233D01*
X142279580Y-132308930D01*
X142273425Y-132302775D01*
X142268055Y-132293733D01*
X142252648Y-132286030D01*
X142237536Y-132277778D01*
X142236318Y-132277865D01*
X142207033Y-132263223D01*
X142194423Y-132255119D01*
X142181650Y-132255119D01*
X142169078Y-132252857D01*
X142163624Y-132255119D01*
X142036580Y-132255119D01*
X142021678Y-132253510D01*
X142010253Y-132259222D01*
X141997997Y-132262821D01*
X141994129Y-132267283D01*
X141964653Y-132282021D01*
X141954377Y-132284257D01*
X141942202Y-132296431D01*
X141929590Y-132308164D01*
X141929287Y-132309347D01*
X141923132Y-132315502D01*
X141914090Y-132320873D01*
X141906387Y-132336279D01*
X141898135Y-132351392D01*
X141898222Y-132352609D01*
X141883580Y-132381894D01*
X141875476Y-132394505D01*
X141875476Y-132407278D01*
X141873214Y-132419850D01*
X141374821Y-132419850D01*
X141374821Y-131967469D01*
X141873214Y-131967469D01*
X141875476Y-131972923D01*
X141875476Y-132028537D01*
X141873867Y-132043440D01*
X141879578Y-132054864D01*
X141883178Y-132067121D01*
X141887640Y-132070988D01*
X141898761Y-132093230D01*
X141898676Y-132095660D01*
X141906898Y-132109504D01*
X141909902Y-132115511D01*
X141911463Y-132117189D01*
X141917419Y-132127217D01*
X141923721Y-132130368D01*
X141928521Y-132135528D01*
X141939819Y-132138417D01*
X141978442Y-132157729D01*
X141991052Y-132165833D01*
X142003824Y-132165833D01*
X142016396Y-132168095D01*
X142021851Y-132165833D01*
X142280296Y-132165833D01*
X142306526Y-132158131D01*
X142330562Y-132130393D01*
X142335785Y-132094063D01*
X142320538Y-132060676D01*
X142289661Y-132040833D01*
X142024159Y-132040833D01*
X142008370Y-132032938D01*
X142000476Y-132017149D01*
X142000476Y-131975230D01*
X142012318Y-131951547D01*
X142280296Y-131951547D01*
X142306526Y-131943845D01*
X142330562Y-131916107D01*
X142335785Y-131879777D01*
X142320538Y-131846390D01*
X142289661Y-131826547D01*
X141996872Y-131826547D01*
X141990242Y-131824074D01*
X141978874Y-131826547D01*
X141928989Y-131826547D01*
X141902759Y-131834249D01*
X141878723Y-131861987D01*
X141873500Y-131898317D01*
X141885757Y-131925158D01*
X141883580Y-131929513D01*
X141875476Y-131942124D01*
X141875476Y-131954897D01*
X141873214Y-131967469D01*
X141374821Y-131967469D01*
X141374821Y-131646305D01*
X141706336Y-131646305D01*
X141707839Y-131653218D01*
X141706833Y-131660222D01*
X141709771Y-131666656D01*
X141710276Y-131673715D01*
X141713127Y-131677524D01*
X141714138Y-131682169D01*
X141719139Y-131687171D01*
X141722080Y-131693609D01*
X141728031Y-131697433D01*
X141732271Y-131703097D01*
X141736728Y-131704759D01*
X141747764Y-131715795D01*
X141756084Y-131726909D01*
X141769089Y-131731759D01*
X141781273Y-131738412D01*
X141786016Y-131738072D01*
X141790473Y-131739735D01*
X141804035Y-131736784D01*
X141817883Y-131735794D01*
X141821691Y-131732942D01*
X141826338Y-131731932D01*
X141836152Y-131722117D01*
X141847265Y-131713798D01*
X141848927Y-131709341D01*
X141851842Y-131706425D01*
X141854145Y-131705750D01*
X141861761Y-131696960D01*
X141871074Y-131689989D01*
X141873546Y-131683360D01*
X141878181Y-131678012D01*
X141879005Y-131672277D01*
X141888747Y-131693609D01*
X141919624Y-131713452D01*
X142280296Y-131713452D01*
X142306526Y-131705750D01*
X142330562Y-131678012D01*
X142335785Y-131641682D01*
X142320538Y-131608295D01*
X142289661Y-131588452D01*
X141928989Y-131588452D01*
X141902759Y-131596154D01*
X141878723Y-131623892D01*
X141878404Y-131626108D01*
X141877109Y-131624379D01*
X141876099Y-131619735D01*
X141871097Y-131614733D01*
X141868157Y-131608295D01*
X141862204Y-131604469D01*
X141857964Y-131598805D01*
X141853506Y-131597142D01*
X141842481Y-131586117D01*
X141834157Y-131574997D01*
X141821144Y-131570143D01*
X141808965Y-131563493D01*
X141804223Y-131563831D01*
X141799768Y-131562170D01*
X141786205Y-131565119D01*
X141772355Y-131566110D01*
X141768546Y-131568960D01*
X141763903Y-131569971D01*
X141754090Y-131579782D01*
X141742973Y-131588106D01*
X141741310Y-131592562D01*
X141738395Y-131595477D01*
X141736092Y-131596154D01*
X141728475Y-131604943D01*
X141719163Y-131611915D01*
X141716690Y-131618543D01*
X141712056Y-131623892D01*
X141711048Y-131630897D01*
X141707659Y-131637105D01*
X141707998Y-131641848D01*
X141706336Y-131646305D01*
X141374821Y-131646305D01*
X141374821Y-131276993D01*
X141873214Y-131276993D01*
X141875476Y-131282447D01*
X141875476Y-131361871D01*
X141873867Y-131376774D01*
X141878646Y-131386332D01*
X141873500Y-131422127D01*
X141888747Y-131455514D01*
X141919624Y-131475357D01*
X141953917Y-131475357D01*
X141964080Y-131477956D01*
X141971900Y-131475357D01*
X142246390Y-131475357D01*
X142263638Y-131475965D01*
X142264662Y-131475357D01*
X142339369Y-131475357D01*
X142354275Y-131476966D01*
X142365699Y-131471253D01*
X142377955Y-131467655D01*
X142381822Y-131463191D01*
X142411298Y-131448453D01*
X142421574Y-131446218D01*
X142433740Y-131434051D01*
X142446363Y-131422310D01*
X142446665Y-131421126D01*
X142452816Y-131414975D01*
X142461860Y-131409604D01*
X142469562Y-131394198D01*
X142477816Y-131379084D01*
X142477728Y-131377866D01*
X142492372Y-131348580D01*
X142500476Y-131335971D01*
X142500476Y-131323198D01*
X142502738Y-131310627D01*
X142500476Y-131305172D01*
X142500476Y-131249559D01*
X142502085Y-131234653D01*
X142496372Y-131223228D01*
X142492774Y-131210973D01*
X142488310Y-131207105D01*
X142466048Y-131162581D01*
X142447429Y-131142565D01*
X142411870Y-131133472D01*
X142377040Y-131145048D01*
X142353996Y-131173617D01*
X142350057Y-131210108D01*
X142375476Y-131260944D01*
X142375476Y-131302864D01*
X142362799Y-131328216D01*
X142353335Y-131337680D01*
X142333809Y-131347444D01*
X142333809Y-131273366D01*
X142335418Y-131258464D01*
X142329705Y-131247039D01*
X142326107Y-131234783D01*
X142321644Y-131230915D01*
X142306906Y-131201439D01*
X142304671Y-131191163D01*
X142292496Y-131178988D01*
X142280764Y-131166376D01*
X142279580Y-131166073D01*
X142273425Y-131159918D01*
X142268055Y-131150876D01*
X142252648Y-131143173D01*
X142237536Y-131134921D01*
X142236318Y-131135008D01*
X142207033Y-131120366D01*
X142194423Y-131112262D01*
X142181650Y-131112262D01*
X142169078Y-131110000D01*
X142163624Y-131112262D01*
X142036580Y-131112262D01*
X142021678Y-131110653D01*
X142010253Y-131116365D01*
X141997997Y-131119964D01*
X141994129Y-131124426D01*
X141964653Y-131139164D01*
X141954377Y-131141400D01*
X141942202Y-131153574D01*
X141929590Y-131165307D01*
X141929287Y-131166490D01*
X141923132Y-131172645D01*
X141914090Y-131178016D01*
X141906387Y-131193422D01*
X141898135Y-131208535D01*
X141898222Y-131209752D01*
X141883580Y-131239037D01*
X141875476Y-131251648D01*
X141875476Y-131264421D01*
X141873214Y-131276993D01*
X141374821Y-131276993D01*
X141374821Y-130991278D01*
X141873214Y-130991278D01*
X141875476Y-130996732D01*
X141875476Y-131040891D01*
X141883178Y-131067121D01*
X141910916Y-131091157D01*
X141947246Y-131096380D01*
X141980633Y-131081133D01*
X142000476Y-131050256D01*
X142000476Y-130999039D01*
X142013151Y-130973687D01*
X142022616Y-130964223D01*
X142047969Y-130951547D01*
X142280296Y-130951547D01*
X142306526Y-130943845D01*
X142330562Y-130916107D01*
X142335785Y-130879777D01*
X142320538Y-130846390D01*
X142289661Y-130826547D01*
X142036583Y-130826547D01*
X142021677Y-130824938D01*
X142018459Y-130826547D01*
X141928989Y-130826547D01*
X141902759Y-130834249D01*
X141878723Y-130861987D01*
X141873500Y-130898317D01*
X141888747Y-130931704D01*
X141893017Y-130934448D01*
X141883580Y-130953322D01*
X141875476Y-130965933D01*
X141875476Y-130978706D01*
X141873214Y-130991278D01*
X141374821Y-130991278D01*
X141374821Y-130491278D01*
X141873214Y-130491278D01*
X141875476Y-130496732D01*
X141875476Y-130576156D01*
X141873867Y-130591059D01*
X141879578Y-130602483D01*
X141883178Y-130614740D01*
X141887640Y-130618607D01*
X141898761Y-130640849D01*
X141898676Y-130643279D01*
X141906898Y-130657123D01*
X141909902Y-130663130D01*
X141911463Y-130664808D01*
X141917419Y-130674836D01*
X141923721Y-130677987D01*
X141928521Y-130683147D01*
X141939819Y-130686036D01*
X141978442Y-130705348D01*
X141991052Y-130713452D01*
X142003824Y-130713452D01*
X142016396Y-130715714D01*
X142021851Y-130713452D01*
X142055897Y-130713452D01*
X142073160Y-130714061D01*
X142074185Y-130713452D01*
X142246390Y-130713452D01*
X142263638Y-130714060D01*
X142264662Y-130713452D01*
X142280296Y-130713452D01*
X142306526Y-130705750D01*
X142330562Y-130678012D01*
X142335785Y-130641682D01*
X142329625Y-130628194D01*
X142333809Y-130621685D01*
X142333809Y-130608912D01*
X142336071Y-130596340D01*
X142333809Y-130590886D01*
X142333809Y-130487651D01*
X142335418Y-130472749D01*
X142329705Y-130461324D01*
X142326107Y-130449068D01*
X142321644Y-130445200D01*
X142310522Y-130422956D01*
X142310608Y-130420527D01*
X142302391Y-130406695D01*
X142299383Y-130400677D01*
X142297817Y-130398994D01*
X142291864Y-130388971D01*
X142285563Y-130385821D01*
X142280764Y-130380661D01*
X142269463Y-130377770D01*
X142230842Y-130358461D01*
X142218232Y-130350357D01*
X142205458Y-130350357D01*
X142192886Y-130348095D01*
X142187432Y-130350357D01*
X142155627Y-130350357D01*
X142140725Y-130348748D01*
X142129300Y-130354460D01*
X142117044Y-130358059D01*
X142113176Y-130362521D01*
X142090932Y-130373643D01*
X142088504Y-130373558D01*
X142074669Y-130381774D01*
X142068653Y-130384783D01*
X142066971Y-130386346D01*
X142056947Y-130392301D01*
X142053796Y-130398602D01*
X142048637Y-130403402D01*
X142045747Y-130414700D01*
X142026437Y-130453322D01*
X142018333Y-130465933D01*
X142018333Y-130478706D01*
X142016071Y-130491278D01*
X142018333Y-130496732D01*
X142018333Y-130585539D01*
X142008370Y-130580557D01*
X142000476Y-130564768D01*
X142000476Y-130499039D01*
X142021706Y-130456579D01*
X142026547Y-130429673D01*
X142012486Y-130395770D01*
X141982327Y-130374851D01*
X141945647Y-130373558D01*
X141914090Y-130392301D01*
X141883580Y-130453322D01*
X141875476Y-130465933D01*
X141875476Y-130478706D01*
X141873214Y-130491278D01*
X141374821Y-130491278D01*
X141374821Y-129993555D01*
X141706833Y-129993555D01*
X141722080Y-130026942D01*
X141752957Y-130046785D01*
X141875476Y-130046785D01*
X141875476Y-130050135D01*
X141873214Y-130062707D01*
X141875476Y-130068161D01*
X141875476Y-130123775D01*
X141873867Y-130138678D01*
X141879578Y-130150102D01*
X141883178Y-130162359D01*
X141887640Y-130166226D01*
X141898761Y-130188468D01*
X141898676Y-130190898D01*
X141906898Y-130204742D01*
X141909902Y-130210749D01*
X141911463Y-130212427D01*
X141917419Y-130222455D01*
X141923721Y-130225606D01*
X141928521Y-130230766D01*
X141939819Y-130233655D01*
X141978442Y-130252967D01*
X141991052Y-130261071D01*
X142003824Y-130261071D01*
X142016396Y-130263333D01*
X142021851Y-130261071D01*
X142280296Y-130261071D01*
X142306526Y-130253369D01*
X142330562Y-130225631D01*
X142335785Y-130189301D01*
X142320538Y-130155914D01*
X142289661Y-130136071D01*
X142024159Y-130136071D01*
X142008370Y-130128176D01*
X142000476Y-130112387D01*
X142000476Y-130070468D01*
X142012318Y-130046785D01*
X142280296Y-130046785D01*
X142306526Y-130039083D01*
X142330562Y-130011345D01*
X142335785Y-129975015D01*
X142320538Y-129941628D01*
X142289661Y-129921785D01*
X141996872Y-129921785D01*
X141990242Y-129919312D01*
X141978874Y-129921785D01*
X141762322Y-129921785D01*
X141736092Y-129929487D01*
X141712056Y-129957225D01*
X141706833Y-129993555D01*
X141374821Y-129993555D01*
X141374821Y-129677115D01*
X141706213Y-129677115D01*
X141711656Y-129693445D01*
X141716511Y-129709978D01*
X141717433Y-129710777D01*
X141734762Y-129762762D01*
X141737948Y-129777407D01*
X141746978Y-129786437D01*
X141754270Y-129796929D01*
X141759728Y-129799187D01*
X141781089Y-129820548D01*
X141805082Y-129833649D01*
X141841692Y-129831032D01*
X141871074Y-129809036D01*
X141883901Y-129774646D01*
X141876099Y-129738782D01*
X141849746Y-129712429D01*
X141833809Y-129664618D01*
X141833809Y-129637285D01*
X141849746Y-129589474D01*
X141879761Y-129559460D01*
X141912171Y-129543254D01*
X141993288Y-129522976D01*
X142049329Y-129522976D01*
X142130446Y-129543255D01*
X142162857Y-129559461D01*
X142192872Y-129589475D01*
X142208809Y-129637284D01*
X142208809Y-129664620D01*
X142192872Y-129712428D01*
X142173142Y-129732159D01*
X142160040Y-129756152D01*
X142162657Y-129792762D01*
X142184652Y-129822144D01*
X142219042Y-129834972D01*
X142254906Y-129827171D01*
X142289309Y-129792768D01*
X142300990Y-129783364D01*
X142305029Y-129771245D01*
X142311150Y-129760037D01*
X142310728Y-129754146D01*
X142328123Y-129701959D01*
X142333809Y-129693113D01*
X142333809Y-129675905D01*
X142334432Y-129658679D01*
X142333809Y-129657627D01*
X142333809Y-129634980D01*
X142336405Y-129624789D01*
X142330962Y-129608461D01*
X142326107Y-129591925D01*
X142325184Y-129591125D01*
X142307857Y-129539144D01*
X142304671Y-129524496D01*
X142295639Y-129515464D01*
X142288350Y-129504976D01*
X142282892Y-129502718D01*
X142249616Y-129469443D01*
X142244246Y-129460401D01*
X142228836Y-129452695D01*
X142213725Y-129444445D01*
X142212508Y-129444531D01*
X142190168Y-129433361D01*
X142185223Y-129428102D01*
X142174076Y-129425315D01*
X142172174Y-129424364D01*
X142165383Y-129423142D01*
X142082160Y-129402336D01*
X142075375Y-129397976D01*
X142064718Y-129397976D01*
X142063462Y-129397662D01*
X142055742Y-129397976D01*
X141995882Y-129397976D01*
X141988241Y-129395391D01*
X141977901Y-129397976D01*
X141976608Y-129397976D01*
X141969200Y-129400151D01*
X141886000Y-129420951D01*
X141878820Y-129420176D01*
X141868540Y-129425315D01*
X141866480Y-129425831D01*
X141860534Y-129429318D01*
X141821796Y-129448688D01*
X141811520Y-129450924D01*
X141799343Y-129463101D01*
X141786732Y-129474832D01*
X141786429Y-129476014D01*
X141753307Y-129509137D01*
X141741630Y-129518539D01*
X141737590Y-129530657D01*
X141731469Y-129541868D01*
X141731890Y-129547757D01*
X141714493Y-129599943D01*
X141708809Y-129608790D01*
X141708809Y-129625995D01*
X141708186Y-129643223D01*
X141708809Y-129644274D01*
X141708809Y-129666923D01*
X141706213Y-129677115D01*
X141374821Y-129677115D01*
X141374821Y-129000059D01*
X142705179Y-129000059D01*
X142705179Y-133039941D01*
G37*
G36*
X138765952Y-123190905D02*
G01*
X138668951Y-123158572D01*
X138765952Y-123126238D01*
X138765952Y-123190905D01*
G37*
G36*
X138646904Y-122715246D02*
G01*
X138634228Y-122740597D01*
X138624763Y-122750062D01*
X138599411Y-122762739D01*
X138581302Y-122762739D01*
X138555949Y-122750062D01*
X138546485Y-122740598D01*
X138533809Y-122715246D01*
X138533809Y-122625834D01*
X138646904Y-122625834D01*
X138646904Y-122715246D01*
G37*
G36*
X138908809Y-122739055D02*
G01*
X138896134Y-122764406D01*
X138886668Y-122773872D01*
X138861317Y-122786548D01*
X138819396Y-122786548D01*
X138794045Y-122773872D01*
X138787841Y-122767668D01*
X138773741Y-122725368D01*
X138774166Y-122723008D01*
X138771904Y-122717554D01*
X138771904Y-122625834D01*
X138908809Y-122625834D01*
X138908809Y-122739055D01*
G37*
G36*
X139405179Y-124499940D02*
G01*
X138074821Y-124499940D01*
X138074821Y-123953556D01*
X138406833Y-123953556D01*
X138408809Y-123957882D01*
X138408809Y-124096130D01*
X138416511Y-124122360D01*
X138444249Y-124146396D01*
X138480579Y-124151619D01*
X138513966Y-124136372D01*
X138533809Y-124105495D01*
X138533809Y-124006786D01*
X138980296Y-124006786D01*
X139006526Y-123999084D01*
X139030562Y-123971346D01*
X139035785Y-123935016D01*
X139020538Y-123901629D01*
X138989661Y-123881786D01*
X138533809Y-123881786D01*
X138533809Y-123792442D01*
X138526107Y-123766212D01*
X138513760Y-123755513D01*
X138513966Y-123755420D01*
X138533809Y-123724543D01*
X138533809Y-123625834D01*
X138980296Y-123625834D01*
X139006526Y-123618132D01*
X139030562Y-123590394D01*
X139035785Y-123554064D01*
X139020538Y-123520677D01*
X138989661Y-123500834D01*
X138533809Y-123500834D01*
X138533809Y-123411490D01*
X138526107Y-123385260D01*
X138498369Y-123361224D01*
X138462039Y-123356001D01*
X138428652Y-123371248D01*
X138408809Y-123402125D01*
X138408809Y-123558859D01*
X138406833Y-123572604D01*
X138408809Y-123576930D01*
X138408809Y-123715178D01*
X138416511Y-123741408D01*
X138428857Y-123752106D01*
X138428652Y-123752200D01*
X138408809Y-123783077D01*
X138408809Y-123939811D01*
X138406833Y-123953556D01*
X138074821Y-123953556D01*
X138074821Y-123151638D01*
X138406540Y-123151638D01*
X138409404Y-123167471D01*
X138411117Y-123183472D01*
X138412640Y-123185364D01*
X138413073Y-123187755D01*
X138424043Y-123199527D01*
X138434134Y-123212061D01*
X138436438Y-123212829D01*
X138438096Y-123214608D01*
X138453697Y-123218582D01*
X138796905Y-123332985D01*
X138801392Y-123336873D01*
X138814009Y-123338687D01*
X138960070Y-123387374D01*
X138987390Y-123388361D01*
X139018964Y-123369648D01*
X139035407Y-123336834D01*
X139031501Y-123300339D01*
X139008483Y-123271750D01*
X138890952Y-123232572D01*
X138890952Y-123084572D01*
X138999599Y-123048357D01*
X139022047Y-123032755D01*
X139036078Y-122998840D01*
X139029545Y-122962723D01*
X139004522Y-122935871D01*
X138968955Y-122926810D01*
X138822713Y-122975556D01*
X138819182Y-122975049D01*
X138805520Y-122981287D01*
X138462270Y-123095703D01*
X138455228Y-123095449D01*
X138445194Y-123101395D01*
X138443019Y-123102121D01*
X138437504Y-123105953D01*
X138423654Y-123114163D01*
X138422564Y-123116337D01*
X138420571Y-123117723D01*
X138414423Y-123132582D01*
X138407210Y-123146977D01*
X138407468Y-123149393D01*
X138406540Y-123151638D01*
X138074821Y-123151638D01*
X138074821Y-122572604D01*
X138406833Y-122572604D01*
X138408809Y-122576930D01*
X138408809Y-122726632D01*
X138407200Y-122741538D01*
X138412912Y-122752962D01*
X138416511Y-122765218D01*
X138420974Y-122769085D01*
X138435712Y-122798561D01*
X138437948Y-122808837D01*
X138450114Y-122821003D01*
X138461856Y-122833626D01*
X138463039Y-122833928D01*
X138469190Y-122840079D01*
X138474562Y-122849123D01*
X138489967Y-122856825D01*
X138505082Y-122865079D01*
X138506299Y-122864991D01*
X138535585Y-122879635D01*
X138548195Y-122887739D01*
X138560967Y-122887739D01*
X138573539Y-122890001D01*
X138578994Y-122887739D01*
X138610797Y-122887739D01*
X138625703Y-122889348D01*
X138637127Y-122883635D01*
X138649383Y-122880037D01*
X138653250Y-122875573D01*
X138682725Y-122860836D01*
X138693001Y-122858601D01*
X138697365Y-122854236D01*
X138697822Y-122854425D01*
X138707286Y-122863890D01*
X138712658Y-122872934D01*
X138728068Y-122880638D01*
X138743176Y-122888889D01*
X138744394Y-122888801D01*
X138773682Y-122903445D01*
X138786290Y-122911548D01*
X138799063Y-122911548D01*
X138811635Y-122913810D01*
X138817089Y-122911548D01*
X138872705Y-122911548D01*
X138887607Y-122913157D01*
X138899031Y-122907445D01*
X138911288Y-122903846D01*
X138915155Y-122899383D01*
X138944630Y-122884645D01*
X138954907Y-122882410D01*
X138967084Y-122870232D01*
X138979695Y-122858503D01*
X138979997Y-122857320D01*
X138986153Y-122851163D01*
X138995195Y-122845794D01*
X139002895Y-122830393D01*
X139011150Y-122815275D01*
X139011062Y-122814057D01*
X139025706Y-122784769D01*
X139033809Y-122772162D01*
X139033809Y-122759389D01*
X139036071Y-122746817D01*
X139033809Y-122741363D01*
X139033809Y-122567808D01*
X139035785Y-122554064D01*
X139030017Y-122541434D01*
X139026107Y-122528117D01*
X139022513Y-122525003D01*
X139020538Y-122520677D01*
X139008861Y-122513173D01*
X138998369Y-122504081D01*
X138993660Y-122503404D01*
X138989661Y-122500834D01*
X138975784Y-122500834D01*
X138962039Y-122498858D01*
X138957712Y-122500834D01*
X138713879Y-122500834D01*
X138700134Y-122498858D01*
X138695807Y-122500834D01*
X138475784Y-122500834D01*
X138462039Y-122498858D01*
X138449409Y-122504625D01*
X138436092Y-122508536D01*
X138432978Y-122512129D01*
X138428652Y-122514105D01*
X138421148Y-122525781D01*
X138412056Y-122536274D01*
X138411379Y-122540982D01*
X138408809Y-122544982D01*
X138408809Y-122558859D01*
X138406833Y-122572604D01*
X138074821Y-122572604D01*
X138074821Y-122144032D01*
X138525881Y-122144032D01*
X138541128Y-122177419D01*
X138572005Y-122197262D01*
X138718333Y-122197262D01*
X138718333Y-122334226D01*
X138726035Y-122360456D01*
X138753773Y-122384492D01*
X138790103Y-122389715D01*
X138823490Y-122374468D01*
X138843333Y-122343591D01*
X138843333Y-122197262D01*
X138980296Y-122197262D01*
X139006526Y-122189560D01*
X139030562Y-122161822D01*
X139035785Y-122125492D01*
X139020538Y-122092105D01*
X138989661Y-122072262D01*
X138843333Y-122072262D01*
X138843333Y-121935299D01*
X138835631Y-121909069D01*
X138807893Y-121885033D01*
X138771563Y-121879810D01*
X138738176Y-121895057D01*
X138718333Y-121925934D01*
X138718333Y-122072262D01*
X138581370Y-122072262D01*
X138555140Y-122079964D01*
X138531104Y-122107702D01*
X138525881Y-122144032D01*
X138074821Y-122144032D01*
X138074821Y-121460059D01*
X139405179Y-121460059D01*
X139405179Y-124499940D01*
G37*
G36*
X138908809Y-126589858D02*
G01*
X138892872Y-126637666D01*
X138862857Y-126667681D01*
X138830446Y-126683887D01*
X138749330Y-126704166D01*
X138693289Y-126704166D01*
X138612171Y-126683886D01*
X138579760Y-126667681D01*
X138549745Y-126637666D01*
X138533809Y-126589856D01*
X138533809Y-126543452D01*
X138908809Y-126543452D01*
X138908809Y-126589858D01*
G37*
G36*
X139405179Y-127227084D02*
G01*
X138074821Y-127227084D01*
X138074821Y-126602355D01*
X138406213Y-126602355D01*
X138411658Y-126618691D01*
X138416511Y-126635217D01*
X138417433Y-126636016D01*
X138434762Y-126688003D01*
X138437948Y-126702645D01*
X138446977Y-126711674D01*
X138454270Y-126722167D01*
X138459727Y-126724424D01*
X138493002Y-126757700D01*
X138498372Y-126766741D01*
X138513769Y-126774440D01*
X138528892Y-126782697D01*
X138530109Y-126782609D01*
X138552449Y-126793780D01*
X138557395Y-126799040D01*
X138568541Y-126801826D01*
X138570444Y-126802778D01*
X138577234Y-126803999D01*
X138660457Y-126824805D01*
X138667243Y-126829166D01*
X138677900Y-126829166D01*
X138679156Y-126829480D01*
X138686876Y-126829166D01*
X138746736Y-126829166D01*
X138754377Y-126831751D01*
X138764717Y-126829166D01*
X138766010Y-126829166D01*
X138773417Y-126826990D01*
X138856618Y-126806190D01*
X138863798Y-126806966D01*
X138874077Y-126801826D01*
X138876138Y-126801311D01*
X138882083Y-126797823D01*
X138920822Y-126778453D01*
X138931097Y-126776218D01*
X138943265Y-126764049D01*
X138955886Y-126752310D01*
X138956188Y-126751126D01*
X138989311Y-126718003D01*
X139000989Y-126708602D01*
X139005027Y-126696487D01*
X139011150Y-126685275D01*
X139010728Y-126679382D01*
X139028123Y-126627198D01*
X139033809Y-126618352D01*
X139033809Y-126601145D01*
X139034432Y-126583918D01*
X139033809Y-126582866D01*
X139033809Y-126485426D01*
X139035785Y-126471682D01*
X139030017Y-126459052D01*
X139026107Y-126445735D01*
X139022513Y-126442621D01*
X139020538Y-126438295D01*
X139008861Y-126430791D01*
X138998369Y-126421699D01*
X138993660Y-126421022D01*
X138989661Y-126418452D01*
X138975784Y-126418452D01*
X138962039Y-126416476D01*
X138957712Y-126418452D01*
X138475784Y-126418452D01*
X138462039Y-126416476D01*
X138449409Y-126422243D01*
X138436092Y-126426154D01*
X138432978Y-126429747D01*
X138428652Y-126431723D01*
X138421148Y-126443399D01*
X138412056Y-126453892D01*
X138411379Y-126458600D01*
X138408809Y-126462600D01*
X138408809Y-126476477D01*
X138406833Y-126490222D01*
X138408809Y-126494548D01*
X138408809Y-126592163D01*
X138406213Y-126602355D01*
X138074821Y-126602355D01*
X138074821Y-126252126D01*
X138406833Y-126252126D01*
X138422080Y-126285513D01*
X138452957Y-126305356D01*
X138963978Y-126305356D01*
X138974698Y-126307906D01*
X138990475Y-126302367D01*
X139006526Y-126297654D01*
X139007674Y-126296328D01*
X139009329Y-126295748D01*
X139019604Y-126282561D01*
X139030562Y-126269916D01*
X139030811Y-126268178D01*
X139031889Y-126266796D01*
X139033403Y-126250149D01*
X139035785Y-126233586D01*
X139035056Y-126231989D01*
X139035215Y-126230244D01*
X139027491Y-126215424D01*
X139020538Y-126200199D01*
X139019060Y-126199249D01*
X139018251Y-126197696D01*
X139003742Y-126189405D01*
X138989661Y-126180356D01*
X138987906Y-126180356D01*
X138706657Y-126019642D01*
X138980296Y-126019642D01*
X139006526Y-126011940D01*
X139030562Y-125984202D01*
X139035785Y-125947872D01*
X139020538Y-125914485D01*
X138989661Y-125894642D01*
X138478642Y-125894642D01*
X138467919Y-125892091D01*
X138452127Y-125897635D01*
X138436092Y-125902344D01*
X138434944Y-125903668D01*
X138433288Y-125904250D01*
X138423008Y-125917442D01*
X138412056Y-125930082D01*
X138411806Y-125931819D01*
X138410729Y-125933202D01*
X138409213Y-125949856D01*
X138406833Y-125966412D01*
X138407561Y-125968006D01*
X138407402Y-125969754D01*
X138415133Y-125984588D01*
X138422080Y-125999799D01*
X138423555Y-126000747D01*
X138424366Y-126002302D01*
X138438883Y-126010597D01*
X138452957Y-126019642D01*
X138454711Y-126019642D01*
X138735961Y-126180356D01*
X138462322Y-126180356D01*
X138436092Y-126188058D01*
X138412056Y-126215796D01*
X138406833Y-126252126D01*
X138074821Y-126252126D01*
X138074821Y-125682965D01*
X138407200Y-125682965D01*
X138412912Y-125694389D01*
X138416511Y-125706645D01*
X138420974Y-125710512D01*
X138443237Y-125755037D01*
X138461856Y-125775053D01*
X138497415Y-125784146D01*
X138532245Y-125772570D01*
X138555289Y-125744002D01*
X138559228Y-125707510D01*
X138533809Y-125656673D01*
X138533809Y-125610142D01*
X138549746Y-125562331D01*
X138579761Y-125532317D01*
X138612171Y-125516111D01*
X138693288Y-125495833D01*
X138749329Y-125495833D01*
X138830446Y-125516112D01*
X138862857Y-125532318D01*
X138892872Y-125562332D01*
X138908809Y-125610141D01*
X138908809Y-125637477D01*
X138894516Y-125680356D01*
X138819523Y-125680356D01*
X138819523Y-125638631D01*
X138811821Y-125612401D01*
X138784083Y-125588365D01*
X138747753Y-125583142D01*
X138714366Y-125598389D01*
X138694523Y-125629266D01*
X138694523Y-125738381D01*
X138692547Y-125752126D01*
X138698314Y-125764755D01*
X138702225Y-125778073D01*
X138705818Y-125781186D01*
X138707794Y-125785513D01*
X138719470Y-125793016D01*
X138729963Y-125802109D01*
X138734671Y-125802785D01*
X138738671Y-125805356D01*
X138752548Y-125805356D01*
X138766293Y-125807332D01*
X138770620Y-125805356D01*
X138912412Y-125805356D01*
X138919042Y-125807829D01*
X138930411Y-125805356D01*
X138932677Y-125805356D01*
X138939151Y-125803454D01*
X138954906Y-125800028D01*
X138956603Y-125798330D01*
X138958907Y-125797654D01*
X138969468Y-125785465D01*
X138989309Y-125765625D01*
X139000990Y-125756221D01*
X139005029Y-125744102D01*
X139011150Y-125732894D01*
X139010728Y-125727003D01*
X139028123Y-125674816D01*
X139033809Y-125665970D01*
X139033809Y-125648762D01*
X139034432Y-125631536D01*
X139033809Y-125630484D01*
X139033809Y-125607837D01*
X139036405Y-125597646D01*
X139030962Y-125581318D01*
X139026107Y-125564782D01*
X139025184Y-125563982D01*
X139007857Y-125512001D01*
X139004671Y-125497353D01*
X138995639Y-125488321D01*
X138988350Y-125477833D01*
X138982892Y-125475575D01*
X138949616Y-125442300D01*
X138944246Y-125433258D01*
X138928836Y-125425552D01*
X138913725Y-125417302D01*
X138912508Y-125417388D01*
X138890168Y-125406218D01*
X138885223Y-125400959D01*
X138874076Y-125398172D01*
X138872174Y-125397221D01*
X138865383Y-125395999D01*
X138782160Y-125375193D01*
X138775375Y-125370833D01*
X138764718Y-125370833D01*
X138763462Y-125370519D01*
X138755742Y-125370833D01*
X138695882Y-125370833D01*
X138688241Y-125368248D01*
X138677901Y-125370833D01*
X138676608Y-125370833D01*
X138669200Y-125373008D01*
X138586000Y-125393808D01*
X138578820Y-125393033D01*
X138568540Y-125398172D01*
X138566480Y-125398688D01*
X138560534Y-125402175D01*
X138521796Y-125421545D01*
X138511520Y-125423781D01*
X138499343Y-125435958D01*
X138486732Y-125447689D01*
X138486429Y-125448871D01*
X138453307Y-125481994D01*
X138441630Y-125491396D01*
X138437590Y-125503514D01*
X138431469Y-125514725D01*
X138431890Y-125520614D01*
X138414493Y-125572800D01*
X138408809Y-125581647D01*
X138408809Y-125598852D01*
X138408186Y-125616080D01*
X138408809Y-125617131D01*
X138408809Y-125668059D01*
X138407200Y-125682965D01*
X138074821Y-125682965D01*
X138074821Y-124972916D01*
X139405179Y-124972916D01*
X139405179Y-127227084D01*
G37*
G04 #@! TO.C,C8*
X140663333Y-114683690D02*
X140687142Y-114707500D01*
X140687142Y-114707500D02*
X140758571Y-114731309D01*
X140758571Y-114731309D02*
X140806190Y-114731309D01*
X140806190Y-114731309D02*
X140877618Y-114707500D01*
X140877618Y-114707500D02*
X140925237Y-114659880D01*
X140925237Y-114659880D02*
X140949047Y-114612261D01*
X140949047Y-114612261D02*
X140972856Y-114517023D01*
X140972856Y-114517023D02*
X140972856Y-114445595D01*
X140972856Y-114445595D02*
X140949047Y-114350357D01*
X140949047Y-114350357D02*
X140925237Y-114302738D01*
X140925237Y-114302738D02*
X140877618Y-114255119D01*
X140877618Y-114255119D02*
X140806190Y-114231309D01*
X140806190Y-114231309D02*
X140758571Y-114231309D01*
X140758571Y-114231309D02*
X140687142Y-114255119D01*
X140687142Y-114255119D02*
X140663333Y-114278928D01*
X140377618Y-114445595D02*
X140425237Y-114421785D01*
X140425237Y-114421785D02*
X140449047Y-114397976D01*
X140449047Y-114397976D02*
X140472856Y-114350357D01*
X140472856Y-114350357D02*
X140472856Y-114326547D01*
X140472856Y-114326547D02*
X140449047Y-114278928D01*
X140449047Y-114278928D02*
X140425237Y-114255119D01*
X140425237Y-114255119D02*
X140377618Y-114231309D01*
X140377618Y-114231309D02*
X140282380Y-114231309D01*
X140282380Y-114231309D02*
X140234761Y-114255119D01*
X140234761Y-114255119D02*
X140210952Y-114278928D01*
X140210952Y-114278928D02*
X140187142Y-114326547D01*
X140187142Y-114326547D02*
X140187142Y-114350357D01*
X140187142Y-114350357D02*
X140210952Y-114397976D01*
X140210952Y-114397976D02*
X140234761Y-114421785D01*
X140234761Y-114421785D02*
X140282380Y-114445595D01*
X140282380Y-114445595D02*
X140377618Y-114445595D01*
X140377618Y-114445595D02*
X140425237Y-114469404D01*
X140425237Y-114469404D02*
X140449047Y-114493214D01*
X140449047Y-114493214D02*
X140472856Y-114540833D01*
X140472856Y-114540833D02*
X140472856Y-114636071D01*
X140472856Y-114636071D02*
X140449047Y-114683690D01*
X140449047Y-114683690D02*
X140425237Y-114707500D01*
X140425237Y-114707500D02*
X140377618Y-114731309D01*
X140377618Y-114731309D02*
X140282380Y-114731309D01*
X140282380Y-114731309D02*
X140234761Y-114707500D01*
X140234761Y-114707500D02*
X140210952Y-114683690D01*
X140210952Y-114683690D02*
X140187142Y-114636071D01*
X140187142Y-114636071D02*
X140187142Y-114540833D01*
X140187142Y-114540833D02*
X140210952Y-114493214D01*
X140210952Y-114493214D02*
X140234761Y-114469404D01*
X140234761Y-114469404D02*
X140282380Y-114445595D01*
G04 #@! TO.C,C9*
X156253690Y-107006666D02*
X156277500Y-106982857D01*
X156277500Y-106982857D02*
X156301309Y-106911428D01*
X156301309Y-106911428D02*
X156301309Y-106863809D01*
X156301309Y-106863809D02*
X156277500Y-106792381D01*
X156277500Y-106792381D02*
X156229880Y-106744762D01*
X156229880Y-106744762D02*
X156182261Y-106720952D01*
X156182261Y-106720952D02*
X156087023Y-106697143D01*
X156087023Y-106697143D02*
X156015595Y-106697143D01*
X156015595Y-106697143D02*
X155920357Y-106720952D01*
X155920357Y-106720952D02*
X155872738Y-106744762D01*
X155872738Y-106744762D02*
X155825119Y-106792381D01*
X155825119Y-106792381D02*
X155801309Y-106863809D01*
X155801309Y-106863809D02*
X155801309Y-106911428D01*
X155801309Y-106911428D02*
X155825119Y-106982857D01*
X155825119Y-106982857D02*
X155848928Y-107006666D01*
X156301309Y-107244762D02*
X156301309Y-107340000D01*
X156301309Y-107340000D02*
X156277500Y-107387619D01*
X156277500Y-107387619D02*
X156253690Y-107411428D01*
X156253690Y-107411428D02*
X156182261Y-107459047D01*
X156182261Y-107459047D02*
X156087023Y-107482857D01*
X156087023Y-107482857D02*
X155896547Y-107482857D01*
X155896547Y-107482857D02*
X155848928Y-107459047D01*
X155848928Y-107459047D02*
X155825119Y-107435238D01*
X155825119Y-107435238D02*
X155801309Y-107387619D01*
X155801309Y-107387619D02*
X155801309Y-107292381D01*
X155801309Y-107292381D02*
X155825119Y-107244762D01*
X155825119Y-107244762D02*
X155848928Y-107220952D01*
X155848928Y-107220952D02*
X155896547Y-107197143D01*
X155896547Y-107197143D02*
X156015595Y-107197143D01*
X156015595Y-107197143D02*
X156063214Y-107220952D01*
X156063214Y-107220952D02*
X156087023Y-107244762D01*
X156087023Y-107244762D02*
X156110833Y-107292381D01*
X156110833Y-107292381D02*
X156110833Y-107387619D01*
X156110833Y-107387619D02*
X156087023Y-107435238D01*
X156087023Y-107435238D02*
X156063214Y-107459047D01*
X156063214Y-107459047D02*
X156015595Y-107482857D01*
G04 #@! TO.C,U2*
X147230952Y-106471309D02*
X147230952Y-106876071D01*
X147230952Y-106876071D02*
X147207142Y-106923690D01*
X147207142Y-106923690D02*
X147183333Y-106947500D01*
X147183333Y-106947500D02*
X147135714Y-106971309D01*
X147135714Y-106971309D02*
X147040476Y-106971309D01*
X147040476Y-106971309D02*
X146992857Y-106947500D01*
X146992857Y-106947500D02*
X146969047Y-106923690D01*
X146969047Y-106923690D02*
X146945238Y-106876071D01*
X146945238Y-106876071D02*
X146945238Y-106471309D01*
X146730951Y-106518928D02*
X146707142Y-106495119D01*
X146707142Y-106495119D02*
X146659523Y-106471309D01*
X146659523Y-106471309D02*
X146540475Y-106471309D01*
X146540475Y-106471309D02*
X146492856Y-106495119D01*
X146492856Y-106495119D02*
X146469047Y-106518928D01*
X146469047Y-106518928D02*
X146445237Y-106566547D01*
X146445237Y-106566547D02*
X146445237Y-106614166D01*
X146445237Y-106614166D02*
X146469047Y-106685595D01*
X146469047Y-106685595D02*
X146754761Y-106971309D01*
X146754761Y-106971309D02*
X146445237Y-106971309D01*
G04 #@! TO.C,R4*
X148521309Y-104796666D02*
X148283214Y-104630000D01*
X148521309Y-104510952D02*
X148021309Y-104510952D01*
X148021309Y-104510952D02*
X148021309Y-104701428D01*
X148021309Y-104701428D02*
X148045119Y-104749047D01*
X148045119Y-104749047D02*
X148068928Y-104772857D01*
X148068928Y-104772857D02*
X148116547Y-104796666D01*
X148116547Y-104796666D02*
X148187976Y-104796666D01*
X148187976Y-104796666D02*
X148235595Y-104772857D01*
X148235595Y-104772857D02*
X148259404Y-104749047D01*
X148259404Y-104749047D02*
X148283214Y-104701428D01*
X148283214Y-104701428D02*
X148283214Y-104510952D01*
X148187976Y-105225238D02*
X148521309Y-105225238D01*
X147997500Y-105106190D02*
X148354642Y-104987143D01*
X148354642Y-104987143D02*
X148354642Y-105296666D01*
G04 #@! TO.C,C7*
X153613333Y-108873690D02*
X153637142Y-108897500D01*
X153637142Y-108897500D02*
X153708571Y-108921309D01*
X153708571Y-108921309D02*
X153756190Y-108921309D01*
X153756190Y-108921309D02*
X153827618Y-108897500D01*
X153827618Y-108897500D02*
X153875237Y-108849880D01*
X153875237Y-108849880D02*
X153899047Y-108802261D01*
X153899047Y-108802261D02*
X153922856Y-108707023D01*
X153922856Y-108707023D02*
X153922856Y-108635595D01*
X153922856Y-108635595D02*
X153899047Y-108540357D01*
X153899047Y-108540357D02*
X153875237Y-108492738D01*
X153875237Y-108492738D02*
X153827618Y-108445119D01*
X153827618Y-108445119D02*
X153756190Y-108421309D01*
X153756190Y-108421309D02*
X153708571Y-108421309D01*
X153708571Y-108421309D02*
X153637142Y-108445119D01*
X153637142Y-108445119D02*
X153613333Y-108468928D01*
X153446666Y-108421309D02*
X153113333Y-108421309D01*
X153113333Y-108421309D02*
X153327618Y-108921309D01*
D12*
G04 #@! TO.C,C17*
X150620214Y-106247143D02*
X150634500Y-106232857D01*
X150634500Y-106232857D02*
X150648785Y-106190000D01*
X150648785Y-106190000D02*
X150648785Y-106161428D01*
X150648785Y-106161428D02*
X150634500Y-106118571D01*
X150634500Y-106118571D02*
X150605928Y-106090000D01*
X150605928Y-106090000D02*
X150577357Y-106075714D01*
X150577357Y-106075714D02*
X150520214Y-106061428D01*
X150520214Y-106061428D02*
X150477357Y-106061428D01*
X150477357Y-106061428D02*
X150420214Y-106075714D01*
X150420214Y-106075714D02*
X150391642Y-106090000D01*
X150391642Y-106090000D02*
X150363071Y-106118571D01*
X150363071Y-106118571D02*
X150348785Y-106161428D01*
X150348785Y-106161428D02*
X150348785Y-106190000D01*
X150348785Y-106190000D02*
X150363071Y-106232857D01*
X150363071Y-106232857D02*
X150377357Y-106247143D01*
X150648785Y-106532857D02*
X150648785Y-106361428D01*
X150648785Y-106447143D02*
X150348785Y-106447143D01*
X150348785Y-106447143D02*
X150391642Y-106418571D01*
X150391642Y-106418571D02*
X150420214Y-106390000D01*
X150420214Y-106390000D02*
X150434500Y-106361428D01*
X150348785Y-106632857D02*
X150348785Y-106832857D01*
X150348785Y-106832857D02*
X150648785Y-106704285D01*
D11*
G04 #@! TO.C,C25*
X143393690Y-120388571D02*
X143417500Y-120364762D01*
X143417500Y-120364762D02*
X143441309Y-120293333D01*
X143441309Y-120293333D02*
X143441309Y-120245714D01*
X143441309Y-120245714D02*
X143417500Y-120174286D01*
X143417500Y-120174286D02*
X143369880Y-120126667D01*
X143369880Y-120126667D02*
X143322261Y-120102857D01*
X143322261Y-120102857D02*
X143227023Y-120079048D01*
X143227023Y-120079048D02*
X143155595Y-120079048D01*
X143155595Y-120079048D02*
X143060357Y-120102857D01*
X143060357Y-120102857D02*
X143012738Y-120126667D01*
X143012738Y-120126667D02*
X142965119Y-120174286D01*
X142965119Y-120174286D02*
X142941309Y-120245714D01*
X142941309Y-120245714D02*
X142941309Y-120293333D01*
X142941309Y-120293333D02*
X142965119Y-120364762D01*
X142965119Y-120364762D02*
X142988928Y-120388571D01*
X142988928Y-120579048D02*
X142965119Y-120602857D01*
X142965119Y-120602857D02*
X142941309Y-120650476D01*
X142941309Y-120650476D02*
X142941309Y-120769524D01*
X142941309Y-120769524D02*
X142965119Y-120817143D01*
X142965119Y-120817143D02*
X142988928Y-120840952D01*
X142988928Y-120840952D02*
X143036547Y-120864762D01*
X143036547Y-120864762D02*
X143084166Y-120864762D01*
X143084166Y-120864762D02*
X143155595Y-120840952D01*
X143155595Y-120840952D02*
X143441309Y-120555238D01*
X143441309Y-120555238D02*
X143441309Y-120864762D01*
X142941309Y-121317142D02*
X142941309Y-121079047D01*
X142941309Y-121079047D02*
X143179404Y-121055238D01*
X143179404Y-121055238D02*
X143155595Y-121079047D01*
X143155595Y-121079047D02*
X143131785Y-121126666D01*
X143131785Y-121126666D02*
X143131785Y-121245714D01*
X143131785Y-121245714D02*
X143155595Y-121293333D01*
X143155595Y-121293333D02*
X143179404Y-121317142D01*
X143179404Y-121317142D02*
X143227023Y-121340952D01*
X143227023Y-121340952D02*
X143346071Y-121340952D01*
X143346071Y-121340952D02*
X143393690Y-121317142D01*
X143393690Y-121317142D02*
X143417500Y-121293333D01*
X143417500Y-121293333D02*
X143441309Y-121245714D01*
X143441309Y-121245714D02*
X143441309Y-121126666D01*
X143441309Y-121126666D02*
X143417500Y-121079047D01*
X143417500Y-121079047D02*
X143393690Y-121055238D01*
G04 #@! TO.C,R21*
X152821309Y-116058571D02*
X152583214Y-115891905D01*
X152821309Y-115772857D02*
X152321309Y-115772857D01*
X152321309Y-115772857D02*
X152321309Y-115963333D01*
X152321309Y-115963333D02*
X152345119Y-116010952D01*
X152345119Y-116010952D02*
X152368928Y-116034762D01*
X152368928Y-116034762D02*
X152416547Y-116058571D01*
X152416547Y-116058571D02*
X152487976Y-116058571D01*
X152487976Y-116058571D02*
X152535595Y-116034762D01*
X152535595Y-116034762D02*
X152559404Y-116010952D01*
X152559404Y-116010952D02*
X152583214Y-115963333D01*
X152583214Y-115963333D02*
X152583214Y-115772857D01*
X152368928Y-116249048D02*
X152345119Y-116272857D01*
X152345119Y-116272857D02*
X152321309Y-116320476D01*
X152321309Y-116320476D02*
X152321309Y-116439524D01*
X152321309Y-116439524D02*
X152345119Y-116487143D01*
X152345119Y-116487143D02*
X152368928Y-116510952D01*
X152368928Y-116510952D02*
X152416547Y-116534762D01*
X152416547Y-116534762D02*
X152464166Y-116534762D01*
X152464166Y-116534762D02*
X152535595Y-116510952D01*
X152535595Y-116510952D02*
X152821309Y-116225238D01*
X152821309Y-116225238D02*
X152821309Y-116534762D01*
X152821309Y-117010952D02*
X152821309Y-116725238D01*
X152821309Y-116868095D02*
X152321309Y-116868095D01*
X152321309Y-116868095D02*
X152392738Y-116820476D01*
X152392738Y-116820476D02*
X152440357Y-116772857D01*
X152440357Y-116772857D02*
X152464166Y-116725238D01*
G04 #@! TO.C,R5*
X148493333Y-102781309D02*
X148659999Y-102543214D01*
X148779047Y-102781309D02*
X148779047Y-102281309D01*
X148779047Y-102281309D02*
X148588571Y-102281309D01*
X148588571Y-102281309D02*
X148540952Y-102305119D01*
X148540952Y-102305119D02*
X148517142Y-102328928D01*
X148517142Y-102328928D02*
X148493333Y-102376547D01*
X148493333Y-102376547D02*
X148493333Y-102447976D01*
X148493333Y-102447976D02*
X148517142Y-102495595D01*
X148517142Y-102495595D02*
X148540952Y-102519404D01*
X148540952Y-102519404D02*
X148588571Y-102543214D01*
X148588571Y-102543214D02*
X148779047Y-102543214D01*
X148040952Y-102281309D02*
X148279047Y-102281309D01*
X148279047Y-102281309D02*
X148302856Y-102519404D01*
X148302856Y-102519404D02*
X148279047Y-102495595D01*
X148279047Y-102495595D02*
X148231428Y-102471785D01*
X148231428Y-102471785D02*
X148112380Y-102471785D01*
X148112380Y-102471785D02*
X148064761Y-102495595D01*
X148064761Y-102495595D02*
X148040952Y-102519404D01*
X148040952Y-102519404D02*
X148017142Y-102567023D01*
X148017142Y-102567023D02*
X148017142Y-102686071D01*
X148017142Y-102686071D02*
X148040952Y-102733690D01*
X148040952Y-102733690D02*
X148064761Y-102757500D01*
X148064761Y-102757500D02*
X148112380Y-102781309D01*
X148112380Y-102781309D02*
X148231428Y-102781309D01*
X148231428Y-102781309D02*
X148279047Y-102757500D01*
X148279047Y-102757500D02*
X148302856Y-102733690D01*
G04 #@! TO.C,R14*
X140801428Y-128731309D02*
X140968094Y-128493214D01*
X141087142Y-128731309D02*
X141087142Y-128231309D01*
X141087142Y-128231309D02*
X140896666Y-128231309D01*
X140896666Y-128231309D02*
X140849047Y-128255119D01*
X140849047Y-128255119D02*
X140825237Y-128278928D01*
X140825237Y-128278928D02*
X140801428Y-128326547D01*
X140801428Y-128326547D02*
X140801428Y-128397976D01*
X140801428Y-128397976D02*
X140825237Y-128445595D01*
X140825237Y-128445595D02*
X140849047Y-128469404D01*
X140849047Y-128469404D02*
X140896666Y-128493214D01*
X140896666Y-128493214D02*
X141087142Y-128493214D01*
X140325237Y-128731309D02*
X140610951Y-128731309D01*
X140468094Y-128731309D02*
X140468094Y-128231309D01*
X140468094Y-128231309D02*
X140515713Y-128302738D01*
X140515713Y-128302738D02*
X140563332Y-128350357D01*
X140563332Y-128350357D02*
X140610951Y-128374166D01*
X139896666Y-128397976D02*
X139896666Y-128731309D01*
X140015714Y-128207500D02*
X140134761Y-128564642D01*
X140134761Y-128564642D02*
X139825238Y-128564642D01*
D13*
G04 #@! TO.C,C15*
X144245321Y-112630714D02*
X144266750Y-112609286D01*
X144266750Y-112609286D02*
X144288178Y-112545000D01*
X144288178Y-112545000D02*
X144288178Y-112502143D01*
X144288178Y-112502143D02*
X144266750Y-112437857D01*
X144266750Y-112437857D02*
X144223892Y-112395000D01*
X144223892Y-112395000D02*
X144181035Y-112373571D01*
X144181035Y-112373571D02*
X144095321Y-112352143D01*
X144095321Y-112352143D02*
X144031035Y-112352143D01*
X144031035Y-112352143D02*
X143945321Y-112373571D01*
X143945321Y-112373571D02*
X143902464Y-112395000D01*
X143902464Y-112395000D02*
X143859607Y-112437857D01*
X143859607Y-112437857D02*
X143838178Y-112502143D01*
X143838178Y-112502143D02*
X143838178Y-112545000D01*
X143838178Y-112545000D02*
X143859607Y-112609286D01*
X143859607Y-112609286D02*
X143881035Y-112630714D01*
X144288178Y-113059286D02*
X144288178Y-112802143D01*
X144288178Y-112930714D02*
X143838178Y-112930714D01*
X143838178Y-112930714D02*
X143902464Y-112887857D01*
X143902464Y-112887857D02*
X143945321Y-112845000D01*
X143945321Y-112845000D02*
X143966750Y-112802143D01*
X143838178Y-113466428D02*
X143838178Y-113252142D01*
X143838178Y-113252142D02*
X144052464Y-113230714D01*
X144052464Y-113230714D02*
X144031035Y-113252142D01*
X144031035Y-113252142D02*
X144009607Y-113295000D01*
X144009607Y-113295000D02*
X144009607Y-113402142D01*
X144009607Y-113402142D02*
X144031035Y-113445000D01*
X144031035Y-113445000D02*
X144052464Y-113466428D01*
X144052464Y-113466428D02*
X144095321Y-113487857D01*
X144095321Y-113487857D02*
X144202464Y-113487857D01*
X144202464Y-113487857D02*
X144245321Y-113466428D01*
X144245321Y-113466428D02*
X144266750Y-113445000D01*
X144266750Y-113445000D02*
X144288178Y-113402142D01*
X144288178Y-113402142D02*
X144288178Y-113295000D01*
X144288178Y-113295000D02*
X144266750Y-113252142D01*
X144266750Y-113252142D02*
X144245321Y-113230714D01*
D11*
G04 #@! TO.C,R7*
X149241309Y-115996666D02*
X149003214Y-115830000D01*
X149241309Y-115710952D02*
X148741309Y-115710952D01*
X148741309Y-115710952D02*
X148741309Y-115901428D01*
X148741309Y-115901428D02*
X148765119Y-115949047D01*
X148765119Y-115949047D02*
X148788928Y-115972857D01*
X148788928Y-115972857D02*
X148836547Y-115996666D01*
X148836547Y-115996666D02*
X148907976Y-115996666D01*
X148907976Y-115996666D02*
X148955595Y-115972857D01*
X148955595Y-115972857D02*
X148979404Y-115949047D01*
X148979404Y-115949047D02*
X149003214Y-115901428D01*
X149003214Y-115901428D02*
X149003214Y-115710952D01*
X148741309Y-116163333D02*
X148741309Y-116496666D01*
X148741309Y-116496666D02*
X149241309Y-116282381D01*
G04 #@! TO.C,U5*
X143831309Y-122879047D02*
X144236071Y-122879047D01*
X144236071Y-122879047D02*
X144283690Y-122902857D01*
X144283690Y-122902857D02*
X144307500Y-122926666D01*
X144307500Y-122926666D02*
X144331309Y-122974285D01*
X144331309Y-122974285D02*
X144331309Y-123069523D01*
X144331309Y-123069523D02*
X144307500Y-123117142D01*
X144307500Y-123117142D02*
X144283690Y-123140952D01*
X144283690Y-123140952D02*
X144236071Y-123164761D01*
X144236071Y-123164761D02*
X143831309Y-123164761D01*
X143831309Y-123640952D02*
X143831309Y-123402857D01*
X143831309Y-123402857D02*
X144069404Y-123379048D01*
X144069404Y-123379048D02*
X144045595Y-123402857D01*
X144045595Y-123402857D02*
X144021785Y-123450476D01*
X144021785Y-123450476D02*
X144021785Y-123569524D01*
X144021785Y-123569524D02*
X144045595Y-123617143D01*
X144045595Y-123617143D02*
X144069404Y-123640952D01*
X144069404Y-123640952D02*
X144117023Y-123664762D01*
X144117023Y-123664762D02*
X144236071Y-123664762D01*
X144236071Y-123664762D02*
X144283690Y-123640952D01*
X144283690Y-123640952D02*
X144307500Y-123617143D01*
X144307500Y-123617143D02*
X144331309Y-123569524D01*
X144331309Y-123569524D02*
X144331309Y-123450476D01*
X144331309Y-123450476D02*
X144307500Y-123402857D01*
X144307500Y-123402857D02*
X144283690Y-123379048D01*
G04 #@! TO.C,C1*
X140303690Y-108986666D02*
X140327500Y-108962857D01*
X140327500Y-108962857D02*
X140351309Y-108891428D01*
X140351309Y-108891428D02*
X140351309Y-108843809D01*
X140351309Y-108843809D02*
X140327500Y-108772381D01*
X140327500Y-108772381D02*
X140279880Y-108724762D01*
X140279880Y-108724762D02*
X140232261Y-108700952D01*
X140232261Y-108700952D02*
X140137023Y-108677143D01*
X140137023Y-108677143D02*
X140065595Y-108677143D01*
X140065595Y-108677143D02*
X139970357Y-108700952D01*
X139970357Y-108700952D02*
X139922738Y-108724762D01*
X139922738Y-108724762D02*
X139875119Y-108772381D01*
X139875119Y-108772381D02*
X139851309Y-108843809D01*
X139851309Y-108843809D02*
X139851309Y-108891428D01*
X139851309Y-108891428D02*
X139875119Y-108962857D01*
X139875119Y-108962857D02*
X139898928Y-108986666D01*
X140351309Y-109462857D02*
X140351309Y-109177143D01*
X140351309Y-109320000D02*
X139851309Y-109320000D01*
X139851309Y-109320000D02*
X139922738Y-109272381D01*
X139922738Y-109272381D02*
X139970357Y-109224762D01*
X139970357Y-109224762D02*
X139994166Y-109177143D01*
G04 #@! TO.C,R9*
X142453333Y-106531309D02*
X142619999Y-106293214D01*
X142739047Y-106531309D02*
X142739047Y-106031309D01*
X142739047Y-106031309D02*
X142548571Y-106031309D01*
X142548571Y-106031309D02*
X142500952Y-106055119D01*
X142500952Y-106055119D02*
X142477142Y-106078928D01*
X142477142Y-106078928D02*
X142453333Y-106126547D01*
X142453333Y-106126547D02*
X142453333Y-106197976D01*
X142453333Y-106197976D02*
X142477142Y-106245595D01*
X142477142Y-106245595D02*
X142500952Y-106269404D01*
X142500952Y-106269404D02*
X142548571Y-106293214D01*
X142548571Y-106293214D02*
X142739047Y-106293214D01*
X142215237Y-106531309D02*
X142119999Y-106531309D01*
X142119999Y-106531309D02*
X142072380Y-106507500D01*
X142072380Y-106507500D02*
X142048571Y-106483690D01*
X142048571Y-106483690D02*
X142000952Y-106412261D01*
X142000952Y-106412261D02*
X141977142Y-106317023D01*
X141977142Y-106317023D02*
X141977142Y-106126547D01*
X141977142Y-106126547D02*
X142000952Y-106078928D01*
X142000952Y-106078928D02*
X142024761Y-106055119D01*
X142024761Y-106055119D02*
X142072380Y-106031309D01*
X142072380Y-106031309D02*
X142167618Y-106031309D01*
X142167618Y-106031309D02*
X142215237Y-106055119D01*
X142215237Y-106055119D02*
X142239047Y-106078928D01*
X142239047Y-106078928D02*
X142262856Y-106126547D01*
X142262856Y-106126547D02*
X142262856Y-106245595D01*
X142262856Y-106245595D02*
X142239047Y-106293214D01*
X142239047Y-106293214D02*
X142215237Y-106317023D01*
X142215237Y-106317023D02*
X142167618Y-106340833D01*
X142167618Y-106340833D02*
X142072380Y-106340833D01*
X142072380Y-106340833D02*
X142024761Y-106317023D01*
X142024761Y-106317023D02*
X142000952Y-106293214D01*
X142000952Y-106293214D02*
X141977142Y-106245595D01*
G04 #@! TO.C,R19*
X142281428Y-98821309D02*
X142448094Y-98583214D01*
X142567142Y-98821309D02*
X142567142Y-98321309D01*
X142567142Y-98321309D02*
X142376666Y-98321309D01*
X142376666Y-98321309D02*
X142329047Y-98345119D01*
X142329047Y-98345119D02*
X142305237Y-98368928D01*
X142305237Y-98368928D02*
X142281428Y-98416547D01*
X142281428Y-98416547D02*
X142281428Y-98487976D01*
X142281428Y-98487976D02*
X142305237Y-98535595D01*
X142305237Y-98535595D02*
X142329047Y-98559404D01*
X142329047Y-98559404D02*
X142376666Y-98583214D01*
X142376666Y-98583214D02*
X142567142Y-98583214D01*
X141805237Y-98821309D02*
X142090951Y-98821309D01*
X141948094Y-98821309D02*
X141948094Y-98321309D01*
X141948094Y-98321309D02*
X141995713Y-98392738D01*
X141995713Y-98392738D02*
X142043332Y-98440357D01*
X142043332Y-98440357D02*
X142090951Y-98464166D01*
X141567142Y-98821309D02*
X141471904Y-98821309D01*
X141471904Y-98821309D02*
X141424285Y-98797500D01*
X141424285Y-98797500D02*
X141400476Y-98773690D01*
X141400476Y-98773690D02*
X141352857Y-98702261D01*
X141352857Y-98702261D02*
X141329047Y-98607023D01*
X141329047Y-98607023D02*
X141329047Y-98416547D01*
X141329047Y-98416547D02*
X141352857Y-98368928D01*
X141352857Y-98368928D02*
X141376666Y-98345119D01*
X141376666Y-98345119D02*
X141424285Y-98321309D01*
X141424285Y-98321309D02*
X141519523Y-98321309D01*
X141519523Y-98321309D02*
X141567142Y-98345119D01*
X141567142Y-98345119D02*
X141590952Y-98368928D01*
X141590952Y-98368928D02*
X141614761Y-98416547D01*
X141614761Y-98416547D02*
X141614761Y-98535595D01*
X141614761Y-98535595D02*
X141590952Y-98583214D01*
X141590952Y-98583214D02*
X141567142Y-98607023D01*
X141567142Y-98607023D02*
X141519523Y-98630833D01*
X141519523Y-98630833D02*
X141424285Y-98630833D01*
X141424285Y-98630833D02*
X141376666Y-98607023D01*
X141376666Y-98607023D02*
X141352857Y-98583214D01*
X141352857Y-98583214D02*
X141329047Y-98535595D01*
G04 #@! TO.C,R1*
X154191309Y-113706666D02*
X153953214Y-113540000D01*
X154191309Y-113420952D02*
X153691309Y-113420952D01*
X153691309Y-113420952D02*
X153691309Y-113611428D01*
X153691309Y-113611428D02*
X153715119Y-113659047D01*
X153715119Y-113659047D02*
X153738928Y-113682857D01*
X153738928Y-113682857D02*
X153786547Y-113706666D01*
X153786547Y-113706666D02*
X153857976Y-113706666D01*
X153857976Y-113706666D02*
X153905595Y-113682857D01*
X153905595Y-113682857D02*
X153929404Y-113659047D01*
X153929404Y-113659047D02*
X153953214Y-113611428D01*
X153953214Y-113611428D02*
X153953214Y-113420952D01*
X154191309Y-114182857D02*
X154191309Y-113897143D01*
X154191309Y-114040000D02*
X153691309Y-114040000D01*
X153691309Y-114040000D02*
X153762738Y-113992381D01*
X153762738Y-113992381D02*
X153810357Y-113944762D01*
X153810357Y-113944762D02*
X153834166Y-113897143D01*
G04 #@! TO.C,Y1*
X153088094Y-102803214D02*
X153088094Y-103041309D01*
X153254760Y-102541309D02*
X153088094Y-102803214D01*
X153088094Y-102803214D02*
X152921427Y-102541309D01*
X152492856Y-103041309D02*
X152778570Y-103041309D01*
X152635713Y-103041309D02*
X152635713Y-102541309D01*
X152635713Y-102541309D02*
X152683332Y-102612738D01*
X152683332Y-102612738D02*
X152730951Y-102660357D01*
X152730951Y-102660357D02*
X152778570Y-102684166D01*
D12*
G04 #@! TO.C,C10*
X152402856Y-107280214D02*
X152417142Y-107294500D01*
X152417142Y-107294500D02*
X152459999Y-107308785D01*
X152459999Y-107308785D02*
X152488571Y-107308785D01*
X152488571Y-107308785D02*
X152531428Y-107294500D01*
X152531428Y-107294500D02*
X152559999Y-107265928D01*
X152559999Y-107265928D02*
X152574285Y-107237357D01*
X152574285Y-107237357D02*
X152588571Y-107180214D01*
X152588571Y-107180214D02*
X152588571Y-107137357D01*
X152588571Y-107137357D02*
X152574285Y-107080214D01*
X152574285Y-107080214D02*
X152559999Y-107051642D01*
X152559999Y-107051642D02*
X152531428Y-107023071D01*
X152531428Y-107023071D02*
X152488571Y-107008785D01*
X152488571Y-107008785D02*
X152459999Y-107008785D01*
X152459999Y-107008785D02*
X152417142Y-107023071D01*
X152417142Y-107023071D02*
X152402856Y-107037357D01*
X152117142Y-107308785D02*
X152288571Y-107308785D01*
X152202856Y-107308785D02*
X152202856Y-107008785D01*
X152202856Y-107008785D02*
X152231428Y-107051642D01*
X152231428Y-107051642D02*
X152259999Y-107080214D01*
X152259999Y-107080214D02*
X152288571Y-107094500D01*
X151931428Y-107008785D02*
X151902857Y-107008785D01*
X151902857Y-107008785D02*
X151874285Y-107023071D01*
X151874285Y-107023071D02*
X151860000Y-107037357D01*
X151860000Y-107037357D02*
X151845714Y-107065928D01*
X151845714Y-107065928D02*
X151831428Y-107123071D01*
X151831428Y-107123071D02*
X151831428Y-107194500D01*
X151831428Y-107194500D02*
X151845714Y-107251642D01*
X151845714Y-107251642D02*
X151860000Y-107280214D01*
X151860000Y-107280214D02*
X151874285Y-107294500D01*
X151874285Y-107294500D02*
X151902857Y-107308785D01*
X151902857Y-107308785D02*
X151931428Y-107308785D01*
X151931428Y-107308785D02*
X151960000Y-107294500D01*
X151960000Y-107294500D02*
X151974285Y-107280214D01*
X151974285Y-107280214D02*
X151988571Y-107251642D01*
X151988571Y-107251642D02*
X152002857Y-107194500D01*
X152002857Y-107194500D02*
X152002857Y-107123071D01*
X152002857Y-107123071D02*
X151988571Y-107065928D01*
X151988571Y-107065928D02*
X151974285Y-107037357D01*
X151974285Y-107037357D02*
X151960000Y-107023071D01*
X151960000Y-107023071D02*
X151931428Y-107008785D01*
D11*
G04 #@! TO.C,USB1*
X149442282Y-97966309D02*
X149442282Y-98371071D01*
X149442282Y-98371071D02*
X149418472Y-98418690D01*
X149418472Y-98418690D02*
X149394663Y-98442500D01*
X149394663Y-98442500D02*
X149347044Y-98466309D01*
X149347044Y-98466309D02*
X149251806Y-98466309D01*
X149251806Y-98466309D02*
X149204187Y-98442500D01*
X149204187Y-98442500D02*
X149180377Y-98418690D01*
X149180377Y-98418690D02*
X149156568Y-98371071D01*
X149156568Y-98371071D02*
X149156568Y-97966309D01*
X148942281Y-98442500D02*
X148870853Y-98466309D01*
X148870853Y-98466309D02*
X148751805Y-98466309D01*
X148751805Y-98466309D02*
X148704186Y-98442500D01*
X148704186Y-98442500D02*
X148680377Y-98418690D01*
X148680377Y-98418690D02*
X148656567Y-98371071D01*
X148656567Y-98371071D02*
X148656567Y-98323452D01*
X148656567Y-98323452D02*
X148680377Y-98275833D01*
X148680377Y-98275833D02*
X148704186Y-98252023D01*
X148704186Y-98252023D02*
X148751805Y-98228214D01*
X148751805Y-98228214D02*
X148847043Y-98204404D01*
X148847043Y-98204404D02*
X148894662Y-98180595D01*
X148894662Y-98180595D02*
X148918472Y-98156785D01*
X148918472Y-98156785D02*
X148942281Y-98109166D01*
X148942281Y-98109166D02*
X148942281Y-98061547D01*
X148942281Y-98061547D02*
X148918472Y-98013928D01*
X148918472Y-98013928D02*
X148894662Y-97990119D01*
X148894662Y-97990119D02*
X148847043Y-97966309D01*
X148847043Y-97966309D02*
X148727996Y-97966309D01*
X148727996Y-97966309D02*
X148656567Y-97990119D01*
X148275615Y-98204404D02*
X148204187Y-98228214D01*
X148204187Y-98228214D02*
X148180377Y-98252023D01*
X148180377Y-98252023D02*
X148156568Y-98299642D01*
X148156568Y-98299642D02*
X148156568Y-98371071D01*
X148156568Y-98371071D02*
X148180377Y-98418690D01*
X148180377Y-98418690D02*
X148204187Y-98442500D01*
X148204187Y-98442500D02*
X148251806Y-98466309D01*
X148251806Y-98466309D02*
X148442282Y-98466309D01*
X148442282Y-98466309D02*
X148442282Y-97966309D01*
X148442282Y-97966309D02*
X148275615Y-97966309D01*
X148275615Y-97966309D02*
X148227996Y-97990119D01*
X148227996Y-97990119D02*
X148204187Y-98013928D01*
X148204187Y-98013928D02*
X148180377Y-98061547D01*
X148180377Y-98061547D02*
X148180377Y-98109166D01*
X148180377Y-98109166D02*
X148204187Y-98156785D01*
X148204187Y-98156785D02*
X148227996Y-98180595D01*
X148227996Y-98180595D02*
X148275615Y-98204404D01*
X148275615Y-98204404D02*
X148442282Y-98204404D01*
X147680377Y-98466309D02*
X147966091Y-98466309D01*
X147823234Y-98466309D02*
X147823234Y-97966309D01*
X147823234Y-97966309D02*
X147870853Y-98037738D01*
X147870853Y-98037738D02*
X147918472Y-98085357D01*
X147918472Y-98085357D02*
X147966091Y-98109166D01*
G04 #@! TO.C,L1*
X153543333Y-109791309D02*
X153781428Y-109791309D01*
X153781428Y-109791309D02*
X153781428Y-109291309D01*
X153114761Y-109791309D02*
X153400475Y-109791309D01*
X153257618Y-109791309D02*
X153257618Y-109291309D01*
X153257618Y-109291309D02*
X153305237Y-109362738D01*
X153305237Y-109362738D02*
X153352856Y-109410357D01*
X153352856Y-109410357D02*
X153400475Y-109434166D01*
G04 #@! TO.C,R2*
X153853333Y-111121309D02*
X154019999Y-110883214D01*
X154139047Y-111121309D02*
X154139047Y-110621309D01*
X154139047Y-110621309D02*
X153948571Y-110621309D01*
X153948571Y-110621309D02*
X153900952Y-110645119D01*
X153900952Y-110645119D02*
X153877142Y-110668928D01*
X153877142Y-110668928D02*
X153853333Y-110716547D01*
X153853333Y-110716547D02*
X153853333Y-110787976D01*
X153853333Y-110787976D02*
X153877142Y-110835595D01*
X153877142Y-110835595D02*
X153900952Y-110859404D01*
X153900952Y-110859404D02*
X153948571Y-110883214D01*
X153948571Y-110883214D02*
X154139047Y-110883214D01*
X153662856Y-110668928D02*
X153639047Y-110645119D01*
X153639047Y-110645119D02*
X153591428Y-110621309D01*
X153591428Y-110621309D02*
X153472380Y-110621309D01*
X153472380Y-110621309D02*
X153424761Y-110645119D01*
X153424761Y-110645119D02*
X153400952Y-110668928D01*
X153400952Y-110668928D02*
X153377142Y-110716547D01*
X153377142Y-110716547D02*
X153377142Y-110764166D01*
X153377142Y-110764166D02*
X153400952Y-110835595D01*
X153400952Y-110835595D02*
X153686666Y-111121309D01*
X153686666Y-111121309D02*
X153377142Y-111121309D01*
G04 #@! TO.C,U1*
X143420952Y-118481309D02*
X143420952Y-118886071D01*
X143420952Y-118886071D02*
X143397142Y-118933690D01*
X143397142Y-118933690D02*
X143373333Y-118957500D01*
X143373333Y-118957500D02*
X143325714Y-118981309D01*
X143325714Y-118981309D02*
X143230476Y-118981309D01*
X143230476Y-118981309D02*
X143182857Y-118957500D01*
X143182857Y-118957500D02*
X143159047Y-118933690D01*
X143159047Y-118933690D02*
X143135238Y-118886071D01*
X143135238Y-118886071D02*
X143135238Y-118481309D01*
X142635237Y-118981309D02*
X142920951Y-118981309D01*
X142778094Y-118981309D02*
X142778094Y-118481309D01*
X142778094Y-118481309D02*
X142825713Y-118552738D01*
X142825713Y-118552738D02*
X142873332Y-118600357D01*
X142873332Y-118600357D02*
X142920951Y-118624166D01*
G04 #@! TO.C,C16*
X146723690Y-112638571D02*
X146747500Y-112614762D01*
X146747500Y-112614762D02*
X146771309Y-112543333D01*
X146771309Y-112543333D02*
X146771309Y-112495714D01*
X146771309Y-112495714D02*
X146747500Y-112424286D01*
X146747500Y-112424286D02*
X146699880Y-112376667D01*
X146699880Y-112376667D02*
X146652261Y-112352857D01*
X146652261Y-112352857D02*
X146557023Y-112329048D01*
X146557023Y-112329048D02*
X146485595Y-112329048D01*
X146485595Y-112329048D02*
X146390357Y-112352857D01*
X146390357Y-112352857D02*
X146342738Y-112376667D01*
X146342738Y-112376667D02*
X146295119Y-112424286D01*
X146295119Y-112424286D02*
X146271309Y-112495714D01*
X146271309Y-112495714D02*
X146271309Y-112543333D01*
X146271309Y-112543333D02*
X146295119Y-112614762D01*
X146295119Y-112614762D02*
X146318928Y-112638571D01*
X146771309Y-113114762D02*
X146771309Y-112829048D01*
X146771309Y-112971905D02*
X146271309Y-112971905D01*
X146271309Y-112971905D02*
X146342738Y-112924286D01*
X146342738Y-112924286D02*
X146390357Y-112876667D01*
X146390357Y-112876667D02*
X146414166Y-112829048D01*
X146271309Y-113543333D02*
X146271309Y-113448095D01*
X146271309Y-113448095D02*
X146295119Y-113400476D01*
X146295119Y-113400476D02*
X146318928Y-113376666D01*
X146318928Y-113376666D02*
X146390357Y-113329047D01*
X146390357Y-113329047D02*
X146485595Y-113305238D01*
X146485595Y-113305238D02*
X146676071Y-113305238D01*
X146676071Y-113305238D02*
X146723690Y-113329047D01*
X146723690Y-113329047D02*
X146747500Y-113352857D01*
X146747500Y-113352857D02*
X146771309Y-113400476D01*
X146771309Y-113400476D02*
X146771309Y-113495714D01*
X146771309Y-113495714D02*
X146747500Y-113543333D01*
X146747500Y-113543333D02*
X146723690Y-113567142D01*
X146723690Y-113567142D02*
X146676071Y-113590952D01*
X146676071Y-113590952D02*
X146557023Y-113590952D01*
X146557023Y-113590952D02*
X146509404Y-113567142D01*
X146509404Y-113567142D02*
X146485595Y-113543333D01*
X146485595Y-113543333D02*
X146461785Y-113495714D01*
X146461785Y-113495714D02*
X146461785Y-113400476D01*
X146461785Y-113400476D02*
X146485595Y-113352857D01*
X146485595Y-113352857D02*
X146509404Y-113329047D01*
X146509404Y-113329047D02*
X146557023Y-113305238D01*
G04 #@! TO.C,R13*
X147851309Y-123868571D02*
X147613214Y-123701905D01*
X147851309Y-123582857D02*
X147351309Y-123582857D01*
X147351309Y-123582857D02*
X147351309Y-123773333D01*
X147351309Y-123773333D02*
X147375119Y-123820952D01*
X147375119Y-123820952D02*
X147398928Y-123844762D01*
X147398928Y-123844762D02*
X147446547Y-123868571D01*
X147446547Y-123868571D02*
X147517976Y-123868571D01*
X147517976Y-123868571D02*
X147565595Y-123844762D01*
X147565595Y-123844762D02*
X147589404Y-123820952D01*
X147589404Y-123820952D02*
X147613214Y-123773333D01*
X147613214Y-123773333D02*
X147613214Y-123582857D01*
X147851309Y-124344762D02*
X147851309Y-124059048D01*
X147851309Y-124201905D02*
X147351309Y-124201905D01*
X147351309Y-124201905D02*
X147422738Y-124154286D01*
X147422738Y-124154286D02*
X147470357Y-124106667D01*
X147470357Y-124106667D02*
X147494166Y-124059048D01*
X147351309Y-124511428D02*
X147351309Y-124820952D01*
X147351309Y-124820952D02*
X147541785Y-124654285D01*
X147541785Y-124654285D02*
X147541785Y-124725714D01*
X147541785Y-124725714D02*
X147565595Y-124773333D01*
X147565595Y-124773333D02*
X147589404Y-124797142D01*
X147589404Y-124797142D02*
X147637023Y-124820952D01*
X147637023Y-124820952D02*
X147756071Y-124820952D01*
X147756071Y-124820952D02*
X147803690Y-124797142D01*
X147803690Y-124797142D02*
X147827500Y-124773333D01*
X147827500Y-124773333D02*
X147851309Y-124725714D01*
X147851309Y-124725714D02*
X147851309Y-124582857D01*
X147851309Y-124582857D02*
X147827500Y-124535238D01*
X147827500Y-124535238D02*
X147803690Y-124511428D01*
G04 #@! TO.C,P2*
X143939047Y-128781309D02*
X143939047Y-128281309D01*
X143939047Y-128281309D02*
X143748571Y-128281309D01*
X143748571Y-128281309D02*
X143700952Y-128305119D01*
X143700952Y-128305119D02*
X143677142Y-128328928D01*
X143677142Y-128328928D02*
X143653333Y-128376547D01*
X143653333Y-128376547D02*
X143653333Y-128447976D01*
X143653333Y-128447976D02*
X143677142Y-128495595D01*
X143677142Y-128495595D02*
X143700952Y-128519404D01*
X143700952Y-128519404D02*
X143748571Y-128543214D01*
X143748571Y-128543214D02*
X143939047Y-128543214D01*
X143462856Y-128328928D02*
X143439047Y-128305119D01*
X143439047Y-128305119D02*
X143391428Y-128281309D01*
X143391428Y-128281309D02*
X143272380Y-128281309D01*
X143272380Y-128281309D02*
X143224761Y-128305119D01*
X143224761Y-128305119D02*
X143200952Y-128328928D01*
X143200952Y-128328928D02*
X143177142Y-128376547D01*
X143177142Y-128376547D02*
X143177142Y-128424166D01*
X143177142Y-128424166D02*
X143200952Y-128495595D01*
X143200952Y-128495595D02*
X143486666Y-128781309D01*
X143486666Y-128781309D02*
X143177142Y-128781309D01*
D12*
X143065500Y-127469285D02*
X143065500Y-127240714D01*
X144140500Y-125419285D02*
X144140500Y-125190714D01*
X144026214Y-125304999D02*
X144254785Y-125304999D01*
D11*
G04 #@! TO.C,C2*
X145943690Y-108516666D02*
X145967500Y-108492857D01*
X145967500Y-108492857D02*
X145991309Y-108421428D01*
X145991309Y-108421428D02*
X145991309Y-108373809D01*
X145991309Y-108373809D02*
X145967500Y-108302381D01*
X145967500Y-108302381D02*
X145919880Y-108254762D01*
X145919880Y-108254762D02*
X145872261Y-108230952D01*
X145872261Y-108230952D02*
X145777023Y-108207143D01*
X145777023Y-108207143D02*
X145705595Y-108207143D01*
X145705595Y-108207143D02*
X145610357Y-108230952D01*
X145610357Y-108230952D02*
X145562738Y-108254762D01*
X145562738Y-108254762D02*
X145515119Y-108302381D01*
X145515119Y-108302381D02*
X145491309Y-108373809D01*
X145491309Y-108373809D02*
X145491309Y-108421428D01*
X145491309Y-108421428D02*
X145515119Y-108492857D01*
X145515119Y-108492857D02*
X145538928Y-108516666D01*
X145538928Y-108707143D02*
X145515119Y-108730952D01*
X145515119Y-108730952D02*
X145491309Y-108778571D01*
X145491309Y-108778571D02*
X145491309Y-108897619D01*
X145491309Y-108897619D02*
X145515119Y-108945238D01*
X145515119Y-108945238D02*
X145538928Y-108969047D01*
X145538928Y-108969047D02*
X145586547Y-108992857D01*
X145586547Y-108992857D02*
X145634166Y-108992857D01*
X145634166Y-108992857D02*
X145705595Y-108969047D01*
X145705595Y-108969047D02*
X145991309Y-108683333D01*
X145991309Y-108683333D02*
X145991309Y-108992857D01*
G04 #@! TO.C,D1*
X146209047Y-119011309D02*
X146209047Y-118511309D01*
X146209047Y-118511309D02*
X146089999Y-118511309D01*
X146089999Y-118511309D02*
X146018571Y-118535119D01*
X146018571Y-118535119D02*
X145970952Y-118582738D01*
X145970952Y-118582738D02*
X145947142Y-118630357D01*
X145947142Y-118630357D02*
X145923333Y-118725595D01*
X145923333Y-118725595D02*
X145923333Y-118797023D01*
X145923333Y-118797023D02*
X145947142Y-118892261D01*
X145947142Y-118892261D02*
X145970952Y-118939880D01*
X145970952Y-118939880D02*
X146018571Y-118987500D01*
X146018571Y-118987500D02*
X146089999Y-119011309D01*
X146089999Y-119011309D02*
X146209047Y-119011309D01*
X145447142Y-119011309D02*
X145732856Y-119011309D01*
X145589999Y-119011309D02*
X145589999Y-118511309D01*
X145589999Y-118511309D02*
X145637618Y-118582738D01*
X145637618Y-118582738D02*
X145685237Y-118630357D01*
X145685237Y-118630357D02*
X145732856Y-118654166D01*
D12*
G04 #@! TO.C,C14*
X153352856Y-108100214D02*
X153367142Y-108114500D01*
X153367142Y-108114500D02*
X153409999Y-108128785D01*
X153409999Y-108128785D02*
X153438571Y-108128785D01*
X153438571Y-108128785D02*
X153481428Y-108114500D01*
X153481428Y-108114500D02*
X153509999Y-108085928D01*
X153509999Y-108085928D02*
X153524285Y-108057357D01*
X153524285Y-108057357D02*
X153538571Y-108000214D01*
X153538571Y-108000214D02*
X153538571Y-107957357D01*
X153538571Y-107957357D02*
X153524285Y-107900214D01*
X153524285Y-107900214D02*
X153509999Y-107871642D01*
X153509999Y-107871642D02*
X153481428Y-107843071D01*
X153481428Y-107843071D02*
X153438571Y-107828785D01*
X153438571Y-107828785D02*
X153409999Y-107828785D01*
X153409999Y-107828785D02*
X153367142Y-107843071D01*
X153367142Y-107843071D02*
X153352856Y-107857357D01*
X153067142Y-108128785D02*
X153238571Y-108128785D01*
X153152856Y-108128785D02*
X153152856Y-107828785D01*
X153152856Y-107828785D02*
X153181428Y-107871642D01*
X153181428Y-107871642D02*
X153209999Y-107900214D01*
X153209999Y-107900214D02*
X153238571Y-107914500D01*
X152810000Y-107928785D02*
X152810000Y-108128785D01*
X152881428Y-107814500D02*
X152952857Y-108028785D01*
X152952857Y-108028785D02*
X152767142Y-108028785D01*
D11*
G04 #@! TO.C,C6*
X156943333Y-111983690D02*
X156967142Y-112007500D01*
X156967142Y-112007500D02*
X157038571Y-112031309D01*
X157038571Y-112031309D02*
X157086190Y-112031309D01*
X157086190Y-112031309D02*
X157157618Y-112007500D01*
X157157618Y-112007500D02*
X157205237Y-111959880D01*
X157205237Y-111959880D02*
X157229047Y-111912261D01*
X157229047Y-111912261D02*
X157252856Y-111817023D01*
X157252856Y-111817023D02*
X157252856Y-111745595D01*
X157252856Y-111745595D02*
X157229047Y-111650357D01*
X157229047Y-111650357D02*
X157205237Y-111602738D01*
X157205237Y-111602738D02*
X157157618Y-111555119D01*
X157157618Y-111555119D02*
X157086190Y-111531309D01*
X157086190Y-111531309D02*
X157038571Y-111531309D01*
X157038571Y-111531309D02*
X156967142Y-111555119D01*
X156967142Y-111555119D02*
X156943333Y-111578928D01*
X156514761Y-111531309D02*
X156609999Y-111531309D01*
X156609999Y-111531309D02*
X156657618Y-111555119D01*
X156657618Y-111555119D02*
X156681428Y-111578928D01*
X156681428Y-111578928D02*
X156729047Y-111650357D01*
X156729047Y-111650357D02*
X156752856Y-111745595D01*
X156752856Y-111745595D02*
X156752856Y-111936071D01*
X156752856Y-111936071D02*
X156729047Y-111983690D01*
X156729047Y-111983690D02*
X156705237Y-112007500D01*
X156705237Y-112007500D02*
X156657618Y-112031309D01*
X156657618Y-112031309D02*
X156562380Y-112031309D01*
X156562380Y-112031309D02*
X156514761Y-112007500D01*
X156514761Y-112007500D02*
X156490952Y-111983690D01*
X156490952Y-111983690D02*
X156467142Y-111936071D01*
X156467142Y-111936071D02*
X156467142Y-111817023D01*
X156467142Y-111817023D02*
X156490952Y-111769404D01*
X156490952Y-111769404D02*
X156514761Y-111745595D01*
X156514761Y-111745595D02*
X156562380Y-111721785D01*
X156562380Y-111721785D02*
X156657618Y-111721785D01*
X156657618Y-111721785D02*
X156705237Y-111745595D01*
X156705237Y-111745595D02*
X156729047Y-111769404D01*
X156729047Y-111769404D02*
X156752856Y-111817023D01*
G04 #@! TO.C,R6*
X147191309Y-104386666D02*
X146953214Y-104220000D01*
X147191309Y-104100952D02*
X146691309Y-104100952D01*
X146691309Y-104100952D02*
X146691309Y-104291428D01*
X146691309Y-104291428D02*
X146715119Y-104339047D01*
X146715119Y-104339047D02*
X146738928Y-104362857D01*
X146738928Y-104362857D02*
X146786547Y-104386666D01*
X146786547Y-104386666D02*
X146857976Y-104386666D01*
X146857976Y-104386666D02*
X146905595Y-104362857D01*
X146905595Y-104362857D02*
X146929404Y-104339047D01*
X146929404Y-104339047D02*
X146953214Y-104291428D01*
X146953214Y-104291428D02*
X146953214Y-104100952D01*
X146691309Y-104815238D02*
X146691309Y-104720000D01*
X146691309Y-104720000D02*
X146715119Y-104672381D01*
X146715119Y-104672381D02*
X146738928Y-104648571D01*
X146738928Y-104648571D02*
X146810357Y-104600952D01*
X146810357Y-104600952D02*
X146905595Y-104577143D01*
X146905595Y-104577143D02*
X147096071Y-104577143D01*
X147096071Y-104577143D02*
X147143690Y-104600952D01*
X147143690Y-104600952D02*
X147167500Y-104624762D01*
X147167500Y-104624762D02*
X147191309Y-104672381D01*
X147191309Y-104672381D02*
X147191309Y-104767619D01*
X147191309Y-104767619D02*
X147167500Y-104815238D01*
X147167500Y-104815238D02*
X147143690Y-104839047D01*
X147143690Y-104839047D02*
X147096071Y-104862857D01*
X147096071Y-104862857D02*
X146977023Y-104862857D01*
X146977023Y-104862857D02*
X146929404Y-104839047D01*
X146929404Y-104839047D02*
X146905595Y-104815238D01*
X146905595Y-104815238D02*
X146881785Y-104767619D01*
X146881785Y-104767619D02*
X146881785Y-104672381D01*
X146881785Y-104672381D02*
X146905595Y-104624762D01*
X146905595Y-104624762D02*
X146929404Y-104600952D01*
X146929404Y-104600952D02*
X146977023Y-104577143D01*
G04 #@! TO.C,C11*
X144303690Y-111208571D02*
X144327500Y-111184762D01*
X144327500Y-111184762D02*
X144351309Y-111113333D01*
X144351309Y-111113333D02*
X144351309Y-111065714D01*
X144351309Y-111065714D02*
X144327500Y-110994286D01*
X144327500Y-110994286D02*
X144279880Y-110946667D01*
X144279880Y-110946667D02*
X144232261Y-110922857D01*
X144232261Y-110922857D02*
X144137023Y-110899048D01*
X144137023Y-110899048D02*
X144065595Y-110899048D01*
X144065595Y-110899048D02*
X143970357Y-110922857D01*
X143970357Y-110922857D02*
X143922738Y-110946667D01*
X143922738Y-110946667D02*
X143875119Y-110994286D01*
X143875119Y-110994286D02*
X143851309Y-111065714D01*
X143851309Y-111065714D02*
X143851309Y-111113333D01*
X143851309Y-111113333D02*
X143875119Y-111184762D01*
X143875119Y-111184762D02*
X143898928Y-111208571D01*
X144351309Y-111684762D02*
X144351309Y-111399048D01*
X144351309Y-111541905D02*
X143851309Y-111541905D01*
X143851309Y-111541905D02*
X143922738Y-111494286D01*
X143922738Y-111494286D02*
X143970357Y-111446667D01*
X143970357Y-111446667D02*
X143994166Y-111399048D01*
X144351309Y-112160952D02*
X144351309Y-111875238D01*
X144351309Y-112018095D02*
X143851309Y-112018095D01*
X143851309Y-112018095D02*
X143922738Y-111970476D01*
X143922738Y-111970476D02*
X143970357Y-111922857D01*
X143970357Y-111922857D02*
X143994166Y-111875238D01*
G04 #@! TO.C,R15*
X146471309Y-126318571D02*
X146233214Y-126151905D01*
X146471309Y-126032857D02*
X145971309Y-126032857D01*
X145971309Y-126032857D02*
X145971309Y-126223333D01*
X145971309Y-126223333D02*
X145995119Y-126270952D01*
X145995119Y-126270952D02*
X146018928Y-126294762D01*
X146018928Y-126294762D02*
X146066547Y-126318571D01*
X146066547Y-126318571D02*
X146137976Y-126318571D01*
X146137976Y-126318571D02*
X146185595Y-126294762D01*
X146185595Y-126294762D02*
X146209404Y-126270952D01*
X146209404Y-126270952D02*
X146233214Y-126223333D01*
X146233214Y-126223333D02*
X146233214Y-126032857D01*
X146471309Y-126794762D02*
X146471309Y-126509048D01*
X146471309Y-126651905D02*
X145971309Y-126651905D01*
X145971309Y-126651905D02*
X146042738Y-126604286D01*
X146042738Y-126604286D02*
X146090357Y-126556667D01*
X146090357Y-126556667D02*
X146114166Y-126509048D01*
X145971309Y-127247142D02*
X145971309Y-127009047D01*
X145971309Y-127009047D02*
X146209404Y-126985238D01*
X146209404Y-126985238D02*
X146185595Y-127009047D01*
X146185595Y-127009047D02*
X146161785Y-127056666D01*
X146161785Y-127056666D02*
X146161785Y-127175714D01*
X146161785Y-127175714D02*
X146185595Y-127223333D01*
X146185595Y-127223333D02*
X146209404Y-127247142D01*
X146209404Y-127247142D02*
X146257023Y-127270952D01*
X146257023Y-127270952D02*
X146376071Y-127270952D01*
X146376071Y-127270952D02*
X146423690Y-127247142D01*
X146423690Y-127247142D02*
X146447500Y-127223333D01*
X146447500Y-127223333D02*
X146471309Y-127175714D01*
X146471309Y-127175714D02*
X146471309Y-127056666D01*
X146471309Y-127056666D02*
X146447500Y-127009047D01*
X146447500Y-127009047D02*
X146423690Y-126985238D01*
G04 #@! TO.C,C18*
X149221428Y-103763690D02*
X149245237Y-103787500D01*
X149245237Y-103787500D02*
X149316666Y-103811309D01*
X149316666Y-103811309D02*
X149364285Y-103811309D01*
X149364285Y-103811309D02*
X149435713Y-103787500D01*
X149435713Y-103787500D02*
X149483332Y-103739880D01*
X149483332Y-103739880D02*
X149507142Y-103692261D01*
X149507142Y-103692261D02*
X149530951Y-103597023D01*
X149530951Y-103597023D02*
X149530951Y-103525595D01*
X149530951Y-103525595D02*
X149507142Y-103430357D01*
X149507142Y-103430357D02*
X149483332Y-103382738D01*
X149483332Y-103382738D02*
X149435713Y-103335119D01*
X149435713Y-103335119D02*
X149364285Y-103311309D01*
X149364285Y-103311309D02*
X149316666Y-103311309D01*
X149316666Y-103311309D02*
X149245237Y-103335119D01*
X149245237Y-103335119D02*
X149221428Y-103358928D01*
X148745237Y-103811309D02*
X149030951Y-103811309D01*
X148888094Y-103811309D02*
X148888094Y-103311309D01*
X148888094Y-103311309D02*
X148935713Y-103382738D01*
X148935713Y-103382738D02*
X148983332Y-103430357D01*
X148983332Y-103430357D02*
X149030951Y-103454166D01*
X148459523Y-103525595D02*
X148507142Y-103501785D01*
X148507142Y-103501785D02*
X148530952Y-103477976D01*
X148530952Y-103477976D02*
X148554761Y-103430357D01*
X148554761Y-103430357D02*
X148554761Y-103406547D01*
X148554761Y-103406547D02*
X148530952Y-103358928D01*
X148530952Y-103358928D02*
X148507142Y-103335119D01*
X148507142Y-103335119D02*
X148459523Y-103311309D01*
X148459523Y-103311309D02*
X148364285Y-103311309D01*
X148364285Y-103311309D02*
X148316666Y-103335119D01*
X148316666Y-103335119D02*
X148292857Y-103358928D01*
X148292857Y-103358928D02*
X148269047Y-103406547D01*
X148269047Y-103406547D02*
X148269047Y-103430357D01*
X148269047Y-103430357D02*
X148292857Y-103477976D01*
X148292857Y-103477976D02*
X148316666Y-103501785D01*
X148316666Y-103501785D02*
X148364285Y-103525595D01*
X148364285Y-103525595D02*
X148459523Y-103525595D01*
X148459523Y-103525595D02*
X148507142Y-103549404D01*
X148507142Y-103549404D02*
X148530952Y-103573214D01*
X148530952Y-103573214D02*
X148554761Y-103620833D01*
X148554761Y-103620833D02*
X148554761Y-103716071D01*
X148554761Y-103716071D02*
X148530952Y-103763690D01*
X148530952Y-103763690D02*
X148507142Y-103787500D01*
X148507142Y-103787500D02*
X148459523Y-103811309D01*
X148459523Y-103811309D02*
X148364285Y-103811309D01*
X148364285Y-103811309D02*
X148316666Y-103787500D01*
X148316666Y-103787500D02*
X148292857Y-103763690D01*
X148292857Y-103763690D02*
X148269047Y-103716071D01*
X148269047Y-103716071D02*
X148269047Y-103620833D01*
X148269047Y-103620833D02*
X148292857Y-103573214D01*
X148292857Y-103573214D02*
X148316666Y-103549404D01*
X148316666Y-103549404D02*
X148364285Y-103525595D01*
G04 #@! TO.C,L2*
X154783333Y-105941309D02*
X155021428Y-105941309D01*
X155021428Y-105941309D02*
X155021428Y-105441309D01*
X154640475Y-105488928D02*
X154616666Y-105465119D01*
X154616666Y-105465119D02*
X154569047Y-105441309D01*
X154569047Y-105441309D02*
X154449999Y-105441309D01*
X154449999Y-105441309D02*
X154402380Y-105465119D01*
X154402380Y-105465119D02*
X154378571Y-105488928D01*
X154378571Y-105488928D02*
X154354761Y-105536547D01*
X154354761Y-105536547D02*
X154354761Y-105584166D01*
X154354761Y-105584166D02*
X154378571Y-105655595D01*
X154378571Y-105655595D02*
X154664285Y-105941309D01*
X154664285Y-105941309D02*
X154354761Y-105941309D01*
G04 #@! TO.C,R20*
X151671309Y-115918571D02*
X151433214Y-115751905D01*
X151671309Y-115632857D02*
X151171309Y-115632857D01*
X151171309Y-115632857D02*
X151171309Y-115823333D01*
X151171309Y-115823333D02*
X151195119Y-115870952D01*
X151195119Y-115870952D02*
X151218928Y-115894762D01*
X151218928Y-115894762D02*
X151266547Y-115918571D01*
X151266547Y-115918571D02*
X151337976Y-115918571D01*
X151337976Y-115918571D02*
X151385595Y-115894762D01*
X151385595Y-115894762D02*
X151409404Y-115870952D01*
X151409404Y-115870952D02*
X151433214Y-115823333D01*
X151433214Y-115823333D02*
X151433214Y-115632857D01*
X151218928Y-116109048D02*
X151195119Y-116132857D01*
X151195119Y-116132857D02*
X151171309Y-116180476D01*
X151171309Y-116180476D02*
X151171309Y-116299524D01*
X151171309Y-116299524D02*
X151195119Y-116347143D01*
X151195119Y-116347143D02*
X151218928Y-116370952D01*
X151218928Y-116370952D02*
X151266547Y-116394762D01*
X151266547Y-116394762D02*
X151314166Y-116394762D01*
X151314166Y-116394762D02*
X151385595Y-116370952D01*
X151385595Y-116370952D02*
X151671309Y-116085238D01*
X151671309Y-116085238D02*
X151671309Y-116394762D01*
X151171309Y-116704285D02*
X151171309Y-116751904D01*
X151171309Y-116751904D02*
X151195119Y-116799523D01*
X151195119Y-116799523D02*
X151218928Y-116823333D01*
X151218928Y-116823333D02*
X151266547Y-116847142D01*
X151266547Y-116847142D02*
X151361785Y-116870952D01*
X151361785Y-116870952D02*
X151480833Y-116870952D01*
X151480833Y-116870952D02*
X151576071Y-116847142D01*
X151576071Y-116847142D02*
X151623690Y-116823333D01*
X151623690Y-116823333D02*
X151647500Y-116799523D01*
X151647500Y-116799523D02*
X151671309Y-116751904D01*
X151671309Y-116751904D02*
X151671309Y-116704285D01*
X151671309Y-116704285D02*
X151647500Y-116656666D01*
X151647500Y-116656666D02*
X151623690Y-116632857D01*
X151623690Y-116632857D02*
X151576071Y-116609047D01*
X151576071Y-116609047D02*
X151480833Y-116585238D01*
X151480833Y-116585238D02*
X151361785Y-116585238D01*
X151361785Y-116585238D02*
X151266547Y-116609047D01*
X151266547Y-116609047D02*
X151218928Y-116632857D01*
X151218928Y-116632857D02*
X151195119Y-116656666D01*
X151195119Y-116656666D02*
X151171309Y-116704285D01*
G04 #@! TO.C,Green2*
X139035119Y-99503334D02*
X139011309Y-99455715D01*
X139011309Y-99455715D02*
X139011309Y-99384286D01*
X139011309Y-99384286D02*
X139035119Y-99312858D01*
X139035119Y-99312858D02*
X139082738Y-99265239D01*
X139082738Y-99265239D02*
X139130357Y-99241429D01*
X139130357Y-99241429D02*
X139225595Y-99217620D01*
X139225595Y-99217620D02*
X139297023Y-99217620D01*
X139297023Y-99217620D02*
X139392261Y-99241429D01*
X139392261Y-99241429D02*
X139439880Y-99265239D01*
X139439880Y-99265239D02*
X139487500Y-99312858D01*
X139487500Y-99312858D02*
X139511309Y-99384286D01*
X139511309Y-99384286D02*
X139511309Y-99431905D01*
X139511309Y-99431905D02*
X139487500Y-99503334D01*
X139487500Y-99503334D02*
X139463690Y-99527143D01*
X139463690Y-99527143D02*
X139297023Y-99527143D01*
X139297023Y-99527143D02*
X139297023Y-99431905D01*
X139511309Y-99741429D02*
X139177976Y-99741429D01*
X139273214Y-99741429D02*
X139225595Y-99765239D01*
X139225595Y-99765239D02*
X139201785Y-99789048D01*
X139201785Y-99789048D02*
X139177976Y-99836667D01*
X139177976Y-99836667D02*
X139177976Y-99884286D01*
X139487500Y-100241429D02*
X139511309Y-100193810D01*
X139511309Y-100193810D02*
X139511309Y-100098572D01*
X139511309Y-100098572D02*
X139487500Y-100050953D01*
X139487500Y-100050953D02*
X139439880Y-100027144D01*
X139439880Y-100027144D02*
X139249404Y-100027144D01*
X139249404Y-100027144D02*
X139201785Y-100050953D01*
X139201785Y-100050953D02*
X139177976Y-100098572D01*
X139177976Y-100098572D02*
X139177976Y-100193810D01*
X139177976Y-100193810D02*
X139201785Y-100241429D01*
X139201785Y-100241429D02*
X139249404Y-100265239D01*
X139249404Y-100265239D02*
X139297023Y-100265239D01*
X139297023Y-100265239D02*
X139344642Y-100027144D01*
X139487500Y-100670000D02*
X139511309Y-100622381D01*
X139511309Y-100622381D02*
X139511309Y-100527143D01*
X139511309Y-100527143D02*
X139487500Y-100479524D01*
X139487500Y-100479524D02*
X139439880Y-100455715D01*
X139439880Y-100455715D02*
X139249404Y-100455715D01*
X139249404Y-100455715D02*
X139201785Y-100479524D01*
X139201785Y-100479524D02*
X139177976Y-100527143D01*
X139177976Y-100527143D02*
X139177976Y-100622381D01*
X139177976Y-100622381D02*
X139201785Y-100670000D01*
X139201785Y-100670000D02*
X139249404Y-100693810D01*
X139249404Y-100693810D02*
X139297023Y-100693810D01*
X139297023Y-100693810D02*
X139344642Y-100455715D01*
X139177976Y-100908095D02*
X139511309Y-100908095D01*
X139225595Y-100908095D02*
X139201785Y-100931905D01*
X139201785Y-100931905D02*
X139177976Y-100979524D01*
X139177976Y-100979524D02*
X139177976Y-101050952D01*
X139177976Y-101050952D02*
X139201785Y-101098571D01*
X139201785Y-101098571D02*
X139249404Y-101122381D01*
X139249404Y-101122381D02*
X139511309Y-101122381D01*
X139058928Y-101336667D02*
X139035119Y-101360476D01*
X139035119Y-101360476D02*
X139011309Y-101408095D01*
X139011309Y-101408095D02*
X139011309Y-101527143D01*
X139011309Y-101527143D02*
X139035119Y-101574762D01*
X139035119Y-101574762D02*
X139058928Y-101598571D01*
X139058928Y-101598571D02*
X139106547Y-101622381D01*
X139106547Y-101622381D02*
X139154166Y-101622381D01*
X139154166Y-101622381D02*
X139225595Y-101598571D01*
X139225595Y-101598571D02*
X139511309Y-101312857D01*
X139511309Y-101312857D02*
X139511309Y-101622381D01*
D12*
X139959500Y-101580714D02*
X139959500Y-101809286D01*
X140073785Y-101695000D02*
X139845214Y-101695000D01*
X141034500Y-99530714D02*
X141034500Y-99759286D01*
D11*
G04 #@! TO.C,C3*
X154143690Y-115096666D02*
X154167500Y-115072857D01*
X154167500Y-115072857D02*
X154191309Y-115001428D01*
X154191309Y-115001428D02*
X154191309Y-114953809D01*
X154191309Y-114953809D02*
X154167500Y-114882381D01*
X154167500Y-114882381D02*
X154119880Y-114834762D01*
X154119880Y-114834762D02*
X154072261Y-114810952D01*
X154072261Y-114810952D02*
X153977023Y-114787143D01*
X153977023Y-114787143D02*
X153905595Y-114787143D01*
X153905595Y-114787143D02*
X153810357Y-114810952D01*
X153810357Y-114810952D02*
X153762738Y-114834762D01*
X153762738Y-114834762D02*
X153715119Y-114882381D01*
X153715119Y-114882381D02*
X153691309Y-114953809D01*
X153691309Y-114953809D02*
X153691309Y-115001428D01*
X153691309Y-115001428D02*
X153715119Y-115072857D01*
X153715119Y-115072857D02*
X153738928Y-115096666D01*
X153691309Y-115263333D02*
X153691309Y-115572857D01*
X153691309Y-115572857D02*
X153881785Y-115406190D01*
X153881785Y-115406190D02*
X153881785Y-115477619D01*
X153881785Y-115477619D02*
X153905595Y-115525238D01*
X153905595Y-115525238D02*
X153929404Y-115549047D01*
X153929404Y-115549047D02*
X153977023Y-115572857D01*
X153977023Y-115572857D02*
X154096071Y-115572857D01*
X154096071Y-115572857D02*
X154143690Y-115549047D01*
X154143690Y-115549047D02*
X154167500Y-115525238D01*
X154167500Y-115525238D02*
X154191309Y-115477619D01*
X154191309Y-115477619D02*
X154191309Y-115334762D01*
X154191309Y-115334762D02*
X154167500Y-115287143D01*
X154167500Y-115287143D02*
X154143690Y-115263333D01*
G04 #@! TO.C,Q4*
X140098928Y-111972380D02*
X140075119Y-111924761D01*
X140075119Y-111924761D02*
X140027500Y-111877142D01*
X140027500Y-111877142D02*
X139956071Y-111805714D01*
X139956071Y-111805714D02*
X139932261Y-111758095D01*
X139932261Y-111758095D02*
X139932261Y-111710476D01*
X140051309Y-111734285D02*
X140027500Y-111686666D01*
X140027500Y-111686666D02*
X139979880Y-111639047D01*
X139979880Y-111639047D02*
X139884642Y-111615238D01*
X139884642Y-111615238D02*
X139717976Y-111615238D01*
X139717976Y-111615238D02*
X139622738Y-111639047D01*
X139622738Y-111639047D02*
X139575119Y-111686666D01*
X139575119Y-111686666D02*
X139551309Y-111734285D01*
X139551309Y-111734285D02*
X139551309Y-111829523D01*
X139551309Y-111829523D02*
X139575119Y-111877142D01*
X139575119Y-111877142D02*
X139622738Y-111924761D01*
X139622738Y-111924761D02*
X139717976Y-111948571D01*
X139717976Y-111948571D02*
X139884642Y-111948571D01*
X139884642Y-111948571D02*
X139979880Y-111924761D01*
X139979880Y-111924761D02*
X140027500Y-111877142D01*
X140027500Y-111877142D02*
X140051309Y-111829523D01*
X140051309Y-111829523D02*
X140051309Y-111734285D01*
X139717976Y-112377143D02*
X140051309Y-112377143D01*
X139527500Y-112258095D02*
X139884642Y-112139048D01*
X139884642Y-112139048D02*
X139884642Y-112448571D01*
G04 #@! TO.C,R3*
X150161309Y-106366666D02*
X149923214Y-106200000D01*
X150161309Y-106080952D02*
X149661309Y-106080952D01*
X149661309Y-106080952D02*
X149661309Y-106271428D01*
X149661309Y-106271428D02*
X149685119Y-106319047D01*
X149685119Y-106319047D02*
X149708928Y-106342857D01*
X149708928Y-106342857D02*
X149756547Y-106366666D01*
X149756547Y-106366666D02*
X149827976Y-106366666D01*
X149827976Y-106366666D02*
X149875595Y-106342857D01*
X149875595Y-106342857D02*
X149899404Y-106319047D01*
X149899404Y-106319047D02*
X149923214Y-106271428D01*
X149923214Y-106271428D02*
X149923214Y-106080952D01*
X149661309Y-106533333D02*
X149661309Y-106842857D01*
X149661309Y-106842857D02*
X149851785Y-106676190D01*
X149851785Y-106676190D02*
X149851785Y-106747619D01*
X149851785Y-106747619D02*
X149875595Y-106795238D01*
X149875595Y-106795238D02*
X149899404Y-106819047D01*
X149899404Y-106819047D02*
X149947023Y-106842857D01*
X149947023Y-106842857D02*
X150066071Y-106842857D01*
X150066071Y-106842857D02*
X150113690Y-106819047D01*
X150113690Y-106819047D02*
X150137500Y-106795238D01*
X150137500Y-106795238D02*
X150161309Y-106747619D01*
X150161309Y-106747619D02*
X150161309Y-106604762D01*
X150161309Y-106604762D02*
X150137500Y-106557143D01*
X150137500Y-106557143D02*
X150113690Y-106533333D01*
G04 #@! TO.C,C4*
X144983690Y-108526666D02*
X145007500Y-108502857D01*
X145007500Y-108502857D02*
X145031309Y-108431428D01*
X145031309Y-108431428D02*
X145031309Y-108383809D01*
X145031309Y-108383809D02*
X145007500Y-108312381D01*
X145007500Y-108312381D02*
X144959880Y-108264762D01*
X144959880Y-108264762D02*
X144912261Y-108240952D01*
X144912261Y-108240952D02*
X144817023Y-108217143D01*
X144817023Y-108217143D02*
X144745595Y-108217143D01*
X144745595Y-108217143D02*
X144650357Y-108240952D01*
X144650357Y-108240952D02*
X144602738Y-108264762D01*
X144602738Y-108264762D02*
X144555119Y-108312381D01*
X144555119Y-108312381D02*
X144531309Y-108383809D01*
X144531309Y-108383809D02*
X144531309Y-108431428D01*
X144531309Y-108431428D02*
X144555119Y-108502857D01*
X144555119Y-108502857D02*
X144578928Y-108526666D01*
X144697976Y-108955238D02*
X145031309Y-108955238D01*
X144507500Y-108836190D02*
X144864642Y-108717143D01*
X144864642Y-108717143D02*
X144864642Y-109026666D01*
G04 #@! TO.C,D5*
X146567142Y-103201309D02*
X146567142Y-102701309D01*
X146567142Y-102701309D02*
X146448094Y-102701309D01*
X146448094Y-102701309D02*
X146376666Y-102725119D01*
X146376666Y-102725119D02*
X146329047Y-102772738D01*
X146329047Y-102772738D02*
X146305237Y-102820357D01*
X146305237Y-102820357D02*
X146281428Y-102915595D01*
X146281428Y-102915595D02*
X146281428Y-102987023D01*
X146281428Y-102987023D02*
X146305237Y-103082261D01*
X146305237Y-103082261D02*
X146329047Y-103129880D01*
X146329047Y-103129880D02*
X146376666Y-103177500D01*
X146376666Y-103177500D02*
X146448094Y-103201309D01*
X146448094Y-103201309D02*
X146567142Y-103201309D01*
X145829047Y-102701309D02*
X146067142Y-102701309D01*
X146067142Y-102701309D02*
X146090951Y-102939404D01*
X146090951Y-102939404D02*
X146067142Y-102915595D01*
X146067142Y-102915595D02*
X146019523Y-102891785D01*
X146019523Y-102891785D02*
X145900475Y-102891785D01*
X145900475Y-102891785D02*
X145852856Y-102915595D01*
X145852856Y-102915595D02*
X145829047Y-102939404D01*
X145829047Y-102939404D02*
X145805237Y-102987023D01*
X145805237Y-102987023D02*
X145805237Y-103106071D01*
X145805237Y-103106071D02*
X145829047Y-103153690D01*
X145829047Y-103153690D02*
X145852856Y-103177500D01*
X145852856Y-103177500D02*
X145900475Y-103201309D01*
X145900475Y-103201309D02*
X146019523Y-103201309D01*
X146019523Y-103201309D02*
X146067142Y-103177500D01*
X146067142Y-103177500D02*
X146090951Y-103153690D01*
G04 #@! TO.C,P1*
X142579047Y-128718809D02*
X142579047Y-128218809D01*
X142579047Y-128218809D02*
X142388571Y-128218809D01*
X142388571Y-128218809D02*
X142340952Y-128242619D01*
X142340952Y-128242619D02*
X142317142Y-128266428D01*
X142317142Y-128266428D02*
X142293333Y-128314047D01*
X142293333Y-128314047D02*
X142293333Y-128385476D01*
X142293333Y-128385476D02*
X142317142Y-128433095D01*
X142317142Y-128433095D02*
X142340952Y-128456904D01*
X142340952Y-128456904D02*
X142388571Y-128480714D01*
X142388571Y-128480714D02*
X142579047Y-128480714D01*
X141817142Y-128718809D02*
X142102856Y-128718809D01*
X141959999Y-128718809D02*
X141959999Y-128218809D01*
X141959999Y-128218809D02*
X142007618Y-128290238D01*
X142007618Y-128290238D02*
X142055237Y-128337857D01*
X142055237Y-128337857D02*
X142102856Y-128361666D01*
D12*
X142614500Y-125730714D02*
X142614500Y-125959286D01*
X141539500Y-127780714D02*
X141539500Y-128009286D01*
X141653785Y-127895000D02*
X141425214Y-127895000D01*
D11*
G04 #@! TO.C,C24*
X147893690Y-122078571D02*
X147917500Y-122054762D01*
X147917500Y-122054762D02*
X147941309Y-121983333D01*
X147941309Y-121983333D02*
X147941309Y-121935714D01*
X147941309Y-121935714D02*
X147917500Y-121864286D01*
X147917500Y-121864286D02*
X147869880Y-121816667D01*
X147869880Y-121816667D02*
X147822261Y-121792857D01*
X147822261Y-121792857D02*
X147727023Y-121769048D01*
X147727023Y-121769048D02*
X147655595Y-121769048D01*
X147655595Y-121769048D02*
X147560357Y-121792857D01*
X147560357Y-121792857D02*
X147512738Y-121816667D01*
X147512738Y-121816667D02*
X147465119Y-121864286D01*
X147465119Y-121864286D02*
X147441309Y-121935714D01*
X147441309Y-121935714D02*
X147441309Y-121983333D01*
X147441309Y-121983333D02*
X147465119Y-122054762D01*
X147465119Y-122054762D02*
X147488928Y-122078571D01*
X147488928Y-122269048D02*
X147465119Y-122292857D01*
X147465119Y-122292857D02*
X147441309Y-122340476D01*
X147441309Y-122340476D02*
X147441309Y-122459524D01*
X147441309Y-122459524D02*
X147465119Y-122507143D01*
X147465119Y-122507143D02*
X147488928Y-122530952D01*
X147488928Y-122530952D02*
X147536547Y-122554762D01*
X147536547Y-122554762D02*
X147584166Y-122554762D01*
X147584166Y-122554762D02*
X147655595Y-122530952D01*
X147655595Y-122530952D02*
X147941309Y-122245238D01*
X147941309Y-122245238D02*
X147941309Y-122554762D01*
X147607976Y-122983333D02*
X147941309Y-122983333D01*
X147417500Y-122864285D02*
X147774642Y-122745238D01*
X147774642Y-122745238D02*
X147774642Y-123054761D01*
D14*
G04 #@! TO.C,C8*
X141125000Y-116308748D02*
X141125000Y-116831252D01*
X139655000Y-116308748D02*
X139655000Y-116831252D01*
G04 #@! TO.C,C9*
X155550000Y-106892164D02*
X155550000Y-107107836D01*
X154830000Y-106892164D02*
X154830000Y-107107836D01*
D15*
G04 #@! TO.C,U2*
X151990000Y-112780000D02*
X151990000Y-112485000D01*
X151990000Y-112780000D02*
X151695000Y-112780000D01*
X151990000Y-107780000D02*
X151990000Y-108075000D01*
X151990000Y-107780000D02*
X151695000Y-107780000D01*
D16*
X151240000Y-112030000D02*
X151240000Y-108530000D01*
X151240000Y-108530000D02*
X147740000Y-108530000D01*
X147740000Y-112030000D02*
X151240000Y-112030000D01*
X147740000Y-108530000D02*
X147740000Y-112030000D01*
D15*
X146990000Y-112780000D02*
X147285000Y-112780000D01*
X146990000Y-112780000D02*
X146990000Y-112485000D01*
X146990000Y-107780000D02*
X147285000Y-107780000D01*
X146990000Y-107780000D02*
X146990000Y-108075000D01*
D14*
G04 #@! TO.C,R4*
X148710000Y-105053641D02*
X148710000Y-104746359D01*
X149470000Y-105053641D02*
X149470000Y-104746359D01*
G04 #@! TO.C,C7*
X154792164Y-108160000D02*
X155007836Y-108160000D01*
X154792164Y-108880000D02*
X155007836Y-108880000D01*
G04 #@! TO.C,C17*
X150730000Y-105167836D02*
X150730000Y-104952164D01*
X151450000Y-105167836D02*
X151450000Y-104952164D01*
G04 #@! TO.C,C25*
X141478080Y-121260000D02*
X141196920Y-121260000D01*
X141478080Y-120240000D02*
X141196920Y-120240000D01*
G04 #@! TO.C,R21*
X152840000Y-114456359D02*
X152840000Y-114763641D01*
X152080000Y-114456359D02*
X152080000Y-114763641D01*
G04 #@! TO.C,R5*
X150033641Y-103000000D02*
X149726359Y-103000000D01*
X150033641Y-102240000D02*
X149726359Y-102240000D01*
G04 #@! TO.C,R14*
X139967500Y-126837258D02*
X139967500Y-126362742D01*
X141012500Y-126837258D02*
X141012500Y-126362742D01*
G04 #@! TO.C,C15*
X144420000Y-113067836D02*
X144420000Y-112852164D01*
X145140000Y-113067836D02*
X145140000Y-112852164D01*
G04 #@! TO.C,R7*
X147750000Y-116163641D02*
X147750000Y-115856359D01*
X148510000Y-116163641D02*
X148510000Y-115856359D01*
G04 #@! TO.C,U5*
X141777500Y-121740000D02*
X140977500Y-121740000D01*
X141777500Y-121740000D02*
X142577500Y-121740000D01*
X141777500Y-124860000D02*
X139977500Y-124860000D01*
X141777500Y-124860000D02*
X142577500Y-124860000D01*
G04 #@! TO.C,C1*
X141918748Y-108475000D02*
X142441252Y-108475000D01*
X141918748Y-109945000D02*
X142441252Y-109945000D01*
G04 #@! TO.C,R9*
X142039420Y-106920000D02*
X142320580Y-106920000D01*
X142039420Y-107940000D02*
X142320580Y-107940000D01*
G04 #@! TO.C,R19*
X141477500Y-100637258D02*
X141477500Y-100162742D01*
X142522500Y-100637258D02*
X142522500Y-100162742D01*
G04 #@! TO.C,R1*
X155200000Y-113096359D02*
X155200000Y-113403641D01*
X154440000Y-113096359D02*
X154440000Y-113403641D01*
G04 #@! TO.C,Y1*
X151770000Y-105920000D02*
X151770000Y-103220000D01*
X154070000Y-105920000D02*
X151770000Y-105920000D01*
G04 #@! TO.C,C10*
X151562164Y-106210000D02*
X151777836Y-106210000D01*
X151562164Y-106930000D02*
X151777836Y-106930000D01*
G04 #@! TO.C,USB1*
X143790000Y-98715000D02*
X143790000Y-96715000D01*
X153190000Y-98715000D02*
X153190000Y-96715000D01*
G04 #@! TO.C,R2*
X153380000Y-112393641D02*
X153380000Y-112086359D01*
X154140000Y-112393641D02*
X154140000Y-112086359D01*
D17*
G04 #@! TO.C,U1*
X141683252Y-116650000D02*
X144482252Y-116650000D01*
X144482252Y-116650000D02*
X144482252Y-115650000D01*
X141683252Y-115650000D02*
X141683252Y-116650000D01*
X144482252Y-115650000D02*
X141683252Y-115650000D01*
D18*
X141419252Y-114880001D02*
G75*
G03*
X141421802Y-114880007I1000J-124999D01*
G01*
D14*
G04 #@! TO.C,C16*
X145410000Y-113067836D02*
X145410000Y-112852164D01*
X146130000Y-113067836D02*
X146130000Y-112852164D01*
G04 #@! TO.C,R13*
X145542742Y-123707500D02*
X146017258Y-123707500D01*
X145542742Y-124752500D02*
X146017258Y-124752500D01*
G04 #@! TO.C,P2*
X142905000Y-128065000D02*
X142905000Y-125780000D01*
X144375000Y-128065000D02*
X142905000Y-128065000D01*
X144375000Y-125780000D02*
X144375000Y-128065000D01*
G04 #@! TO.C,C2*
X146130000Y-109952164D02*
X146130000Y-110167836D01*
X145410000Y-109952164D02*
X145410000Y-110167836D01*
G04 #@! TO.C,D1*
X146870000Y-113952500D02*
X146870000Y-117812500D01*
X144870000Y-113952500D02*
X146870000Y-113952500D01*
X144870000Y-113952500D02*
X144870000Y-117812500D01*
G04 #@! TO.C,C14*
X152800000Y-107107836D02*
X152800000Y-106892164D01*
X153520000Y-107107836D02*
X153520000Y-106892164D01*
G04 #@! TO.C,C6*
X156135000Y-109991252D02*
X156135000Y-109468748D01*
X157605000Y-109991252D02*
X157605000Y-109468748D01*
G04 #@! TO.C,R6*
X146470000Y-104356359D02*
X146470000Y-104663641D01*
X145710000Y-104356359D02*
X145710000Y-104663641D01*
G04 #@! TO.C,C11*
X145407836Y-111880000D02*
X145192164Y-111880000D01*
X145407836Y-111160000D02*
X145192164Y-111160000D01*
G04 #@! TO.C,R15*
X144687500Y-126837258D02*
X144687500Y-126362742D01*
X145732500Y-126837258D02*
X145732500Y-126362742D01*
G04 #@! TO.C,C18*
X150667836Y-103970000D02*
X150452164Y-103970000D01*
X150667836Y-103250000D02*
X150452164Y-103250000D01*
G04 #@! TO.C,R20*
X151820000Y-114436359D02*
X151820000Y-114743641D01*
X151060000Y-114436359D02*
X151060000Y-114743641D01*
G04 #@! TO.C,Green2*
X141195000Y-98935000D02*
X141195000Y-101220000D01*
X139725000Y-98935000D02*
X141195000Y-98935000D01*
X139725000Y-101220000D02*
X139725000Y-98935000D01*
G04 #@! TO.C,C3*
X155180000Y-115102164D02*
X155180000Y-115317836D01*
X154460000Y-115102164D02*
X154460000Y-115317836D01*
G04 #@! TO.C,Q4*
X142092500Y-113550000D02*
X142742500Y-113550000D01*
X142092500Y-113550000D02*
X141442500Y-113550000D01*
X142092500Y-110430000D02*
X143767500Y-110430000D01*
X142092500Y-110430000D02*
X141442500Y-110430000D01*
G04 #@! TO.C,R3*
X150470000Y-104906359D02*
X150470000Y-105213641D01*
X149710000Y-104906359D02*
X149710000Y-105213641D01*
G04 #@! TO.C,C4*
X145140000Y-109952164D02*
X145140000Y-110167836D01*
X144420000Y-109952164D02*
X144420000Y-110167836D01*
D19*
G04 #@! TO.C,D5*
X142970000Y-103660000D02*
X144970000Y-103660000D01*
X143720000Y-102960000D02*
X144320000Y-103360000D01*
X144320000Y-102560000D02*
X143720000Y-102960000D01*
X144320000Y-103360000D02*
X144320000Y-102560000D01*
X144970000Y-102260000D02*
X142970000Y-102260000D01*
G36*
X144271600Y-103349841D02*
G01*
X143686838Y-102960000D01*
X144271600Y-102570159D01*
X144271600Y-103349841D01*
G37*
G36*
X143720000Y-103460000D02*
G01*
X143520000Y-103460000D01*
X143520000Y-102460000D01*
X143720000Y-102460000D01*
X143720000Y-103460000D01*
G37*
D14*
G04 #@! TO.C,P1*
X142775000Y-125135000D02*
X142775000Y-127420000D01*
X141305000Y-125135000D02*
X142775000Y-125135000D01*
X141305000Y-127420000D02*
X141305000Y-125135000D01*
G04 #@! TO.C,C24*
X145679420Y-121870000D02*
X145960580Y-121870000D01*
X145679420Y-122890000D02*
X145960580Y-122890000D01*
G04 #@! TD*
M02*
