G04 #@! TF.GenerationSoftware,KiCad,Pcbnew,7.0.2*
G04 #@! TF.CreationDate,2023-08-11T05:28:22+05:00*
G04 #@! TF.ProjectId,Adafruit QT Py ESP32-C3,41646166-7275-4697-9420-515420507920,rev?*
G04 #@! TF.SameCoordinates,Original*
G04 #@! TF.FileFunction,Soldermask,Top*
G04 #@! TF.FilePolarity,Negative*
%FSLAX46Y46*%
G04 Gerber Fmt 4.6, Leading zero omitted, Abs format (unit mm)*
G04 Created by KiCad (PCBNEW 7.0.2) date 2023-08-11 05:28:22*
%MOMM*%
%LPD*%
G01*
G04 APERTURE LIST*
G04 Aperture macros list*
%AMRoundRect*
0 Rectangle with rounded corners*
0 $1 Rounding radius*
0 $2 $3 $4 $5 $6 $7 $8 $9 X,Y pos of 4 corners*
0 Add a 4 corners polygon primitive as box body*
4,1,4,$2,$3,$4,$5,$6,$7,$8,$9,$2,$3,0*
0 Add four circle primitives for the rounded corners*
1,1,$1+$1,$2,$3*
1,1,$1+$1,$4,$5*
1,1,$1+$1,$6,$7*
1,1,$1+$1,$8,$9*
0 Add four rect primitives between the rounded corners*
20,1,$1+$1,$2,$3,$4,$5,0*
20,1,$1+$1,$4,$5,$6,$7,0*
20,1,$1+$1,$6,$7,$8,$9,0*
20,1,$1+$1,$8,$9,$2,$3,0*%
G04 Aperture macros list end*
%ADD10O,3.657600X1.879600*%
%ADD11C,1.879600*%
%ADD12RoundRect,0.140000X0.140000X0.170000X-0.140000X0.170000X-0.140000X-0.170000X0.140000X-0.170000X0*%
%ADD13RoundRect,0.050800X0.900000X-0.800000X0.900000X0.800000X-0.900000X0.800000X-0.900000X-0.800000X0*%
%ADD14R,1.360000X1.230000*%
%ADD15RoundRect,0.050800X-0.250000X-0.250000X0.250000X-0.250000X0.250000X0.250000X-0.250000X0.250000X0*%
%ADD16O,0.900000X0.448000*%
%ADD17RoundRect,0.135000X0.135000X0.185000X-0.135000X0.185000X-0.135000X-0.185000X0.135000X-0.185000X0*%
%ADD18R,1.700000X1.700000*%
%ADD19O,1.700000X1.700000*%
%ADD20C,0.650000*%
%ADD21O,1.000000X1.600000*%
%ADD22O,1.000000X2.100000*%
G04 APERTURE END LIST*
D10*
G04 #@! TO.C,J7*
X135950000Y-132000000D03*
D11*
X134680000Y-132000000D03*
G04 #@! TD*
G04 #@! TO.C,J3*
X159428500Y-123000000D03*
D10*
X158158500Y-123000000D03*
G04 #@! TD*
D11*
G04 #@! TO.C,J6*
X159418500Y-114000000D03*
D10*
X158148500Y-114000000D03*
G04 #@! TD*
D11*
G04 #@! TO.C,J5*
X159418500Y-117000000D03*
D10*
X158148500Y-117000000D03*
G04 #@! TD*
D12*
G04 #@! TO.C,C12*
X153330000Y-133750000D03*
X152370000Y-133750000D03*
G04 #@! TD*
D11*
G04 #@! TO.C,J10*
X134680000Y-105000000D03*
D10*
X135950000Y-105000000D03*
G04 #@! TD*
D11*
G04 #@! TO.C,J9*
X134680000Y-102000000D03*
D10*
X135950000Y-102000000D03*
G04 #@! TD*
D13*
G04 #@! TO.C,X1*
X158420000Y-98590000D03*
X158420000Y-95790000D03*
G04 #@! TD*
D11*
G04 #@! TO.C,J16*
X134680000Y-99000000D03*
D10*
X135950000Y-99000000D03*
G04 #@! TD*
D11*
G04 #@! TO.C,J15*
X134680000Y-114000000D03*
D10*
X135950000Y-114000000D03*
G04 #@! TD*
D14*
G04 #@! TO.C,Q1*
X145000000Y-110925000D03*
X145000000Y-115295000D03*
G04 #@! TD*
D15*
G04 #@! TO.C,LED1*
X144350000Y-106630000D03*
X145350000Y-106630000D03*
X145350000Y-105730000D03*
X144350000Y-105730000D03*
G04 #@! TD*
D14*
G04 #@! TO.C,Q2*
X151930000Y-110925000D03*
X151930000Y-115295000D03*
G04 #@! TD*
D12*
G04 #@! TO.C,C5*
X153330000Y-135330000D03*
X152370000Y-135330000D03*
G04 #@! TD*
D16*
G04 #@! TO.C,U3*
X148300000Y-135339000D03*
X148300000Y-134539000D03*
X148300000Y-133739000D03*
X148300000Y-132939000D03*
X151100000Y-132939000D03*
X151100000Y-133739000D03*
X151100000Y-134539000D03*
X151100000Y-135339000D03*
G04 #@! TD*
D17*
G04 #@! TO.C,R22*
X146020000Y-132770000D03*
X147040000Y-132770000D03*
G04 #@! TD*
D11*
G04 #@! TO.C,J12*
X134680000Y-111000000D03*
D10*
X135950000Y-111000000D03*
G04 #@! TD*
D18*
G04 #@! TO.C,BZ1*
X152540000Y-124685000D03*
D19*
X152540000Y-127225000D03*
G04 #@! TD*
D11*
G04 #@! TO.C,J8*
X134680000Y-129000000D03*
D10*
X135950000Y-129000000D03*
G04 #@! TD*
G04 #@! TO.C,J13*
X135950000Y-120000000D03*
D11*
X134680000Y-120000000D03*
G04 #@! TD*
G04 #@! TO.C,J4*
X159209000Y-120000000D03*
D10*
X157939000Y-120000000D03*
G04 #@! TD*
D11*
G04 #@! TO.C,J11*
X134680000Y-108000000D03*
D10*
X135950000Y-108000000D03*
G04 #@! TD*
D19*
G04 #@! TO.C,J17*
X157700000Y-132135000D03*
X157700000Y-129595000D03*
D18*
X157700000Y-127055000D03*
G04 #@! TD*
D17*
G04 #@! TO.C,R23*
X146020000Y-133770000D03*
X147040000Y-133770000D03*
G04 #@! TD*
D11*
G04 #@! TO.C,J14*
X134680000Y-117000000D03*
D10*
X135950000Y-117000000D03*
G04 #@! TD*
D20*
G04 #@! TO.C,USB1*
X145600000Y-99415000D03*
X151380000Y-99415000D03*
D21*
X144170000Y-95765000D03*
D22*
X144170000Y-99945000D03*
D21*
X152810000Y-95765000D03*
D22*
X152810000Y-99945000D03*
G04 #@! TD*
M02*
